<?xml version="1.0" encoding="UTF-8"?>
<svg width="512" height="512" viewBox="0 0 512 512" xmlns="http://www.w3.org/2000/svg">
  <defs>
    <style>
      .radical-text {
        font-family: 'Hiragino Sans', 'Yu Gothic', 'Meiryo', 'MS Gothic', 'SimSun', 'Takao', 'IPAexGothic', 'IPAGothic', 'VL Gothic', 'Noto Sans CJK JP', 'Arial Unicode MS', serif;
        font-size: 200px;
        text-anchor: middle;
        dominant-baseline: middle;
        fill: #721f00;
        font-weight: bold;
      }
      .number-text {
        font-family: 'Helvetica', 'Arial', sans-serif;
        font-size: 20px;
        text-anchor: start;
        dominant-baseline: hanging;
        fill: #721f00;
        opacity: 0.7;
        font-weight: normal;
      }
      .meaning-text {
        font-family: 'Helvetica', 'Arial', sans-serif;
        font-size: 20px;
        text-anchor: middle;
        dominant-baseline: baseline;
        fill: #721f00;
        opacity: 0.8;
        font-weight: normal;
      }
    </style>
  </defs>
  
  <!-- Background Fill -->
  <rect width="512" height="512" fill="#fffdfc"/>
  
  <!-- Background Pattern -->
  <g opacity="0.6">
    <path d="M 50,512 L 54.79425538604203,472 L 58.414709848078964,432 L 59.97494986604055,392 L 59.09297426825682,352 L 55.98472144103957,312 L 51.411200080598675,272 L 46.492167723103805,232 L 42.43197504692072,192 L 40.22469882334903,152" stroke="#FF4500" stroke-width="4" fill="none" opacity="0.7"/>
    <path d="M 140,512 L 144.79425538604204,472 L 148.41470984807896,432 L 149.97494986604053,392 L 149.09297426825682,352 L 145.98472144103957,312 L 141.41120008059866,272 L 136.4921677231038,232 L 132.4319750469207,192 L 130.22469882334903,152" stroke="#FF4500" stroke-width="4" fill="none" opacity="0.7"/>
    <path d="M 230,512 L 234.79425538604204,472 L 238.41470984807896,432 L 239.97494986604053,392 L 239.09297426825682,352 L 235.98472144103957,312 L 231.41120008059866,272 L 226.4921677231038,232 L 222.4319750469207,192 L 220.22469882334903,152" stroke="#FF4500" stroke-width="4" fill="none" opacity="0.7"/>
    <path d="M 320,512 L 324.79425538604204,472 L 328.414709848079,432 L 329.97494986604056,392 L 329.0929742682568,352 L 325.98472144103954,312 L 321.4112000805987,272 L 316.4921677231038,232 L 312.43197504692074,192 L 310.22469882334906,152" stroke="#FF4500" stroke-width="4" fill="none" opacity="0.7"/>
    <path d="M 410,512 L 414.79425538604204,472 L 418.414709848079,432 L 419.97494986604056,392 L 419.0929742682568,352 L 415.98472144103954,312 L 411.4112000805987,272 L 406.4921677231038,232 L 402.43197504692074,192 L 400.22469882334906,152" stroke="#FF4500" stroke-width="4" fill="none" opacity="0.7"/>
    <path d="M 500,512 L 504.79425538604204,472 L 508.414709848079,432 L 509.97494986604056,392 L 509.0929742682568,352 L 505.98472144103954,312 L 501.4112000805987,272 L 496.4921677231038,232 L 492.43197504692074,192 L 490.22469882334906,152" stroke="#FF4500" stroke-width="4" fill="none" opacity="0.7"/>
  </g>
  
  <!-- Radical Character -->
  <text x="256" y="256" class="radical-text">火</text>
  
  <!-- Number in top-left corner -->
  <text x="20" y="20" class="number-text">#86</text>
  
  <!-- Meaning at bottom -->
  <text x="256" y="480" class="meaning-text">fire</text>
</svg>