<?xml version="1.0" encoding="UTF-8"?>
<svg width="512" height="512" viewBox="0 0 512 512" xmlns="http://www.w3.org/2000/svg">
  <defs>
    <style>
      .radical-text {
        font-family: 'Hiragino Sans', 'Yu Gothic', 'Meiryo', 'MS Gothic', 'SimSun', 'Takao', 'IPAexGothic', 'IPAGothic', 'VL Gothic', 'Noto Sans CJK JP', 'Arial Unicode MS', serif;
        font-size: 200px;
        text-anchor: middle;
        dominant-baseline: middle;
        fill: #1d2f65;
        font-weight: bold;
      }
      .number-text {
        font-family: 'Helvetica', 'Arial', sans-serif;
        font-size: 20px;
        text-anchor: start;
        dominant-baseline: hanging;
        fill: #1d2f65;
        opacity: 0.7;
        font-weight: normal;
      }
      .meaning-text {
        font-family: 'Helvetica', 'Arial', sans-serif;
        font-size: 20px;
        text-anchor: middle;
        dominant-baseline: baseline;
        fill: #1d2f65;
        opacity: 0.8;
        font-weight: normal;
      }
    </style>
  </defs>
  
  <!-- Background Fill -->
  <rect width="512" height="512" fill="#fdfdfe"/>
  
  <!-- Background Pattern -->
  <g opacity="0.6">
    <path d="M 0,40 L 10,64.33065217523915 L 25,63.89141935119497 L 40,61.31803719115718 L 55,56.84037825930342 L 70,50.858418492423056 L 85,43.90650854071257 L 100,36.60564181562402 L 115,29.607982997894396 L 130,23.538612108925648 L 145,18.93968797411813 L 160,16.222018789682817 L 175,15.628365849963782 L 190,17.21175840401854 L 205,20.83075671073416 L 220,26.162086429657855 L 235,32.72951575503732 L 250,39.94639578469082 L 265,47.16806411925103 L 280,53.74943063433424 L 295,59.10260146011081 L 310,62.749393789801616 L 325,64.36405052565908 L 340,63.80233919032244 L 355,61.11443578445983 L 370,56.54044271406538 L 385,50.488941157617056 L 400,43.50049372626048 L 415,36.19935761568674 L 430,29.23772157003596 L 445,23.237447803765047 L 460,18.73452290209242 L 475,16.131179735642945 L 490,15.659967196065598 L 505,17.362977296131504 L 520,21.08808521559369 L 512,50 L 0,50 Z" fill="#4169E1" opacity="0.7"/>
    <path d="M 0,90 L 10,83.28295681060636 L 25,88.08337913517512 L 40,93.05500749342026 L 55,97.75374113085796 L 70,101.75985616566501 L 85,104.71549827299911 L 100,106.35664874605675 L 115,106.5367085008381 L 130,105.23959333571172 L 145,102.58117068524353 L 160,98.79890952734938 L 175,94.23066798674006 L 190,89.28451347486734 L 205,84.40227124338611 L 220,80.02005745029072 L 235,76.52932220238486 L 250,74.2418824830775 L 265,73.36206846992422 L 280,73.96847132841289 L 295,76.00692289721471 L 310,79.29533436870952 L 325,83.53996173986413 L 340,88.36164508917986 L 355,93.32967780324668 L 370,98.0002803157664 L 385,101.9562416145233 L 400,104.84418745854589 L 415,106.40614624661586 L 430,106.50259285210058 L 445,105.12491198697433 L 460,102.39616777983912 L 475,98.56011082383257 L 490,93.9594046620935 L 505,89.00501667399142 L 520,84.13950758309132 L 512,100 L 0,100 Z" fill="#4169E1" opacity="0.7"/>
    <path d="M 0,140 L 10,118.35497177607118 L 25,125.99432571197285 L 40,134.88476481960757 L 55,144.23213265145134 L 70,153.2014566778952 L 85,160.99153389655703 L 100,166.90649991030065 L 115,170.4179884213731 L 130,171.2123286191752 L 145,169.2185644595819 L 160,164.61479295703919 L 175,157.81225530868107 L 190,149.41860194296945 L 205,140.18361291665508 L 220,130.93222229534123 L 235,122.49082925026468 L 250,115.61347828155291 L 265,110.91450266876217 L 280,108.81364790865325 L 295,109.49857710007342 L 310,112.90810755824427 L 325,118.7376760817757 L 340,126.46654467638014 L 355,135.4043165290138 L 370,144.75260709901076 L 385,153.67636143131094 L 400,161.37844712859217 L 415,167.17085981426234 L 430,170.53618051437059 L 445,171.17379515354676 L 460,169.02674751504978 L 475,164.2868269699794 L 490,157.3774365039526 L 505,148.91577138939905 L 520,139.65768697003742 L 512,150 L 0,150 Z" fill="#4169E1" opacity="0.7"/>
    <path d="M 0,190 L 10,205.94594063168196 L 25,211.57834142376296 L 40,215.2832132421807 L 55,216.72961092143493 L 70,215.7883320645735 L 85,212.54345830851491 L 100,207.28484456183875 L 115,200.4822271290628 L 130,192.74326356555332 L 145,184.759252437861 L 160,177.24338168163177 L 175,170.8670216473684 L 190,166.19975358652968 L 205,163.6584906546935 L 220,163.4702363010414 L 235,165.6518067263164 L 250,170.00832874169345 L 265,176.15064721035583 L 280,183.53008711686545 L 295,191.48746507219954 L 310,199.3119722026787 L 325,206.3046685896851 L 340,211.84091749097388 L 355,215.426182280533 L 370,216.74020193253025 L 385,215.66559898493344 L 400,212.29836451861377 L 415,206.93928355997747 L 430,200.06706685037028 L 445,192.29558904127347 L 460,184.31905309996054 L 475,176.84997922594115 L 490,170.55555754360316 L 505,165.9980499954608 L 520,163.5845651573872 L 512,200 L 0,200 Z" fill="#4169E1" opacity="0.7"/>
    <path d="M 0,240 L 10,212.9960641809027 L 25,216.72341930915977 L 40,222.53000206702492 L 55,229.89712771020024 L 70,238.16671284613173 L 85,246.6000600635286 L 100,254.4438435720873 L 115,260.9974015517461 L 130,265.675324186324 L 145,268.059746578903 L 160,267.93767537856286 L 175,265.3200148420712 L 190,260.44059278910225 L 205,253.73527345950308 L 220,245.80302305886127 L 235,237.35240589123188 L 250,229.13829042013833 L 265,221.89441911691412 L 280,216.26786543100778 L 295,212.76123264589097 L 310,211.68775782462484 L 325,213.1433312759154 L 340,216.99793095842224 L 355,222.90723696247323 L 370,230.34338858212425 L 385,238.64213653991942 L 400,247.06217839654514 L 415,254.85137688994885 L 430,261.3139461169046 L 445,265.87260401552317 L 460,268.12013925254934 L 475,267.85578619898405 L 490,265.1031587257925 L 505,260.1081408471389 L 520,253.31692263370513 L 512,250 L 0,250 Z" fill="#4169E1" opacity="0.7"/>
    <path d="M 0,290 L 10,314.96456304128253 L 25,314.30584865722716 L 40,311.4759652015449 L 55,306.72769773522805 L 70,300.48519484950936 L 85,293.3060807354282 L 100,285.83164427559024 L 115,278.7295546182033 L 130,272.63422028055464 L 145,268.09011932558957 L 160,265.5031627581409 L 175,265.10443570377225 L 190,266.92955526274113 L 205,270.8154889405093 L 220,276.4151178549285 L 235,283.2282438321752 L 250,290.6462706199027 L 265,298.00656797791055 L 280,304.6516624640224 L 295,309.9879675785546 L 310,313.5388070784833 L 325,314.9869950465717 L 340,314.2031691646981 L 355,311.25734626446 L 370,306.4126679321349 L 385,300.1018948544804 L 400,292.88874959545575 L 415,285.417560938491 L 430,278.3557079152362 L 445,272.3340048242863 L 460,267.89035246861135 L 475,265.4216890788308 L 490,265.148533003254 L 505,267.0952844605848 L 520,271.0880459410548 L 512,300 L 0,300 Z" fill="#4169E1" opacity="0.7"/>
    <path d="M 0,340 L 10,353.82534219254256 L 25,346.33757242190694 L 40,338.28368618170515 L 55,330.3831131432779 L 70,323.34158796625667 L 85,317.78810912327395 L 100,314.2187523397182 L 115,312.9523576266234 L 130,314.1020482520686 L 145,317.5651257765503 L 160,323.0322437987215 L 175,330.01504094811236 L 190,337.889764751892 L 205,345.95298958557436 L 220,353.4844515890759 L 235,359.81138769220956 L 250,364.3686315360875 L 265,366.7490981007532 L 280,366.7401473976124 L 295,364.34257896631937 L 310,359.7705604542803 L 325,353.432496658556 L 340,345.89454794167233 L 355,337.8300568126036 L 370,329.9594002458291 L 385,322.98564055166634 L 400,317.5317229139865 L 415,314.08482955222684 L 430,312.9528611846789 L 445,314.2369331743297 L 460,317.8223431946326 L 475,323.3888172467257 L 490,330.4391187818936 L 505,338.3434653615689 L 520,346.395785246919 L 512,350 L 0,350 Z" fill="#4169E1" opacity="0.7"/>
    <path d="M 0,390 L 10,367.4024017367221 L 25,366.34341890480454 L 40,367.39760800687947 L 55,370.47080147009854 L 70,375.2884800751345 L 85,381.42029494045664 L 100,388.3185093062308 L 115,395.3669262277777 L 130,401.9359316134517 L 145,407.4387357762989 L 160,411.38378960918527 L 175,413.41869320258047 L 190,413.3616746789405 L 205,411.2178273331668 L 220,407.1786546637412 L 235,401.6049639355527 L 250,394.9946363414992 L 265,387.93815275834123 L 280,381.06584784858165 L 295,374.9916041423588 L 310,370.25801573932597 L 325,367.2879199937105 L 340,366.34662671277704 L 355,367.5182188219036 L 370,370.69804148727746 L 385,375.6020506205115 L 400,381.79218569110503 L 415,388.71550036897924 L 430,395.75355557332995 L 445,402.27766279384895 L 460,407.7050429629576 L 475,411.5508843742508 L 490,413.4716494683397 L 505,413.29576201989033 L 520,411.0389335308356 L 512,400 L 0,400 Z" fill="#4169E1" opacity="0.7"/>
    <path d="M 0,440 L 10,458.55906218269274 L 25,458.8899130822495 L 40,457.5333843050755 L 55,454.6106505267522 L 70,450.3827908510617 L 85,445.2274673912053 L 100,439.60518983800364 L 115,434.0181795007293 L 130,428.9655073732906 L 145,424.8985136087049 L 160,422.1804906474333 L 175,421.0542313856513 L 190,421.62034120893065 L 205,423.82825121277517 L 220,427.48073537225207 L 235,432.25152815541065 L 250,437.7144688515507 L 265,443.3815692382958 L 280,448.74660411614667 L 295,453.3303308978865 L 310,456.7232989215922 L 325,458.62242445881736 L 340,458.8580642813946 L 355,457.40916938576765 L 370,454.4051652377899 L 385,450.11439058132123 L 400,444.92012753741915 L 415,439.2863641539752 L 430,433.7163477352698 L 445,428.7076312590778 L 460,424.7076284510015 L 475,422.07364764887313 L 490,421.04097451309025 L 505,421.70185465931246 L 520,423.9972536323447 L 512,450 L 0,450 Z" fill="#4169E1" opacity="0.7"/>
    <path d="M 0,490 L 10,502.4514837517157 L 25,494.5873882150082 L 40,486.3135149514485 L 55,478.3689444179974 L 70,471.46334143948116 L 85,466.2135629633503 L 100,463.08855606571836 L 115,462.3674683056953 L 130,464.11471230530344 L 145,468.1742119617894 L 160,474.18334426104906 L 175,481.60533131149504 L 190,489.77718911445305 L 205,497.96894995023007 L 220,505.44886822048795 L 235,511.54878510322015 L 250,515.723813190377 L 265,517.6010096572153 L 280,517.012690134115 L 295,514.0114074519114 L 310,508.86525725403186 L 325,502.03392981112495 L 340,494.1276472582563 L 355,485.85265426897803 L 370,477.94813132201455 L 385,471.12016591056295 L 400,465.97867984943207 L 415,462.9829467758255 L 430,462.400566603163 L 445,464.2835616177939 L 460,468.4637294830936 L 475,474.5676682532447 L 490,482.05013125697275 L 505,490.2427323588091 L 520,498.41365090195114 L 512,500 L 0,500 Z" fill="#4169E1" opacity="0.7"/>
    <path d="M 0,540 L 10,540.2036922836003 L 25,548.6988510711833 L 40,556.4169673999412 L 55,562.6686049247155 L 70,566.895323484365 L 85,568.7195628981859 L 100,567.978369292385 L 115,564.7379512843074 L 130,559.2877657638362 L 145,552.1146615714932 L 160,543.8593907414743 L 175,535.2593720307545 L 190,527.0828194977465 L 205,520.0601202283963 L 220,514.8185910330724 L 235,511.8264421042023 L 250,511.3509531942309 L 265,513.4345983113604 L 280,517.8912516428965 L 295,524.322813619766 L 310,532.1547719653823 L 325,540.6875211662712 L 340,549.1588561489879 L 355,556.8120577892898 L 370,562.9634883778061 L 385,567.06365894057 L 400,568.7463134525478 L 415,567.8611453975524 L 430,564.4872242016837 L 445,558.9259321969837 L 460,551.6740430353077 L 475,543.3793463775206 L 490,534.7827827723719 L 505,526.6522576439836 L 520,519.7140465873285 L 512,550 L 0,550 Z" fill="#4169E1" opacity="0.7"/>
  </g>
  
  <!-- Radical Character -->
  <text x="256" y="256" class="radical-text">示</text>
  
  <!-- Number in top-left corner -->
  <text x="20" y="20" class="number-text">#113</text>
  
  <!-- Meaning at bottom -->
  <text x="256" y="480" class="meaning-text">altar, festival, religious service</text>
</svg>