<?xml version="1.0" encoding="UTF-8"?>
<svg width="512" height="512" viewBox="0 0 512 512" xmlns="http://www.w3.org/2000/svg">
  <defs>
    <style>
      .radical-text {
        font-family: 'Hiragino Sans', 'Yu Gothic', 'Meiryo', 'Takao', 'IPAexGothic', 'IPAGothic', 'VL Gothic', 'Noto Sans CJK JP', serif;
        font-size: 200px;
        text-anchor: middle;
        dominant-baseline: middle;
        fill: #4b4b4b;
        font-weight: bold;
      }
      .number-text {
        font-family: 'Helvetica', 'Arial', sans-serif;
        font-size: 20px;
        text-anchor: start;
        dominant-baseline: hanging;
        fill: #4b4b4b;
        opacity: 0.7;
        font-weight: normal;
      }
      .meaning-text {
        font-family: 'Helvetica', 'Arial', sans-serif;
        font-size: 20px;
        text-anchor: middle;
        dominant-baseline: baseline;
        fill: #4b4b4b;
        opacity: 0.8;
        font-weight: normal;
      }
    </style>
  </defs>
  
  <!-- Background Fill -->
  <rect width="512" height="512" fill="#FAFAFA"/>
  
  <!-- Background Pattern -->
  <g opacity="0.6">
    <line x1="0" y1="0" x2="150" y2="512" stroke="#afafaf" stroke-width="4" opacity="0.4"/>
    <line x1="40" y1="0" x2="190" y2="512" stroke="#afafaf" stroke-width="4" opacity="0.4"/>
    <line x1="80" y1="0" x2="230" y2="512" stroke="#afafaf" stroke-width="4" opacity="0.4"/>
    <line x1="120" y1="0" x2="270" y2="512" stroke="#afafaf" stroke-width="4" opacity="0.4"/>
    <line x1="160" y1="0" x2="310" y2="512" stroke="#afafaf" stroke-width="4" opacity="0.4"/>
    <line x1="200" y1="0" x2="350" y2="512" stroke="#afafaf" stroke-width="4" opacity="0.4"/>
    <line x1="240" y1="0" x2="390" y2="512" stroke="#afafaf" stroke-width="4" opacity="0.4"/>
    <line x1="280" y1="0" x2="430" y2="512" stroke="#afafaf" stroke-width="4" opacity="0.4"/>
    <line x1="320" y1="0" x2="470" y2="512" stroke="#afafaf" stroke-width="4" opacity="0.4"/>
    <line x1="360" y1="0" x2="510" y2="512" stroke="#afafaf" stroke-width="4" opacity="0.4"/>
    <line x1="400" y1="0" x2="550" y2="512" stroke="#afafaf" stroke-width="4" opacity="0.4"/>
    <line x1="440" y1="0" x2="590" y2="512" stroke="#afafaf" stroke-width="4" opacity="0.4"/>
    <line x1="480" y1="0" x2="630" y2="512" stroke="#afafaf" stroke-width="4" opacity="0.4"/>
    <line x1="0" y1="0" x2="512" y2="150" stroke="#afafaf" stroke-width="2" opacity="0.3"/>
    <line x1="0" y1="40" x2="512" y2="190" stroke="#afafaf" stroke-width="2" opacity="0.3"/>
    <line x1="0" y1="80" x2="512" y2="230" stroke="#afafaf" stroke-width="2" opacity="0.3"/>
    <line x1="0" y1="120" x2="512" y2="270" stroke="#afafaf" stroke-width="2" opacity="0.3"/>
    <line x1="0" y1="160" x2="512" y2="310" stroke="#afafaf" stroke-width="2" opacity="0.3"/>
    <line x1="0" y1="200" x2="512" y2="350" stroke="#afafaf" stroke-width="2" opacity="0.3"/>
    <line x1="0" y1="240" x2="512" y2="390" stroke="#afafaf" stroke-width="2" opacity="0.3"/>
    <line x1="0" y1="280" x2="512" y2="430" stroke="#afafaf" stroke-width="2" opacity="0.3"/>
    <line x1="0" y1="320" x2="512" y2="470" stroke="#afafaf" stroke-width="2" opacity="0.3"/>
    <line x1="0" y1="360" x2="512" y2="510" stroke="#afafaf" stroke-width="2" opacity="0.3"/>
    <line x1="0" y1="400" x2="512" y2="550" stroke="#afafaf" stroke-width="2" opacity="0.3"/>
    <line x1="0" y1="440" x2="512" y2="590" stroke="#afafaf" stroke-width="2" opacity="0.3"/>
    <line x1="0" y1="480" x2="512" y2="630" stroke="#afafaf" stroke-width="2" opacity="0.3"/>
  </g>
  
  <!-- Radical Character -->
  <text x="256" y="256" class="radical-text">至</text>
  
  <!-- Number in top-left corner -->
  <text x="20" y="20" class="number-text">#133</text>
  
  <!-- Meaning at bottom -->
  <text x="256" y="480" class="meaning-text">to arrive, reach</text>
</svg>