<?xml version="1.0" encoding="UTF-8"?>
<svg width="512" height="512" viewBox="0 0 512 512" xmlns="http://www.w3.org/2000/svg">
  <defs>
    <style>
      .radical-text {
        font-family: 'Hiragino Sans', 'Yu Gothic', 'Meiryo', 'Takao', 'IPAexGothic', 'IPAGothic', 'VL Gothic', 'Noto Sans CJK JP', serif;
        font-size: 200px;
        text-anchor: middle;
        dominant-baseline: middle;
        fill: #2c2c2c;
        font-weight: normal;
      }
    </style>
  </defs>
  
  <!-- Background -->
  <rect width="512" height="512" fill="white"/>
  
  <!-- Background Pattern -->
  <g opacity="1.0">
    <circle cx="0" cy="0" r="8" fill="#ffffeb" opacity="0.4"/>
    <circle cx="73" cy="97" r="11" fill="#ffffeb" opacity="0.4"/>
    <circle cx="146" cy="194" r="14" fill="#ffffeb" opacity="0.4"/>
    <circle cx="219" cy="291" r="17" fill="#ffffeb" opacity="0.4"/>
    <circle cx="292" cy="388" r="8" fill="#ffffeb" opacity="0.4"/>
    <circle cx="365" cy="485" r="11" fill="#ffffeb" opacity="0.4"/>
    <circle cx="438" cy="70" r="14" fill="#ffffeb" opacity="0.4"/>
    <circle cx="511" cy="167" r="17" fill="#ffffeb" opacity="0.4"/>
    <circle cx="72" cy="264" r="8" fill="#ffffeb" opacity="0.4"/>
    <circle cx="145" cy="361" r="11" fill="#ffffeb" opacity="0.4"/>
    <circle cx="218" cy="458" r="14" fill="#ffffeb" opacity="0.4"/>
    <circle cx="291" cy="43" r="17" fill="#ffffeb" opacity="0.4"/>
    <circle cx="364" cy="140" r="8" fill="#ffffeb" opacity="0.4"/>
    <circle cx="437" cy="237" r="11" fill="#ffffeb" opacity="0.4"/>
    <circle cx="510" cy="334" r="14" fill="#ffffeb" opacity="0.4"/>
    <circle cx="71" cy="431" r="17" fill="#ffffeb" opacity="0.4"/>
    <circle cx="144" cy="16" r="8" fill="#ffffeb" opacity="0.4"/>
    <circle cx="217" cy="113" r="11" fill="#ffffeb" opacity="0.4"/>
    <circle cx="290" cy="210" r="14" fill="#ffffeb" opacity="0.4"/>
    <circle cx="363" cy="307" r="17" fill="#ffffeb" opacity="0.4"/>
  </g>
  
  <!-- Radical Character -->
  <text x="256" y="256" class="radical-text">犬</text>
</svg>