<?xml version="1.0" encoding="UTF-8"?>
<svg width="512" height="512" viewBox="0 0 512 512" xmlns="http://www.w3.org/2000/svg">
  <defs>
    <style>
      .radical-text {
        font-family: 'Hiragino Sans', 'Yu Gothic', 'Meiryo', 'MS Gothic', 'SimSun', 'Takao', 'IPAexGothic', 'IPAGothic', 'VL Gothic', 'Noto Sans CJK JP', 'Arial Unicode MS', serif;
        font-size: 200px;
        text-anchor: middle;
        dominant-baseline: middle;
        fill: #634863;
        font-weight: bold;
      }
      .number-text {
        font-family: 'Helvetica', 'Arial', sans-serif;
        font-size: 20px;
        text-anchor: start;
        dominant-baseline: hanging;
        fill: #634863;
        opacity: 0.7;
        font-weight: normal;
      }
      .meaning-text {
        font-family: 'Helvetica', 'Arial', sans-serif;
        font-size: 20px;
        text-anchor: middle;
        dominant-baseline: baseline;
        fill: #634863;
        opacity: 0.8;
        font-weight: normal;
      }
    </style>
  </defs>
  
  <!-- Background Fill -->
  <rect width="512" height="512" fill="#fefefe"/>
  
  <!-- Background Pattern -->
  <g opacity="0.6">
    <rect x="10" y="10" width="50" height="50" fill="#DDA0DD" opacity="0.6" transform="rotate(15 35.0 35.0)"/>
    <rect x="10" y="90" width="50" height="50" fill="none" stroke="#DDA0DD" stroke-width="2" opacity="0.7" transform="rotate(15 35.0 115.0)"/>
    <rect x="10" y="170" width="50" height="50" fill="none" stroke="#DDA0DD" stroke-width="2" opacity="0.6" transform="rotate(15 35.0 195.0)"/>
    <rect x="20.0" y="180.0" width="30.0" height="30.0" fill="#DDA0DD" opacity="0.5" transform="rotate(15 35.0 195.0)"/>
    <rect x="10" y="250" width="50" height="50" fill="#DDA0DD" opacity="0.6" transform="rotate(15 35.0 275.0)"/>
    <rect x="10" y="330" width="50" height="50" fill="none" stroke="#DDA0DD" stroke-width="2" opacity="0.7" transform="rotate(15 35.0 355.0)"/>
    <rect x="10" y="410" width="50" height="50" fill="none" stroke="#DDA0DD" stroke-width="2" opacity="0.6" transform="rotate(15 35.0 435.0)"/>
    <rect x="20.0" y="420.0" width="30.0" height="30.0" fill="#DDA0DD" opacity="0.5" transform="rotate(15 35.0 435.0)"/>
    <rect x="10" y="490" width="50" height="50" fill="#DDA0DD" opacity="0.6" transform="rotate(15 35.0 515.0)"/>
    <rect x="90" y="10" width="50" height="50" fill="none" stroke="#DDA0DD" stroke-width="2" opacity="0.7" transform="rotate(15 115.0 35.0)"/>
    <rect x="90" y="90" width="50" height="50" fill="none" stroke="#DDA0DD" stroke-width="2" opacity="0.6" transform="rotate(15 115.0 115.0)"/>
    <rect x="100.0" y="100.0" width="30.0" height="30.0" fill="#DDA0DD" opacity="0.5" transform="rotate(15 115.0 115.0)"/>
    <rect x="90" y="170" width="50" height="50" fill="#DDA0DD" opacity="0.6" transform="rotate(15 115.0 195.0)"/>
    <rect x="90" y="250" width="50" height="50" fill="none" stroke="#DDA0DD" stroke-width="2" opacity="0.7" transform="rotate(15 115.0 275.0)"/>
    <rect x="90" y="330" width="50" height="50" fill="none" stroke="#DDA0DD" stroke-width="2" opacity="0.6" transform="rotate(15 115.0 355.0)"/>
    <rect x="100.0" y="340.0" width="30.0" height="30.0" fill="#DDA0DD" opacity="0.5" transform="rotate(15 115.0 355.0)"/>
    <rect x="90" y="410" width="50" height="50" fill="#DDA0DD" opacity="0.6" transform="rotate(15 115.0 435.0)"/>
    <rect x="90" y="490" width="50" height="50" fill="none" stroke="#DDA0DD" stroke-width="2" opacity="0.7" transform="rotate(15 115.0 515.0)"/>
    <rect x="170" y="10" width="50" height="50" fill="none" stroke="#DDA0DD" stroke-width="2" opacity="0.6" transform="rotate(15 195.0 35.0)"/>
    <rect x="180.0" y="20.0" width="30.0" height="30.0" fill="#DDA0DD" opacity="0.5" transform="rotate(15 195.0 35.0)"/>
    <rect x="170" y="90" width="50" height="50" fill="#DDA0DD" opacity="0.6" transform="rotate(15 195.0 115.0)"/>
    <rect x="170" y="170" width="50" height="50" fill="none" stroke="#DDA0DD" stroke-width="2" opacity="0.7" transform="rotate(15 195.0 195.0)"/>
    <rect x="170" y="250" width="50" height="50" fill="none" stroke="#DDA0DD" stroke-width="2" opacity="0.6" transform="rotate(15 195.0 275.0)"/>
    <rect x="180.0" y="260.0" width="30.0" height="30.0" fill="#DDA0DD" opacity="0.5" transform="rotate(15 195.0 275.0)"/>
    <rect x="170" y="330" width="50" height="50" fill="#DDA0DD" opacity="0.6" transform="rotate(15 195.0 355.0)"/>
    <rect x="170" y="410" width="50" height="50" fill="none" stroke="#DDA0DD" stroke-width="2" opacity="0.7" transform="rotate(15 195.0 435.0)"/>
    <rect x="170" y="490" width="50" height="50" fill="none" stroke="#DDA0DD" stroke-width="2" opacity="0.6" transform="rotate(15 195.0 515.0)"/>
    <rect x="180.0" y="500.0" width="30.0" height="30.0" fill="#DDA0DD" opacity="0.5" transform="rotate(15 195.0 515.0)"/>
    <rect x="250" y="10" width="50" height="50" fill="#DDA0DD" opacity="0.6" transform="rotate(15 275.0 35.0)"/>
    <rect x="250" y="90" width="50" height="50" fill="none" stroke="#DDA0DD" stroke-width="2" opacity="0.7" transform="rotate(15 275.0 115.0)"/>
    <rect x="250" y="170" width="50" height="50" fill="none" stroke="#DDA0DD" stroke-width="2" opacity="0.6" transform="rotate(15 275.0 195.0)"/>
    <rect x="260.0" y="180.0" width="30.0" height="30.0" fill="#DDA0DD" opacity="0.5" transform="rotate(15 275.0 195.0)"/>
    <rect x="250" y="250" width="50" height="50" fill="#DDA0DD" opacity="0.6" transform="rotate(15 275.0 275.0)"/>
    <rect x="250" y="330" width="50" height="50" fill="none" stroke="#DDA0DD" stroke-width="2" opacity="0.7" transform="rotate(15 275.0 355.0)"/>
    <rect x="250" y="410" width="50" height="50" fill="none" stroke="#DDA0DD" stroke-width="2" opacity="0.6" transform="rotate(15 275.0 435.0)"/>
    <rect x="260.0" y="420.0" width="30.0" height="30.0" fill="#DDA0DD" opacity="0.5" transform="rotate(15 275.0 435.0)"/>
    <rect x="250" y="490" width="50" height="50" fill="#DDA0DD" opacity="0.6" transform="rotate(15 275.0 515.0)"/>
    <rect x="330" y="10" width="50" height="50" fill="none" stroke="#DDA0DD" stroke-width="2" opacity="0.7" transform="rotate(15 355.0 35.0)"/>
    <rect x="330" y="90" width="50" height="50" fill="none" stroke="#DDA0DD" stroke-width="2" opacity="0.6" transform="rotate(15 355.0 115.0)"/>
    <rect x="340.0" y="100.0" width="30.0" height="30.0" fill="#DDA0DD" opacity="0.5" transform="rotate(15 355.0 115.0)"/>
    <rect x="330" y="170" width="50" height="50" fill="#DDA0DD" opacity="0.6" transform="rotate(15 355.0 195.0)"/>
    <rect x="330" y="250" width="50" height="50" fill="none" stroke="#DDA0DD" stroke-width="2" opacity="0.7" transform="rotate(15 355.0 275.0)"/>
    <rect x="330" y="330" width="50" height="50" fill="none" stroke="#DDA0DD" stroke-width="2" opacity="0.6" transform="rotate(15 355.0 355.0)"/>
    <rect x="340.0" y="340.0" width="30.0" height="30.0" fill="#DDA0DD" opacity="0.5" transform="rotate(15 355.0 355.0)"/>
    <rect x="330" y="410" width="50" height="50" fill="#DDA0DD" opacity="0.6" transform="rotate(15 355.0 435.0)"/>
    <rect x="330" y="490" width="50" height="50" fill="none" stroke="#DDA0DD" stroke-width="2" opacity="0.7" transform="rotate(15 355.0 515.0)"/>
    <rect x="410" y="10" width="50" height="50" fill="none" stroke="#DDA0DD" stroke-width="2" opacity="0.6" transform="rotate(15 435.0 35.0)"/>
    <rect x="420.0" y="20.0" width="30.0" height="30.0" fill="#DDA0DD" opacity="0.5" transform="rotate(15 435.0 35.0)"/>
    <rect x="410" y="90" width="50" height="50" fill="#DDA0DD" opacity="0.6" transform="rotate(15 435.0 115.0)"/>
    <rect x="410" y="170" width="50" height="50" fill="none" stroke="#DDA0DD" stroke-width="2" opacity="0.7" transform="rotate(15 435.0 195.0)"/>
    <rect x="410" y="250" width="50" height="50" fill="none" stroke="#DDA0DD" stroke-width="2" opacity="0.6" transform="rotate(15 435.0 275.0)"/>
    <rect x="420.0" y="260.0" width="30.0" height="30.0" fill="#DDA0DD" opacity="0.5" transform="rotate(15 435.0 275.0)"/>
    <rect x="410" y="330" width="50" height="50" fill="#DDA0DD" opacity="0.6" transform="rotate(15 435.0 355.0)"/>
    <rect x="410" y="410" width="50" height="50" fill="none" stroke="#DDA0DD" stroke-width="2" opacity="0.7" transform="rotate(15 435.0 435.0)"/>
    <rect x="410" y="490" width="50" height="50" fill="none" stroke="#DDA0DD" stroke-width="2" opacity="0.6" transform="rotate(15 435.0 515.0)"/>
    <rect x="420.0" y="500.0" width="30.0" height="30.0" fill="#DDA0DD" opacity="0.5" transform="rotate(15 435.0 515.0)"/>
    <rect x="490" y="10" width="50" height="50" fill="#DDA0DD" opacity="0.6" transform="rotate(15 515.0 35.0)"/>
    <rect x="490" y="90" width="50" height="50" fill="none" stroke="#DDA0DD" stroke-width="2" opacity="0.7" transform="rotate(15 515.0 115.0)"/>
    <rect x="490" y="170" width="50" height="50" fill="none" stroke="#DDA0DD" stroke-width="2" opacity="0.6" transform="rotate(15 515.0 195.0)"/>
    <rect x="500.0" y="180.0" width="30.0" height="30.0" fill="#DDA0DD" opacity="0.5" transform="rotate(15 515.0 195.0)"/>
    <rect x="490" y="250" width="50" height="50" fill="#DDA0DD" opacity="0.6" transform="rotate(15 515.0 275.0)"/>
    <rect x="490" y="330" width="50" height="50" fill="none" stroke="#DDA0DD" stroke-width="2" opacity="0.7" transform="rotate(15 515.0 355.0)"/>
    <rect x="490" y="410" width="50" height="50" fill="none" stroke="#DDA0DD" stroke-width="2" opacity="0.6" transform="rotate(15 515.0 435.0)"/>
    <rect x="500.0" y="420.0" width="30.0" height="30.0" fill="#DDA0DD" opacity="0.5" transform="rotate(15 515.0 435.0)"/>
    <rect x="490" y="490" width="50" height="50" fill="#DDA0DD" opacity="0.6" transform="rotate(15 515.0 515.0)"/>
  </g>
  
  <!-- Radical Character -->
  <text x="256" y="256" class="radical-text">鬲</text>
  
  <!-- Number in top-left corner -->
  <text x="20" y="20" class="number-text">#193</text>
  
  <!-- Meaning at bottom -->
  <text x="256" y="480" class="meaning-text">tripod, cauldron</text>
</svg>