<?xml version="1.0" encoding="UTF-8"?>
<svg width="512" height="512" viewBox="0 0 512 512" xmlns="http://www.w3.org/2000/svg">
  <defs>
    <style>
      .radical-text {
        font-family: 'Hiragino Sans', 'Yu Gothic', 'Meiryo', 'MS Gothic', 'SimSun', 'Takao', 'IPAexGothic', 'IPAGothic', 'VL Gothic', 'Noto Sans CJK JP', 'Arial Unicode MS', serif;
        font-size: 200px;
        text-anchor: middle;
        dominant-baseline: middle;
        fill: #1d2f65;
        font-weight: bold;
      }
      .number-text {
        font-family: 'Helvetica', 'Arial', sans-serif;
        font-size: 20px;
        text-anchor: start;
        dominant-baseline: hanging;
        fill: #1d2f65;
        opacity: 0.7;
        font-weight: normal;
      }
      .meaning-text {
        font-family: 'Helvetica', 'Arial', sans-serif;
        font-size: 20px;
        text-anchor: middle;
        dominant-baseline: baseline;
        fill: #1d2f65;
        opacity: 0.8;
        font-weight: normal;
      }
    </style>
  </defs>
  
  <!-- Background Fill -->
  <rect width="512" height="512" fill="#fdfdfe"/>
  
  <!-- Background Pattern -->
  <g opacity="0.6">
    <path d="M 0,40 L 10,71.0822880476414 L 25,73.55843365759998 L 40,73.03690433437087 L 55,69.5642867391528 L 70,63.450779459399016 L 85,55.242483892849464 L 100,45.672622636097806 L 115,35.59604289375876 L 130,25.912855523629663 L 145,17.48803081451962 L 160,11.074133266449014 L 175,7.244097245188875 L 190,6.340048461708925 L 205,8.442742901353043 L 220,13.36435313218011 L 235,20.665246370061947 L 250,29.693255565952715 L 265,39.641935546062825 L 280,49.62260035743727 L 295,58.743706937403005 L 310,66.19049400011843 L 325,71.29776223567377 L 340,73.60929458331469 L 355,72.91860874275045 L 370,69.28740162308267 L 385,63.04003814166434 L 400,54.734576672072606 L 415,45.112919351635455 L 430,35.034540173075015 L 445,25.399710732466993 L 460,17.06908164879848 L 475,10.786803207407477 L 490,7.114052631259973 L 505,6.378905790949418 L 520,8.647031164268764 L 512,50 L 0,50 Z" fill="#4169E1" opacity="0.7"/>
    <path d="M 0,90 L 10,86.46709737396078 L 25,91.14799259922775 L 40,95.72634106461605 L 55,99.79317253718442 L 70,102.98520907353408 L 85,105.0173155565596 L 100,105.70796996625592 L 115,104.99547820114718 L 130,102.94348502863109 L 145,99.73528888745737 L 160,95.657468384103 L 175,91.07428307935879 L 190,86.39513526662034 L 205,82.03799928432193 L 220,78.39208511311675 L 235,75.78307140747029 L 250,74.4440135914097 L 265,74.49452571159308 L 280,75.93009567076228 L 295,78.62248827995266 L 310,82.33120012600679 L 325,86.7249430251922 L 340,91.41123700999482 L 355,95.97146939571293 L 370,99.99828820484797 L 385,103.13198970605788 L 400,105.09264967718991 L 415,105.70512820236077 L 430,104.91471439903184 L 445,102.79201357820362 L 460,99.52664028226441 L 475,95.41028058263855 L 490,90.81063663174022 L 505,86.13858092480808 L 520,81.8114542835868 L 512,100 L 0,100 Z" fill="#4169E1" opacity="0.7"/>
    <path d="M 0,140 L 10,164.42560053107508 L 25,164.1227579078065 L 40,161.6651011642665 L 55,157.27216545783642 L 70,151.3363586519055 L 85,144.38790869012377 L 100,137.04749991334765 L 115,129.9708291760252 L 130,123.7900343990183 L 145,119.05722757179737 L 160,116.19517623275041 L 175,115.45953890408663 L 190,116.9160278774628 L 205,120.43453933067724 L 220,125.70077511462534 L 235,132.2443180709001 L 250,139.48065299553227 L 265,146.76337964132767 L 280,153.44195372680693 L 295,158.91979811938546 L 310,162.70759329387099 L 325,164.46698678833226 L 340,164.04081722182488 L 355,161.4671530524849 L 370,156.97589203554102 L 385,150.96822514153334 L 400,143.98079936176228 L 415,136.6377806308255 L 430,129.59509894260322 L 445,123.48185607742896 L 460,118.84412981367582 L 475,116.09619442617102 L 490,115.48351479903843 L 505,117.06081977865595 L 520,120.68721340880487 L 512,150 L 0,150 Z" fill="#4169E1" opacity="0.7"/>
    <path d="M 0,190 L 10,170.64727517036576 L 25,171.427827357222 L 40,173.8673764136619 L 55,177.74800468806367 L 70,182.7230672141608 L 85,188.34815647348307 L 100,194.12079999542408 L 115,199.52534472655148 L 130,204.0790187821255 L 145,207.375056020747 L 160,209.1190312523168 L 175,209.15516036339517 L 190,207.48021604809102 L 205,204.24381609368552 L 220,199.73505846929362 L 235,194.35669706528944 L 250,188.58916488778127 L 265,182.9476584090262 L 280,177.9361166009479 L 295,174.0022055676316 L 310,171.4973298655081 L 325,170.64524258089904 L 340,171.5220581332085 L 355,174.04945320052568 L 370,178.00166310870458 L 385,183.0256487173215 L 400,188.6726323546499 L 415,194.43818579050316 L 430,199.807289307723 L 445,204.3003368796552 L 460,207.51597794812344 L 475,209.16696887346833 L 490,209.1058315533946 L 505,207.33802720262213 L 520,204.02146851883992 L 512,200 L 0,200 Z" fill="#4169E1" opacity="0.7"/>
    <path d="M 0,240 L 10,251.18096012085167 L 25,244.67296037848885 L 40,237.7475390027655 L 55,231.02332325953043 L 70,225.10096731472314 L 85,220.50949758662946 L 100,217.65905639150975 L 115,216.80426515199406 L 130,218.02147982372534 L 145,221.20197024524887 L 160,226.06163267950944 L 175,232.16636795455003 L 190,238.9708582496866 L 205,245.86727871233592 L 220,252.23959264184225 L 235,257.51858021323443 L 250,261.2326851889111 L 265,263.0501376329328 L 280,262.8085899313049 L 295,260.52961882082417 L 310,256.41679800344133 L 325,250.83751351375966 L 340,244.29014621873156 L 355,237.35955293911735 L 370,230.66482293153717 L 385,224.8039764889803 L 400,220.30054556908743 L 415,217.5568082435839 L 430,216.817854396218 L 445,218.1496925733847 L 460,221.43335363726635 L 475,226.37551792459396 L 490,232.53471661858737 L 505,239.36076684355305 L 520,246.24391786258724 L 512,250 L 0,250 Z" fill="#4169E1" opacity="0.7"/>
    <path d="M 0,290 L 10,311.1375102734876 L 25,302.1841180821207 L 40,292.1423549098423 L 55,281.90922155393883 L 70,272.3988133402513 L 85,264.46066671012363 L 100,258.8038726602303 L 115,255.9337357556945 L 130,256.10663677820975 L 145,259.3071309943774 L 160,265.2493277877431 L 175,273.40242841611007 L 190,283.03814068232833 L 205,293.29573510722815 L 220,303.2589313305265 L 235,312.0377467064971 L 250,318.8479958031222 L 265,323.0813393512328 L 280,324.3596253796369 L 295,322.5686684044739 L 310,317.86844927841537 L 325,310.67882457755894 L 340,301.6420220639235 L 355,291.565272392184 L 370,281.34870159942517 L 385,271.9049255270497 L 400,264.0775285656655 L 415,258.5657087738783 L 430,255.8618205981047 L 445,256.2073943162282 L 460,259.57156085721425 L 475,265.6538092432895 L 490,273.91083034058965 L 505,283.6050490459758 L 520,293.8705096743146 L 512,300 L 0,300 Z" fill="#4169E1" opacity="0.7"/>
    <path d="M 0,340 L 10,371.28632470019477 L 25,371.07843214740024 L 40,368.0943958102566 L 55,362.6007707675511 L 70,355.08828618295325 L 85,346.22800993033877 L 100,336.81140409922523 L 115,327.6796260434883 L 130,319.64839030011797 L 145,313.4351032390318 L 160,309.59477928866687 L 175,308.47046315005997 L 190,310.16258663537684 L 205,314.519997393243 L 220,321.15346089812215 L 235,329.47042961124407 L 250,338.7279734874878 L 265,348.0991437036797 L 280,356.7468415341066 L 295,363.8985938865927 L 310,368.91555602320574 L 325,371.3495776580556 L 340,370.98323488762895 L 355,367.8492520205473 L 370,362.2275784125388 L 385,354.62038142425047 L 400,345.7071893065026 L 415,336.2841909654483 L 430,327.19311477883775 L 445,319.2460395069122 L 460,313.15285371532616 L 475,309.45784354380413 L 490,308.49107324629955 L 505,310.3389015342037 L 520,314.83626740985505 L 512,350 L 0,350 Z" fill="#4169E1" opacity="0.7"/>
    <path d="M 0,390 L 10,393.4769180877196 L 25,398.90505634704846 L 40,403.5377324443904 L 55,406.96112322124293 L 70,408.86942737522764 L 85,409.0921817796782 L 100,407.60948844706365 L 115,404.5537919569532 L 130,400.1980485761767 L 145,394.93134388844084 L 160,389.2241369379315 L 175,383.58623552404157 L 190,378.5212565889872 L 205,374.48163961625716 L 220,371.8282315590312 L 235,370.7980534565457 L 250,371.4831280505663 L 265,373.8222596679335 L 280,377.6065006477895 L 295,382.4978160138239 L 310,388.05927913195495 L 325,393.79410106527416 L 340,399.1900072502185 L 355,403.76499745765113 L 370,407.1104014378121 L 385,408.9273842166071 L 400,409.0536401338376 L 415,407.4778911244392 L 430,404.3408941544451 L 445,399.9228678204198 L 460,394.6184612567895 L 475,388.90150130402805 L 490,383.2826669681727 L 505,378.2638719861452 L 520,374.2934303664579 L 512,400 L 0,400 Z" fill="#4169E1" opacity="0.7"/>
    <path d="M 0,440 L 10,408.37328542480424 L 25,412.8247033755147 L 40,419.7036096388303 L 55,428.39553200536 L 70,438.12404693683004 L 85,448.02013516837354 L 100,457.1998086113036 L 115,464.8430743763367 L 130,470.26718229624794 L 145,472.98761296490784 L 160,472.76135841281075 L 175,469.6086292852527 L 190,463.811049485579 L 205,455.8864995506457 L 220,446.5428559248396 L 235,436.61475846553617 L 250,426.98905455040676 L 265,418.5255796424255 L 280,411.9803507487678 L 295,407.9380336731684 L 310,406.75971656095476 L 325,408.5506549704366 L 340,413.1508697073594 L 355,420.1494372898689 L 370,428.92119651931205 L 385,438.6825922682251 L 400,448.56166812624645 L 415,457.67595566934864 L 430,465.21130273594434 L 445,470.49459921473107 L 460,473.05390396624296 L 475,472.6606019192799 L 490,469.3498255743448 L 505,463.41731672200706 L 520,455.39300870954435 L 512,450 L 0,450 Z" fill="#4169E1" opacity="0.7"/>
    <path d="M 0,490 L 10,516.4539826497625 L 25,513.0765711657167 L 40,507.63779830726344 L 55,500.6234934558166 L 70,492.6602235733938 L 85,484.4593238419739 L 100,476.75335621022504 L 115,470.2306718163838 L 130,465.4739226311593 L 145,462.90801489247383 L 160,462.7621534967061 L 175,465.04936780792826 L 190,469.56534778361765 L 205,475.9066943822687 L 220,483.5069539983472 L 235,491.6872180758312 L 250,499.71676798756044 L 265,506.878347953937 L 280,512.5322353655486 L 295,516.173385298613 L 310,517.4765446738688 L 325,516.3253061454604 L 340,512.822506422453 L 355,507.2810401718852 L 370,500.19591007004175 L 385,492.20000968762304 L 400,484.0075889919905 L 415,476.350452524798 L 430,469.91258948178404 L 445,465.2690749950076 L 460,462.83470038401975 L 475,462.8269210826409 L 490,465.24643199269457 L 505,469.8771054104969 L 520,476.3052970709443 L 512,500 L 0,500 Z" fill="#4169E1" opacity="0.7"/>
    <path d="M 0,540 L 10,547.0145280585326 L 25,538.7837263553641 L 40,530.6615707545025 L 55,523.373589225953 L 70,517.570795454221 L 85,513.7715357247579 L 100,512.3151865940465 L 115,513.33183939256 L 130,516.7306795536545 L 145,522.2080988083391 L 160,529.2748156077236 L 175,537.2995811865766 L 190,545.5655671355072 L 205,553.3343975478799 L 220,559.9121059404863 L 235,564.7111252126826 L 250,567.3027732655687 L 265,567.455545897159 L 280,565.1557963832689 L 295,560.6089544987426 L 310,554.2211760874873 L 325,546.5630623705716 L 340,538.3186898385412 L 355,530.2245037358699 L 370,523.0035336005899 L 385,517.3008071890224 L 400,513.625732067361 L 415,512.3065917509268 L 430,513.4612211154557 L 445,516.9864805585905 L 460,522.5674691533843 L 475,529.7056538102502 L 490,537.7634017530974 L 505,546.0209383561888 L 520,553.740642467789 L 512,550 L 0,550 Z" fill="#4169E1" opacity="0.7"/>
  </g>
  
  <!-- Radical Character -->
  <text x="256" y="256" class="radical-text">禾</text>
  
  <!-- Number in top-left corner -->
  <text x="20" y="20" class="number-text">#115</text>
  
  <!-- Meaning at bottom -->
  <text x="256" y="480" class="meaning-text">grain</text>
</svg>