<?xml version="1.0" encoding="UTF-8"?>
<svg width="512" height="512" viewBox="0 0 512 512" xmlns="http://www.w3.org/2000/svg">
  <defs>
    <style>
      .radical-text {
        font-family: 'Hiragino Sans', 'Yu Gothic', 'Meiryo', 'MS Gothic', 'SimSun', 'Takao', 'IPAexGothic', 'IPAGothic', 'VL Gothic', 'Noto Sans CJK JP', 'Arial Unicode MS', serif;
        font-size: 200px;
        text-anchor: middle;
        dominant-baseline: middle;
        fill: #003e3e;
        font-weight: bold;
      }
      .number-text {
        font-family: 'Helvetica', 'Arial', sans-serif;
        font-size: 20px;
        text-anchor: start;
        dominant-baseline: hanging;
        fill: #003e3e;
        opacity: 0.7;
        font-weight: normal;
      }
      .meaning-text {
        font-family: 'Helvetica', 'Arial', sans-serif;
        font-size: 20px;
        text-anchor: middle;
        dominant-baseline: baseline;
        fill: #003e3e;
        opacity: 0.8;
        font-weight: normal;
      }
    </style>
  </defs>
  
  <!-- Background Fill -->
  <rect width="512" height="512" fill="#fcfdfd"/>
  
  <!-- Background Pattern -->
  <g opacity="0.6">
    <path d="M 0,40 L 10,32.79322967938363 L 25,41.61085100830737 L 40,50.28457981417799 L 55,58.0396177353104 L 70,64.18323033066089 L 85,68.1666269843085 L 100,69.63398273673877 L 115,68.4542230687412 L 130,64.73273239783728 L 145,58.801940402124856 L 160,51.19162706719236 L 175,42.58159901782444 L 190,33.74096441684472 L 205,25.45943082352794 L 220,18.476762969277598 L 235,13.416701777374918 L 250,10.731247443959198 L 265,10.660283606676835 L 280,13.210149253764126 L 295,18.153072481107184 L 310,25.047516678074608 L 325,33.27762167793806 L 340,42.108216712379864 L 355,50.75049102670381 L 370,58.432455995275184 L 385,64.46790456627308 L 400,68.31770809393223 L 415,69.63797509480884 L 430,68.31077004980145 L 445,64.4546482328305 L 460,58.414065521306526 L 475,50.7286091784772 L 490,42.08479813022778 L 505,33.25475827405778 L 520,25.027250772241743 L 512,50 L 0,50 Z" fill="#008B8B" opacity="0.7"/>
    <path d="M 0,90 L 10,104.91299719389337 L 25,107.97170899628574 L 40,109.425061558304 L 55,109.14323122403209 L 70,107.15139305786899 L 85,103.62747203100362 L 100,98.88624951364379 L 115,93.35124479271353 L 130,87.51688335529906 L 145,81.90433133241055 L 160,77.0149412806628 L 175,73.28546785154657 L 190,71.04905379917604 L 205,70.50547133024664 L 220,71.70327704778265 L 235,74.53547453440295 L 250,78.7490720236233 L 265,83.9676814008835 L 280,89.72513983284263 L 295,95.50715070493128 L 310,100.79722420622667 L 325,105.12281382602592 L 340,108.09752752628488 L 355,109.45564299160411 L 370,109.07584381227565 L 385,106.99205631785158 L 400,103.39041903916612 L 415,98.5926555077437 L 430,93.02733565090124 L 445,87.1915929165298 L 460,81.60671682278296 L 475,76.77158771795115 L 490,73.11811328473983 L 505,70.97264751330314 L 520,70.52683847126747 L 512,100 L 0,100 Z" fill="#008B8B" opacity="0.7"/>
    <path d="M 0,140 L 10,162.99887647144882 L 25,160.65497892750324 L 40,156.4660336316798 L 55,150.80622659152306 L 70,144.181131513603 L 85,137.18254841003275 L 100,130.43563986591568 L 115,124.5430871275092 L 130,120.03125438143283 L 145,117.30317020952222 L 160,116.60252624593416 L 175,117.99190892924223 L 190,121.34720884227718 L 205,126.36870703673365 L 220,132.60784803418392 L 235,139.50730795105497 L 250,146.45077858129758 L 265,152.81802037291203 L 280,158.04026657989894 L 295,161.65102950174932 L 310,163.32777044041325 L 325,162.92071112159567 L 340,160.46621294192164 L 355,156.18352891366922 L 370,150.45521844617332 L 385,143.79297445314782 L 400,136.79191534865333 L 415,130.07742489158167 L 430,124.24928851702369 L 445,119.8281162896644 L 460,117.20883835721227 L 475,116.6254270165056 L 490,118.12999666506417 L 505,121.5881485771686 L 520,126.69097634175574 L 512,150 L 0,150 Z" fill="#008B8B" opacity="0.7"/>
    <path d="M 0,190 L 10,216.27117909240587 L 25,217.9664529647271 L 40,217.16356688483165 L 55,213.93424027504022 L 70,208.56693926365955 L 85,201.54110886486552 L 100,193.48434558349456 L 115,185.11633608840643 L 130,177.18456974576304 L 145,170.39756762015992 L 160,165.36159239807992 L 175,162.52649274771215 L 190,162.14551967718498 L 205,164.25270437625508 L 220,168.65981831147994 L 235,174.9731871205183 L 250,182.6288563704571 L 265,190.9429679277055 L 280,199.17284696836737 L 295,206.58334290838755 L 310,212.5124982157626 L 325,216.43067910539867 L 340,217.98788614775157 L 355,217.04501867548166 L 370,213.68630023179063 L 385,208.2117551321461 L 400,201.11040818572874 L 415,193.0166015656669 L 430,184.65333091194137 L 445,176.76766228412833 L 460,170.06399897524827 L 475,165.1411592634901 L 490,162.4388857588518 L 505,162.19856450545336 L 520,164.44166268512384 L 512,200 L 0,200 Z" fill="#008B8B" opacity="0.7"/>
    <path d="M 0,240 L 10,229.4722793674772 L 25,222.88294339129132 L 40,217.82262310306677 L 55,214.74334184324564 L 70,213.92016263589463 L 85,215.4266176279719 L 100,219.1281396816366 L 115,224.69408285589745 L 130,231.62725802377463 L 145,239.30834529625915 L 160,247.05121602350732 L 175,254.16422262366828 L 190,260.01198140147017 L 205,264.0721294813866 L 220,265.9819859275795 L 235,265.5709489517429 L 250,262.87573526275673 L 265,258.1371002724348 L 280,251.77833213161713 L 295,244.3674406603141 L 310,236.56641872216062 L 325,229.07210837348893 L 340,222.55395403780696 L 355,217.59420302922018 L 370,214.6358951339412 L 385,213.94328718567118 L 400,215.57824778966864 L 415,219.3947307845019 L 430,225.0518211106875 L 445,232.0441877376236 L 460,239.74722337955023 L 475,247.47283880414932 L 490,254.53092779436503 L 505,260.2910122814634 L 520,264.23856107319057 L 512,250 L 0,250 Z" fill="#008B8B" opacity="0.7"/>
    <path d="M 0,290 L 10,311.4218100133628 L 25,311.450558141837 L 40,309.5631917966517 L 55,305.9283037923712 L 70,300.8705878488082 L 85,294.8418346680527 L 100,288.3805748165999 L 115,282.0639733937253 L 130,276.45627359210835 L 145,272.05839453388876 L 160,269.26318565734863 L 175,268.32033464659514 L 190,269.3140635743717 L 205,272.1556055951344 L 220,276.5911342229944 L 235,282.2244368957436 L 250,288.55230746301584 L 265,295.0094960930248 L 280,301.0192013565817 L 295,306.0445941809049 L 310,309.6367711918799 L 325,311.4748539155219 L 340,311.39465189640003 L 355,309.4033293420207 L 370,305.6787651655078 L 385,300.5536635920614 L 400,294.48583468139765 L 415,288.0172995185871 L 430,281.7258730848011 L 445,276.1735497659213 L 460,271.85630206780957 L 475,269.1597768694901 L 490,268.32484673599924 L 505,269.4260934895301 L 520,272.3651460373792 L 512,300 L 0,300 Z" fill="#008B8B" opacity="0.7"/>
    <path d="M 0,340 L 10,324.47989584517563 L 25,328.0478095771465 L 40,332.68337688296526 L 55,337.9725163410871 L 70,343.4427648761039 L 85,348.60548147815706 L 100,352.9994960490521 L 115,356.23230435365014 L 130,358.01512925421673 L 145,358.1887163120847 L 160,356.7375595123606 L 175,353.79128637005414 L 190,349.61307869022613 L 205,344.57616332116345 L 220,339.1304729115852 L 235,333.76245476714496 L 250,328.95161796137904 L 265,325.1277002182659 L 280,322.63228072121024 L 295,321.6882678618978 L 310,322.3799874975437 L 325,324.64565037321034 L 340,328.2828715719278 L 355,332.9667489565729 L 370,338.27888571013904 L 385,343.7447644773076 L 400,348.8761345865677 L 415,353.21462602856826 L 430,356.37269428391284 L 445,358.06823852087206 L 460,358.14980082251503 L 475,356.61009547134904 L 490,353.58665976076446 L 505,349.3495681982366 L 520,344.27730755392315 L 512,350 L 0,350 Z" fill="#008B8B" opacity="0.7"/>
    <path d="M 0,390 L 10,409.6158392502289 L 25,406.9612148947313 L 40,402.7914957274462 L 55,397.479150343116 L 70,391.49871473342375 L 85,385.3844034001438 L 100,379.68238956472277 L 115,374.9020171410493 L 130,371.4703025605802 L 145,369.69379066628056 L 160,369.7311719747695 L 175,371.57910732509066 L 190,375.07252615601556 L 205,379.89937176765653 L 220,385.6284764170844 L 235,391.7480762486788 L 250,397.7115256351889 L 265,402.9861274035681 L 280,407.10071708693624 L 295,409.6877506431598 L 310,410.5161360694971 L 325,409.51187616295334 L 340,406.7646784700418 L 355,402.5199419788254 L 370,397.1568363581728 L 385,391.15443186050135 L 400,385.0489054029193 L 415,379.38564548009094 L 430,374.67053423431196 L 445,371.3247585103818 L 460,369.6471864891587 L 475,369.7876706830675 L 490,371.7336620574636 L 505,375.3113309985234 L 520,380.2010949949388 L 512,400 L 0,400 Z" fill="#008B8B" opacity="0.7"/>
    <path d="M 0,440 L 10,459.1464595216751 L 25,465.691950644885 L 40,469.9424563340704 L 55,471.51829157509025 L 70,470.2786916990973 L 85,466.33438647117424 L 100,460.03770893019964 L 115,451.95112252782116 L 130,442.7969779434776 L 145,433.39298764954617 L 160,424.5791820915382 L 175,417.1428722702235 L 190,411.74832159474136 L 205,408.87740921060555 L 220,408.7865851707926 L 235,411.4839625162822 L 250,416.7285925622691 L 265,424.0519881265711 L 280,432.79997209434083 L 295,442.1911131114312 L 310,451.3865285199627 L 325,459.56481924774835 L 340,465.99544294107926 L 355,470.103971137443 L 370,471.52340124928753 L 385,470.12693981214113 L 400,466.0393285671712 L 415,459.6257016529577 L 430,451.4589692603552 L 445,442.2686412714143 L 460,432.87566231428156 L 475,424.11907922454674 L 490,416.78109149031155 L 505,411.5171797015045 L 520,408.7975534209679 L 512,450 L 0,450 Z" fill="#008B8B" opacity="0.7"/>
    <path d="M 0,490 L 10,477.07231935324097 L 25,472.67391488629954 L 40,469.82319800113095 L 55,468.7748147469364 L 70,469.6224140774642 L 85,472.29028246888225 L 100,476.54010718336735 L 115,481.9922640362201 L 130,488.159728093668 L 145,494.4915781597165 L 160,500.4222089258056 L 175,505.42185480850884 L 190,509.0439123313258 L 205,510.9648338831404 L 220,511.013029262716 L 235,509.184193320333 L 250,505.6416905239917 L 265,500.701962098026 L 280,494.8062592709752 L 295,488.4812276174957 L 310,482.29186337765964 L 325,476.7910440255299 L 340,472.4701413710106 L 355,469.71512877949607 L 370,468.77210332066693 L 385,469.72530265019356 L 400,472.48958031083646 L 415,476.8180116118837 L 430,482.32395067636844 L 445,488.51556836573 L 460,494.83978591197064 L 475,500.7316797967931 L 490,505.6649446870065 L 505,509.19890672247 L 520,511.01788759958254 L 512,500 L 0,500 Z" fill="#008B8B" opacity="0.7"/>
    <path d="M 0,540 L 10,516.5361933998001 L 25,519.401439664778 L 40,524.1066939768139 L 55,530.231649981643 L 70,537.2291836010119 L 85,544.4742259971149 L 100,551.3195991102647 L 115,557.1538261475042 L 130,561.4557529833908 L 145,563.8411013058934 L 160,564.0967950535294 L 175,562.1999938653427 L 190,558.3201333423235 L 205,552.803789869794 L 220,546.1437219810983 L 235,538.9348537053787 L 250,531.8211317758844 L 265,525.438003786126 L 280,520.3556555488702 L 295,517.0280780956411 L 310,515.7525140099741 L 325,516.6429056326916 L 340,519.6197169319462 L 355,524.4170382200673 L 370,530.6063390740148 L 385,537.6347476817987 L 400,544.8744372348518 L 415,551.6787078270144 L 430,557.4397542311153 L 445,561.64295932972 L 460,563.9128633295707 L 475,564.0467024667049 L 490,562.0325212896092 L 505,558.050240604096 L 520,552.4555856835697 L 512,550 L 0,550 Z" fill="#008B8B" opacity="0.7"/>
  </g>
  
  <!-- Radical Character -->
  <text x="256" y="256" class="radical-text">貝</text>
  
  <!-- Number in top-left corner -->
  <text x="20" y="20" class="number-text">#154</text>
  
  <!-- Meaning at bottom -->
  <text x="256" y="480" class="meaning-text">shell, property, wealth</text>
</svg>