<?xml version="1.0" encoding="UTF-8"?>
<svg width="512" height="512" viewBox="0 0 512 512" xmlns="http://www.w3.org/2000/svg">
  <defs>
    <style>
      .radical-text {
        font-family: 'Hiragino Sans', 'Yu Gothic', 'Meiryo', 'Takao', 'IPAexGothic', 'IPAGothic', 'VL Gothic', 'Noto Sans CJK JP', serif;
        font-size: 200px;
        text-anchor: middle;
        dominant-baseline: middle;
        fill: #2c2c2c;
        font-weight: normal;
      }
    </style>
  </defs>
  
  <!-- Background -->
  <rect width="512" height="512" fill="white"/>
  
  <!-- Background Pattern -->
  <g opacity="1.0">
    <path d="M 0,80 L 20,83.98295516535615 L 40,87.86416401540295 L 60,91.54447938853707 L 80,94.9298860340598 L 100,97.93390227248807 L 120,100.47978920752496 L 140,102.50251105441262 L 160,103.95039650723062 L 180,104.78645870479215 L 200,104.98934007603762 L 220,104.55385792844046 L 240,103.49113684213313 L 260,101.82832448768791 L 280,99.6078981271105 L 300,96.88657951377877 L 320,93.73388591067817 L 340,90.23035424180043 L 360,86.46548374152778 L 380,82.53544965791505 L 400,78.5406464143105 L 420,74.5831229903155 L 440,70.76397603638807 L 460,67.18076731610691 L 480,63.92503144865228 L 500,61.079937617301795 L 520,58.71816497661064 L 512,120 L 0,120 Z" fill="#fff3f0" opacity="0.3"/>
    <path d="M 0,200 L 20,222.92007771929417 L 40,224.21787750295664 L 60,224.89702111344099 L 80,224.94015953297935 L 100,224.34619077195487 L 120,223.1302880197042 L 140,221.3235120388219 L 160,218.97201770452304 L 180,216.13587495835927 L 200,212.8875342955366 L 220,209.30997598562638 L 240,205.49459030562792 L 260,201.53884293574782 L 280,197.54378515637228 L 300,193.61147244932923 L 320,189.84235744638957 L 340,186.33272382326783 L 360,183.17222669141097 L 380,180.44160231933367 L 400,178.2106056896603 L 420,176.53622857787232 L 440,175.4612436727121 L 460,175.01311192931792 L 480,175.20328106722718 L 500,176.02689313342154 L 520,177.46290860084113 L 512,240 L 0,240 Z" fill="#fff3f0" opacity="0.3"/>
    <path d="M 0,320 L 20,340.7845865194671 L 40,338.3057861007563 L 60,335.3593564451428 L 80,332.0205653747162 L 100,328.3747037538976 L 120,324.5149066973558 L 140,320.5397743931524 L 160,316.5508533182193 L 180,312.6500421896108 L 200,308.9369889176287 L 220,305.5065450567814 L 240,302.44634278172987 L 260,299.834556285419 L 280,297.73790478545027 L 300,296.2099481527621 L 320,295.28971870152174 L 340,295.00072409174936 L 360,295.35034681595823 L 380,296.3296556101848 L 400,297.9136336069962 L 420,300.0618174022074 L 440,302.7193307100718 L 460,305.8182862017758 L 480,309.2795197166651 L 500,313.01461254502686 L 520,316.92815012233626 L 512,360 L 0,360 Z" fill="#fff3f0" opacity="0.3"/>
    <path d="M 0,440 L 20,439.53984232667364 L 40,435.5634393789785 L 60,431.7003702944817 L 80,428.0493188466164 L 100,424.703552726432 L 120,421.7485409790175 L 140,419.25977065971574 L 160,417.30081848458985 L 180,415.9217267356671 L 200,415.1577249091634 L 220,415.02832976273965 L 240,415.53684675147156 L 260,416.67028558856754 L 280,418.3996920878731 L 300,420.6808878111003 L 320,423.45559862517405 L 340,426.65294334020894 L 360,430.19124440021363 L 380,433.98011437164604 L 400,437.9227649295626 L 420,441.91847935731295 L 440,445.865185398702 L 460,449.66206273799696 L 480,453.21211849857326 L 500,456.4246649679697 L 520,459.2176362547939 L 512,480 L 0,480 Z" fill="#fff3f0" opacity="0.3"/>
  </g>
  
  <!-- Radical Character -->
  <text x="256" y="256" class="radical-text">身</text>
</svg>