<?xml version="1.0" encoding="UTF-8"?>
<svg width="512" height="512" viewBox="0 0 512 512" xmlns="http://www.w3.org/2000/svg">
  <defs>
    <style>
      .radical-text {
        font-family: 'Hiragino Sans', 'Yu Gothic', 'Meiryo', 'Takao', 'IPAexGothic', 'IPAGothic', 'VL Gothic', 'Noto Sans CJK JP', serif;
        font-size: 200px;
        text-anchor: middle;
        dominant-baseline: middle;
        fill: #2c2c2c;
        font-weight: normal;
      }
    </style>
  </defs>
  
  <!-- Background -->
  <rect width="512" height="512" fill="white"/>
  
  <!-- Background Pattern -->
  <g opacity="1.0">
    <circle cx="0" cy="0" r="3" fill="#ffffff" opacity="0.5"/>
    <circle cx="0" cy="80" r="3" fill="#ffffff" opacity="0.5"/>
    <circle cx="0" cy="160" r="3" fill="#ffffff" opacity="0.5"/>
    <circle cx="0" cy="240" r="3" fill="#ffffff" opacity="0.5"/>
    <circle cx="0" cy="320" r="3" fill="#ffffff" opacity="0.5"/>
    <circle cx="0" cy="400" r="3" fill="#ffffff" opacity="0.5"/>
    <circle cx="0" cy="480" r="3" fill="#ffffff" opacity="0.5"/>
    <circle cx="80" cy="0" r="3" fill="#ffffff" opacity="0.5"/>
    <circle cx="80" cy="80" r="3" fill="#ffffff" opacity="0.5"/>
    <circle cx="80" cy="160" r="3" fill="#ffffff" opacity="0.5"/>
    <circle cx="80" cy="240" r="3" fill="#ffffff" opacity="0.5"/>
    <circle cx="80" cy="320" r="3" fill="#ffffff" opacity="0.5"/>
    <circle cx="80" cy="400" r="3" fill="#ffffff" opacity="0.5"/>
    <circle cx="80" cy="480" r="3" fill="#ffffff" opacity="0.5"/>
    <circle cx="160" cy="0" r="3" fill="#ffffff" opacity="0.5"/>
    <circle cx="160" cy="80" r="3" fill="#ffffff" opacity="0.5"/>
    <circle cx="160" cy="160" r="3" fill="#ffffff" opacity="0.5"/>
    <circle cx="160" cy="240" r="3" fill="#ffffff" opacity="0.5"/>
    <circle cx="160" cy="320" r="3" fill="#ffffff" opacity="0.5"/>
    <circle cx="160" cy="400" r="3" fill="#ffffff" opacity="0.5"/>
    <circle cx="160" cy="480" r="3" fill="#ffffff" opacity="0.5"/>
    <circle cx="240" cy="0" r="3" fill="#ffffff" opacity="0.5"/>
    <circle cx="240" cy="80" r="3" fill="#ffffff" opacity="0.5"/>
    <circle cx="240" cy="160" r="3" fill="#ffffff" opacity="0.5"/>
    <circle cx="240" cy="240" r="3" fill="#ffffff" opacity="0.5"/>
    <circle cx="240" cy="320" r="3" fill="#ffffff" opacity="0.5"/>
    <circle cx="240" cy="400" r="3" fill="#ffffff" opacity="0.5"/>
    <circle cx="240" cy="480" r="3" fill="#ffffff" opacity="0.5"/>
    <circle cx="320" cy="0" r="3" fill="#ffffff" opacity="0.5"/>
    <circle cx="320" cy="80" r="3" fill="#ffffff" opacity="0.5"/>
    <circle cx="320" cy="160" r="3" fill="#ffffff" opacity="0.5"/>
    <circle cx="320" cy="240" r="3" fill="#ffffff" opacity="0.5"/>
    <circle cx="320" cy="320" r="3" fill="#ffffff" opacity="0.5"/>
    <circle cx="320" cy="400" r="3" fill="#ffffff" opacity="0.5"/>
    <circle cx="320" cy="480" r="3" fill="#ffffff" opacity="0.5"/>
    <circle cx="400" cy="0" r="3" fill="#ffffff" opacity="0.5"/>
    <circle cx="400" cy="80" r="3" fill="#ffffff" opacity="0.5"/>
    <circle cx="400" cy="160" r="3" fill="#ffffff" opacity="0.5"/>
    <circle cx="400" cy="240" r="3" fill="#ffffff" opacity="0.5"/>
    <circle cx="400" cy="320" r="3" fill="#ffffff" opacity="0.5"/>
    <circle cx="400" cy="400" r="3" fill="#ffffff" opacity="0.5"/>
    <circle cx="400" cy="480" r="3" fill="#ffffff" opacity="0.5"/>
    <circle cx="480" cy="0" r="3" fill="#ffffff" opacity="0.5"/>
    <circle cx="480" cy="80" r="3" fill="#ffffff" opacity="0.5"/>
    <circle cx="480" cy="160" r="3" fill="#ffffff" opacity="0.5"/>
    <circle cx="480" cy="240" r="3" fill="#ffffff" opacity="0.5"/>
    <circle cx="480" cy="320" r="3" fill="#ffffff" opacity="0.5"/>
    <circle cx="480" cy="400" r="3" fill="#ffffff" opacity="0.5"/>
    <circle cx="480" cy="480" r="3" fill="#ffffff" opacity="0.5"/>
  </g>
  
  <!-- Radical Character -->
  <text x="256" y="256" class="radical-text">二</text>
</svg>