<?xml version="1.0" encoding="UTF-8"?>
<svg width="512" height="512" viewBox="0 0 512 512" xmlns="http://www.w3.org/2000/svg">
  <defs>
    <style>
      .radical-text {
        font-family: 'Hiragino Sans', 'Yu Gothic', 'Meiryo', 'MS Gothic', 'SimSun', 'Takao', 'IPAexGothic', 'IPAGothic', 'VL Gothic', 'Noto Sans CJK JP', 'Arial Unicode MS', serif;
        font-size: 200px;
        text-anchor: middle;
        dominant-baseline: middle;
        fill: #003e3e;
        font-weight: bold;
      }
      .number-text {
        font-family: 'Helvetica', 'Arial', sans-serif;
        font-size: 20px;
        text-anchor: start;
        dominant-baseline: hanging;
        fill: #003e3e;
        opacity: 0.7;
        font-weight: normal;
      }
      .meaning-text {
        font-family: 'Helvetica', 'Arial', sans-serif;
        font-size: 20px;
        text-anchor: middle;
        dominant-baseline: baseline;
        fill: #003e3e;
        opacity: 0.8;
        font-weight: normal;
      }
    </style>
  </defs>
  
  <!-- Background Fill -->
  <rect width="512" height="512" fill="#fcfdfd"/>
  
  <!-- Background Pattern -->
  <g opacity="0.6">
    <path d="M 0,40 L 10,41.44500810227972 L 25,46.151221182725244 L 40,50.30796399479986 L 55,53.54392708292527 L 70,55.570051501950225 L 85,56.20534959183071 L 100,55.39307206627503 L 115,53.20577725747453 L 130,49.83884969638597 L 145,45.59304699448526 L 160,40.84763406206618 L 175,36.02650450334992 L 190,31.560315463281608 L 205,27.84801830737767 L 220,25.221221484421463 L 235,23.914568931346867 L 250,24.04478002918048 L 265,25.600223408354175 L 280,28.441955944307512 L 295,32.31613413299715 L 310,36.87668917510332 L 325,41.716240271193236 L 340,46.40248473525213 L 355,50.5168143061189 L 370,53.69170817673502 L 385,55.643562533269865 L 400,56.19802403916678 L 415,55.305564299429655 L 430,53.04590408463992 L 445,49.62089211194893 L 460,45.33647450033114 L 475,40.57536551496044 L 490,35.76286084172134 L 505,31.328847190226465 L 520,27.66940179435727 L 512,50 L 0,50 Z" fill="#008B8B" opacity="0.7"/>
    <path d="M 0,90 L 10,75.86815605146357 L 25,81.88323259238231 L 40,88.62335579205117 L 55,95.48645051882384 L 70,101.85945696077786 L 85,107.17309343286766 L 100,110.95270861438573 L 115,112.86068073781055 L 130,112.72657633577685 L 145,110.56237455512175 L 160,106.56139709537456 L 175,101.08103935709855 L 190,94.61084537517178 L 205,87.72877830813674 L 220,81.0495927105671 L 235,75.16992033960118 L 250,70.61497481699595 L 265,67.7916358605137 L 280,66.95210393052434 L 295,68.17137191399688 L 310,71.34052623325398 L 325,76.17647577149414 L 340,82.24723955913898 L 355,89.01053434729774 L 370,95.86221515533512 L 385,102.19024174269578 L 400,107.42935034078366 L 415,111.11154698191315 L 430,112.90791200663872 L 445,112.65798147732794 L 460,110.38408094380824 L 475,106.28933116849197 L 490,100.73950395361457 L 505,94.23034883550145 L 520,87.34330925495452 L 512,100 L 0,100 Z" fill="#008B8B" opacity="0.7"/>
    <path d="M 0,140 L 10,160.7083322410948 L 25,163.19309603136452 L 40,163.60608962801882 L 55,161.91042154306726 L 70,158.257560756413 L 85,152.97380644299085 L 100,146.53114063927106 L 115,139.5050674936227 L 130,132.5232051947357 L 145,126.20922270802978 L 160,121.12712928441638 L 175,117.73089319367597 L 190,116.32389009095014 L 205,117.0318033729967 L 220,119.79139725467404 L 235,124.35616543329571 L 250,130.31835076249183 L 265,137.14536898369096 L 280,144.2273828917687 L 295,150.93177727633298 L 310,156.65966855438134 L 325,160.89940125714486 L 340,163.27225268927478 L 355,163.56626309928657 L 370,161.75516941289072 L 385,158.000751235201 L 400,152.63837956042997 L 415,146.14705907979496 L 430,139.10664011904805 L 445,132.1460223358164 L 460,125.88697698620778 L 475,120.88860595029334 L 490,117.59739882630669 L 505,116.30734934459197 L 520,117.1336937832593 L 512,150 L 0,150 Z" fill="#008B8B" opacity="0.7"/>
    <path d="M 0,190 L 10,158.32517790950078 L 25,162.1595462684386 L 40,168.48081944335172 L 55,176.72433692786464 L 70,186.15372985635182 L 85,195.92669864161235 L 100,205.17025308841505 L 115,213.0586940076543 L 130,218.88737046577316 L 145,222.1356241540306 L 160,222.5132982445701 L 175,219.98665623569204 L 190,214.78139553307486 L 205,207.36248657270943 L 220,198.3926383966505 L 235,188.67310082800432 L 250,179.0720912105534 L 265,170.44723913920615 L 280,163.56897696251986 L 295,159.05171935554532 L 310,157.29897948678558 L 325,158.46732438861727 L 340,162.45238929058445 L 355,168.89820021351875 L 370,177.22897206491857 L 385,186.70054180642978 L 400,196.46684232175733 L 415,205.65547907236328 L 430,213.44565850338446 L 445,219.14150708735923 L 460,222.23423163394898 L 475,222.4475682703175 L 490,219.76246027010808 L 505,214.4187603340533 L 520,206.89380526256008 L 512,200 L 0,200 Z" fill="#008B8B" opacity="0.7"/>
    <path d="M 0,240 L 10,262.97504339469964 L 25,260.7314399974787 L 40,256.63595880871924 L 55,251.0544369656414 L 70,244.4854551913131 L 85,237.51580106355715 L 100,230.76805302822515 L 115,224.84496732082454 L 130,220.27563554716025 L 145,217.46822250595577 L 160,216.67350604300066 L 175,217.96247581306537 L 190,221.21999198546584 L 205,226.155070342223 L 220,232.3268750316309 L 235,239.18409712196942 L 250,246.11420138643868 L 265,252.49814225068508 L 280,257.7656612902851 L 295,261.4462267174262 L 310,263.21106458415034 L 325,262.90252717995355 L 340,260.54817523225086 L 355,256.358315988679 L 370,250.70721709701283 L 385,244.09967439085278 L 400,237.12591998121815 L 415,230.40889857992894 L 430,224.5486217037853 L 445,220.06857043275633 L 460,217.368934404165 L 475,216.69086406425106 L 490,218.09492941701524 L 505,221.4557094861544 L 520,226.4729957973397 L 512,250 L 0,250 Z" fill="#008B8B" opacity="0.7"/>
    <path d="M 0,290 L 10,264.1206761287517 L 25,258.47645822934356 L 40,255.64814443128165 L 55,255.88837958271785 L 70,259.175704193055 L 85,265.21647134533026 L 100,273.4710773007529 L 115,283.2021626936152 L 130,293.5404786473896 L 145,303.5625341880276 L 160,312.37308894228295 L 175,319.1851222940034 L 190,323.39013559182644 L 205,324.6125075214433 L 220,322.74304723891225 L 235,317.9487480635492 L 250,310.65787046206214 L 265,301.52168681652677 L 280,291.3563052021488 L 295,281.0697688834805 L 310,271.58094351397926 L 325,263.73743760379693 L 340,258.2398881759591 L 355,255.57937494777136 L 370,255.9935536422309 L 385,259.44542691008985 L 400,265.6266491928762 L 415,273.98507031330126 L 430,283.7740574061554 L 445,294.1191894084966 L 460,304.0963664889577 L 475,312.8143571334807 L 490,319.4944092021567 L 505,323.539813538564 L 520,324.58920622156165 L 512,300 L 0,300 Z" fill="#008B8B" opacity="0.7"/>
    <path d="M 0,340 L 10,341.7125873593244 L 25,346.7310105004492 L 40,351.1481725202091 L 55,354.569501490797 L 70,356.6893802848475 L 85,357.3184464432196 L 100,356.400507359503 L 115,354.01755979819296 L 130,350.3824653679248 L 145,345.81993622793 L 160,340.7375295179263 L 175,335.5892414926344 L 190,330.83495338845864 L 205,326.8993516022807 L 220,324.133991720449 L 235,322.78589510527127 L 250,322.97548321241084 L 265,324.68582070089803 L 280,327.7641282167009 L 295,331.93542971740595 L 310,336.82711526313886 L 325,342.00222515276783 L 340,346.9984822326295 L 355,351.36958573788854 L 370,354.72507801066456 L 385,356.7652229197293 L 400,357.3077803964201 L 415,356.3042853972167 L 430,353.8443771417376 L 445,350.14779190822014 L 460,345.54473464621486 L 475,340.44638275187594 L 490,335.3081568157519 L 505,330.58903925778907 L 520,326.7105747947228 L 512,350 L 0,350 Z" fill="#008B8B" opacity="0.7"/>
    <path d="M 0,390 L 10,405.0198451664067 L 25,400.78035188319393 L 40,395.5778818728515 L 55,389.87715628714074 L 70,384.18740396444025 L 85,379.0168735342251 L 100,374.8274330806879 L 115,371.9933128423371 L 130,370.7676763393424 L 145,371.26000603026307 L 160,373.4263235700905 L 175,377.0731182648299 L 190,381.8746328054708 L 205,387.40196219821433 L 220,393.1613665701821 L 235,398.63837548177935 L 250,403.3437440388415 L 265,406.8571556819358 L 280,408.8647678128071 L 295,409.18724641897796 L 310,407.7957854469814 L 325,404.81467996132557 L 340,400.5102232365631 L 355,395.26691957216354 L 370,389.55313766859217 L 385,383.8792726462172 L 400,378.752153969292 L 415,374.62977187937884 L 430,371.8803664910803 L 445,370.74953399931303 L 460,371.3382883026635 L 475,373.5940377326715 L 490,377.315282910943 L 505,382.16961608850585 L 520,387.7234141400321 L 512,400 L 0,400 Z" fill="#008B8B" opacity="0.7"/>
    <path d="M 0,440 L 10,449.7829142491279 L 25,444.6282420596386 L 40,439.06014279102925 L 55,433.57599816776644 L 70,428.66569049588577 L 85,424.76784293558666 L 100,422.23063860066134 L 115,421.28071839791676 L 130,422.0029358699632 L 145,424.33277748096776 L 160,428.0621254186731 L 175,432.8578481387388 L 190,438.2915580134486 L 205,443.8778779226476 L 220,449.1177985463111 L 235,453.54325338092724 L 250,456.7589297262359 L 265,458.4775807914027 L 280,458.5456845953509 L 295,456.957157628104 L 310,453.85389827261383 L 325,449.5131114448204 L 340,444.3225467040969 L 355,438.74586173992634 L 370,433.2812052113893 L 385,428.4167186110602 L 400,424.5869320392833 L 415,422.1339489244488 L 430,421.2768869426051 L 445,422.0923048880443 L 460,424.5073639042198 L 475,428.30633396186914 L 490,433.14986438002967 L 505,438.6052970116974 L 520,444.1853143075344 L 512,450 L 0,450 Z" fill="#008B8B" opacity="0.7"/>
    <path d="M 0,490 L 10,483.5495153130029 L 25,474.0098819096742 L 40,465.89859813276576 L 55,459.940220804628 L 70,456.666994026439 L 85,456.37130539780276 L 100,459.0795679032803 L 115,464.54986051914346 L 130,472.2935382979228 L 145,481.6188815662577 L 160,491.69288518320263 L 175,501.6156684085694 L 190,510.5008585693772 L 205,517.5547680908894 L 220,522.147292243864 L 235,523.8681945234063 L 250,522.563751854164 L 265,518.3504862148227 L 280,511.6047560767812 L 295,502.9291374227919 L 310,493.0985974290437 L 325,482.9912689553607 L 340,473.51000955213345 L 355,465.50175188428017 L 370,459.681849758667 L 385,456.5701776990444 L 400,456.4446921031573 L 415,459.3166022255588 L 430,464.92936888828456 L 445,472.7816203615823 L 460,482.17193840731994 L 475,492.2615138811977 L 490,502.14907505542453 L 505,510.9513955379478 L 520,517.8821902555853 L 512,500 L 0,500 Z" fill="#008B8B" opacity="0.7"/>
    <path d="M 0,540 L 10,523.3240538243186 L 25,522.752269631916 L 40,523.7211738252204 L 55,526.144217078284 L 70,529.8049561537423 L 85,534.376388132585 L 100,539.4501606110151 L 115,544.5730486045035 L 130,549.287439785839 L 145,553.1722116314343 L 160,555.8803490421489 L 175,557.1699421685971 L 190,556.9257954975255 L 205,555.1697179239311 L 220,552.0585746274226 L 235,547.870274772911 L 250,542.9789467125905 L 265,537.8215182144861 L 280,532.8586870062156 L 295,528.5337680190557 L 310,525.2330933854344 L 325,523.2515025401347 L 340,522.7660050916918 L 355,523.8199690812419 L 370,526.319247044568 L 385,530.0405859246837 L 400,534.6515696025104 L 415,539.7403126387755 L 430,544.8522527736046 L 445,549.5307556193954 L 460,553.3579044506901 L 475,555.9918314605995 L 490,557.1972557938252 L 505,556.8665004847364 L 520,555.0291109200216 L 512,550 L 0,550 Z" fill="#008B8B" opacity="0.7"/>
  </g>
  
  <!-- Radical Character -->
  <text x="256" y="256" class="radical-text">貝</text>
  
  <!-- Number in top-left corner -->
  <text x="20" y="20" class="number-text">#154</text>
  
  <!-- Meaning at bottom -->
  <text x="256" y="480" class="meaning-text">shell, property, wealth</text>
</svg>