<?xml version="1.0" encoding="UTF-8"?>
<svg width="512" height="512" viewBox="0 0 512 512" xmlns="http://www.w3.org/2000/svg">
  <defs>
    <style>
      .radical-text {
        font-family: 'Hiragino Sans', 'Yu Gothic', 'Meiryo', 'Takao', 'IPAexGothic', 'IPAGothic', 'VL Gothic', 'Noto Sans CJK JP', serif;
        font-size: 200px;
        text-anchor: middle;
        dominant-baseline: middle;
        fill: #2c2c2c;
        font-weight: normal;
      }
    </style>
  </defs>
  
  <!-- Background -->
  <rect width="512" height="512" fill="white"/>
  
  <!-- Background Pattern -->
  <g opacity="1.0">
    <path d="M 0,40 L 20,45.91040413322679 L 40,51.29284946790071 L 60,55.666538192549666 L 80,58.640781719344524 L 100,59.94989973208109 L 120,59.47695261756391 L 140,57.26418733297747 L 160,53.50926361102302 L 180,48.547597604676604 L 200,42.82240016119734 L 220,36.84508611713503 L 240,31.14959113410296 L 260,26.244676816320524 L 280,22.568484551728236 L 300,20.44939764669806 L 320,20.076707823283186 L 340,21.48370635344535 L 360,24.544710248880246 L 380,28.98628914804725 L 400,34.41169003602148 L 420,40.33627800968699 L 440,46.230827270267554 L 460,51.56879528776399 L 480,55.87335727698306 L 500,58.75999953549478 L 520,59.970866907492095 L 512,60 L 0,60 Z" fill="#bce7f5" opacity="0.3"/>
    <path d="M 0,100 L 20,105.91040413322679 L 40,111.29284946790071 L 60,115.66653819254967 L 80,118.64078171934452 L 100,119.9498997320811 L 120,119.47695261756391 L 140,117.26418733297747 L 160,113.50926361102302 L 180,108.54759760467661 L 200,102.82240016119735 L 220,96.84508611713504 L 240,91.14959113410296 L 260,86.24467681632052 L 280,82.56848455172823 L 300,80.44939764669806 L 320,80.07670782328319 L 340,81.48370635344534 L 360,84.54471024888025 L 380,88.98628914804725 L 400,94.41169003602148 L 420,100.33627800968699 L 440,106.23082727026755 L 460,111.56879528776399 L 480,115.87335727698306 L 500,118.75999953549479 L 520,119.9708669074921 L 512,120 L 0,120 Z" fill="#bce7f5" opacity="0.3"/>
    <path d="M 0,160 L 20,165.9104041332268 L 40,171.2928494679007 L 60,175.66653819254967 L 80,178.64078171934452 L 100,179.9498997320811 L 120,179.4769526175639 L 140,177.26418733297749 L 160,173.50926361102302 L 180,168.5475976046766 L 200,162.82240016119735 L 220,156.84508611713503 L 240,151.14959113410296 L 260,146.24467681632052 L 280,142.56848455172823 L 300,140.44939764669806 L 320,140.0767078232832 L 340,141.48370635344534 L 360,144.54471024888025 L 380,148.98628914804726 L 400,154.41169003602147 L 420,160.336278009687 L 440,166.23082727026755 L 460,171.56879528776398 L 480,175.87335727698306 L 500,178.75999953549479 L 520,179.9708669074921 L 512,180 L 0,180 Z" fill="#bce7f5" opacity="0.3"/>
    <path d="M 0,220 L 20,225.9104041332268 L 40,231.2928494679007 L 60,235.66653819254967 L 80,238.64078171934452 L 100,239.9498997320811 L 120,239.4769526175639 L 140,237.26418733297749 L 160,233.50926361102302 L 180,228.5475976046766 L 200,222.82240016119735 L 220,216.84508611713503 L 240,211.14959113410296 L 260,206.24467681632052 L 280,202.56848455172823 L 300,200.44939764669806 L 320,200.0767078232832 L 340,201.48370635344534 L 360,204.54471024888025 L 380,208.98628914804726 L 400,214.41169003602147 L 420,220.336278009687 L 440,226.23082727026755 L 460,231.56879528776398 L 480,235.87335727698306 L 500,238.75999953549479 L 520,239.9708669074921 L 512,240 L 0,240 Z" fill="#bce7f5" opacity="0.3"/>
    <path d="M 0,280 L 20,285.9104041332268 L 40,291.2928494679007 L 60,295.66653819254964 L 80,298.64078171934455 L 100,299.94989973208106 L 120,299.4769526175639 L 140,297.2641873329775 L 160,293.509263611023 L 180,288.5475976046766 L 200,282.8224001611973 L 220,276.84508611713505 L 240,271.14959113410293 L 260,266.2446768163205 L 280,262.56848455172826 L 300,260.44939764669806 L 320,260.0767078232832 L 340,261.48370635344537 L 360,264.5447102488802 L 380,268.98628914804726 L 400,274.41169003602147 L 420,280.336278009687 L 440,286.2308272702676 L 460,291.568795287764 L 480,295.87335727698303 L 500,298.7599995354948 L 520,299.9708669074921 L 512,300 L 0,300 Z" fill="#bce7f5" opacity="0.3"/>
    <path d="M 0,340 L 20,345.9104041332268 L 40,351.2928494679007 L 60,355.66653819254964 L 80,358.64078171934455 L 100,359.94989973208106 L 120,359.4769526175639 L 140,357.2641873329775 L 160,353.509263611023 L 180,348.5475976046766 L 200,342.8224001611973 L 220,336.84508611713505 L 240,331.14959113410293 L 260,326.2446768163205 L 280,322.56848455172826 L 300,320.44939764669806 L 320,320.0767078232832 L 340,321.48370635344537 L 360,324.5447102488802 L 380,328.98628914804726 L 400,334.41169003602147 L 420,340.336278009687 L 440,346.2308272702676 L 460,351.568795287764 L 480,355.87335727698303 L 500,358.7599995354948 L 520,359.9708669074921 L 512,360 L 0,360 Z" fill="#bce7f5" opacity="0.3"/>
    <path d="M 0,400 L 20,405.9104041332268 L 40,411.2928494679007 L 60,415.66653819254964 L 80,418.64078171934455 L 100,419.94989973208106 L 120,419.4769526175639 L 140,417.2641873329775 L 160,413.509263611023 L 180,408.5475976046766 L 200,402.8224001611973 L 220,396.84508611713505 L 240,391.14959113410293 L 260,386.2446768163205 L 280,382.56848455172826 L 300,380.44939764669806 L 320,380.0767078232832 L 340,381.48370635344537 L 360,384.5447102488802 L 380,388.98628914804726 L 400,394.41169003602147 L 420,400.336278009687 L 440,406.2308272702676 L 460,411.568795287764 L 480,415.87335727698303 L 500,418.7599995354948 L 520,419.9708669074921 L 512,420 L 0,420 Z" fill="#bce7f5" opacity="0.3"/>
    <path d="M 0,460 L 20,465.9104041332268 L 40,471.2928494679007 L 60,475.66653819254964 L 80,478.64078171934455 L 100,479.94989973208106 L 120,479.4769526175639 L 140,477.2641873329775 L 160,473.509263611023 L 180,468.5475976046766 L 200,462.8224001611973 L 220,456.84508611713505 L 240,451.14959113410293 L 260,446.2446768163205 L 280,442.56848455172826 L 300,440.44939764669806 L 320,440.0767078232832 L 340,441.48370635344537 L 360,444.5447102488802 L 380,448.98628914804726 L 400,454.41169003602147 L 420,460.336278009687 L 440,466.2308272702676 L 460,471.568795287764 L 480,475.87335727698303 L 500,478.7599995354948 L 520,479.9708669074921 L 512,480 L 0,480 Z" fill="#bce7f5" opacity="0.3"/>
    <path d="M 0,520 L 20,525.9104041332268 L 40,531.2928494679007 L 60,535.6665381925496 L 80,538.6407817193445 L 100,539.9498997320811 L 120,539.4769526175639 L 140,537.2641873329775 L 160,533.509263611023 L 180,528.5475976046766 L 200,522.8224001611974 L 220,516.845086117135 L 240,511.14959113410293 L 260,506.2446768163205 L 280,502.56848455172826 L 300,500.44939764669806 L 320,500.0767078232832 L 340,501.48370635344537 L 360,504.5447102488802 L 380,508.98628914804726 L 400,514.4116900360215 L 420,520.336278009687 L 440,526.2308272702676 L 460,531.568795287764 L 480,535.873357276983 L 500,538.7599995354948 L 520,539.9708669074921 L 512,540 L 0,540 Z" fill="#bce7f5" opacity="0.3"/>
  </g>
  
  <!-- Radical Character -->
  <text x="256" y="256" class="radical-text">支</text>
</svg>