<svg xmlns="http://www.w3.org/2000/svg" width="500" height="500" viewBox="0 0 500 500">
  <defs>
    <linearGradient id="bgGrad104" x1="0%" y1="0%" x2="0%" y2="100%">
      <stop offset="0%" style="stop-color:#fafafa;stop-opacity:1" />
      <stop offset="100%" style="stop-color:#f5f5f5;stop-opacity:1" />
    </linearGradient>
    <linearGradient id="bedGrad104" x1="0%" y1="0%" x2="0%" y2="100%">
      <stop offset="0%" style="stop-color:#e0e0e0;stop-opacity:1" />
      <stop offset="50%" style="stop-color:#bdbdbd;stop-opacity:1" />
      <stop offset="100%" style="stop-color:#9e9e9e;stop-opacity:1" />
    </linearGradient>
  </defs>
  
  <!-- Background -->
  <rect width="500" height="500" fill="url(#bgGrad104)"/>
  
  <!-- Hospital bed -->
  <rect x="150" y="300" width="200" height="80" rx="10" fill="url(#bedGrad104)" stroke="#757575" stroke-width="2"/>
  
  <!-- Bed legs -->
  <rect x="160" y="380" width="8" height="40" fill="#757575"/>
  <rect x="332" y="380" width="8" height="40" fill="#757575"/>
  
  <!-- Pillow -->
  <ellipse cx="200" cy="320" rx="40" ry="15" fill="#ffffff" stroke="#e0e0e0" stroke-width="1"/>
  
  <!-- Patient (simplified figure) -->
  <g opacity="0.7">
  <!-- Head -->
  <circle cx="220" cy="310" r="12" fill="#ffdbcb"/>
  <!-- Body under blanket -->
  <ellipse cx="260" cy="340" rx="60" ry="25" fill="#e3f2fd"/>
  
  <!-- Main radical shape 疒 (sickness) -->
  <!-- Top horizontal stroke -->
  <path d="M180 180 L280 180" 
      stroke="#d32f2f" stroke-width="12" fill="none" stroke-linecap="round"/>
  
  <!-- Left vertical stroke -->
  <path d="M180 180 L180 260" 
      stroke="#d32f2f" stroke-width="12" fill="none" stroke-linecap="round"/>
  
  <!-- First dot -->
  <circle cx="200" cy="210" r="6" fill="#d32f2f"/>
  
  <!-- Second dot -->
  <circle cx="240" cy="210" r="6" fill="#d32f2f"/>
  
  <!-- Bottom slanting stroke -->
  <path d="M200 240 L260 260" 
      stroke="#d32f2f" stroke-width="12" fill="none" stroke-linecap="round"/>
  
  <!-- Medical cross -->
  <g transform="translate(380,200)">
  <!-- Vertical bar -->
  <rect x="-3" y="-20" width="6" height="40" fill="#d32f2f"/>
  <!-- Horizontal bar -->
  <rect x="-15" y="-3" width="30" height="6" fill="#d32f2f"/>
  
    <!-- Thermometer -->
    <g transform="translate(120,200)">
    <rect x="-2" y="-30" width="4" height="40" fill="#e0e0e0"/>
    <circle cx="0" cy="10" r="6" fill="#f44336"/>
    <rect x="-1" y="-25" width="2" height="30" fill="#f44336"/>
    </g>
  
    <!-- Medicine pills -->
    <g fill="#2196f3" opacity="0.7">
    <ellipse cx="100" cy="350" rx="8" ry="5"/>
    <ellipse cx="400" cy="370" rx="6" ry="4"/>
    </g>
  
    <!-- Fever/heat waves -->
    <g stroke="#ff5722" stroke-width="2" opacity="0.5" fill="none">
    <path d="M300 150 Q305 140 310 150 Q315 140 320 150"/>
    <path d="M330 160 Q335 150 340 160 Q345 150 350 160"/>
    </g>
  
    <!-- Bandage -->
    <rect x="350" y="330" width="30" height="8" rx="4" fill="#ffffff" stroke="#e0e0e0" stroke-width="1"/>
    <rect x="358" y="330" width="2" height="8" fill="#f44336"/>
    <rect x="370" y="330" width="2" height="8" fill="#f44336"/>
  
    <!-- Virus/germs -->
    <g fill="#4caf50" opacity="0.4">
    <circle cx="130" cy="280" r="4"/>
    <circle cx="370" cy="280" r="3"/>
    <circle cx="150" cy="400" r="2"/>
    </g>
  
    <!-- Kanji character 疒 -->
    <text x="100" y="120" font-family="serif" font-size="56" font-weight="bold" text-anchor="middle" fill="#d32f2f" opacity="0.8">疒</text>
    </g>
  </g>
</svg> 