<svg xmlns="http://www.w3.org/2000/svg" width="500" height="500" viewBox="0 0 500 500">
  <defs>
    <linearGradient id="bgGrad106" x1="0%" y1="0%" x2="0%" y2="100%">
      <stop offset="0%" style="stop-color:#fafafa;stop-opacity:1" />
      <stop offset="100%" style="stop-color:#f5f5f5;stop-opacity:1" />
    </linearGradient>
    <radialGradient id="whiteGlow106" cx="50%" cy="50%" r="60%">
      <stop offset="0%" style="stop-color:#ffffff;stop-opacity:1" />
      <stop offset="100%" style="stop-color:#e0e0e0;stop-opacity:1" />
    </radialGradient>
  </defs>
  
  <!-- Background -->
  <rect width="500" height="500" fill="url(#bgGrad106)"/>
  
  <!-- White clouds -->
  <g fill="#ffffff" opacity="0.8">
  <circle cx="150" cy="120" r="25"/>
  <circle cx="180" cy="115" r="30"/>
  <circle cx="210" cy="120" r="20"/>
  
  <circle cx="320" cy="130" r="20"/>
  <circle cx="350" cy="125" r="25"/>
  <circle cx="380" cy="130" r="18"/>
  
  <!-- Main radical shape 白 (white) -->
  <!-- Top horizontal stroke -->
  <path d="M190 180 L310 180" 
      stroke="#424242" stroke-width="14" fill="none" stroke-linecap="round"/>
  
  <!-- Vertical stroke -->
  <path d="M250 180 L250 320" 
      stroke="#424242" stroke-width="14" fill="none" stroke-linecap="round"/>
  
  <!-- Middle horizontal stroke -->
  <path d="M200 220 L300 220" 
      stroke="#424242" stroke-width="12" fill="none" stroke-linecap="round"/>
  
  <!-- Bottom horizontal stroke -->
  <path d="M180 280 L320 280" 
      stroke="#424242" stroke-width="14" fill="none" stroke-linecap="round"/>
  
  <!-- Small horizontal stroke inside -->
  <path d="M210 250 L290 250" 
      stroke="#424242" stroke-width="10" fill="none" stroke-linecap="round"/>
  
  <!-- White rectangle background for radical -->
  <rect x="175" y="175" width="150" height="150" fill="url(#whiteGlow106)" opacity="0.9" rx="10"/>
  
  <!-- Snowflakes -->
  <g stroke="#e0e0e0" stroke-width="2" fill="none" opacity="0.6">
  <g transform="translate(120,200)">
    <line x1="-8" y1="0" x2="8" y2="0"/>
    <line x1="0" y1="-8" x2="0" y2="8"/>
    <line x1="-6" y1="-6" x2="6" y2="6"/>
    <line x1="-6" y1="6" x2="6" y2="-6"/>
    <g transform="translate(380,200)">
      <line x1="-6" y1="0" x2="6" y2="0"/>
      <line x1="0" y1="-6" x2="0" y2="6"/>
      <line x1="-4" y1="-4" x2="4" y2="4"/>
      <line x1="-4" y1="4" x2="4" y2="-4"/>
    </g>
    </g>
  
    <!-- White dove -->
    <g transform="translate(100,350)" fill="#ffffff" opacity="0.7">
    <!-- Body -->
    <ellipse cx="0" cy="0" rx="15" ry="8"/>
    <!-- Head -->
    <circle cx="12" cy="-5" r="6"/>
    <!-- Wing -->
    <ellipse cx="-8" cy="-3" rx="12" ry="5" transform="rotate(-20)"/>
    <!-- Tail -->
    <ellipse cx="-18" cy="3" rx="8" ry="3"/>
    <!-- Beak -->
    <path d="M18 -5 L22 -3" stroke="#ffc107" stroke-width="2"/>
    </g>
  
    <!-- White lilies -->
    <g transform="translate(380,350)" fill="#ffffff" opacity="0.6">
    <ellipse cx="0" cy="0" rx="8" ry="15"/>
    <ellipse cx="-10" cy="-5" rx="8" ry="15" transform="rotate(-30)"/>
    <ellipse cx="10" cy="-5" rx="8" ry="15" transform="rotate(30)"/>
    <!-- Center -->
    <circle cx="0" cy="-8" r="3" fill="#ffeb3b"/>
    </g>
  
    <!-- Pure light rays -->
    <g stroke="#ffffff" stroke-width="3" opacity="0.4">
    <line x1="250" y1="160" x2="250" y2="140"/>
    <line x1="230" y1="170" x2="220" y2="160"/>
    <line x1="270" y1="170" x2="280" y2="160"/>
    <line x1="180" y1="200" x2="160" y2="200"/>
    <line x1="320" y1="200" x2="340" y2="200"/>
    </g>
  
    <!-- White pearls -->
    <g fill="#ffffff" opacity="0.8">
    <circle cx="150" cy="400" r="6"/>
    <circle cx="350" cy="420" r="5"/>
    <circle cx="200" cy="450" r="4"/>
    </g>
  
    <!-- Kanji character 白 -->
    
    </g>
  </g>
</svg> 