<svg xmlns="http://www.w3.org/2000/svg" width="500" height="500" viewBox="0 0 500 500">
  <defs>
    <linearGradient id="bgGrad11" x1="0%" y1="0%" x2="100%" y2="100%">
      <stop offset="0%" style="stop-color:#e0f2f1;stop-opacity:1" />
      <stop offset="100%" style="stop-color:#b2dfdb;stop-opacity:1" />
    </linearGradient>
    <linearGradient id="doorGrad11" x1="0%" y1="0%" x2="100%" y2="0%">
      <stop offset="0%" style="stop-color:#26a69a;stop-opacity:1" />
      <stop offset="50%" style="stop-color:#00897b;stop-opacity:1" />
      <stop offset="100%" style="stop-color:#00695c;stop-opacity:1" />
    </linearGradient>
    <linearGradient id="pathGrad11" x1="0%" y1="0%" x2="100%" y2="0%">
      <stop offset="0%" style="stop-color:#4db6ac;stop-opacity:0.8" />
      <stop offset="100%" style="stop-color:#26a69a;stop-opacity:0.4" />
    </linearGradient>
    <radialGradient id="glowGrad11" cx="50%" cy="50%" r="60%">
      <stop offset="0%" style="stop-color:#80cbc4;stop-opacity:0.6" />
      <stop offset="100%" style="stop-color:#80cbc4;stop-opacity:0" />
    </radialGradient>
  </defs>
  
  <!-- Background -->
  <rect width="500" height="500" fill="url(#bgGrad11)"/>
  
  <!-- Entrance glow effect -->
  <ellipse cx="250" cy="250" rx="150" ry="100" fill="url(#glowGrad11)"/>
  
  <!-- Doorway/entrance frame forming ⼊ shape -->
  <path d="M150 180 L250 120 L350 180 L320 200 L250 160 L180 200 Z" 
    fill="url(#doorGrad11)" stroke="#004d40" stroke-width="3"/>
  
  <!-- Door opening -->
  <rect x="200" y="200" width="100" height="200" fill="#00695c" opacity="0.3"/>
  
  <!-- Floor/ground -->
  <rect x="180" y="380" width="140" height="20" fill="url(#doorGrad11)" opacity="0.8"/>
  
  <!-- Entry path/steps -->
  <rect x="190" y="400" width="120" height="8" rx="4" fill="#4db6ac"/>
  <rect x="200" y="415" width="100" height="8" rx="4" fill="#4db6ac"/>
  <rect x="210" y="430" width="80" height="8" rx="4" fill="#4db6ac"/>
  
  <!-- Arrow showing entry direction -->
  <path d="M120 250 L180 250 M160 230 L180 250 L160 270" 
    stroke="#26a69a" stroke-width="6" fill="none" stroke-linecap="round"/>
  
  <!-- Motion lines -->
  <g stroke="#80cbc4" stroke-width="3" opacity="0.6">
  <path d="M100 200 Q140 220 180 200"/>
  <path d="M90 280 Q130 300 170 280"/>
  <path d="M100 350 Q140 370 180 350"/>
  
  <!-- Welcome mat -->
  <rect x="210" y="370" width="80" height="15" rx="7" fill="#8d6e63"/>
  <rect x="215" y="375" width="70" height="5" rx="2" fill="#a1887f"/>
  
  <!-- Side pillars -->
  <rect x="170" y="200" width="15" height="180" fill="url(#doorGrad11)"/>
  <rect x="315" y="200" width="15" height="180" fill="url(#doorGrad11)"/>
  
  <!-- Architectural details -->
  <g stroke="#004d40" stroke-width="2" fill="none">
  <line x1="180" y1="220" x2="320" y2="220"/>
  <line x1="185" y1="240" x2="315" y2="240"/>
  
    <!-- Light streaming through entrance -->
    <g fill="#a7ffeb" opacity="0.4">
    <path d="M200 200 L250 300 L300 200 L250 220 Z"/>
    </g>
  
    <!-- Decorative entrance elements -->
    <circle cx="185" cy="210" r="6" fill="#00695c"/>
    <circle cx="315" cy="210" r="6" fill="#00695c"/>
  
    <!-- Kanji character ⼊ -->
    
    </g>
  </g>
</svg> 