<svg xmlns="http://www.w3.org/2000/svg" width="500" height="500" viewBox="0 0 500 500">
  <defs>
    <linearGradient id="bgGrad112" x1="0%" y1="0%" x2="0%" y2="100%">
      <stop offset="0%" style="stop-color:#f5f5f5;stop-opacity:1" />
      <stop offset="100%" style="stop-color:#eeeeee;stop-opacity:1" />
    </linearGradient>
    <radialGradient id="stoneGrad112" cx="30%" cy="30%" r="70%">
      <stop offset="0%" style="stop-color:#e0e0e0;stop-opacity:1" />
      <stop offset="50%" style="stop-color:#bdbdbd;stop-opacity:1" />
      <stop offset="100%" style="stop-color:#757575;stop-opacity:1" />
    </radialGradient>
  </defs>
  
  <!-- Background -->
  <rect width="500" height="500" fill="url(#bgGrad112)"/>
  
  <!-- Ground/rocky terrain -->
  <rect x="0" y="400" width="500" height="100" fill="#8d6e63" opacity="0.3"/>
  
  <!-- Large central stone -->
  <ellipse cx="250" cy="300" rx="80" ry="60" fill="url(#stoneGrad112)" stroke="#616161" stroke-width="2"/>
  
  <!-- Smaller stones around -->
  <g fill="url(#stoneGrad112)" stroke="#616161" stroke-width="1">
  <ellipse cx="150" cy="350" rx="30" ry="25"/>
  <ellipse cx="350" cy="370" rx="25" ry="20"/>
  <ellipse cx="120" cy="420" rx="20" ry="15"/>
  <ellipse cx="380" cy="430" rx="18" ry="12"/>
  
  <!-- Main radical shape 石 (stone) -->
  <!-- Left vertical stroke -->
  <path d="M180 180 L180 280" 
      stroke="#424242" stroke-width="14" fill="none" stroke-linecap="round"/>
  
  <!-- Top horizontal stroke -->
  <path d="M180 180 L280 180" 
      stroke="#424242" stroke-width="14" fill="none" stroke-linecap="round"/>
  
  <!-- Second horizontal stroke -->
  <path d="M200 210 L300 210" 
      stroke="#424242" stroke-width="12" fill="none" stroke-linecap="round"/>
  
  <!-- Third horizontal stroke -->
  <path d="M190 240 L290 240" 
      stroke="#424242" stroke-width="12" fill="none" stroke-linecap="round"/>
  
  <!-- Right vertical stroke -->
  <path d="M280 180 L280 270" 
      stroke="#424242" stroke-width="12" fill="none" stroke-linecap="round"/>
  
  <!-- Bottom horizontal stroke -->
  <path d="M170 280 L320 280" 
      stroke="#424242" stroke-width="14" fill="none" stroke-linecap="round"/>
  
  <!-- Stone texture patterns -->
  <g stroke="#9e9e9e" stroke-width="1" opacity="0.4" fill="none">
  <path d="M200 320 Q220 315 240 320"/>
  <path d="M260 325 Q280 320 300 325"/>
  <path d="M160 360 Q170 355 180 360"/>
  <path d="M320 380 Q330 375 340 380"/>
  
    <!-- Stone cracks -->
    <g stroke="#616161" stroke-width="2" opacity="0.5">
    <path d="M230 280 L240 320"/>
    <path d="M270 290 L275 315"/>
    <path d="M140 340 L155 365"/>
    </g>
  
    <!-- Pebbles scattered -->
    <g fill="#757575" opacity="0.6">
    <circle cx="100" cy="300" r="4"/>
    <circle cx="400" cy="320" r="3"/>
    <circle cx="180" cy="450" r="2"/>
    <circle cx="320" cy="460" r="3"/>
    <circle cx="450" cy="400" r="2"/>
    </g>
  
    <!-- Stone quarry tools -->
    <g transform="translate(380,200)" opacity="0.5">
    <!-- Hammer -->
    <rect x="-8" y="-2" width="16" height="4" fill="#8d6e63"/>
    <rect x="-2" y="2" width="4" height="20" fill="#6d4c41"/>
    </g>
  
    <!-- Stone dust -->
    <g fill="#e0e0e0" opacity="0.4">
    <circle cx="190" cy="160" r="2"/>
    <circle cx="290" cy="170" r="1"/>
    <circle cx="250" cy="140" r="1"/>
    </g>
  
    <!-- Mountain silhouette in background -->
    <path d="M0 250 L100 150 L200 200 L300 120 L400 180 L500 100 L500 250 Z" 
        fill="#bdbdbd" opacity="0.2"/>
  
    <!-- Kanji character 石 -->
    
    </g>
  </g>
</svg> 