<svg xmlns="http://www.w3.org/2000/svg" width="500" height="500" viewBox="0 0 500 500">
  <defs>
    <linearGradient id="bgGrad119" x1="0%" y1="0%" x2="0%" y2="100%">
      <stop offset="0%" style="stop-color:#fff8e1;stop-opacity:1" />
      <stop offset="100%" style="stop-color:#ffecb3;stop-opacity:1" />
    </linearGradient>
    <radialGradient id="riceGrad119" cx="50%" cy="50%" r="50%">
      <stop offset="0%" style="stop-color:#fff59d;stop-opacity:1" />
      <stop offset="50%" style="stop-color:#ffcc02;stop-opacity:1" />
      <stop offset="100%" style="stop-color:#ff8f00;stop-opacity:1" />
    </radialGradient>
  </defs>
  
  <!-- Background -->
  <rect width="500" height="500" fill="url(#bgGrad119)"/>
  
  <!-- Rice field water -->
  <rect x="0" y="400" width="500" height="100" fill="#2196f3" opacity="0.2"/>
  
  <!-- Main radical shape 米 (rice) -->
  <!-- Central vertical stroke -->
  <path d="M250 160 L250 300" 
    stroke="#8d6e63" stroke-width="14" fill="none" stroke-linecap="round"/>
  
  <!-- Left diagonal stroke -->
  <path d="M200 200 L300 260" 
    stroke="#8d6e63" stroke-width="12" fill="none" stroke-linecap="round"/>
  
  <!-- Right diagonal stroke -->
  <path d="M300 200 L200 260" 
    stroke="#8d6e63" stroke-width="12" fill="none" stroke-linecap="round"/>
  
  <!-- Top horizontal stroke -->
  <path d="M220 180 L280 180" 
    stroke="#8d6e63" stroke-width="10" fill="none" stroke-linecap="round"/>
  
  <!-- Bottom horizontal stroke -->
  <path d="M220 280 L280 280" 
    stroke="#8d6e63" stroke-width="10" fill="none" stroke-linecap="round"/>
  
  <!-- Rice grains scattered -->
  <g fill="url(#riceGrad119)">
  <ellipse cx="180" cy="350" rx="3" ry="6"/>
  <ellipse cx="200" cy="360" rx="3" ry="6"/>
  <ellipse cx="220" cy="340" rx="3" ry="6"/>
  <ellipse cx="280" cy="350" rx="3" ry="6"/>
  <ellipse cx="300" cy="370" rx="3" ry="6"/>
  <ellipse cx="320" cy="340" rx="3" ry="6"/>
  <ellipse cx="160" cy="380" rx="3" ry="6"/>
  <ellipse cx="340" cy="380" rx="3" ry="6"/>
  
  <!-- Rice plants -->
  <g opacity="0.7">
  <!-- Left rice plant -->
  <path d="M150 400 L150 300" stroke="#4caf50" stroke-width="6" fill="none"/>
  <g fill="#ffcc02">
    <ellipse cx="145" cy="310" rx="4" ry="8"/>
    <ellipse cx="155" cy="315" rx="4" ry="8"/>
    <ellipse cx="140" cy="320" rx="4" ry="8"/>
    
    <!-- Right rice plant -->
    <path d="M350 400 L350 310" stroke="#4caf50" stroke-width="6" fill="none"/>
    <g fill="#ffcc02">
      <ellipse cx="345" cy="320" rx="4" ry="8"/>
      <ellipse cx="355" cy="325" rx="4" ry="8"/>
      <ellipse cx="350" cy="335" rx="4" ry="8"/>
    </g>
    </g>
  
    <!-- Rice bowl -->
    <g transform="translate(400,200)" opacity="0.8">
    <ellipse cx="0" cy="0" rx="30" ry="20" fill="#ffffff" stroke="#bdbdbd" stroke-width="2"/>
    <!-- Rice in bowl -->
    <g fill="#fff59d">
      <ellipse cx="-10" cy="-5" rx="3" ry="5"/>
      <ellipse cx="0" cy="-8" rx="3" ry="5"/>
      <ellipse cx="10" cy="-5" rx="3" ry="5"/>
      <ellipse cx="-5" cy="0" rx="3" ry="5"/>
      <ellipse cx="5" cy="0" rx="3" ry="5"/>
    </g>
    </g>
  
    <!-- Chopsticks -->
    <g transform="translate(420,180)" opacity="0.6">
    <rect x="0" y="0" width="25" height="2" rx="1" fill="#8d6e63"/>
    <rect x="0" y="5" width="25" height="2" rx="1" fill="#8d6e63"/>
    </g>
  
    <!-- Rice sack -->
    <g transform="translate(100,350)" opacity="0.6">
    <rect x="0" y="0" width="40" height="60" rx="5" fill="#d7ccc8"/>
    <rect x="5" y="5" width="30" height="50" fill="#f5f5f5"/>
    <!-- Rice spilling out -->
    <g fill="#fff59d">
      <ellipse cx="20" cy="65" rx="2" ry="4"/>
      <ellipse cx="25" cy="68" rx="2" ry="4"/>
      <ellipse cx="15" cy="70" rx="2" ry="4"/>
    </g>
    </g>
  
    <!-- Steam from cooked rice -->
    <g stroke="#e0e0e0" stroke-width="2" opacity="0.5" fill="none">
    <path d="M390 180 Q395 170 400 180 Q405 170 410 180"/>
    <path d="M385 170 Q390 160 395 170 Q400 160 405 170"/>
    </g>
  
    <!-- Farmer's hat -->
    <g transform="translate(80,150)" opacity="0.5">
    <ellipse cx="0" cy="0" rx="25" ry="8" fill="#8d6e63"/>
    <ellipse cx="0" cy="-8" rx="15" ry="12" fill="#d7ccc8"/>
    </g>
  
    <!-- Rice field reflection -->
    <g fill="#fff59d" opacity="0.3">
    <ellipse cx="250" cy="420" rx="150" ry="20"/>
    </g>
  
    <!-- Kanji character 米 -->
    <text x="100" y="120" font-family="serif" font-size="56" font-weight="bold" text-anchor="middle" fill="#8d6e63" opacity="0.8">米</text>
    </g>
  </g>
</svg> 