<svg xmlns="http://www.w3.org/2000/svg" width="500" height="500" viewBox="0 0 500 500">
  <defs>
    <linearGradient id="bgGrad122" x1="0%" y1="0%" x2="0%" y2="100%">
      <stop offset="0%" style="stop-color:#e1f5fe;stop-opacity:1" />
      <stop offset="100%" style="stop-color:#b3e5fc;stop-opacity:1" />
    </linearGradient>
    <linearGradient id="netGrad122" x1="0%" y1="0%" x2="0%" y2="100%">
      <stop offset="0%" style="stop-color:#607d8b;stop-opacity:1" />
      <stop offset="50%" style="stop-color:#455a64;stop-opacity:1" />
      <stop offset="100%" style="stop-color:#37474f;stop-opacity:1" />
    </linearGradient>
  </defs>
  
  <!-- Background -->
  <rect width="500" height="500" fill="url(#bgGrad122)"/>
  
  <!-- Water surface -->
  <rect x="0" y="400" width="500" height="100" fill="#2196f3" opacity="0.3"/>
  
  <!-- Main radical shape 罒 (net) -->
  <!-- Top horizontal stroke -->
  <path d="M180 160 L320 160" 
    stroke="#37474f" stroke-width="12" fill="none" stroke-linecap="round"/>
  
  <!-- Vertical strokes -->
  <path d="M200 160 L200 240" 
    stroke="#37474f" stroke-width="10" fill="none" stroke-linecap="round"/>
  <path d="M250 160 L250 240" 
    stroke="#37474f" stroke-width="10" fill="none" stroke-linecap="round"/>
  <path d="M300 160 L300 240" 
    stroke="#37474f" stroke-width="10" fill="none" stroke-linecap="round"/>
  
  <!-- Horizontal grid strokes -->
  <path d="M200 190 L300 190" 
    stroke="#37474f" stroke-width="8" fill="none" stroke-linecap="round"/>
  <path d="M200 210 L300 210" 
    stroke="#37474f" stroke-width="8" fill="none" stroke-linecap="round"/>
  
  <!-- Bottom stroke -->
  <path d="M180 240 L320 240" 
    stroke="#37474f" stroke-width="12" fill="none" stroke-linecap="round"/>
  
  <!-- Fishing net -->
  <g transform="translate(250,300)" stroke="url(#netGrad122)" stroke-width="2" fill="none" opacity="0.8">
  <!-- Net grid pattern -->
  <!-- Horizontal lines -->
  <line x1="-80" y1="-40" x2="80" y2="-40"/>
  <line x1="-80" y1="-20" x2="80" y2="-20"/>
  <line x1="-80" y1="0" x2="80" y2="0"/>
  <line x1="-80" y1="20" x2="80" y2="20"/>
  <line x1="-80" y1="40" x2="80" y2="40"/>
  <line x1="-80" y1="60" x2="80" y2="60"/>
  <!-- Vertical lines -->
  <line x1="-60" y1="-40" x2="-60" y2="60"/>
  <line x1="-30" y1="-40" x2="-30" y2="60"/>
  <line x1="0" y1="-40" x2="0" y2="60"/>
  <line x1="30" y1="-40" x2="30" y2="60"/>
  <line x1="60" y1="-40" x2="60" y2="60"/>
  
  <!-- Fish caught in net -->
  <g transform="translate(220,320)" fill="#ff7043" opacity="0.7">
  <ellipse cx="0" cy="0" rx="15" ry="8"/>
  <path d="M-15 0 L-25 -5 L-25 5 Z"/>
  <circle cx="5" cy="-2" r="2" fill="#000"/>
  
    <g transform="translate(280,340)" fill="#4caf50" opacity="0.7">
    <ellipse cx="0" cy="0" rx="12" ry="6"/>
    <path d="M-12 0 L-20 -4 L-20 4 Z"/>
    <circle cx="4" cy="-1" r="1" fill="#000"/>
    </g>
  
    <!-- Spider web -->
    <g transform="translate(120,200)" stroke="#607d8b" stroke-width="1" fill="none" opacity="0.6">
    <!-- Radial lines -->
    <line x1="0" y1="0" x2="0" y2="-40"/>
    <line x1="0" y1="0" x2="28" y2="-28"/>
    <line x1="0" y1="0" x2="40" y2="0"/>
    <line x1="0" y1="0" x2="28" y2="28"/>
    <line x1="0" y1="0" x2="0" y2="40"/>
    <line x1="0" y1="0" x2="-28" y2="28"/>
    <line x1="0" y1="0" x2="-40" y2="0"/>
    <line x1="0" y1="0" x2="-28" y2="-28"/>
    <!-- Circular lines -->
    <circle cx="0" cy="0" r="10"/>
    <circle cx="0" cy="0" r="20"/>
    <circle cx="0" cy="0" r="30"/>
    </g>
  
    <!-- Spider -->
    <g transform="translate(120,180)" fill="#37474f" opacity="0.7">
    <circle cx="0" cy="0" r="4"/>
    <!-- Legs -->
    <line x1="-6" y1="-2" x2="-12" y2="-6" stroke="#37474f" stroke-width="1"/>
    <line x1="-6" y1="2" x2="-12" y2="6" stroke="#37474f" stroke-width="1"/>
    <line x1="6" y1="-2" x2="12" y2="-6" stroke="#37474f" stroke-width="1"/>
    <line x1="6" y1="2" x2="12" y2="6" stroke="#37474f" stroke-width="1"/>
    </g>
  
    <!-- Fisherman -->
    <g transform="translate(380,350)" fill="#8d6e63" opacity="0.6">
    <!-- Head -->
    <circle cx="0" cy="0" r="8"/>
    <!-- Body -->
    <rect x="-5" y="8" width="10" height="20" rx="5"/>
    <!-- Arms -->
    <ellipse cx="-10" cy="15" rx="3" ry="8" transform="rotate(-20)"/>
    <ellipse cx="10" cy="15" rx="3" ry="8" transform="rotate(20)"/>
    <!-- Fishing rod -->
    <line x1="15" y1="10" x2="35" y2="-10" stroke="#8d6e63" stroke-width="2"/>
    </g>
  
    <!-- Net float buoys -->
    <g fill="#ff9800" opacity="0.7">
    <circle cx="180" cy="280" r="4"/>
    <circle cx="200" cy="285" r="4"/>
    <circle cx="300" cy="285" r="4"/>
    <circle cx="320" cy="280" r="4"/>
    </g>
  
    <!-- Water ripples from net -->
    <g stroke="#29b6f6" stroke-width="2" opacity="0.4" fill="none">
    <ellipse cx="250" cy="380" rx="60" ry="15"/>
    <ellipse cx="250" cy="380" rx="80" ry="20"/>
    <ellipse cx="250" cy="380" rx="100" ry="25"/>
    </g>
  
    <!-- Net weights -->
    <g fill="#455a64" opacity="0.8">
    <circle cx="190" cy="360" r="3"/>
    <circle cx="230" cy="365" r="3"/>
    <circle cx="270" cy="365" r="3"/>
    <circle cx="310" cy="360" r="3"/>
    </g>
  
    <!-- Kanji character 罒 -->
    
    </g>
  </g>
</svg> 