<svg xmlns="http://www.w3.org/2000/svg" width="500" height="500" viewBox="0 0 500 500">
  <defs>
    <linearGradient id="bgGrad124" x1="0%" y1="0%" x2="0%" y2="100%">
      <stop offset="0%" style="stop-color:#e3f2fd;stop-opacity:1" />
      <stop offset="100%" style="stop-color:#bbdefb;stop-opacity:1" />
    </linearGradient>
    <linearGradient id="featherGrad124" x1="0%" y1="0%" x2="0%" y2="100%">
      <stop offset="0%" style="stop-color:#ffffff;stop-opacity:1" />
      <stop offset="50%" style="stop-color:#f5f5f5;stop-opacity:1" />
      <stop offset="100%" style="stop-color:#e0e0e0;stop-opacity:1" />
    </linearGradient>
  </defs>
  
  <!-- Background -->
  <rect width="500" height="500" fill="url(#bgGrad124)"/>
  
  <!-- Clouds -->
  <g fill="#ffffff" opacity="0.6">
  <circle cx="100" cy="120" r="20"/>
  <circle cx="130" cy="115" r="25"/>
  <circle cx="160" cy="120" r="18"/>
  
  <circle cx="350" cy="100" r="15"/>
  <circle cx="370" cy="95" r="20"/>
  <circle cx="390" cy="100" r="12"/>
  
  <!-- Main radical shape 羽 (feather/wing) -->
  <!-- Left feather structure -->
  <path d="M180 160 L180 280" 
      stroke="#616161" stroke-width="12" fill="none" stroke-linecap="round"/>
  <path d="M160 180 L200 180" 
      stroke="#616161" stroke-width="8" fill="none" stroke-linecap="round"/>
  <path d="M160 210 L200 210" 
      stroke="#616161" stroke-width="8" fill="none" stroke-linecap="round"/>
  <path d="M160 240 L200 240" 
      stroke="#616161" stroke-width="8" fill="none" stroke-linecap="round"/>
  
  <!-- Right feather structure -->
  <path d="M320 160 L320 280" 
      stroke="#616161" stroke-width="12" fill="none" stroke-linecap="round"/>
  <path d="M300 180 L340 180" 
      stroke="#616161" stroke-width="8" fill="none" stroke-linecap="round"/>
  <path d="M300 210 L340 210" 
      stroke="#616161" stroke-width="8" fill="none" stroke-linecap="round"/>
  <path d="M300 240 L340 240" 
      stroke="#616161" stroke-width="8" fill="none" stroke-linecap="round"/>
  
  <!-- Large detailed feather -->
  <g transform="translate(250,300)">
  <!-- Feather shaft -->
  <path d="M0 -50 L0 100" stroke="#8d6e63" stroke-width="4" fill="none"/>
  
  <!-- Feather vanes -->
  <g fill="url(#featherGrad124)" stroke="#e0e0e0" stroke-width="1">
    <!-- Left side -->
    <path d="M0 -40 Q-20 -35 -25 -20 Q-20 -25 0 -30 Z"/>
    <path d="M0 -20 Q-25 -15 -30 0 Q-25 -5 0 -10 Z"/>
    <path d="M0 0 Q-30 5 -35 20 Q-30 15 0 10 Z"/>
    <path d="M0 20 Q-25 25 -30 40 Q-25 35 0 30 Z"/>
    <path d="M0 40 Q-20 45 -25 60 Q-20 55 0 50 Z"/>
    
    <!-- Right side -->
    <path d="M0 -40 Q20 -35 25 -20 Q20 -25 0 -30 Z"/>
    <path d="M0 -20 Q25 -15 30 0 Q25 -5 0 -10 Z"/>
    <path d="M0 0 Q30 5 35 20 Q30 15 0 10 Z"/>
    <path d="M0 20 Q25 25 30 40 Q25 35 0 30 Z"/>
    <path d="M0 40 Q20 45 25 60 Q20 55 0 50 Z"/>
    </g>
  
    <!-- Flying bird -->
    <g transform="translate(380,200)" fill="#424242" opacity="0.7">
    <!-- Bird body -->
    <ellipse cx="0" cy="0" rx="12" ry="6"/>
    <!-- Wings -->
    <ellipse cx="-8" cy="-2" rx="15" ry="4" transform="rotate(-20)"/>
    <ellipse cx="8" cy="-2" rx="15" ry="4" transform="rotate(20)"/>
    <!-- Head -->
    <circle cx="10" cy="-2" r="4"/>
    <!-- Beak -->
    <path d="M14 -2 L18 -1" stroke="#ff9800" stroke-width="2"/>
    </g>
  
    <!-- Feathers floating in air -->
    <g opacity="0.8">
    <!-- Small feather 1 -->
    <g transform="translate(120,250) rotate(45)">
      <path d="M0 -10 L0 20" stroke="#8d6e63" stroke-width="2" fill="none"/>
      <path d="M0 -8 Q-5 -5 -6 0 Q-5 -2 0 -4 Z" fill="url(#featherGrad124)"/>
      <path d="M0 -4 Q5 -1 6 4 Q5 2 0 0 Z" fill="url(#featherGrad124)"/>
      <path d="M0 0 Q-4 3 -5 8 Q-4 6 0 4 Z" fill="url(#featherGrad124)"/>
      <path d="M0 4 Q4 7 5 12 Q4 10 0 8 Z" fill="url(#featherGrad124)"/>
    </g>
    
    <!-- Small feather 2 -->
    <g transform="translate(400,300) rotate(-30)">
      <path d="M0 -8 L0 16" stroke="#8d6e63" stroke-width="2" fill="none"/>
      <path d="M0 -6 Q-4 -4 -5 0 Q-4 -1 0 -3 Z" fill="url(#featherGrad124)"/>
      <path d="M0 -3 Q4 -1 5 3 Q4 1 0 0 Z" fill="url(#featherGrad124)"/>
      <path d="M0 0 Q-3 2 -4 6 Q-3 4 0 3 Z" fill="url(#featherGrad124)"/>
      <path d="M0 3 Q3 5 4 9 Q3 7 0 6 Z" fill="url(#featherGrad124)"/>
    </g>
    </g>
  
    <!-- Wind currents -->
    <g stroke="#42a5f5" stroke-width="2" opacity="0.3" fill="none">
    <path d="M50 200 Q100 180 150 200"/>
    <path d="M350 250 Q400 230 450 250"/>
    <path d="M80 350 Q130 330 180 350"/>
    </g>
  
    <!-- Angel or bird wing silhouette -->
    <g transform="translate(100,350)" fill="#90a4ae" opacity="0.4">
    <path d="M0 0 Q-20 -30 -40 -20 Q-30 -10 -20 -15 Q-10 -20 0 0 Q10 -20 20 -15 Q30 -10 40 -20 Q20 -30 0 0"/>
    </g>
  
    <!-- Flight path -->
    <path d="M150 400 Q250 350 350 400 Q400 420 450 400" 
        stroke="#64b5f6" stroke-width="2" opacity="0.4" fill="none" stroke-dasharray="5,5"/>
  
    <!-- Nest with feathers -->
    <g transform="translate(80,420)" opacity="0.6">
    <ellipse cx="0" cy="0" rx="25" ry="10" fill="#8d6e63"/>
    <!-- Feathers in nest -->
    <g fill="url(#featherGrad124)">
      <ellipse cx="-8" cy="-3" rx="3" ry="8" transform="rotate(-15)"/>
      <ellipse cx="0" cy="-5" rx="3" ry="8"/>
      <ellipse cx="8" cy="-3" rx="3" ry="8" transform="rotate(15)"/>
    </g>
    </g>
  
    <!-- Kanji character 羽 -->
    
    </g>
  </g>
</svg> 