<svg xmlns="http://www.w3.org/2000/svg" width="500" height="500" viewBox="0 0 500 500">
  <defs>
    <linearGradient id="bgGrad126" x1="0%" y1="0%" x2="0%" y2="100%">
      <stop offset="0%" style="stop-color:#e3f2fd;stop-opacity:1" />
      <stop offset="100%" style="stop-color:#bbdefb;stop-opacity:1" />
    </linearGradient>
    <linearGradient id="connectGrad126" x1="0%" y1="0%" x2="100%" y2="0%">
      <stop offset="0%" style="stop-color:#1976d2;stop-opacity:1" />
      <stop offset="50%" style="stop-color:#42a5f5;stop-opacity:1" />
      <stop offset="100%" style="stop-color:#1976d2;stop-opacity:1" />
    </linearGradient>
  </defs>
  
  <!-- Background -->
  <rect width="500" height="500" fill="url(#bgGrad126)"/>
  
  <!-- Main radical shape 而 (and/while) -->
  <!-- Top horizontal stroke -->
  <path d="M180 150 L320 150" 
    stroke="#1976d2" stroke-width="14" fill="none" stroke-linecap="round"/>
  
  <!-- Left vertical stroke -->
  <path d="M200 150 L200 280" 
    stroke="#1976d2" stroke-width="12" fill="none" stroke-linecap="round"/>
  
  <!-- Right vertical stroke -->
  <path d="M300 150 L300 280" 
    stroke="#1976d2" stroke-width="12" fill="none" stroke-linecap="round"/>
  
  <!-- Middle horizontal strokes -->
  <path d="M200 190 L300 190" 
    stroke="#1976d2" stroke-width="10" fill="none" stroke-linecap="round"/>
  <path d="M200 220 L300 220" 
    stroke="#1976d2" stroke-width="10" fill="none" stroke-linecap="round"/>
  <path d="M200 250 L300 250" 
    stroke="#1976d2" stroke-width="10" fill="none" stroke-linecap="round"/>
  
  <!-- Bottom strokes -->
  <path d="M220 280 L240 300" 
    stroke="#1976d2" stroke-width="10" fill="none" stroke-linecap="round"/>
  <path d="M260 280 L280 300" 
    stroke="#1976d2" stroke-width="10" fill="none" stroke-linecap="round"/>
  
  <!-- Bridge connecting two sides -->
  <g transform="translate(250,350)">
  <!-- Bridge structure -->
  <rect x="-80" y="-10" width="160" height="20" rx="10" fill="url(#connectGrad126)"/>
  <!-- Bridge supports -->
  <rect x="-60" y="10" width="8" height="30" fill="#1976d2"/>
  <rect x="-20" y="10" width="8" height="30" fill="#1976d2"/>
  <rect x="20" y="10" width="8" height="30" fill="#1976d2"/>
  <rect x="60" y="10" width="8" height="30" fill="#1976d2"/>
  
  <!-- Water beneath -->
  <ellipse cx="0" cy="60" rx="100" ry="15" fill="#29b6f6" opacity="0.5"/>
  
  <!-- Two elements being connected -->
  <g opacity="0.7">
  <!-- Left element -->
  <g transform="translate(120,200)">
    <circle cx="0" cy="0" r="25" fill="#ff9800"/>
    <circle cx="0" cy="0" r="15" fill="#ff6f00"/>
    <text x="0" y="5" font-family="serif" font-size="20" text-anchor="middle" fill="#fff">A</text>
    
    <!-- Right element -->
    <g transform="translate(380,200)">
      <circle cx="0" cy="0" r="25" fill="#4caf50"/>
      <circle cx="0" cy="0" r="15" fill="#388e3c"/>
      <text x="0" y="5" font-family="serif" font-size="20" text-anchor="middle" fill="#fff">B</text>
    </g>
    </g>
  
    <!-- Connection line -->
    <path d="M145 200 Q250 180 355 200" 
        stroke="url(#connectGrad126)" stroke-width="4" fill="none" opacity="0.6"/>
  
    <!-- Chain links -->
    <g transform="translate(250,180)" opacity="0.8">
    <g stroke="#757575" stroke-width="3" fill="none">
      <ellipse cx="-20" cy="0" rx="8" ry="12"/>
      <ellipse cx="0" cy="0" rx="8" ry="12"/>
      <ellipse cx="20" cy="0" rx="8" ry="12"/>
    </g>
    </g>
  
    <!-- Yin-yang (harmony/connection) -->
    <g transform="translate(100,350)" opacity="0.6">
    <circle cx="0" cy="0" r="20" fill="#424242"/>
    <path d="M0 -20 A20 20 0 0 1 0 20 A10 10 0 0 1 0 0 A10 10 0 0 0 0 -20" fill="#ffffff"/>
    <circle cx="0" cy="-10" r="3" fill="#424242"/>
    <circle cx="0" cy="10" r="3" fill="#ffffff"/>
    </g>
  
    <!-- Handshake -->
    <g transform="translate(380,350)" opacity="0.7">
    <!-- Left hand -->
    <ellipse cx="-10" cy="0" rx="8" ry="15" fill="#ffdbcb" transform="rotate(-30)"/>
    <!-- Right hand -->
    <ellipse cx="10" cy="0" rx="8" ry="15" fill="#ffdbcb" transform="rotate(30)"/>
    <!-- Fingers interlocked -->
    <g fill="#ffdbcb">
      <ellipse cx="-5" cy="-8" rx="2" ry="6"/>
      <ellipse cx="5" cy="-8" rx="2" ry="6"/>
    </g>
    </g>
  
    <!-- Traffic junction -->
    <g transform="translate(100,100)" opacity="0.5">
    <rect x="-30" y="-3" width="60" height="6" fill="#757575"/>
    <rect x="-3" y="-30" width="6" height="60" fill="#757575"/>
    <circle cx="0" cy="0" r="8" fill="#ffcc02"/>
    </g>
  
    <!-- Venn diagram -->
    <g transform="translate(400,100)" opacity="0.4">
    <circle cx="-8" cy="0" r="15" fill="#ff9800" opacity="0.5"/>
    <circle cx="8" cy="0" r="15" fill="#2196f3" opacity="0.5"/>
    </g>
  
    <!-- Flow arrows -->
    <g stroke="#42a5f5" stroke-width="3" opacity="0.5" fill="none">
    <path d="M50 250 L80 250"/>
    <path d="M70 245 L80 250 L70 255"/>
    
    <path d="M420 250 L450 250"/>
    <path d="M440 245 L450 250 L440 255"/>
    </g>
  
    <!-- Transition symbols -->
    <g transform="translate(250,450)" opacity="0.6">
    <path d="M-20 0 L20 0" stroke="#1976d2" stroke-width="4"/>
    <path d="M-20 -10 L-20 10" stroke="#1976d2" stroke-width="4"/>
    <path d="M20 -10 L20 10" stroke="#1976d2" stroke-width="4"/>
    <path d="M10 -5 L20 0 L10 5" stroke="#1976d2" stroke-width="4" fill="none"/>
    </g>
  
    <!-- Kanji character 而 -->
    <text x="100" y="120" font-family="serif" font-size="56" font-weight="bold" text-anchor="middle" fill="#1976d2" opacity="0.8">而</text>
    </g>
  </g>
</svg> 