<svg xmlns="http://www.w3.org/2000/svg" width="500" height="500" viewBox="0 0 500 500">
  <defs>
    <linearGradient id="bgGrad127" x1="0%" y1="0%" x2="0%" y2="100%">
      <stop offset="0%" style="stop-color:#e8f5e8;stop-opacity:1" />
      <stop offset="100%" style="stop-color:#c8e6c8;stop-opacity:1" />
    </linearGradient>
    <linearGradient id="plowGrad127" x1="0%" y1="0%" x2="0%" y2="100%">
      <stop offset="0%" style="stop-color:#8d6e63;stop-opacity:1" />
      <stop offset="50%" style="stop-color:#6d4c41;stop-opacity:1" />
      <stop offset="100%" style="stop-color:#5d4037;stop-opacity:1" />
    </linearGradient>
  </defs>
  
  <!-- Background -->
  <rect width="500" height="500" fill="url(#bgGrad127)"/>
  
  <!-- Farmland -->
  <rect x="0" y="400" width="500" height="100" fill="#8d6e63" opacity="0.4"/>
  
  <!-- Plowed furrows -->
  <g stroke="#6d4c41" stroke-width="3" opacity="0.6" fill="none">
  <line x1="0" y1="420" x2="500" y2="420"/>
  <line x1="0" y1="440" x2="500" y2="440"/>
  <line x1="0" y1="460" x2="500" y2="460"/>
  <line x1="0" y1="480" x2="500" y2="480"/>
  
  <!-- Traditional plow -->
  <g transform="translate(250,300)">
  <!-- Plow handle -->
  <rect x="-5" y="-80" width="10" height="100" fill="url(#plowGrad127)" transform="rotate(-15)"/>
  
  <!-- Plow blade -->
  <path d="M0 0 L-30 20 L-35 40 L-10 45 L20 30 L25 10 Z" 
        fill="#757575" stroke="#616161" stroke-width="2"/>
  
  <!-- Moldboard -->
  <path d="M-10 45 Q0 55 20 50 Q30 40 25 30" 
        fill="#9e9e9e" stroke="#757575" stroke-width="2"/>
  
  <!-- Connecting beam -->
  <rect x="-40" y="-10" width="60" height="8" fill="url(#plowGrad127)"/>
  
    <!-- Main radical shape 耒 (plow) -->
    <!-- Top part -->
    <path d="M230 150 L270 150" 
        stroke="#5d4037" stroke-width="12" fill="none" stroke-linecap="round"/>
    <path d="M250 130 L250 170" 
        stroke="#5d4037" stroke-width="10" fill="none" stroke-linecap="round"/>
  
    <!-- Middle section -->
    <path d="M220 190 L280 190" 
        stroke="#5d4037" stroke-width="12" fill="none" stroke-linecap="round"/>
  
    <!-- Vertical strokes -->
    <path d="M230 190 L230 240" 
        stroke="#5d4037" stroke-width="10" fill="none" stroke-linecap="round"/>
    <path d="M270 190 L270 240" 
        stroke="#5d4037" stroke-width="10" fill="none" stroke-linecap="round"/>
  
    <!-- Bottom horizontal stroke -->
    <path d="M210 240 L290 240" 
        stroke="#5d4037" stroke-width="12" fill="none" stroke-linecap="round"/>
  
    <!-- Farmer with ox/buffalo -->
    <g transform="translate(120,350)" opacity="0.7">
    <!-- Ox/buffalo -->
    <ellipse cx="0" cy="0" rx="40" ry="25" fill="#8d6e63"/>
    <ellipse cx="30" cy="-10" rx="15" ry="12" fill="#8d6e63"/>
    <!-- Horns -->
    <path d="M35 -20 L40 -30" stroke="#424242" stroke-width="3"/>
    <path d="M45 -20 L50 -30" stroke="#424242" stroke-width="3"/>
    <!-- Legs -->
    <rect x="-25" y="25" width="6" height="20" fill="#6d4c41"/>
    <rect x="-10" y="25" width="6" height="20" fill="#6d4c41"/>
    <rect x="5" y="25" width="6" height="20" fill="#6d4c41"/>
    <rect x="20" y="25" width="6" height="20" fill="#6d4c41"/>
    
    <!-- Farmer -->
    <g transform="translate(-80,0)">
      <circle cx="0" cy="-20" r="8" fill="#ffdbcb"/>
      <rect x="-6" y="-12" width="12" height="25" fill="#8d6e63"/>
      <ellipse cx="-8" cy="-5" rx="3" ry="10" fill="#8d6e63" transform="rotate(-20)"/>
      <ellipse cx="8" cy="-5" rx="3" ry="10" fill="#8d6e63" transform="rotate(20)"/>
    </g>
    </g>
  
    <!-- Seeds being planted -->
    <g fill="#ffcc02" opacity="0.6">
    <circle cx="180" cy="430" r="2"/>
    <circle cx="200" cy="425" r="2"/>
    <circle cx="320" cy="435" r="2"/>
    <circle cx="280" cy="445" r="2"/>
    </g>
  
    <!-- Growing crops -->
    <g opacity="0.5">
    <g transform="translate(380,400)">
      <path d="M0 0 L0 -30" stroke="#4caf50" stroke-width="3"/>
      <ellipse cx="-3" cy="-25" rx="2" ry="8" fill="#66bb6a"/>
      <ellipse cx="3" cy="-25" rx="2" ry="8" fill="#66bb6a"/>
    </g>
    
    <g transform="translate(420,410)">
      <path d="M0 0 L0 -25" stroke="#4caf50" stroke-width="3"/>
      <ellipse cx="-2" cy="-20" rx="2" ry="6" fill="#66bb6a"/>
      <ellipse cx="2" cy="-20" rx="2" ry="6" fill="#66bb6a"/>
    </g>
    </g>
  
    <!-- Harrow/rake -->
    <g transform="translate(100,200)" opacity="0.6">
    <rect x="0" y="0" width="60" height="6" fill="url(#plowGrad127)"/>
    <!-- Teeth -->
    <rect x="10" y="6" width="3" height="15" fill="#757575"/>
    <rect x="20" y="6" width="3" height="15" fill="#757575"/>
    <rect x="30" y="6" width="3" height="15" fill="#757575"/>
    <rect x="40" y="6" width="3" height="15" fill="#757575"/>
    <rect x="50" y="6" width="3" height="15" fill="#757575"/>
    <!-- Handle -->
    <rect x="55" y="-20" width="4" height="25" fill="url(#plowGrad127)"/>
    </g>
  
    <!-- Yoke -->
    <g transform="translate(380,200)" opacity="0.5">
    <path d="M0 0 Q-20 -10 -40 0 Q-20 -5 0 0" 
          fill="url(#plowGrad127)" stroke="#6d4c41" stroke-width="2"/>
    <rect x="-35" y="-2" width="4" height="15" fill="url(#plowGrad127)"/>
    <rect x="-5" y="-2" width="4" height="15" fill="url(#plowGrad127)"/>
    </g>
  
    <!-- Field boundary stones -->
    <g fill="#9e9e9e" opacity="0.6">
    <circle cx="80" cy="380" r="8"/>
    <circle cx="420" cy="390" r="6"/>
    </g>
  
    <!-- Sun -->
    <g transform="translate(400,100)" fill="#ffcc02" opacity="0.7">
    <circle cx="0" cy="0" r="20"/>
    <!-- Sun rays -->
    <g stroke="#ffcc02" stroke-width="3">
      <line x1="0" y1="-30" x2="0" y2="-35"/>
      <line x1="21" y1="-21" x2="25" y2="-25"/>
      <line x1="30" y1="0" x2="35" y2="0"/>
      <line x1="21" y1="21" x2="25" y2="25"/>
      <line x1="0" y1="30" x2="0" y2="35"/>
      <line x1="-21" y1="21" x2="-25" y2="25"/>
      <line x1="-30" y1="0" x2="-35" y2="0"/>
      <line x1="-21" y1="-21" x2="-25" y2="-25"/>
    </g>
    </g>
  
    <!-- Kanji character 耒 -->
    <text x="100" y="120" font-family="serif" font-size="56" font-weight="bold" text-anchor="middle" fill="#5d4037" opacity="0.8">耒</text>
    </g>
  </g>
</svg> 