<svg xmlns="http://www.w3.org/2000/svg" width="500" height="500" viewBox="0 0 500 500">
  <defs>
    <linearGradient id="bgGrad128" x1="0%" y1="0%" x2="0%" y2="100%">
      <stop offset="0%" style="stop-color:#fff3e0;stop-opacity:1" />
      <stop offset="100%" style="stop-color:#ffe0b2;stop-opacity:1" />
    </linearGradient>
    <radialGradient id="earGrad128" cx="30%" cy="30%" r="70%">
      <stop offset="0%" style="stop-color:#ffdbcb;stop-opacity:1" />
      <stop offset="50%" style="stop-color:#ffab91;stop-opacity:1" />
      <stop offset="100%" style="stop-color:#ff8a65;stop-opacity:1" />
    </radialGradient>
  </defs>
  
  <!-- Background -->
  <rect width="500" height="500" fill="url(#bgGrad128)"/>
  
  <!-- Main ear -->
  <g transform="translate(250,250)">
  <!-- Outer ear -->
  <path d="M-30 -50 Q-50 -30 -50 0 Q-50 30 -30 50 Q-20 60 0 50 Q20 40 20 20 Q20 0 10 -20 Q0 -40 -10 -50 Q-20 -55 -30 -50" 
      fill="url(#earGrad128)" stroke="#ff7043" stroke-width="2"/>
  
  <!-- Inner ear -->
  <path d="M-20 -30 Q-30 -10 -30 10 Q-30 30 -20 40 Q-10 45 0 40 Q10 30 10 10 Q10 -10 0 -20 Q-10 -35 -20 -30" 
      fill="#ff8a65"/>
  
  <!-- Ear canal -->
  <ellipse cx="-5" cy="0" rx="8" ry="15" fill="#ff7043"/>
  
  <!-- Earlobe -->
  <ellipse cx="-25" cy="45" rx="8" ry="12" fill="url(#earGrad128)"/>
  
  <!-- Main radical shape 耳 (ear) -->
  <!-- Outer rectangle -->
  <rect x="180" y="150" width="140" height="120" fill="none" stroke="#d84315" stroke-width="12" rx="10"/>
  
  <!-- Inner horizontal lines -->
  <path d="M190 180 L310 180" 
      stroke="#d84315" stroke-width="8" fill="none" stroke-linecap="round"/>
  <path d="M190 210 L310 210" 
      stroke="#d84315" stroke-width="8" fill="none" stroke-linecap="round"/>
  <path d="M190 240 L310 240" 
      stroke="#d84315" stroke-width="8" fill="none" stroke-linecap="round"/>
  
  <!-- Central vertical line -->
  <path d="M250 150 L250 270" 
      stroke="#d84315" stroke-width="10" fill="none" stroke-linecap="round"/>
  
  <!-- Sound waves -->
  <g stroke="#ff9800" stroke-width="3" opacity="0.6" fill="none">
  <ellipse cx="350" cy="200" rx="30" ry="15"/>
  <ellipse cx="350" cy="200" rx="50" ry="25"/>
  <ellipse cx="350" cy="200" rx="70" ry="35"/>
  <ellipse cx="350" cy="200" rx="90" ry="45"/>
  
    <!-- Music notes -->
    <g transform="translate(400,150)" fill="#ff5722" opacity="0.7">
    <circle cx="0" cy="0" r="6"/>
    <rect x="6" y="-20" width="2" height="20"/>
    <path d="M8 -20 Q15 -25 20 -20" stroke="#ff5722" stroke-width="2" fill="none"/>
    
    <circle cx="0" cy="30" r="5"/>
    <rect x="5" y="10" width="2" height="20"/>
    </g>
  
    <!-- Listening person -->
    <g transform="translate(120,300)" opacity="0.7">
    <!-- Head -->
    <circle cx="0" cy="0" r="20" fill="url(#earGrad128)"/>
    <!-- Ear -->
    <ellipse cx="20" cy="-5" rx="6" ry="12" fill="url(#earGrad128)"/>
    <!-- Body -->
    <rect x="-10" y="20" width="20" height="40" fill="#8d6e63"/>
    <!-- Hand cupped to ear -->
    <ellipse cx="25" cy="-10" rx="8" ry="5" fill="url(#earGrad128)" transform="rotate(30)"/>
    </g>
  
    <!-- Speaker -->
    <g transform="translate(380,350)" opacity="0.8">
    <rect x="0" y="0" width="30" height="20" fill="#424242"/>
    <!-- Sound cone -->
    <path d="M30 10 L50 0 L50 20 Z" fill="#757575"/>
    <!-- Sound waves from speaker -->
    <g stroke="#ff9800" stroke-width="2" opacity="0.5" fill="none">
      <path d="M55 5 Q65 0 75 5"/>
      <path d="M55 10 Q70 5 85 10"/>
      <path d="M55 15 Q65 20 75 15"/>
    </g>
    </g>
  
    <!-- Tuning fork -->
    <g transform="translate(100,200)" opacity="0.6">
    <rect x="0" y="0" width="3" height="40" fill="#9e9e9e"/>
    <rect x="-8" y="-20" width="3" height="25" fill="#9e9e9e"/>
    <rect x="8" y="-20" width="3" height="25" fill="#9e9e9e"/>
    <!-- Vibration lines -->
    <g stroke="#ff9800" stroke-width="1" opacity="0.5">
      <line x1="-12" y1="-10" x2="-15" y2="-10"/>
      <line x1="12" y1="-10" x2="15" y2="-10"/>
    </g>
    </g>
  
    <!-- Sound spectrum -->
    <g transform="translate(100,400)" opacity="0.5">
    <rect x="0" y="0" width="3" height="20" fill="#ff5722"/>
    <rect x="5" y="-5" width="3" height="30" fill="#ff7043"/>
    <rect x="10" y="-10" width="3" height="40" fill="#ff8a65"/>
    <rect x="15" y="-3" width="3" height="26" fill="#ffab91"/>
    <rect x="20" y="5" width="3" height="15" fill="#ffcc02"/>
    </g>
  
    <!-- Hearing aid -->
    <g transform="translate(380,280)" opacity="0.6">
    <ellipse cx="0" cy="0" rx="8" ry="12" fill="#f5f5f5" stroke="#9e9e9e" stroke-width="1"/>
    <circle cx="0" cy="0" r="3" fill="#424242"/>
    <path d="M0 12 Q5 15 10 10" stroke="#9e9e9e" stroke-width="2" fill="none"/>
    </g>
  
    <!-- Echo effect -->
    <g stroke="#ffab91" stroke-width="2" opacity="0.3" fill="none">
    <path d="M150 250 Q200 230 250 250"/>
    <path d="M250 250 Q300 230 350 250"/>
    <path d="M150 260 Q200 240 250 260"/>
    <path d="M250 260 Q300 240 350 260"/>
    </g>
  
    <!-- Sound meter -->
    <g transform="translate(100,100)" opacity="0.5">
    <rect x="0" y="0" width="40" height="20" fill="#424242" stroke="#9e9e9e" stroke-width="1"/>
    <rect x="5" y="5" width="10" height="10" fill="#4caf50"/>
    <rect x="20" y="5" width="10" height="10" fill="#ff9800"/>
    <rect x="35" y="5" width="3" height="10" fill="#f44336"/>
    </g>
  
    <!-- Kanji character 耳 -->
    <text x="100" y="120" font-family="serif" font-size="56" font-weight="bold" text-anchor="middle" fill="#d84315" opacity="0.8">耳</text>
    </g>
  </g>
</svg> 