<svg xmlns="http://www.w3.org/2000/svg" width="500" height="500" viewBox="0 0 500 500">
  <defs>
    <linearGradient id="bgGrad130" x1="0%" y1="0%" x2="0%" y2="100%">
      <stop offset="0%" style="stop-color:#fff3e0;stop-opacity:1" />
      <stop offset="100%" style="stop-color:#ffe0b2;stop-opacity:1" />
    </linearGradient>
    <radialGradient id="meatGrad130" cx="30%" cy="30%" r="70%">
      <stop offset="0%" style="stop-color:#ffcdd2;stop-opacity:1" />
      <stop offset="50%" style="stop-color:#f8bbd9;stop-opacity:1" />
      <stop offset="100%" style="stop-color:#e91e63;stop-opacity:1" />
    </radialGradient>
  </defs>
  
  <!-- Background -->
  <rect width="500" height="500" fill="url(#bgGrad130)"/>
  
  <!-- Cutting board -->
  <rect x="150" y="350" width="200" height="120" rx="10" fill="#8d6e63" opacity="0.7"/>
  
  <!-- Main piece of meat -->
  <g transform="translate(250,300)">
  <!-- Meat slab -->
  <ellipse cx="0" cy="0" rx="60" ry="40" fill="url(#meatGrad130)" stroke="#e91e63" stroke-width="2"/>
  
  <!-- Marbling/fat -->
  <g fill="#ffffff" opacity="0.7">
  <ellipse cx="-20" cy="-10" rx="8" ry="4"/>
  <ellipse cx="15" cy="5" rx="6" ry="3"/>
  <ellipse cx="-5" cy="15" rx="7" ry="4"/>
  <ellipse cx="25" cy="-15" rx="5" ry="3"/>
  
  <!-- Meat texture lines -->
  <g stroke="#c2185b" stroke-width="1" opacity="0.6">
    <line x1="-40" y1="-20" x2="-30" y2="-10"/>
    <line x1="-35" y1="10" x2="-25" y2="20"/>
    <line x1="10" y1="-25" x2="20" y2="-15"/>
    <line x1="30" y1="0" x2="40" y2="10"/>
    </g>
  
    <!-- Main radical shape 肉 (meat) -->
    <!-- Outer strokes -->
    <path d="M180 150 L320 150" 
        stroke="#d32f2f" stroke-width="14" fill="none" stroke-linecap="round"/>
    <path d="M180 270 L320 270" 
        stroke="#d32f2f" stroke-width="14" fill="none" stroke-linecap="round"/>
  
    <!-- Vertical strokes -->
    <path d="M200 150 L200 270" 
        stroke="#d32f2f" stroke-width="12" fill="none" stroke-linecap="round"/>
    <path d="M300 150 L300 270" 
        stroke="#d32f2f" stroke-width="12" fill="none" stroke-linecap="round"/>
  
    <!-- Inner horizontal strokes -->
    <path d="M200 190 L300 190" 
        stroke="#d32f2f" stroke-width="10" fill="none" stroke-linecap="round"/>
    <path d="M200 230 L300 230" 
        stroke="#d32f2f" stroke-width="10" fill="none" stroke-linecap="round"/>
  
    <!-- Butcher knife -->
    <g transform="translate(380,250)" opacity="0.8">
    <!-- Blade -->
    <path d="M0 0 L30 -5 L35 10 L30 25 L0 20 Z" fill="#e0e0e0" stroke="#9e9e9e" stroke-width="1"/>
    <!-- Handle -->
    <rect x="-15" y="5" width="20" height="10" rx="5" fill="#8d6e63"/>
    <!-- Edge -->
    <line x1="30" y1="-5" x2="30" y2="25" stroke="#757575" stroke-width="2"/>
    </g>
  
    <!-- Smaller meat cuts -->
    <g opacity="0.7">
    <!-- Left cut -->
    <g transform="translate(120,250)">
      <ellipse cx="0" cy="0" rx="25" ry="18" fill="url(#meatGrad130)"/>
      <ellipse cx="-8" cy="-5" rx="4" ry="2" fill="#ffffff" opacity="0.7"/>
      <ellipse cx="6" cy="3" rx="3" ry="2" fill="#ffffff" opacity="0.7"/>
    </g>
    
    <!-- Right cut -->
    <g transform="translate(380,320)">
      <ellipse cx="0" cy="0" rx="20" ry="15" fill="url(#meatGrad130)"/>
      <ellipse cx="-6" cy="-3" rx="3" ry="2" fill="#ffffff" opacity="0.7"/>
      <ellipse cx="4" cy="2" rx="2" ry="1" fill="#ffffff" opacity="0.7"/>
    </g>
    </g>
  
    <!-- Bone -->
    <g transform="translate(100,350)" opacity="0.6">
    <ellipse cx="0" cy="0" rx="8" ry="25" fill="#fff8e1"/>
    <ellipse cx="0" cy="-20" rx="12" ry="8" fill="#fff8e1"/>
    <ellipse cx="0" cy="20" rx="12" ry="8" fill="#fff8e1"/>
    <!-- Bone texture -->
    <g stroke="#f5f5dc" stroke-width="1">
      <line x1="-5" y1="-15" x2="5" y2="-15"/>
      <line x1="-5" y1="0" x2="5" y2="0"/>
      <line x1="-5" y1="15" x2="5" y2="15"/>
    </g>
    </g>
  
    <!-- Butcher's block -->
    <g transform="translate(150,400)" opacity="0.5">
    <rect x="0" y="0" width="80" height="40" rx="5" fill="#6d4c41"/>
    <rect x="5" y="5" width="70" height="30" fill="#8d6e63"/>
    <!-- Cut marks -->
    <g stroke="#5d4037" stroke-width="1">
      <line x1="20" y1="5" x2="20" y2="35"/>
      <line x1="40" y1="5" x2="40" y2="35"/>
      <line x1="60" y1="5" x2="60" y2="35"/>
    </g>
    </g>
  
    <!-- Sausages -->
    <g transform="translate(350,380)" opacity="0.7">
    <ellipse cx="0" cy="0" rx="15" ry="6" fill="#d32f2f"/>
    <ellipse cx="0" cy="15" rx="15" ry="6" fill="#d32f2f"/>
    <ellipse cx="0" cy="30" rx="15" ry="6" fill="#d32f2f"/>
    <!-- Casing texture -->
    <g stroke="#b71c1c" stroke-width="1">
      <line x1="-10" y1="0" x2="10" y2="0"/>
      <line x1="-10" y1="15" x2="10" y2="15"/>
      <line x1="-10" y1="30" x2="10" y2="30"/>
    </g>
    </g>
  
    <!-- Meat hook -->
    <g transform="translate(100,150)" opacity="0.6">
    <path d="M0 0 Q10 -10 20 0 Q25 5 20 15 L15 25" 
          stroke="#757575" stroke-width="4" fill="none"/>
    <circle cx="0" cy="0" r="3" fill="#9e9e9e"/>
    </g>
  
    <!-- Grilling marks -->
    <g transform="translate(250,300)" stroke="#8d4e00" stroke-width="2" opacity="0.4">
    <line x1="-30" y1="-20" x2="30" y2="-20"/>
    <line x1="-30" y1="-10" x2="30" y2="-10"/>
    <line x1="-30" y1="0" x2="30" y2="0"/>
    <line x1="-30" y1="10" x2="30" y2="10"/>
    <line x1="-30" y1="20" x2="30" y2="20"/>
    </g>
  
    <!-- Meat cleaver -->
    <g transform="translate(420,180)" opacity="0.7">
    <rect x="0" y="0" width="25" height="40" fill="#e0e0e0" stroke="#9e9e9e" stroke-width="1"/>
    <rect x="8" y="40" width="8" height="20" fill="#8d6e63"/>
    <!-- Cleaver edge -->
    <line x1="0" y1="0" x2="0" y2="40" stroke="#757575" stroke-width="3"/>
    </g>
  
    <!-- Blood droplets -->
    <g fill="#b71c1c" opacity="0.5">
    <circle cx="200" cy="380" r="2"/>
    <circle cx="280" cy="390" r="1"/>
    <circle cx="320" cy="420" r="2"/>
    </g>
  
    <!-- Kanji character 肉 -->
    <text x="100" y="120" font-family="serif" font-size="56" font-weight="bold" text-anchor="middle" fill="#d32f2f" opacity="0.8">肉</text>
    </g>
  </g>
</svg> 