<svg xmlns="http://www.w3.org/2000/svg" width="500" height="500" viewBox="0 0 500 500">
  <defs>
    <linearGradient id="bgGrad131" x1="0%" y1="0%" x2="0%" y2="100%">
      <stop offset="0%" style="stop-color:#e8eaf6;stop-opacity:1" />
      <stop offset="100%" style="stop-color:#c5cae9;stop-opacity:1" />
    </linearGradient>
    <linearGradient id="robeGrad131" x1="0%" y1="0%" x2="0%" y2="100%">
      <stop offset="0%" style="stop-color:#3f51b5;stop-opacity:1" />
      <stop offset="50%" style="stop-color:#303f9f;stop-opacity:1" />
      <stop offset="100%" style="stop-color:#1a237e;stop-opacity:1" />
    </linearGradient>
  </defs>
  
  <!-- Background -->
  <rect width="500" height="500" fill="url(#bgGrad131)"/>
  
  <!-- Palace/court setting -->
  <rect x="50" y="400" width="400" height="100" fill="#8d6e63" opacity="0.3"/>
  
  <!-- Court official/minister -->
  <g transform="translate(250,300)">
  <!-- Head -->
  <circle cx="0" cy="0" r="20" fill="#ffdbcb"/>
  
  <!-- Hat/cap -->
  <ellipse cx="0" cy="-15" rx="25" ry="10" fill="#1a237e"/>
  <rect x="-20" y="-20" width="40" height="8" fill="#1a237e"/>
  
  <!-- Eyes -->
  <circle cx="-8" cy="-5" r="2" fill="#424242"/>
  <circle cx="8" cy="-5" r="2" fill="#424242"/>
  
  <!-- Mustache -->
  <path d="M-10 5 Q0 8 10 5" stroke="#8d6e63" stroke-width="2" fill="none"/>
  
  <!-- Formal robes -->
  <ellipse cx="0" cy="60" rx="40" ry="60" fill="url(#robeGrad131)"/>
  
  <!-- Sleeves -->
  <ellipse cx="-35" cy="40" rx="15" ry="35" fill="url(#robeGrad131)" transform="rotate(-20)"/>
  <ellipse cx="35" cy="40" rx="15" ry="35" fill="url(#robeGrad131)" transform="rotate(20)"/>
  
  <!-- Hands in formal pose -->
  <circle cx="-25" cy="25" r="8" fill="#ffdbcb"/>
  <circle cx="25" cy="25" r="8" fill="#ffdbcb"/>
  
  <!-- Formal belt -->
  <rect x="-30" y="40" width="60" height="8" fill="#ff9800"/>
  
  <!-- Main radical shape 臣 (retainer/minister) -->
  <!-- Outer rectangle -->
  <rect x="180" y="150" width="140" height="120" fill="none" stroke="#3f51b5" stroke-width="12" rx="5"/>
  
  <!-- Inner vertical line -->
  <path d="M250 150 L250 270" 
      stroke="#3f51b5" stroke-width="10" fill="none" stroke-linecap="round"/>
  
  <!-- Top horizontal line -->
  <path d="M180 180 L320 180" 
      stroke="#3f51b5" stroke-width="8" fill="none" stroke-linecap="round"/>
  
  <!-- Bottom horizontal line -->
  <path d="M180 240 L320 240" 
      stroke="#3f51b5" stroke-width="8" fill="none" stroke-linecap="round"/>
  
  <!-- Imperial throne -->
  <g transform="translate(100,350)" opacity="0.7">
  <rect x="0" y="0" width="60" height="80" fill="#ff9800"/>
  <rect x="-5" y="-10" width="70" height="15" fill="#ffb300"/>
  <!-- Throne back -->
  <rect x="10" y="-30" width="40" height="35" fill="#ff9800"/>
  <!-- Dragon decoration -->
  <path d="M30 -20 Q35 -15 30 -10" stroke="#d32f2f" stroke-width="2" fill="none"/>
  
    <!-- Official scroll/document -->
    <g transform="translate(380,200)" opacity="0.8">
    <rect x="0" y="0" width="40" height="60" rx="5" fill="#fff8e1" stroke="#d7ccc8" stroke-width="1"/>
    <!-- Seal -->
    <circle cx="20" cy="50" r="6" fill="#d32f2f"/>
    <text x="20" y="54" font-family="serif" font-size="6" text-anchor="middle" fill="#fff">印</text>
    <!-- Text lines -->
    <g stroke="#424242" stroke-width="1">
      <line x1="8" y1="15" x2="32" y2="15"/>
      <line x1="8" y1="25" x2="32" y2="25"/>
      <line x1="8" y1="35" x2="32" y2="35"/>
    </g>
    </g>
  
    <!-- Court pillars -->
    <g opacity="0.5">
    <rect x="80" y="200" width="15" height="200" fill="#8d6e63"/>
    <rect x="405" y="200" width="15" height="200" fill="#8d6e63"/>
    <!-- Pillar caps -->
    <rect x="75" y="195" width="25" height="10" fill="#a1887f"/>
    <rect x="400" y="195" width="25" height="10" fill="#a1887f"/>
    </g>
  
    <!-- Other court officials -->
    <g opacity="0.6">
    <!-- Left minister -->
    <g transform="translate(120,380)">
      <circle cx="0" cy="0" r="12" fill="#ffdbcb"/>
      <ellipse cx="0" cy="-8" rx="15" ry="6" fill="#1a237e"/>
      <ellipse cx="0" cy="25" rx="20" ry="30" fill="url(#robeGrad131)"/>
    </g>
    
    <!-- Right minister -->
    <g transform="translate(380,380)">
      <circle cx="0" cy="0" r="12" fill="#ffdbcb"/>
      <ellipse cx="0" cy="-8" rx="15" ry="6" fill="#1a237e"/>
      <ellipse cx="0" cy="25" rx="20" ry="30" fill="url(#robeGrad131)"/>
    </g>
    </g>
  
    <!-- Imperial fan -->
    <g transform="translate(100,200)" opacity="0.7">
    <path d="M0 0 L20 -10 L25 0 L20 10 Z" fill="#ff9800"/>
    <rect x="-5" y="-2" width="10" height="4" fill="#8d6e63"/>
    <!-- Fan pattern -->
    <g stroke="#d32f2f" stroke-width="1">
      <line x1="5" y1="-5" x2="20" y2="-5"/>
      <line x1="5" y1="0" x2="22" y2="0"/>
      <line x1="5" y1="5" x2="20" y2="5"/>
    </g>
    </g>
  
    <!-- Court bell -->
    <g transform="translate(400,300)" opacity="0.6">
    <path d="M0 0 Q-15 5 -15 20 Q-15 35 0 40 Q15 35 15 20 Q15 5 0 0" fill="#ffb300"/>
    <rect x="-2" y="-10" width="4" height="15" fill="#8d6e63"/>
    <!-- Bell clapper -->
    <circle cx="0" cy="25" r="3" fill="#616161"/>
    </g>
  
    <!-- Formal ceremony items -->
    <g transform="translate(350,120)" opacity="0.5">
    <!-- Incense burner -->
    <ellipse cx="0" cy="0" rx="12" ry="8" fill="#8d6e63"/>
    <rect x="-8" y="-3" width="16" height="6" fill="#a1887f"/>
    <!-- Smoke -->
    <g stroke="#9e9e9e" stroke-width="1" opacity="0.5" fill="none">
      <path d="M-3 -8 Q-1 -15 1 -8"/>
      <path d="M0 -8 Q2 -15 4 -8"/>
      <path d="M3 -8 Q5 -15 7 -8"/>
    </g>
    </g>
  
    <!-- Rank insignia -->
    <g transform="translate(200,120)" opacity="0.7">
    <rect x="0" y="0" width="25" height="15" fill="#d32f2f"/>
    <rect x="2" y="2" width="21" height="11" fill="#f44336"/>
    <text x="12" y="11" font-family="serif" font-size="8" text-anchor="middle" fill="#fff">位</text>
    </g>
  
    <!-- Bowing gesture lines -->
    <g stroke="#9c27b0" stroke-width="2" opacity="0.3" fill="none">
    <path d="M200 350 Q230 340 260 350"/>
    <path d="M260 350 Q290 340 320 350"/>
    </g>
  
    <!-- Kanji character 臣 -->
    <text x="100" y="120" font-family="serif" font-size="56" font-weight="bold" text-anchor="middle" fill="#3f51b5" opacity="0.8">臣</text>
    </g>
  </g>
</svg> 