<svg xmlns="http://www.w3.org/2000/svg" width="500" height="500" viewBox="0 0 500 500">
  <defs>
    <linearGradient id="bgGrad134" x1="0%" y1="0%" x2="0%" y2="100%">
      <stop offset="0%" style="stop-color:#fff8e1;stop-opacity:1" />
      <stop offset="100%" style="stop-color:#ffecb3;stop-opacity:1" />
    </linearGradient>
    <radialGradient id="mortarGrad134" cx="50%" cy="30%" r="70%">
      <stop offset="0%" style="stop-color:#d7ccc8;stop-opacity:1" />
      <stop offset="50%" style="stop-color:#bcaaa4;stop-opacity:1" />
      <stop offset="100%" style="stop-color:#8d6e63;stop-opacity:1" />
    </radialGradient>
  </defs>
  
  <!-- Background -->
  <rect width="500" height="500" fill="url(#bgGrad134)"/>
  
  <!-- Kitchen counter -->
  <rect x="100" y="400" width="300" height="80" fill="#a1887f" opacity="0.6"/>
  
  <!-- Large mortar and pestle -->
  <g transform="translate(250,300)">
  <!-- Mortar bowl -->
  <path d="M-60 0 Q-60 -20 -40 -30 Q0 -40 40 -30 Q60 -20 60 0 Q60 30 40 50 Q0 60 -40 50 Q-60 30 -60 0" 
      fill="url(#mortarGrad134)" stroke="#8d6e63" stroke-width="2"/>
  
  <!-- Inner bowl -->
  <ellipse cx="0" cy="0" rx="40" ry="25" fill="#a1887f"/>
  <ellipse cx="0" cy="-5" rx="35" ry="20" fill="#bcaaa4"/>
  
  <!-- Pestle -->
  <g transform="rotate(30)">
  <ellipse cx="20" cy="-40" rx="8" ry="35" fill="url(#mortarGrad134)"/>
  <!-- Pestle head -->
  <ellipse cx="20" cy="-10" rx="12" ry="15" fill="#8d6e63"/>
  
  <!-- Ground spices/ingredients -->
  <g fill="#ff9800" opacity="0.7">
    <circle cx="-10" cy="0" r="3"/>
    <circle cx="5" cy="-3" r="2"/>
    <circle cx="12" cy="2" r="2"/>
    <circle cx="-5" cy="8" r="1"/>
    </g>
  
    <!-- Main radical shape 臼 (mortar) -->
    <!-- Outer container -->
    <path d="M180 150 L320 150 L320 200 Q320 230 300 250 L200 250 Q180 230 180 200 Z" 
        stroke="#8d6e63" stroke-width="12" fill="none" stroke-linecap="round"/>
  
    <!-- Inner strokes -->
    <path d="M200 170 L300 170" 
        stroke="#8d6e63" stroke-width="10" fill="none" stroke-linecap="round"/>
    <path d="M250 170 L250 230" 
        stroke="#8d6e63" stroke-width="10" fill="none" stroke-linecap="round"/>
  
    <!-- Traditional stone mortar -->
    <g transform="translate(120,350)" opacity="0.7">
    <ellipse cx="0" cy="0" rx="30" ry="20" fill="#9e9e9e"/>
    <ellipse cx="0" cy="-8" rx="25" ry="15" fill="#bdbdbd"/>
    <ellipse cx="0" cy="-8" rx="18" ry="10" fill="#e0e0e0"/>
    <!-- Stone pestle -->
    <ellipse cx="25" cy="-15" rx="5" ry="20" fill="#9e9e9e" transform="rotate(45)"/>
    </g>
  
    <!-- Spice grinding -->
    <g transform="translate(380,350)" opacity="0.8">
    <!-- Small mortar -->
    <ellipse cx="0" cy="0" rx="20" ry="12" fill="url(#mortarGrad134)"/>
    <ellipse cx="0" cy="-3" rx="15" ry="8" fill="#bcaaa4"/>
    <!-- Spices -->
    <g fill="#d32f2f" opacity="0.8">
      <circle cx="-5" cy="-3" r="1"/>
      <circle cx="3" cy="-1" r="1"/>
      <circle cx="0" cy="2" r="1"/>
    </g>
    <!-- Small pestle -->
    <ellipse cx="15" cy="-8" rx="3" ry="12" fill="#8d6e63" transform="rotate(30)"/>
    </g>
  
    <!-- Medicine preparation -->
    <g transform="translate(100,200)" opacity="0.6">
    <!-- Herb mortar -->
    <ellipse cx="0" cy="0" rx="15" ry="10" fill="#8d6e63"/>
    <ellipse cx="0" cy="-2" rx="12" ry="7" fill="#a1887f"/>
    <!-- Herbs -->
    <g fill="#4caf50" opacity="0.7">
      <ellipse cx="-3" cy="-2" rx="2" ry="1"/>
      <ellipse cx="2" cy="0" rx="2" ry="1"/>
      <ellipse cx="0" cy="3" rx="1" ry="2"/>
    </g>
    </g>
  
    <!-- Grain grinding -->
    <g transform="translate(400,200)" opacity="0.6">
    <!-- Large grain mortar -->
    <ellipse cx="0" cy="0" rx="25" ry="15" fill="#d7ccc8"/>
    <ellipse cx="0" cy="-5" rx="20" ry="10" fill="#efebe9"/>
    <!-- Grain -->
    <g fill="#ffcc02" opacity="0.8">
      <circle cx="-8" cy="-3" r="1"/>
      <circle cx="0" cy="-4" r="1"/>
      <circle cx="6" cy="-2" r="1"/>
      <circle cx="-3" cy="2" r="1"/>
      <circle cx="4" cy="3" r="1"/>
    </g>
    </g>
  
    <!-- Grinding motion lines -->
    <g stroke="#ff9800" stroke-width="2" opacity="0.4" fill="none">
    <path d="M280 260 Q300 250 320 260"/>
    <path d="M270 270 Q290 260 310 270"/>
    <ellipse cx="290" cy="265" rx="15" ry="8"/>
    </g>
  
    <!-- Ancient mortar -->
    <g transform="translate(80,380)" opacity="0.5">
    <ellipse cx="0" cy="0" rx="20" ry="25" fill="#795548"/>
    <ellipse cx="0" cy="-15" rx="15" ry="8" fill="#8d6e63"/>
    <!-- Carved details -->
    <g stroke="#6d4c41" stroke-width="1">
      <line x1="-10" y1="-5" x2="10" y2="-5"/>
      <line x1="-10" y1="5" x2="10" y2="5"/>
      <line x1="-10" y1="15" x2="10" y2="15"/>
    </g>
    </g>
  
    <!-- Kitchen tools -->
    <g transform="translate(350,120)" opacity="0.5">
    <!-- Wooden spoon -->
    <ellipse cx="0" cy="0" rx="5" ry="3" fill="#8d6e63"/>
    <rect x="-1" y="3" width="2" height="20" fill="#8d6e63"/>
    <!-- Grinding stick -->
    <rect x="10" y="-1" width="2" height="25" fill="#a1887f"/>
    <circle cx="11" cy="26" r="3" fill="#8d6e63"/>
    </g>
  
    <!-- Ingredients around -->
    <g opacity="0.6">
    <!-- Peppercorns -->
    <g transform="translate(150,120)" fill="#424242">
      <circle cx="0" cy="0" r="1"/>
      <circle cx="3" cy="-2" r="1"/>
      <circle cx="-2" cy="3" r="1"/>
      <circle cx="4" cy="2" r="1"/>
    </g>
    
    <!-- Cinnamon sticks -->
    <g transform="translate(350,150)">
      <rect x="0" y="0" width="15" height="3" rx="1" fill="#d84315"/>
      <rect x="0" y="5" width="12" height="3" rx="1" fill="#d84315"/>
    </g>
    
    <!-- Garlic cloves -->
    <g transform="translate(180,380)" fill="#fff8e1">
      <ellipse cx="0" cy="0" rx="3" ry="6"/>
      <ellipse cx="6" cy="-1" rx="3" ry="6"/>
      <ellipse cx="-5" cy="2" rx="3" ry="6"/>
    </g>
    </g>
  
    <!-- Powder result -->
    <g transform="translate(300,420)" opacity="0.5">
    <ellipse cx="0" cy="0" rx="15" ry="5" fill="#ffcc02"/>
    <ellipse cx="10" cy="2" rx="8" ry="3" fill="#ff9800"/>
    </g>
  
    <!-- Kanji character 臼 -->
    
    </g>
  </g>
</svg> 