<svg xmlns="http://www.w3.org/2000/svg" width="500" height="500" viewBox="0 0 500 500">
  <defs>
    <linearGradient id="bgGrad135" x1="0%" y1="0%" x2="0%" y2="100%">
      <stop offset="0%" style="stop-color:#fff3e0;stop-opacity:1" />
      <stop offset="100%" style="stop-color:#ffe0b2;stop-opacity:1" />
    </linearGradient>
    <radialGradient id="tongueGrad135" cx="50%" cy="30%" r="70%">
      <stop offset="0%" style="stop-color:#ffcdd2;stop-opacity:1" />
      <stop offset="50%" style="stop-color:#f8bbd9;stop-opacity:1" />
      <stop offset="100%" style="stop-color:#e91e63;stop-opacity:1" />
    </radialGradient>
  </defs>
  
  <!-- Background -->
  <rect width="500" height="500" fill="url(#bgGrad135)"/>
  
  <!-- Main mouth with tongue -->
  <g transform="translate(250,250)">
  <!-- Mouth opening -->
  <ellipse cx="0" cy="0" rx="60" ry="25" fill="#d32f2f"/>
  
  <!-- Tongue -->
  <path d="M-40 0 Q-30 15 0 20 Q30 15 40 0 Q30 -10 0 -5 Q-30 -10 -40 0" 
      fill="url(#tongueGrad135)" stroke="#e91e63" stroke-width="2"/>
  
  <!-- Tongue texture -->
  <g stroke="#c2185b" stroke-width="1" opacity="0.6">
  <line x1="-20" y1="0" x2="-15" y2="5"/>
  <line x1="-5" y1="-2" x2="0" y2="3"/>
  <line x1="15" y1="0" x2="20" y2="5"/>
  
  <!-- Taste buds -->
  <g fill="#ad1457" opacity="0.7">
    <circle cx="-15" cy="3" r="1"/>
    <circle cx="0" cy="5" r="1"/>
    <circle cx="18" cy="2" r="1"/>
    <circle cx="-8" cy="8" r="1"/>
    <circle cx="10" cy="7" r="1"/>
    </g>
  
    <!-- Main radical shape 舌 (tongue) -->
    <!-- Top horizontal stroke -->
    <path d="M180 150 L320 150" 
        stroke="#d32f2f" stroke-width="14" fill="none" stroke-linecap="round"/>
  
    <!-- Vertical strokes -->
    <path d="M200 150 L200 200" 
        stroke="#d32f2f" stroke-width="10" fill="none" stroke-linecap="round"/>
    <path d="M250 150 L250 220" 
        stroke="#d32f2f" stroke-width="12" fill="none" stroke-linecap="round"/>
    <path d="M300 150 L300 200" 
        stroke="#d32f2f" stroke-width="10" fill="none" stroke-linecap="round"/>
  
    <!-- Middle horizontal stroke -->
    <path d="M200 180 L300 180" 
        stroke="#d32f2f" stroke-width="10" fill="none" stroke-linecap="round"/>
  
    <!-- Curved bottom stroke -->
    <path d="M180 220 Q250 240 320 220" 
        stroke="#d32f2f" stroke-width="12" fill="none" stroke-linecap="round"/>
  
    <!-- Taste testing -->
    <g transform="translate(120,300)" opacity="0.8">
    <!-- Person tasting -->
    <circle cx="0" cy="0" r="15" fill="#ffdbcb"/>
    <!-- Mouth open -->
    <ellipse cx="0" cy="5" rx="8" ry="4" fill="#d32f2f"/>
    <!-- Small tongue -->
    <ellipse cx="0" cy="7" rx="5" ry="2" fill="url(#tongueGrad135)"/>
    <!-- Body -->
    <rect x="-8" y="15" width="16" height="25" fill="#ff9800"/>
    <!-- Hand holding food -->
    <circle cx="12" cy="20" r="4" fill="#ffdbcb"/>
    <circle cx="18" cy="18" r="3" fill="#ffcc02"/>
    </g>
  
    <!-- Speech bubbles -->
    <g transform="translate(380,150)" opacity="0.7">
    <ellipse cx="0" cy="0" rx="30" ry="20" fill="#ffffff" stroke="#e1bee7" stroke-width="2"/>
    <path d="M-15 15 L-10 25 L-5 15" fill="#ffffff" stroke="#e1bee7" stroke-width="2"/>
    <!-- Speech text -->
    
    </g>
  
    <!-- Ice cream cone -->
    <g transform="translate(380,350)" opacity="0.8">
    <!-- Cone -->
    <path d="M0 20 L-8 -5 L8 -5 Z" fill="#d7ccc8"/>
    <!-- Ice cream scoops -->
    <circle cx="0" cy="-8" r="8" fill="#ff80ab"/>
    <circle cx="0" cy="-18" r="7" fill="#fff59d"/>
    <!-- Tongue licking -->
    <ellipse cx="-12" cy="-8" rx="6" ry="3" fill="url(#tongueGrad135)" transform="rotate(-30)"/>
    </g>
  
    <!-- Spoon with food -->
    <g transform="translate(100,200)" opacity="0.6">
    <!-- Spoon -->
    <ellipse cx="0" cy="0" rx="8" ry="5" fill="#e0e0e0"/>
    <rect x="-1" y="5" width="2" height="20" fill="#e0e0e0"/>
    <!-- Food on spoon -->
    <ellipse cx="0" cy="-1" rx="5" ry="3" fill="#ff9800"/>
    </g>
  
    <!-- Lollipop -->
    <g transform="translate(400,250)" opacity="0.7">
    <circle cx="0" cy="0" r="8" fill="#f44336"/>
    <rect x="-1" y="8" width="2" height="15" fill="#8d6e63"/>
    </g>
  
    <!-- Taste zones diagram -->
    <g transform="translate(100,380)" opacity="0.5">
    <ellipse cx="0" cy="0" rx="25" ry="15" fill="url(#tongueGrad135)"/>
    <!-- Taste regions -->
    <circle cx="-15" cy="-5" r="3" fill="#4caf50" opacity="0.6"/>
    <circle cx="15" cy="-5" r="3" fill="#ffeb3b" opacity="0.6"/>
    <circle cx="0" cy="8" r="3" fill="#f44336" opacity="0.6"/>
    <circle cx="0" cy="-8" r="3" fill="#2196f3" opacity="0.6"/>
    <!-- Labels -->
    
    </g>
  
    <!-- Doctor examining tongue -->
    <g transform="translate(350,120)" opacity="0.6">
    <!-- Doctor -->
    <circle cx="0" cy="0" r="8" fill="#ffdbcb"/>
    <rect x="-5" y="8" width="10" height="15" fill="#ffffff"/>
    <!-- Stethoscope -->
    <circle cx="8" cy="12" r="3" fill="#9e9e9e"/>
    <!-- Tongue depressor -->
    <rect x="10" y="2" width="15" height="2" fill="#ffeb3b"/>
    </g>
  
    <!-- Snake tongue (forked) -->
    <g transform="translate(100,120)" opacity="0.5">
    <ellipse cx="0" cy="0" rx="15" ry="4" fill="url(#tongueGrad135)"/>
    <!-- Fork -->
    <ellipse cx="12" cy="-2" rx="5" ry="1" fill="url(#tongueGrad135)"/>
    <ellipse cx="12" cy="2" rx="5" ry="1" fill="url(#tongueGrad135)"/>
    </g>
  
    <!-- Thermometer (tongue temperature) -->
    <g transform="translate(420,180)" opacity="0.6">
    <rect x="0" y="0" width="2" height="25" fill="#e0e0e0"/>
    <circle cx="1" cy="28" r="3" fill="#f44336"/>
    <!-- Mercury -->
    <rect x="0.5" y="20" width="1" height="8" fill="#f44336"/>
    </g>
  
    <!-- Saliva droplets -->
    <g fill="#81d4fa" opacity="0.4">
    <circle cx="200" cy="380" r="2"/>
    <circle cx="280" cy="390" r="1"/>
    <circle cx="320" cy="420" r="2"/>
    </g>
  
    <!-- Kanji character 舌 -->
    
    </g>
  </g>
</svg> 