<svg xmlns="http://www.w3.org/2000/svg" width="500" height="500" viewBox="0 0 500 500">
  <defs>
    <linearGradient id="bgGrad136" x1="0%" y1="0%" x2="0%" y2="100%">
      <stop offset="0%" style="stop-color:#fff3e0;stop-opacity:1" />
      <stop offset="100%" style="stop-color:#ffe0b2;stop-opacity:1" />
    </linearGradient>
    <linearGradient id="contrastGrad136" x1="0%" y1="0%" x2="100%" y2="0%">
      <stop offset="0%" style="stop-color:#d32f2f;stop-opacity:1" />
      <stop offset="100%" style="stop-color:#1976d2;stop-opacity:1" />
    </linearGradient>
  </defs>
  
  <!-- Background -->
  <rect width="500" height="500" fill="url(#bgGrad136)"/>
  
  <!-- Main radical shape 舛 (oppose/contrary) -->
  <!-- Left diagonal stroke -->
  <path d="M180 150 L280 250" 
    stroke="#d32f2f" stroke-width="12" fill="none" stroke-linecap="round"/>
  
  <!-- Right diagonal stroke -->
  <path d="M320 150 L220 250" 
    stroke="#1976d2" stroke-width="12" fill="none" stroke-linecap="round"/>
  
  <!-- Top left stroke -->
  <path d="M200 170 L240 190" 
    stroke="#d32f2f" stroke-width="8" fill="none" stroke-linecap="round"/>
  
  <!-- Top right stroke -->
  <path d="M300 170 L260 190" 
    stroke="#1976d2" stroke-width="8" fill="none" stroke-linecap="round"/>
  
  <!-- Bottom strokes -->
  <path d="M200 270 L180 290" 
    stroke="#d32f2f" stroke-width="10" fill="none" stroke-linecap="round"/>
  <path d="M300 270 L320 290" 
    stroke="#1976d2" stroke-width="10" fill="none" stroke-linecap="round"/>
  
  <!-- Opposing forces -->
  <g transform="translate(150,350)">
  <!-- Left force (red) -->
  <circle cx="0" cy="0" r="20" fill="#d32f2f"/>
  <path d="M20 0 L40 0" stroke="#d32f2f" stroke-width="6" fill="none"/>
  <path d="M35 -5 L40 0 L35 5" stroke="#d32f2f" stroke-width="4" fill="none"/>
  
  <g transform="translate(350,350)">
  <!-- Right force (blue) -->
  <circle cx="0" cy="0" r="20" fill="#1976d2"/>
  <path d="M-20 0 L-40 0" stroke="#1976d2" stroke-width="6" fill="none"/>
  <path d="M-35 -5 L-40 0 L-35 5" stroke="#1976d2" stroke-width="4" fill="none"/>
  
    <!-- Collision point -->
    <g transform="translate(250,350)">
    <circle cx="0" cy="0" r="15" fill="url(#contrastGrad136)"/>
    <!-- Impact lines -->
    <g stroke="#ff9800" stroke-width="3" opacity="0.6">
      <line x1="-20" y1="-20" x2="-30" y2="-30"/>
      <line x1="20" y1="-20" x2="30" y2="-30"/>
      <line x1="-20" y1="20" x2="-30" y2="30"/>
      <line x1="20" y1="20" x2="30" y2="30"/>
    </g>
    </g>
  
    <!-- Opposing magnets -->
    <g transform="translate(120,200)" opacity="0.8">
    <!-- North pole -->
    <rect x="0" y="0" width="30" height="15" fill="#d32f2f"/>
    
    <!-- South pole -->
    <rect x="40" y="0" width="30" height="15" fill="#1976d2"/>
    
    <!-- Repelling lines -->
    <g stroke="#ff5722" stroke-width="2" opacity="0.5">
      <path d="M30 7 Q35 2 40 7"/>
      <path d="M30 7 Q35 12 40 7"/>
    </g>
    </g>
  
    <!-- Yin-Yang (opposing but complementary) -->
    <g transform="translate(380,200)" opacity="0.7">
    <circle cx="0" cy="0" r="25" fill="#424242"/>
    <path d="M0 -25 A25 25 0 0 1 0 25 A12.5 12.5 0 0 1 0 0 A12.5 12.5 0 0 0 0 -25" fill="#ffffff"/>
    <circle cx="0" cy="-12.5" r="4" fill="#424242"/>
    <circle cx="0" cy="12.5" r="4" fill="#ffffff"/>
    </g>
  
    <!-- Conflicting directions -->
    <g transform="translate(100,300)" opacity="0.6">
    <path d="M0 0 L30 0" stroke="#d32f2f" stroke-width="4"/>
    <path d="M25 -5 L30 0 L25 5" stroke="#d32f2f" stroke-width="3" fill="none"/>
    
    <path d="M40 0 L10 0" stroke="#1976d2" stroke-width="4"/>
    <path d="M15 -5 L10 0 L15 5" stroke="#1976d2" stroke-width="3" fill="none"/>
    </g>
  
    <!-- Scale/balance showing opposition -->
    <g transform="translate(400,300)" opacity="0.7">
    <!-- Fulcrum -->
    <path d="M0 0 L-10 10 L10 10 Z" fill="#8d6e63"/>
    <!-- Balance beam -->
    <rect x="-30" y="-2" width="60" height="4" fill="#a1887f"/>
    <!-- Left side (heavy) -->
    <rect x="-35" y="-8" width="10" height="6" fill="#d32f2f"/>
    <path d="M-40 -8 L-20 -8" stroke="#424242" stroke-width="2"/>
    <!-- Right side (light) -->
    <rect x="25" y="-15" width="10" height="6" fill="#1976d2"/>
    <path d="M20 -15 L40 -15" stroke="#424242" stroke-width="2"/>
    </g>
  
    <!-- Hot vs Cold -->
    <g opacity="0.6">
    <!-- Hot (sun) -->
    <g transform="translate(100,120)">
      <circle cx="0" cy="0" r="15" fill="#ff5722"/>
      <!-- Sun rays -->
      <g stroke="#ff9800" stroke-width="3">
        <line x1="0" y1="-25" x2="0" y2="-30"/>
        <line x1="18" y1="-18" x2="21" y2="-21"/>
        <line x1="25" y1="0" x2="30" y2="0"/>
        <line x1="18" y1="18" x2="21" y2="21"/>
        <line x1="0" y1="25" x2="0" y2="30"/>
        <line x1="-18" y1="18" x2="-21" y2="21"/>
        <line x1="-25" y1="0" x2="-30" y2="0"/>
        <line x1="-18" y1="-18" x2="-21" y2="-21"/>
      </g>
    </g>
    
    <!-- Cold (snowflake) -->
    <g transform="translate(400,120)">
      <g stroke="#2196f3" stroke-width="3" fill="none">
        <line x1="0" y1="-20" x2="0" y2="20"/>
        <line x1="-20" y1="0" x2="20" y2="0"/>
        <line x1="-14" y1="-14" x2="14" y2="14"/>
        <line x1="-14" y1="14" x2="14" y2="-14"/>
        <!-- Snowflake details -->
        <path d="M0 -15 L-5 -10 M0 -15 L5 -10"/>
        <path d="M0 15 L-5 10 M0 15 L5 10"/>
        <path d="M-15 0 L-10 -5 M-15 0 L-10 5"/>
        <path d="M15 0 L10 -5 M15 0 L10 5"/>
      </g>
    </g>
    </g>
  
    <!-- Day vs Night -->
    <g transform="translate(250,100)" opacity="0.5">
    <rect x="-40" y="-20" width="40" height="40" fill="#ffeb3b"/>
    <rect x="0" y="-20" width="40" height="40" fill="#424242"/>
    <!-- Sun -->
    <circle cx="-20" cy="0" r="8" fill="#ff9800"/>
    <!-- Moon -->
    <circle cx="20" cy="0" r="8" fill="#f5f5f5"/>
    <circle cx="23" cy="-3" r="6" fill="#424242"/>
    </g>
  
    <!-- Opposing arrows -->
    <g stroke="#ff9800" stroke-width="4" opacity="0.5" fill="none">
    <path d="M50 450 L150 450"/>
    <path d="M140 445 L150 450 L140 455"/>
    
    <path d="M450 450 L350 450"/>
    <path d="M360 445 L350 450 L360 455"/>
    </g>
  
    <!-- Kanji character 舛 -->
    
    </g>
  </g>
</svg> 