<svg xmlns="http://www.w3.org/2000/svg" width="500" height="500" viewBox="0 0 500 500">
  <defs>
    <linearGradient id="bgGrad137" x1="0%" y1="0%" x2="0%" y2="100%">
      <stop offset="0%" style="stop-color:#e1f5fe;stop-opacity:1" />
      <stop offset="100%" style="stop-color:#b3e5fc;stop-opacity:1" />
    </linearGradient>
    <linearGradient id="boatGrad137" x1="0%" y1="0%" x2="0%" y2="100%">
      <stop offset="0%" style="stop-color:#8d6e63;stop-opacity:1" />
      <stop offset="50%" style="stop-color:#6d4c41;stop-opacity:1" />
      <stop offset="100%" style="stop-color:#5d4037;stop-opacity:1" />
    </linearGradient>
  </defs>
  
  <!-- Background -->
  <rect width="500" height="500" fill="url(#bgGrad137)"/>
  
  <!-- Water -->
  <rect x="0" y="350" width="500" height="150" fill="#2196f3" opacity="0.3"/>
  
  <!-- Main boat -->
  <g transform="translate(250,350)">
  <!-- Boat hull -->
  <path d="M-80 0 Q-90 20 -70 30 L70 30 Q90 20 80 0 Q75 -10 60 -15 L-60 -15 Q-75 -10 -80 0" 
      fill="url(#boatGrad137)" stroke="#5d4037" stroke-width="2"/>
  
  <!-- Boat interior -->
  <path d="M-70 5 Q-75 15 -60 20 L60 20 Q75 15 70 5 Q65 -5 50 -8 L-50 -8 Q-65 -5 -70 5" 
      fill="#a1887f"/>
  
  <!-- Mast -->
  <rect x="-3" y="-80" width="6" height="80" fill="#8d6e63"/>
  
  <!-- Sail -->
  <path d="M5 -75 Q40 -70 45 -40 Q40 -10 5 -5 Z" fill="#ffffff" stroke="#e0e0e0" stroke-width="1"/>
  
  <!-- Sail details -->
  <g stroke="#bdbdbd" stroke-width="1">
  <line x1="8" y1="-65" x2="35" y2="-60"/>
  <line x1="8" y1="-50" x2="35" y2="-45"/>
  <line x1="8" y1="-35" x2="35" y2="-30"/>
  <line x1="8" y1="-20" x2="35" y2="-15"/>
  
  <!-- Oars -->
  <rect x="-50" y="8" width="40" height="3" rx="1" fill="#8d6e63"/>
  <ellipse cx="-55" cy="10" rx="8" ry="4" fill="#6d4c41"/>
  
  <rect x="10" y="8" width="40" height="3" rx="1" fill="#8d6e63"/>
  <ellipse cx="55" cy="10" rx="8" ry="4" fill="#6d4c41"/>
  
    <!-- Main radical shape 舟 (boat) -->
    <!-- Top horizontal stroke -->
    <path d="M180 150 L320 150" 
        stroke="#5d4037" stroke-width="14" fill="none" stroke-linecap="round"/>
  
    <!-- Left vertical stroke -->
    <path d="M200 150 L200 230" 
        stroke="#5d4037" stroke-width="12" fill="none" stroke-linecap="round"/>
  
    <!-- Right vertical stroke -->
    <path d="M300 150 L300 230" 
        stroke="#5d4037" stroke-width="12" fill="none" stroke-linecap="round"/>
  
    <!-- Middle vertical stroke -->
    <path d="M250 170 L250 230" 
        stroke="#5d4037" stroke-width="10" fill="none" stroke-linecap="round"/>
  
    <!-- Bottom curved stroke -->
    <path d="M180 230 Q250 250 320 230" 
        stroke="#5d4037" stroke-width="14" fill="none" stroke-linecap="round"/>
  
    <!-- Inner horizontal strokes -->
    <path d="M200 190 L300 190" 
        stroke="#5d4037" stroke-width="8" fill="none" stroke-linecap="round"/>
    <path d="M200 210 L300 210" 
        stroke="#5d4037" stroke-width="8" fill="none" stroke-linecap="round"/>
  
    <!-- Small fishing boat -->
    <g transform="translate(120,380)" opacity="0.7">
    <!-- Hull -->
    <path d="M-25 0 Q-30 8 -20 12 L20 12 Q30 8 25 0 Q20 -5 15 -8 L-15 -8 Q-20 -5 -25 0" 
          fill="url(#boatGrad137)"/>
    <!-- Fisherman -->
    <circle cx="0" cy="-5" r="6" fill="#ffdbcb"/>
    <rect x="-3" y="0" width="6" height="8" fill="#2196f3"/>
    <!-- Fishing rod -->
    <rect x="8" y="-8" width="1" height="15" fill="#8d6e63"/>
    <path d="M9 -8 Q15 -12 20 -8" stroke="#424242" stroke-width="1" fill="none"/>
    </g>
  
    <!-- Large sailing ship -->
    <g transform="translate(380,320)" opacity="0.8">
    <!-- Hull -->
    <path d="M-40 20 Q-50 35 -30 40 L30 40 Q50 35 40 20 Q35 10 25 5 L-25 5 Q-35 10 -40 20" 
          fill="url(#boatGrad137)"/>
    
    <!-- Main mast -->
    <rect x="-2" y="-40" width="4" height="60" fill="#8d6e63"/>
    
    <!-- Main sail -->
    <path d="M2 -35 Q25 -30 30 -10 Q25 10 2 15 Z" fill="#ffffff"/>
    
    <!-- Fore mast -->
    <rect x="-20" y="-25" width="3" height="45" fill="#8d6e63"/>
    
    <!-- Fore sail -->
    <path d="M-17 -20 Q-5 -18 -2 -5 Q-5 5 -17 7 Z" fill="#ffffff"/>
    
    <!-- Flag -->
    <rect x="2" y="-40" width="15" height="8" fill="#f44336"/>
    </g>
  
    <!-- Modern yacht -->
    <g transform="translate(100,200)" opacity="0.6">
    <!-- Hull -->
    <path d="M-20 10 Q-25 18 -15 22 L15 22 Q25 18 20 10 Q18 5 12 3 L-12 3 Q-18 5 -20 10" 
          fill="#ffffff" stroke="#bdbdbd" stroke-width="1"/>
    
    <!-- Cabin -->
    <rect x="-8" y="-5" width="16" height="8" rx="2" fill="#ffffff" stroke="#bdbdbd" stroke-width="1"/>
    
    <!-- Mast -->
    <rect x="-1" y="-25" width="2" height="30" fill="#9e9e9e"/>
    
    <!-- Sail -->
    <path d="M1 -22 Q12 -20 15 -8 Q12 2 1 4 Z" fill="#e3f2fd"/>
    </g>
  
    <!-- Traditional junk boat -->
    <g transform="translate(400,200)" opacity="0.6">
    <!-- Hull -->
    <path d="M-15 8 Q-20 15 -10 18 L10 18 Q20 15 15 8 Q12 3 8 1 L-8 1 Q-12 3 -15 8" 
          fill="url(#boatGrad137)"/>
    
    <!-- Distinctive junk sail -->
    <path d="M0 -15 Q15 -12 18 0 Q15 8 0 10 Z" fill="#ff9800"/>
    
    <!-- Sail battens -->
    <g stroke="#d84315" stroke-width="1">
      <line x1="2" y1="-10" x2="15" y2="-8"/>
      <line x1="2" y1="-5" x2="15" y2="-3"/>
      <line x1="2" y1="0" x2="15" y2="2"/>
      <line x1="2" y1="5" x2="15" y2="7"/>
    </g>
    </g>
  
    <!-- Water waves -->
    <g stroke="#29b6f6" stroke-width="2" opacity="0.6" fill="none">
    <path d="M0 380 Q25 375 50 380 Q75 385 100 380 Q125 375 150 380"/>
    <path d="M200 385 Q225 380 250 385 Q275 390 300 385 Q325 380 350 385"/>
    <path d="M400 380 Q425 375 450 380 Q475 385 500 380"/>
    </g>
  
    <!-- Lighthouse -->
    <g transform="translate(80,150)" opacity="0.7">
    <!-- Tower -->
    <rect x="0" y="0" width="15" height="60" fill="#e0e0e0"/>
    <rect x="2" y="2" width="11" height="56" fill="#ffffff"/>
    
    <!-- Light -->
    <rect x="-3" y="0" width="21" height="8" fill="#ffeb3b"/>
    
    <!-- Light beam -->
    <path d="M18 4 L60 -10 L60 18 Z" fill="#ffeb3b" opacity="0.3"/>
    
    <!-- Base -->
    <rect x="-3" y="60" width="21" height="8" fill="#9e9e9e"/>
    </g>
  
    <!-- Seagulls -->
    <g opacity="0.5">
    <g transform="translate(150,100)">
      <!-- Seagull -->
      <path d="M0 0 Q-8 -3 -12 0 Q-8 3 0 0 Q8 -3 12 0 Q8 3 0 0" fill="#e0e0e0"/>
    </g>
    
    <g transform="translate(350,80)">
      <path d="M0 0 Q-6 -2 -9 0 Q-6 2 0 0 Q6 -2 9 0 Q6 2 0 0" fill="#e0e0e0"/>
    </g>
    
    <g transform="translate(420,120)">
      <path d="M0 0 Q-5 -2 -8 0 Q-5 2 0 0 Q5 -2 8 0 Q5 2 0 0" fill="#e0e0e0"/>
    </g>
    </g>
  
    <!-- Anchor -->
    <g transform="translate(450,400)" opacity="0.6">
    <!-- Anchor shaft -->
    <rect x="-1" y="0" width="2" height="25" fill="#424242"/>
    
    <!-- Anchor arms -->
    <path d="M0 25 Q-8 30 -12 25 Q-8 20 0 25 Q8 30 12 25 Q8 20 0 25" fill="#424242"/>
    
    <!-- Anchor ring -->
    <circle cx="0" cy="3" r="4" fill="none" stroke="#424242" stroke-width="2"/>
    
    <!-- Crossbar -->
    <rect x="-6" y="8" width="12" height="2" fill="#424242"/>
    </g>
  
    <!-- Wake from boats -->
    <g stroke="#81d4fa" stroke-width="2" opacity="0.4" fill="none">
    <path d="M170 390 Q190 385 210 390"/>
    <path d="M290 390 Q310 385 330 390"/>
    <path d="M320 350 Q340 345 360 350"/>
    </g>
  
    <!-- Kanji character 舟 -->
    
    </g>
  </g>
</svg> 