<svg xmlns="http://www.w3.org/2000/svg" width="500" height="500" viewBox="0 0 500 500">
  <defs>
    <linearGradient id="bgGrad14" x1="0%" y1="0%" x2="0%" y2="100%">
      <stop offset="0%" style="stop-color:#fce4ec;stop-opacity:1" />
      <stop offset="100%" style="stop-color:#f8bbd9;stop-opacity:1" />
    </linearGradient>
    <linearGradient id="umbrellaGrad14" x1="0%" y1="0%" x2="0%" y2="100%">
      <stop offset="0%" style="stop-color:#ec407a;stop-opacity:1" />
      <stop offset="50%" style="stop-color:#e91e63;stop-opacity:1" />
      <stop offset="100%" style="stop-color:#ad1457;stop-opacity:1" />
    </linearGradient>
    <radialGradient id="crownGlow14" cx="50%" cy="50%" r="60%">
      <stop offset="0%" style="stop-color:#f48fb1;stop-opacity:0.6" />
      <stop offset="100%" style="stop-color:#f48fb1;stop-opacity:0" />
    </radialGradient>
    <linearGradient id="handleGrad14" x1="0%" y1="0%" x2="0%" y2="100%">
      <stop offset="0%" style="stop-color:#8d6e63;stop-opacity:1" />
      <stop offset="100%" style="stop-color:#5d4037;stop-opacity:1" />
    </linearGradient>
  </defs>
  
  <!-- Background -->
  <rect width="500" height="500" fill="url(#bgGrad14)"/>
  
  <!-- Protective glow -->
  <ellipse cx="250" cy="200" rx="180" ry="60" fill="url(#crownGlow14)"/>
  
  <!-- Main umbrella/cover canopy -->
  <path d="M100 200 Q150 120 250 130 Q350 120 400 200 Q380 220 250 210 Q120 220 100 200" 
    fill="url(#umbrellaGrad14)" stroke="#880e4f" stroke-width="3"/>
  
  <!-- Umbrella ribs/structure -->
  <g stroke="#ad1457" stroke-width="3" opacity="0.7">
  <line x1="250" y1="130" x2="120" y2="200"/>
  <line x1="250" y1="130" x2="150" y2="190"/>
  <line x1="250" y1="130" x2="200" y2="200"/>
  <line x1="250" y1="130" x2="300" y2="200"/>
  <line x1="250" y1="130" x2="350" y2="190"/>
  <line x1="250" y1="130" x2="380" y2="200"/>
  
  <!-- Central crown peak -->
  <circle cx="250" cy="130" r="15" fill="#c2185b"/>
  <path d="M250 115 L255 105 L260 115 L250 120 Z" fill="#880e4f"/>
  
  <!-- Handle/shaft -->
  <rect x="245" y="210" width="10" height="120" fill="url(#handleGrad14)"/>
  
  <!-- Handle grip -->
  <path d="M255 330 Q280 340 270 360 Q260 350 245 350" 
      stroke="url(#handleGrad14)" stroke-width="8" fill="none" stroke-linecap="round"/>
  
  <!-- Protective shadow beneath -->
  <ellipse cx="250" cy="450" rx="150" ry="20" fill="#ad1457" opacity="0.3"/>
  
  <!-- Rain drops being deflected -->
  <g fill="#2196f3" opacity="0.6">
  <path d="M80 80 Q75 70 80 60 Q85 70 80 80"/>
  <path d="M420 90 Q415 80 420 70 Q425 80 420 90"/>
  <path d="M150 50 Q145 40 150 30 Q155 40 150 50"/>
  <path d="M350 60 Q345 50 350 40 Q355 50 350 60"/>
  
    <!-- Crown jewels/decorations -->
    <g fill="#ffeb3b" opacity="0.8">
    <circle cx="200" cy="160" r="6"/>
    <circle cx="250" cy="150" r="8"/>
    <circle cx="300" cy="160" r="6"/>
    </g>
  
    <!-- Fabric texture lines -->
    <g stroke="#f06292" stroke-width="1" opacity="0.4">
    <path d="M120 190 Q200 180 280 190"/>
    <path d="M130 200 Q210 190 290 200"/>
    <path d="M140 210 Q220 200 300 210"/>
    </g>
  
    <!-- Royal crown elements -->
    <g fill="#c2185b" opacity="0.7">
    <path d="M220 140 L230 130 L240 140 L230 150 Z"/>
    <path d="M260 140 L270 130 L280 140 L270 150 Z"/>
    </g>
  
    <!-- Protection aura -->
    <g stroke="#e91e63" stroke-width="2" fill="none" opacity="0.3">
    <ellipse cx="250" cy="200" rx="200" ry="80"/>
    <ellipse cx="250" cy="200" rx="220" ry="90"/>
    </g>
  
    <!-- Kanji character 冖 -->
    
    </g>
  </g>
</svg> 