<svg xmlns="http://www.w3.org/2000/svg" width="500" height="500" viewBox="0 0 500 500">
  <defs>
    <linearGradient id="bgGrad141" x1="0%" y1="0%" x2="0%" y2="100%">
      <stop offset="0%" style="stop-color:#fff3e0;stop-opacity:1" />
      <stop offset="100%" style="stop-color:#ffe0b2;stop-opacity:1" />
    </linearGradient>
    <linearGradient id="tigerGrad141" x1="0%" y1="0%" x2="0%" y2="100%">
      <stop offset="0%" style="stop-color:#ff9800;stop-opacity:1" />
      <stop offset="50%" style="stop-color:#ff6f00;stop-opacity:1" />
      <stop offset="100%" style="stop-color:#e65100;stop-opacity:1" />
    </linearGradient>
  </defs>
  
  <!-- Background -->
  <rect width="500" height="500" fill="url(#bgGrad141)"/>
  
  <!-- Jungle foliage -->
  <g opacity="0.3">
  <ellipse cx="100" cy="150" rx="30" ry="40" fill="#4caf50"/>
  <ellipse cx="400" cy="180" rx="25" ry="35" fill="#66bb6a"/>
  <ellipse cx="450" cy="300" rx="20" ry="30" fill="#81c784"/>
  <ellipse cx="50" cy="350" rx="35" ry="45" fill="#4caf50"/>
  
  <!-- Main tiger -->
  <g transform="translate(250,300)">
  <!-- Tiger body -->
  <ellipse cx="0" cy="0" rx="60" ry="35" fill="url(#tigerGrad141)"/>
  
  <!-- Tiger head -->
  <ellipse cx="50" cy="-15" rx="25" ry="20" fill="url(#tigerGrad141)"/>
  
  <!-- Tiger stripes on body -->
  <g stroke="#424242" stroke-width="4">
    <line x1="-40" y1="-20" x2="-35" y2="20"/>
    <line x1="-20" y1="-25" x2="-15" y2="25"/>
    <line x1="0" y1="-25" x2="5" y2="25"/>
    <line x1="20" y1="-25" x2="25" y2="25"/>
    
    <!-- Tiger stripes on head -->
    <g stroke="#424242" stroke-width="3">
      <line x1="40" y1="-25" x2="42" y2="-5"/>
      <line x1="55" y1="-25" x2="57" y2="-5"/>
      <line x1="65" y1="-20" x2="67" y2="-10"/>
    </g>
    
    <!-- Tiger legs -->
    <ellipse cx="-30" cy="35" rx="8" ry="15" fill="url(#tigerGrad141)"/>
    <ellipse cx="-10" cy="35" rx="8" ry="15" fill="url(#tigerGrad141)"/>
    <ellipse cx="10" cy="35" rx="8" ry="15" fill="url(#tigerGrad141)"/>
    <ellipse cx="30" cy="35" rx="8" ry="15" fill="url(#tigerGrad141)"/>
    
    <!-- Tiger tail -->
    <path d="M-60 10 Q-80 0 -70 -20" stroke="url(#tigerGrad141)" stroke-width="8" fill="none"/>
    <g stroke="#424242" stroke-width="2">
      <line x1="-65" y1="5" x2="-68" y2="8"/>
      <line x1="-72" y1="-5" x2="-75" y2="-2"/>
      <line x1="-68" y1="-15" x2="-71" y2="-12"/>
    </g>
    
    <!-- Tiger face -->
    <circle cx="62" cy="-20" r="3" fill="#424242"/>
    <circle cx="68" cy="-18" r="3" fill="#424242"/>
    <path d="M65 -10 L65 -5" stroke="#424242" stroke-width="2"/>
    <path d="M62 -8 L68 -8" stroke="#424242" stroke-width="2"/>
    
    <!-- Tiger ears -->
    <ellipse cx="45" cy="-30" rx="5" ry="8" fill="url(#tigerGrad141)"/>
    <ellipse cx="60" cy="-32" rx="5" ry="8" fill="url(#tigerGrad141)"/>
    </g>
  
    <!-- Main radical shape 虎 (tiger) -->
    <!-- Top stroke -->
    <path d="M180 150 L320 150" 
        stroke="#e65100" stroke-width="14" fill="none" stroke-linecap="round"/>
  
    <!-- Tiger head outline -->
    <path d="M200 150 L220 180 L280 180 L300 150" 
        stroke="#e65100" stroke-width="12" fill="none" stroke-linecap="round"/>
  
    <!-- Tiger stripes in radical -->
    <path d="M210 180 L210 220" 
        stroke="#e65100" stroke-width="10" fill="none" stroke-linecap="round"/>
    <path d="M230 180 L230 220" 
        stroke="#e65100" stroke-width="10" fill="none" stroke-linecap="round"/>
    <path d="M250 180 L250 220" 
        stroke="#e65100" stroke-width="10" fill="none" stroke-linecap="round"/>
    <path d="M270 180 L270 220" 
        stroke="#e65100" stroke-width="10" fill="none" stroke-linecap="round"/>
    <path d="M290 180 L290 220" 
        stroke="#e65100" stroke-width="10" fill="none" stroke-linecap="round"/>
  
    <!-- Bottom stroke -->
    <path d="M200 220 L300 220" 
        stroke="#e65100" stroke-width="12" fill="none" stroke-linecap="round"/>
  
    <!-- Tiger cub -->
    <g transform="translate(120,380)" opacity="0.8">
    <!-- Cub body -->
    <ellipse cx="0" cy="0" rx="20" ry="12" fill="url(#tigerGrad141)"/>
    <!-- Cub head -->
    <ellipse cx="15" cy="-5" rx="10" ry="8" fill="url(#tigerGrad141)"/>
    <!-- Cub stripes -->
    <g stroke="#424242" stroke-width="2">
      <line x1="-10" y1="-5" x2="-8" y2="5"/>
      <line x1="0" y1="-8" x2="2" y2="8"/>
      <line x1="10" y1="-8" x2="12" y2="8"/>
    </g>
    <!-- Cub face -->
    <circle cx="20" cy="-8" r="1" fill="#424242"/>
    <circle cx="22" cy="-7" r="1" fill="#424242"/>
    </g>
  
    <!-- Tiger paw prints -->
    <g fill="#8d4e00" opacity="0.6">
    <g transform="translate(100,250)">
      <!-- Main pad -->
      <ellipse cx="0" cy="0" rx="8" ry="12"/>
      <!-- Toes -->
      <circle cx="-6" cy="-10" r="3"/>
      <circle cx="0" cy="-12" r="3"/>
      <circle cx="6" cy="-10" r="3"/>
      <circle cx="3" cy="-5" r="2"/>
    </g>
    
    <g transform="translate(150,280)">
      <ellipse cx="0" cy="0" rx="8" ry="12"/>
      <circle cx="-6" cy="-10" r="3"/>
      <circle cx="0" cy="-12" r="3"/>
      <circle cx="6" cy="-10" r="3"/>
      <circle cx="3" cy="-5" r="2"/>
    </g>
    
    <g transform="translate(200,310)">
      <ellipse cx="0" cy="0" rx="8" ry="12"/>
      <circle cx="-6" cy="-10" r="3"/>
      <circle cx="0" cy="-12" r="3"/>
      <circle cx="6" cy="-10" r="3"/>
      <circle cx="3" cy="-5" r="2"/>
    </g>
    </g>
  
    <!-- Jungle vines -->
    <g stroke="#4caf50" stroke-width="4" opacity="0.5" fill="none">
    <path d="M20 50 Q50 100 80 150 Q110 200 140 250"/>
    <path d="M480 80 Q450 130 420 180 Q390 230 360 280"/>
    </g>
  
    <!-- Tiger stalking posture -->
    <g transform="translate(380,200)" opacity="0.7">
    <!-- Crouched body -->
    <ellipse cx="0" cy="0" rx="30" ry="15" fill="url(#tigerGrad141)"/>
    <!-- Head low -->
    <ellipse cx="25" cy="5" rx="15" ry="10" fill="url(#tigerGrad141)"/>
    <!-- Stripes -->
    <g stroke="#424242" stroke-width="2">
      <line x1="-20" y1="-8" x2="-18" y2="8"/>
      <line x1="-5" y1="-10" x2="-3" y2="10"/>
      <line x1="10" y1="-10" x2="12" y2="10"/>
    </g>
    <!-- Eyes watching -->
    <circle cx="32" cy="2" r="2" fill="#ffeb3b"/>
    <circle cx="35" cy="3" r="2" fill="#ffeb3b"/>
    </g>
  
    <!-- Warning signs -->
    <g transform="translate(80,150)" opacity="0.6">
    <!-- Danger sign -->
    <path d="M0 0 L15 -10 L30 0 L15 10 Z" fill="#f44336"/>
    <text x="15" y="2" font-family="Arial" font-size="6" text-anchor="middle" fill="#ffffff">!</text>
    <!-- Post -->
    <rect x="13" y="10" width="4" height="20" fill="#8d6e63"/>
    </g>
  
    <!-- Bamboo -->
    <g transform="translate(450,100)" opacity="0.4">
    <!-- Bamboo stalks -->
    <rect x="0" y="0" width="8" height="120" fill="#4caf50"/>
    <rect x="12" y="0" width="8" height="100" fill="#66bb6a"/>
    <!-- Bamboo nodes -->
    <g fill="#2e7d32">
      <rect x="-2" y="30" width="12" height="3"/>
      <rect x="-2" y="60" width="12" height="3"/>
      <rect x="-2" y="90" width="12" height="3"/>
      <rect x="10" y="25" width="12" height="3"/>
      <rect x="10" y="50" width="12" height="3"/>
      <rect x="10" y="75" width="12" height="3"/>
    </g>
    </g>
  
    <!-- Tiger eyes glowing in darkness -->
    <g transform="translate(50,200)" opacity="0.8">
    <!-- Dark foliage -->
    <ellipse cx="0" cy="0" rx="25" ry="30" fill="#2e7d32"/>
    <!-- Glowing eyes -->
    <circle cx="-5" cy="-5" r="3" fill="#ffeb3b"/>
    <circle cx="5" cy="-5" r="3" fill="#ffeb3b"/>
    <!-- Eye shine -->
    <circle cx="-5" cy="-5" r="1" fill="#ffffff"/>
    <circle cx="5" cy="-5" r="1" fill="#ffffff"/>
    </g>
  
    <!-- Tiger roar effect -->
    <g transform="translate(350,150)" opacity="0.5">
    <!-- Sound waves -->
    <g stroke="#ff9800" stroke-width="2" fill="none">
      <path d="M0 0 Q10 -5 20 0"/>
      <path d="M0 0 Q15 -8 30 0"/>
      <path d="M0 0 Q20 -10 40 0"/>
    </g>
    </g>
  
    <!-- Scratched tree -->
    <g transform="translate(420,300)" opacity="0.6">
    <!-- Tree trunk -->
    <rect x="0" y="0" width="15" height="80" fill="#8d6e63"/>
    <!-- Claw marks -->
    <g stroke="#424242" stroke-width="2">
      <line x1="2" y1="20" x2="8" y2="35"/>
      <line x1="4" y1="18" x2="10" y2="33"/>
      <line x1="6" y1="16" x2="12" y2="31"/>
      <line x1="8" y1="14" x2="14" y2="29"/>
    </g>
    </g>
  
    <!-- Tiger territory marking -->
    <g transform="translate(150,450)" opacity="0.4">
    <!-- Scent mark -->
    <ellipse cx="0" cy="0" rx="8" ry="5" fill="#8d4e00"/>
    <!-- Smell lines -->
    <g stroke="#9e9e9e" stroke-width="1" opacity="0.6">
      <path d="M-5 -8 Q-3 -12 -1 -8"/>
      <path d="M0 -8 Q2 -12 4 -8"/>
      <path d="M5 -8 Q7 -12 9 -8"/>
    </g>
    </g>
  
    <!-- Kanji character 虎 -->
    <text x="100" y="120" font-family="serif" font-size="56" font-weight="bold" text-anchor="middle" fill="#e65100" opacity="0.8">虎</text>
    </g>
  </g>
</svg> 