<svg xmlns="http://www.w3.org/2000/svg" width="500" height="500" viewBox="0 0 500 500">
  <defs>
    <linearGradient id="bgGrad145" x1="0%" y1="0%" x2="0%" y2="100%">
      <stop offset="0%" style="stop-color:#fce4ec;stop-opacity:1" />
      <stop offset="100%" style="stop-color:#f8bbd9;stop-opacity:1" />
    </linearGradient>
    <linearGradient id="fabricGrad145" x1="0%" y1="0%" x2="0%" y2="100%">
      <stop offset="0%" style="stop-color:#e91e63;stop-opacity:1" />
      <stop offset="50%" style="stop-color:#ad1457;stop-opacity:1" />
      <stop offset="100%" style="stop-color:#880e4f;stop-opacity:1" />
    </linearGradient>
  </defs>
  
  <!-- Background -->
  <rect width="500" height="500" fill="url(#bgGrad145)"/>
  
  <!-- Main dress/robe -->
  <g transform="translate(250,300)">
  <!-- Dress body -->
  <path d="M-40 -50 Q-50 0 -40 50 L-40 80 Q-30 100 0 100 Q30 100 40 80 L40 50 Q50 0 40 -50 Z" 
      fill="url(#fabricGrad145)" stroke="#ad1457" stroke-width="2"/>
  
  <!-- Dress sleeves -->
  <ellipse cx="-50" cy="-30" rx="15" ry="25" fill="url(#fabricGrad145)"/>
  <ellipse cx="50" cy="-30" rx="15" ry="25" fill="url(#fabricGrad145)"/>
  
  <!-- Dress collar -->
  <path d="M-20 -50 Q0 -60 20 -50 Q15 -40 0 -45 Q-15 -40 -20 -50" 
      fill="#c2185b"/>
  
  <!-- Fabric folds -->
  <g stroke="#ad1457" stroke-width="1" opacity="0.6" fill="none">
  <path d="M-30 -20 Q-25 -15 -30 -10"/>
  <path d="M30 -20 Q25 -15 30 -10"/>
  <path d="M-20 20 Q-15 25 -20 30"/>
  <path d="M20 20 Q15 25 20 30"/>
  
  <!-- Dress pattern -->
  <g fill="#f06292" opacity="0.6">
    <circle cx="-15" cy="0" r="3"/>
    <circle cx="15" cy="10" r="3"/>
    <circle cx="-10" cy="30" r="3"/>
    <circle cx="10" cy="-20" r="3"/>
    </g>
  
    <!-- Main radical shape 衣 (clothes) -->
    <!-- Top horizontal stroke -->
    <path d="M200 150 L300 150" 
        stroke="#ad1457" stroke-width="14" fill="none" stroke-linecap="round"/>
  
    <!-- Center dot -->
    <circle cx="250" cy="150" r="6" fill="#ad1457"/>
  
    <!-- Left sleeve stroke -->
    <path d="M180 170 Q200 180 220 200 L240 240" 
        stroke="#ad1457" stroke-width="12" fill="none" stroke-linecap="round"/>
  
    <!-- Right sleeve stroke -->
    <path d="M320 170 Q300 180 280 200 L260 240" 
        stroke="#ad1457" stroke-width="12" fill="none" stroke-linecap="round"/>
  
    <!-- Body strokes -->
    <path d="M230 200 L230 260" 
        stroke="#ad1457" stroke-width="10" fill="none" stroke-linecap="round"/>
    <path d="M250 200 L250 260" 
        stroke="#ad1457" stroke-width="10" fill="none" stroke-linecap="round"/>
    <path d="M270 200 L270 260" 
        stroke="#ad1457" stroke-width="10" fill="none" stroke-linecap="round"/>
  
    <!-- Bottom stroke -->
    <path d="M220 260 L280 260" 
        stroke="#ad1457" stroke-width="12" fill="none" stroke-linecap="round"/>
  
    <!-- T-shirt -->
    <g transform="translate(120,350)" opacity="0.8">
    <!-- Shirt body -->
    <rect x="-15" y="0" width="30" height="40" rx="3" fill="#2196f3"/>
    
    <!-- Sleeves -->
    <rect x="-25" y="0" width="10" height="20" rx="5" fill="#2196f3"/>
    <rect x="15" y="0" width="10" height="20" rx="5" fill="#2196f3"/>
    
    <!-- Neckline -->
    <path d="M-8 0 Q0 -8 8 0" fill="#ffffff"/>
    
    <!-- Shirt design -->
    <circle cx="0" cy="20" r="5" fill="#ffffff"/>
    </g>
  
    <!-- Pants -->
    <g transform="translate(380,350)" opacity="0.8">
    <!-- Left leg -->
    <rect x="-15" y="0" width="12" height="50" rx="6" fill="#424242"/>
    
    <!-- Right leg -->
    <rect x="3" y="0" width="12" height="50" rx="6" fill="#424242"/>
    
    <!-- Waistband -->
    <rect x="-18" y="-5" width="36" height="8" rx="4" fill="#616161"/>
    
    <!-- Belt -->
    <rect x="-20" y="-3" width="40" height="4" fill="#8d6e63"/>
    
    <!-- Belt buckle -->
    <rect x="-2" y="-3" width="4" height="4" fill="#ffb300"/>
    </g>
  
    <!-- Formal suit -->
    <g transform="translate(100,200)" opacity="0.7">
    <!-- Jacket -->
    <rect x="-20" y="0" width="40" height="50" rx="5" fill="#424242"/>
    
    <!-- Lapels -->
    <path d="M-15 5 L-5 15 L-15 25" fill="#616161"/>
    <path d="M15 5 L5 15 L15 25" fill="#616161"/>
    
    <!-- Shirt underneath -->
    <rect x="-8" y="0" width="16" height="30" fill="#ffffff"/>
    
    <!-- Tie -->
    <path d="M0 15 L-3 25 L0 35 L3 25 Z" fill="#d32f2f"/>
    
    <!-- Jacket buttons -->
    <g fill="#9e9e9e">
      <circle cx="5" cy="20" r="2"/>
      <circle cx="5" cy="30" r="2"/>
      <circle cx="5" cy="40" r="2"/>
    </g>
    </g>
  
    <!-- Women's dress -->
    <g transform="translate(380,200)" opacity="0.7">
    <!-- Dress top -->
    <rect x="-12" y="0" width="24" height="20" rx="3" fill="#9c27b0"/>
    
    <!-- Dress skirt -->
    <path d="M-12 20 Q-20 40 -15 60 L15 60 Q20 40 12 20 Z" fill="#9c27b0"/>
    
    <!-- Dress straps -->
    <rect x="-8" y="-5" width="3" height="8" fill="#9c27b0"/>
    <rect x="5" y="-5" width="3" height="8" fill="#9c27b0"/>
    
    <!-- Dress pattern -->
    <g fill="#e1bee7" opacity="0.8">
      <circle cx="-5" cy="35" r="2"/>
      <circle cx="5" cy="45" r="2"/>
      <circle cx="0" cy="55" r="2"/>
    </g>
    </g>
  
    <!-- Hat -->
    <g transform="translate(120,150)" opacity="0.7">
    <!-- Hat brim -->
    <ellipse cx="0" cy="0" rx="25" ry="8" fill="#8d6e63"/>
    
    <!-- Hat crown -->
    <ellipse cx="0" cy="-8" rx="15" ry="12" fill="#a1887f"/>
    
    <!-- Hat band -->
    <ellipse cx="0" cy="-5" rx="16" ry="3" fill="#5d4037"/>
    </g>
  
    <!-- Shoes -->
    <g transform="translate(150,450)" opacity="0.8">
    <!-- Left shoe -->
    <ellipse cx="-10" cy="0" rx="12" ry="6" fill="#424242"/>
    <ellipse cx="-10" cy="-3" rx="8" ry="4" fill="#616161"/>
    
    <!-- Right shoe -->
    <ellipse cx="10" cy="0" rx="12" ry="6" fill="#424242"/>
    <ellipse cx="10" cy="-3" rx="8" ry="4" fill="#616161"/>
    
    <!-- Shoelaces -->
    <g stroke="#ffffff" stroke-width="1">
      <line x1="-13" y1="-2" x2="-7" y2="-2"/>
      <line x1="7" y1="-2" x2="13" y2="-2"/>
    </g>
    </g>
  
    <!-- Sewing machine -->
    <g transform="translate(400,400)" opacity="0.6">
    <!-- Machine body -->
    <rect x="0" y="0" width="30" height="20" rx="3" fill="#757575"/>
    
    <!-- Needle area -->
    <rect x="8" y="-5" width="6" height="8" fill="#9e9e9e"/>
    
    <!-- Needle -->
    <line x1="11" y1="0" x2="11" y2="15" stroke="#424242" stroke-width="1"/>
    
    <!-- Thread spool -->
    <circle cx="20" cy="-8" r="3" fill="#e91e63"/>
    
    <!-- Fabric being sewn -->
    <rect x="5" y="15" width="15" height="3" fill="#2196f3"/>
    </g>
  
    <!-- Closet/wardrobe -->
    <g transform="translate(50,250)" opacity="0.5">
    <!-- Closet frame -->
    <rect x="0" y="0" width="40" height="80" rx="3" fill="#8d6e63"/>
    
    <!-- Closet doors -->
    <rect x="2" y="2" width="17" height="76" rx="2" fill="#a1887f"/>
    <rect x="21" y="2" width="17" height="76" rx="2" fill="#a1887f"/>
    
    <!-- Door handles -->
    <circle cx="17" cy="40" r="2" fill="#616161"/>
    <circle cx="23" cy="40" r="2" fill="#616161"/>
    
    <!-- Hanging clothes -->
    <g stroke="#e91e63" stroke-width="2" opacity="0.8">
      <line x1="8" y1="20" x2="8" y2="35"/>
      <line x1="15" y1="20" x2="15" y2="35"/>
      <line x1="25" y1="20" x2="25" y2="35"/>
      <line x1="32" y1="20" x2="32" y2="35"/>
    </g>
    </g>
  
    <!-- Fabric rolls -->
    <g transform="translate(350,450)" opacity="0.6">
    <!-- Roll 1 -->
    <ellipse cx="0" cy="0" rx="15" ry="5" fill="#f44336"/>
    <rect x="-15" y="-5" width="30" height="10" fill="#f44336"/>
    
    <!-- Roll 2 -->
    <ellipse cx="35" cy="0" rx="12" ry="4" fill="#4caf50"/>
    <rect x="23" y="-4" width="24" height="8" fill="#4caf50"/>
    
    <!-- Roll 3 -->
    <ellipse cx="60" cy="0" rx="10" ry="3" fill="#2196f3"/>
    <rect x="50" y="-3" width="20" height="6" fill="#2196f3"/>
    </g>
  
    <!-- Measuring tape -->
    <g transform="translate(450,150)" opacity="0.7">
    <!-- Tape reel -->
    <circle cx="0" cy="0" r="8" fill="#ffeb3b"/>
    
    <!-- Tape extending -->
    <rect x="8" y="-1" width="20" height="2" fill="#fff176"/>
    
    <!-- Measurements -->
    <g stroke="#424242" stroke-width="0.5">
      <line x1="10" y1="-1" x2="10" y2="1"/>
      <line x1="15" y1="-1" x2="15" y2="1"/>
      <line x1="20" y1="-1" x2="20" y2="1"/>
      <line x1="25" y1="-1" x2="25" y2="1"/>
    </g>
    </g>
  
    <!-- Buttons -->
    <g transform="translate(100,400)" opacity="0.8">
    <circle cx="0" cy="0" r="4" fill="#ffffff" stroke="#bdbdbd" stroke-width="1"/>
    <circle cx="12" cy="0" r="4" fill="#f44336"/>
    <circle cx="24" cy="0" r="4" fill="#2196f3"/>
    <circle cx="36" cy="0" r="4" fill="#4caf50"/>
    
    <!-- Button holes -->
    <g fill="#424242">
      <circle cx="0" cy="-1" r="0.5"/>
      <circle cx="0" cy="1" r="0.5"/>
      <circle cx="12" cy="-1" r="0.5"/>
      <circle cx="12" cy="1" r="0.5"/>
    </g>
    </g>
  
    <!-- Fashion sketches -->
    <g transform="translate(450,250)" opacity="0.5">
    <!-- Sketch pad -->
    <rect x="0" y="0" width="30" height="40" rx="2" fill="#ffffff" stroke="#bdbdbd" stroke-width="1"/>
    
    <!-- Sketch lines -->
    <g stroke="#424242" stroke-width="1" fill="none">
      <path d="M8 8 L8 25 Q5 30 8 32 Q11 30 8 25"/>
      <path d="M22 8 L22 25 Q25 30 22 32 Q19 30 22 25"/>
      <circle cx="15" cy="5" r="2"/>
    </g>
    </g>
  
    <!-- Kanji character 衣 -->
    
    </g>
  </g>
</svg> 