<svg xmlns="http://www.w3.org/2000/svg" width="500" height="500" viewBox="0 0 500 500">
  <defs>
    <linearGradient id="bgGrad146" x1="0%" y1="0%" x2="0%" y2="100%">
      <stop offset="0%" style="stop-color:#e3f2fd;stop-opacity:1" />
      <stop offset="100%" style="stop-color:#bbdefb;stop-opacity:1" />
    </linearGradient>
    <radialGradient id="coverGrad146" cx="50%" cy="30%" r="70%">
      <stop offset="0%" style="stop-color:#1976d2;stop-opacity:1" />
      <stop offset="50%" style="stop-color:#1565c0;stop-opacity:1" />
      <stop offset="100%" style="stop-color:#0d47a1;stop-opacity:1" />
    </radialGradient>
  </defs>
  
  <!-- Background -->
  <rect width="500" height="500" fill="url(#bgGrad146)"/>
  
  <!-- Main umbrella -->
  <g transform="translate(250,250)">
  <!-- Umbrella canopy -->
  <path d="M-60 0 Q-40 -40 0 -50 Q40 -40 60 0 Q40 10 0 15 Q-40 10 -60 0" 
      fill="url(#coverGrad146)" stroke="#0d47a1" stroke-width="2"/>
  
  <!-- Umbrella ribs -->
  <g stroke="#424242" stroke-width="2" fill="none">
  <line x1="0" y1="-45" x2="0" y2="15"/>
  <line x1="0" y1="-45" x2="-30" y2="-15"/>
  <line x1="0" y1="-45" x2="30" y2="-15"/>
  <line x1="0" y1="-45" x2="-50" y2="5"/>
  <line x1="0" y1="-45" x2="50" y2="5"/>
  
  <!-- Umbrella handle -->
  <rect x="-2" y="15" width="4" height="40" fill="#8d6e63"/>
  <path d="M2 55 Q8 60 10 55" stroke="#8d6e63" stroke-width="4" fill="none"/>
  
  <!-- Rain drops -->
  <g fill="#2196f3" opacity="0.6">
    <path d="M-40 -60 Q-38 -65 -36 -60 Q-38 -55 -40 -60"/>
    <path d="M20 -70 Q22 -75 24 -70 Q22 -65 20 -70"/>
    <path d="M-10 -80 Q-8 -85 -6 -80 Q-8 -75 -10 -80"/>
    <path d="M45 -55 Q47 -60 49 -55 Q47 -50 45 -55"/>
    
    <!-- Water running off -->
    <g stroke="#2196f3" stroke-width="2" opacity="0.6" fill="none">
      <path d="M-55 5 Q-60 15 -55 25"/>
      <path d="M55 5 Q60 15 55 25"/>
      <path d="M0 20 Q5 30 0 40"/>
    </g>
    </g>
  
    <!-- Main radical shape 襾 (cover) -->
    <!-- Top horizontal stroke -->
    <path d="M200 150 L300 150" 
        stroke="#1976d2" stroke-width="14" fill="none" stroke-linecap="round"/>
  
    <!-- Left vertical stroke -->
    <path d="M220 150 L220 200" 
        stroke="#1976d2" stroke-width="12" fill="none" stroke-linecap="round"/>
  
    <!-- Right vertical stroke -->
    <path d="M280 150 L280 200" 
        stroke="#1976d2" stroke-width="12" fill="none" stroke-linecap="round"/>
  
    <!-- Bottom covering stroke -->
    <path d="M180 200 Q250 220 320 200" 
        stroke="#1976d2" stroke-width="14" fill="none" stroke-linecap="round"/>
  
    <!-- Central vertical -->
    <path d="M250 170 L250 200" 
        stroke="#1976d2" stroke-width="10" fill="none" stroke-linecap="round"/>
  
    <!-- Pot with lid -->
    <g transform="translate(120,350)" opacity="0.8">
    <!-- Pot body -->
    <ellipse cx="0" cy="0" rx="25" ry="15" fill="#8d6e63"/>
    <rect x="-25" y="-8" width="50" height="16" fill="#8d6e63"/>
    
    <!-- Lid -->
    <ellipse cx="0" cy="-15" rx="28" ry="8" fill="url(#coverGrad146)"/>
    <ellipse cx="0" cy="-18" rx="25" ry="6" fill="#42a5f5"/>
    
    <!-- Lid handle -->
    <ellipse cx="0" cy="-25" rx="4" ry="3" fill="#424242"/>
    
    <!-- Steam -->
    <g stroke="#e0e0e0" stroke-width="2" opacity="0.6" fill="none">
      <path d="M-8 -20 Q-10 -30 -8 -35"/>
      <path d="M0 -22 Q2 -32 0 -37"/>
      <path d="M8 -20 Q10 -30 8 -35"/>
    </g>
    </g>
  
    <!-- Book cover -->
    <g transform="translate(380,200)" opacity="0.7">
    <!-- Book -->
    <rect x="0" y="0" width="30" height="40" rx="2" fill="#d32f2f"/>
    
    <!-- Book spine -->
    <rect x="0" y="0" width="3" height="40" fill="#b71c1c"/>
    
    <!-- Cover design -->
    <rect x="5" y="5" width="20" height="25" rx="1" fill="#f44336"/>
    <rect x="8" y="8" width="14" height="19" rx="1" fill="#ffffff"/>
    
    <!-- Title lines -->
    <g stroke="#424242" stroke-width="1">
      <line x1="10" y1="12" x2="20" y2="12"/>
      <line x1="10" y1="16" x2="18" y2="16"/>
      <line x1="10" y1="20" x2="20" y2="20"/>
    </g>
    
    <!-- Bookmark -->
    <rect x="25" y="0" width="3" height="15" fill="#ffeb3b"/>
    </g>
  
    <!-- Manhole cover -->
    <g transform="translate(380,380)" opacity="0.6">
    <!-- Cover -->
    <circle cx="0" cy="0" r="20" fill="#757575"/>
    <circle cx="0" cy="0" r="15" fill="#616161"/>
    
    <!-- Cover pattern -->
    <g stroke="#424242" stroke-width="1" fill="none">
      <circle cx="0" cy="0" r="8"/>
      <line x1="-12" y1="0" x2="12" y2="0"/>
      <line x1="0" y1="-12" x2="0" y2="12"/>
    </g>
    
    <!-- Handle holes -->
    <g fill="#424242">
      <circle cx="-6" cy="0" r="2"/>
      <circle cx="6" cy="0" r="2"/>
    </g>
    </g>
  
    <!-- Blanket covering -->
    <g transform="translate(150,400)" opacity="0.7">
    <!-- Person under blanket -->
    <ellipse cx="0" cy="0" rx="30" ry="15" fill="#f8bbd9"/>
    
    <!-- Blanket edge -->
    <path d="M-30 -5 Q-35 -15 -25 -20 Q0 -25 25 -20 Q35 -15 30 -5" 
          fill="#e91e63" opacity="0.8"/>
    
    <!-- Blanket pattern -->
    <g fill="#ad1457" opacity="0.6">
      <circle cx="-15" cy="-10" r="2"/>
      <circle cx="0" cy="-15" r="2"/>
      <circle cx="15" cy="-10" r="2"/>
    </g>
    </g>
  
    <!-- Dome cover -->
    <g transform="translate(100,200)" opacity="0.6">
    <!-- Base -->
    <ellipse cx="0" cy="15" rx="25" ry="8" fill="#9e9e9e"/>
    
    <!-- Dome -->
    <path d="M-25 15 Q0 -20 25 15" fill="url(#coverGrad146)" opacity="0.7"/>
    
    <!-- Dome highlight -->
    <path d="M-20 10 Q0 -15 20 10" fill="#64b5f6" opacity="0.5"/>
    
    <!-- Building underneath -->
    <rect x="-15" y="10" width="30" height="8" fill="#8d6e63"/>
    
    <!-- Windows -->
    <g fill="#ffeb3b">
      <rect x="-10" y="12" width="3" height="4"/>
      <rect x="-3" y="12" width="3" height="4"/>
      <rect x="4" y="12" width="3" height="4"/>
    </g>
    </g>
  
    <!-- Tent -->
    <g transform="translate(450,350)" opacity="0.7">
    <!-- Tent body -->
    <path d="M0 -20 L-25 15 L25 15 Z" fill="#4caf50"/>
    
    <!-- Tent entrance -->
    <path d="M-8 15 Q0 5 8 15" fill="#2e7d32"/>
    
    <!-- Tent guy ropes -->
    <g stroke="#8d6e63" stroke-width="2" fill="none">
      <line x1="-25" y1="15" x2="-35" y2="25"/>
      <line x1="25" y1="15" x2="35" y2="25"/>
    </g>
    
    <!-- Stakes -->
    <g fill="#6d4c41">
      <rect x="-37" y="25" width="4" height="8"/>
      <rect x="33" y="25" width="4" height="8"/>
    </g>
    </g>
  
    <!-- Helmet -->
    <g transform="translate(120,120)" opacity="0.7">
    <!-- Helmet shell -->
    <path d="M0 0 Q-15 -10 -20 0 Q-15 15 0 20 Q15 15 20 0 Q15 -10 0 0" 
          fill="url(#coverGrad146)"/>
    
    <!-- Visor -->
    <ellipse cx="0" cy="5" rx="18" ry="6" fill="#0d47a1" opacity="0.6"/>
    
    <!-- Helmet strap -->
    <path d="M-18 10 Q-22 15 -18 20" stroke="#424242" stroke-width="2" fill="none"/>
    <path d="M18 10 Q22 15 18 20" stroke="#424242" stroke-width="2" fill="none"/>
    </g>
  
    <!-- Tarp covering objects -->
    <g transform="translate(300,400)" opacity="0.6">
    <!-- Objects underneath -->
    <rect x="-20" y="5" width="15" height="20" fill="#8d6e63"/>
    <rect x="5" y="8" width="12" height="17" fill="#616161"/>
    
    <!-- Tarp -->
    <path d="M-30 0 Q-20 -15 0 -10 Q20 -15 35 0 Q25 20 0 25 Q-25 20 -30 0" 
          fill="#ff9800" opacity="0.8"/>
    
    <!-- Tarp tie-downs -->
    <g fill="#424242">
      <circle cx="-25" cy="15" r="2"/>
      <circle cx="25" cy="15" r="2"/>
      <circle cx="0" cy="-5" r="2"/>
    </g>
    </g>
  
    <!-- Screen/display cover -->
    <g transform="translate(450,200)" opacity="0.6">
    <!-- Screen -->
    <rect x="0" y="0" width="30" height="20" rx="2" fill="#424242"/>
    <rect x="2" y="2" width="26" height="16" rx="1" fill="#000000"/>
    
    <!-- Protective cover -->
    <rect x="-1" y="-1" width="32" height="22" rx="3" fill="none" stroke="url(#coverGrad146)" stroke-width="2"/>
    
    <!-- Cover clasps -->
    <g fill="#1976d2">
      <rect x="8" y="-3" width="4" height="2"/>
      <rect x="18" y="-3" width="4" height="2"/>
    </g>
    </g>
  
    <!-- Jar with lid -->
    <g transform="translate(80,350)" opacity="0.7">
    <!-- Jar -->
    <ellipse cx="0" cy="0" rx="12" ry="18" fill="#ffffff" stroke="#bdbdbd" stroke-width="1"/>
    
    <!-- Lid -->
    <ellipse cx="0" cy="-18" rx="14" ry="5" fill="url(#coverGrad146)"/>
    
    <!-- Lid rim -->
    <ellipse cx="0" cy="-16" rx="12" ry="3" fill="#42a5f5"/>
    
    <!-- Contents visible -->
    <ellipse cx="0" cy="5" rx="8" ry="12" fill="#ff9800" opacity="0.6"/>
    </g>
  
    <!-- Kanji character 襾 -->
    
    </g>
  </g>
</svg> 