<svg xmlns="http://www.w3.org/2000/svg" width="500" height="500" viewBox="0 0 500 500">
  <defs>
    <linearGradient id="bgGrad15" x1="0%" y1="0%" x2="0%" y2="100%">
      <stop offset="0%" style="stop-color:#e1f5fe;stop-opacity:1" />
      <stop offset="100%" style="stop-color:#b3e5fc;stop-opacity:1" />
    </linearGradient>
    <linearGradient id="iceGrad15" x1="0%" y1="0%" x2="0%" y2="100%">
      <stop offset="0%" style="stop-color:#e3f2fd;stop-opacity:1" />
      <stop offset="50%" style="stop-color:#bbdefb;stop-opacity:1" />
      <stop offset="100%" style="stop-color:#90caf9;stop-opacity:1" />
    </linearGradient>
  </defs>
  
  <!-- Background -->
  <rect width="500" height="500" fill="url(#bgGrad15)"/>
  
  <!-- Main radical shape 冫 (ice) -->
  <!-- Left ice drop -->
  <path d="M180 150 L180 300 Q180 320 200 320 Q180 320 180 340" 
    stroke="url(#iceGrad15)" stroke-width="14" fill="none" stroke-linecap="round"/>
  
  <!-- Right ice drop -->
  <path d="M220 180 L220 330 Q220 350 240 350 Q220 350 220 370" 
    stroke="url(#iceGrad15)" stroke-width="14" fill="none" stroke-linecap="round"/>
  
  <!-- Ice crystals -->
  <g stroke="#42a5f5" stroke-width="2" fill="none" opacity="0.6">
  <path d="M300 200 L320 220 M310 200 L310 220 M300 210 L320 210"/>
  <path d="M350 250 L370 270 M360 250 L360 270 M350 260 L370 260"/>
  <path d="M320 320 L340 340 M330 320 L330 340 M320 330 L340 330"/>
  
  <!-- Snowflakes -->
  <g stroke="#29b6f6" stroke-width="2" opacity="0.5">
  <g transform="translate(380,150)">
    <line x1="-10" y1="0" x2="10" y2="0"/>
    <line x1="0" y1="-10" x2="0" y2="10"/>
    <line x1="-7" y1="-7" x2="7" y2="7"/>
    <line x1="-7" y1="7" x2="7" y2="-7"/>
    <g transform="translate(150,350)">
      <line x1="-8" y1="0" x2="8" y2="0"/>
      <line x1="0" y1="-8" x2="0" y2="8"/>
      <line x1="-6" y1="-6" x2="6" y2="6"/>
      <line x1="-6" y1="6" x2="6" y2="-6"/>
    </g>
    </g>
  
    <!-- Frozen surface -->
    <rect x="100" y="450" width="300" height="20" rx="10" fill="#81d4fa" opacity="0.4"/>
  
    <!-- Ice shine effects -->
    <g stroke="#ffffff" stroke-width="2" opacity="0.7">
    <line x1="185" y1="170" x2="185" y2="190"/>
    <line x1="225" y1="200" x2="225" y2="220"/>
    </g>
  
    <!-- Kanji character 冫 -->
    <text x="100" y="120" font-family="serif" font-size="56" font-weight="bold" text-anchor="middle" fill="#1976d2" opacity="0.8">冫</text>
    </g>
  </g>
</svg> 