<svg viewBox="0 0 500 500" xmlns="http://www.w3.org/2000/svg">
  <defs>
    <radialGradient id="skinGradient" cx="0.3" cy="0.3" r="0.8">
      <stop offset="0%" stop-color="#FFDAB9"/>
      <stop offset="70%" stop-color="#DEB887"/>
      <stop offset="100%" stop-color="#CD853F"/>
    </radialGradient>
    <linearGradient id="heartGradient" x1="0%" y1="0%" x2="100%" y2="100%">
      <stop offset="0%" stop-color="#FFB6C1"/>
      <stop offset="100%" stop-color="#DC143C"/>
    </linearGradient>
  </defs>  <!-- Background -->
  <rect width="500" height="500" fill="#F0F8FF"/>
  
  <!-- Human silhouette -->
  <!-- Head -->
  <circle cx="200" cy="80" r="40" fill="url(#skinGradient)" stroke="#8B4513" stroke-width="2"/>
  
  <!-- Hair -->
  <path d="M170 50 Q200 30 230 50 Q220 65 200 60 Q180 65 170 50" fill="#654321"/>
  
  <!-- Facial features -->
  <circle cx="185" cy="75" r="4" fill="#000"/>
  <circle cx="215" cy="75" r="4" fill="#000"/>
  <ellipse cx="200" cy="90" rx="4" ry="2" fill="#CD853F"/>
  <path d="M190 100 Q200 110 210 100" stroke="#8B0000" stroke-width="2" fill="none"/>
  
  <!-- Neck -->
  <rect x="190" y="120" width="20" height="25" fill="url(#skinGradient)" stroke="#8B4513" stroke-width="1"/>
  
  <!-- Torso -->
  <ellipse cx="200" cy="200" rx="50" ry="75" fill="url(#skinGradient)" stroke="#8B4513" stroke-width="2"/>
  
  <!-- Arms -->
  <ellipse cx="140" cy="180" rx="15" ry="50" fill="url(#skinGradient)" stroke="#8B4513" stroke-width="2"/>
  <ellipse cx="260" cy="180" rx="15" ry="50" fill="url(#skinGradient)" stroke="#8B4513" stroke-width="2"/>
  
  <!-- Hands -->
  <circle cx="140" cy="230" r="12" fill="url(#skinGradient)" stroke="#8B4513" stroke-width="2"/>
  <circle cx="260" cy="230" r="12" fill="url(#skinGradient)" stroke="#8B4513" stroke-width="2"/>
  
  <!-- Legs -->
  <ellipse cx="180" cy="320" rx="18" ry="60" fill="url(#skinGradient)" stroke="#8B4513" stroke-width="2"/>
  <ellipse cx="220" cy="320" rx="18" ry="60" fill="url(#skinGradient)" stroke="#8B4513" stroke-width="2"/>
  
  <!-- Feet -->
  <ellipse cx="180" cy="380" rx="15" ry="8" fill="url(#skinGradient)" stroke="#8B4513" stroke-width="2"/>
  <ellipse cx="220" cy="380" rx="15" ry="8" fill="url(#skinGradient)" stroke="#8B4513" stroke-width="2"/>
  
  <!-- Internal organs visualization -->
  <!-- Heart -->
  <path d="M200 170 Q185 155 170 170 Q185 185 200 200 Q215 185 230 170 Q215 155 200 170" 
    fill="url(#heartGradient)" stroke="#8B0000" stroke-width="1" opacity="0.7"/>
  
  <!-- Lungs -->
  <ellipse cx="175" cy="190" rx="12" ry="20" fill="#FFB6C1" stroke="#8B0000" stroke-width="1" opacity="0.6"/>
  <ellipse cx="225" cy="190" rx="12" ry="20" fill="#FFB6C1" stroke="#8B0000" stroke-width="1" opacity="0.6"/>
  
  <!-- Stomach -->
  <ellipse cx="200" cy="230" rx="20" ry="15" fill="#DDA0DD" stroke="#8B008B" stroke-width="1" opacity="0.6"/>
  
  <!-- Skeletal elements -->
  <!-- Spine -->
  <path d="M200 120 L200 275" stroke="#FFF" stroke-width="4" opacity="0.5"/>
  <circle cx="200" cy="130" r="3" fill="#FFF" opacity="0.6"/>
  <circle cx="200" cy="150" r="3" fill="#FFF" opacity="0.6"/>
  <circle cx="200" cy="170" r="3" fill="#FFF" opacity="0.6"/>
  <circle cx="200" cy="190" r="3" fill="#FFF" opacity="0.6"/>
  <circle cx="200" cy="210" r="3" fill="#FFF" opacity="0.6"/>
  <circle cx="200" cy="230" r="3" fill="#FFF" opacity="0.6"/>
  <circle cx="200" cy="250" r="3" fill="#FFF" opacity="0.6"/>
  
  <!-- Ribcage -->
  <path d="M180 160 Q160 170 180 180" stroke="#FFF" stroke-width="2" fill="none" opacity="0.4"/>
  <path d="M220 160 Q240 170 220 180" stroke="#FFF" stroke-width="2" fill="none" opacity="0.4"/>
  <path d="M175 175 Q155 185 175 195" stroke="#FFF" stroke-width="2" fill="none" opacity="0.4"/>
  <path d="M225 175 Q245 185 225 195" stroke="#FFF" stroke-width="2" fill="none" opacity="0.4"/>
  
  <!-- Blood vessels -->
  <path d="M200 170 Q210 160 220 170 Q215 180 205 175" stroke="#DC143C" stroke-width="2" fill="none" opacity="0.5"/>
  <path d="M200 170 Q190 160 180 170 Q185 180 195 175" stroke="#0000FF" stroke-width="2" fill="none" opacity="0.5"/>
  
  <!-- Muscles -->
  <ellipse cx="160" cy="200" rx="8" ry="25" fill="#CD5C5C" stroke="#8B0000" stroke-width="1" opacity="0.4"/>
  <ellipse cx="240" cy="200" rx="8" ry="25" fill="#CD5C5C" stroke="#8B0000" stroke-width="1" opacity="0.4"/>
  
  <!-- Brain -->
  <ellipse cx="200" cy="70" rx="25" ry="20" fill="#FFB6C1" stroke="#8B008B" stroke-width="1" opacity="0.6"/>
  <path d="M185 65 Q195 60 205 65 Q210 70 205 75 Q195 80 185 75 Q180 70 185 65" 
    stroke="#8B008B" stroke-width="1" fill="none" opacity="0.7"/>
  
  <!-- Energy/aura around body -->
  <circle cx="200" cy="200" r="90" fill="none" stroke="#FFD700" stroke-width="2" opacity="0.3"/>
  <circle cx="200" cy="200" r="100" fill="none" stroke="#FF69B4" stroke-width="1" opacity="0.2"/>
  
  <!-- Chakra points -->
  <circle cx="200" cy="70" r="4" fill="#9932CC" opacity="0.7"/>
  <circle cx="200" cy="120" r="4" fill="#4169E1" opacity="0.7"/>
  <circle cx="200" cy="170" r="4" fill="#32CD32" opacity="0.7"/>
  <circle cx="200" cy="200" r="4" fill="#FFD700" opacity="0.7"/>
  <circle cx="200" cy="230" r="4" fill="#FF4500" opacity="0.7"/>
  <circle cx="200" cy="260" r="4" fill="#FF0000" opacity="0.7"/>
  <circle cx="200" cy="290" r="4" fill="#8B0000" opacity="0.7"/>
</svg> 