<svg xmlns="http://www.w3.org/2000/svg" width="500" height="500" viewBox="0 0 500 500">
  <defs>
    <linearGradient id="bgGrad17" x1="0%" y1="0%" x2="0%" y2="100%">
      <stop offset="0%" style="stop-color:#e3f2fd;stop-opacity:1" />
      <stop offset="100%" style="stop-color:#bbdefb;stop-opacity:1" />
    </linearGradient>
    <radialGradient id="vesselGrad17" cx="50%" cy="30%" r="70%">
      <stop offset="0%" style="stop-color:#ffffff;stop-opacity:1" />
      <stop offset="50%" style="stop-color:#f5f5f5;stop-opacity:1" />
      <stop offset="100%" style="stop-color:#e0e0e0;stop-opacity:1" />
    </radialGradient>
  </defs>
  
  <!-- Background -->
  <rect width="500" height="500" fill="url(#bgGrad17)"/>
  
  <!-- Main open container/bowl -->
  <g transform="translate(250,300)">
  <!-- Bowl -->
  <path d="M-60 -20 L-60 20 Q-60 40 -40 50 Q0 60 40 50 Q60 40 60 20 L60 -20" 
      fill="url(#vesselGrad17)" stroke="#9e9e9e" stroke-width="3"/>
  
  <!-- Inner bowl -->
  <path d="M-50 -15 L-50 15 Q-50 30 -35 38 Q0 45 35 38 Q50 30 50 15 L50 -15" 
      fill="#f5f5f5"/>
  
  <!-- Water/liquid inside -->
  <path d="M-45 -10 L-45 10 Q-45 25 -30 30 Q0 35 30 30 Q45 25 45 10 L45 -10" 
      fill="#42a5f5" opacity="0.6"/>
  
  <!-- Main radical shape 凵 (receptacle) -->
  <!-- Left vertical stroke -->
  <path d="M200 150 L200 250" 
      stroke="#2e7d32" stroke-width="14" fill="none" stroke-linecap="round"/>
  
  <!-- Bottom horizontal stroke -->
  <path d="M200 250 L300 250" 
      stroke="#2e7d32" stroke-width="14" fill="none" stroke-linecap="round"/>
  
  <!-- Right vertical stroke -->
  <path d="M300 250 L300 150" 
      stroke="#2e7d32" stroke-width="14" fill="none" stroke-linecap="round"/>
  
  <!-- Various containers -->
  <g opacity="0.7">
  <!-- Ceramic bowl -->
  <g transform="translate(120,350)">
    <ellipse cx="0" cy="0" rx="25" ry="15" fill="url(#vesselGrad17)" stroke="#8d6e63" stroke-width="2"/>
    <ellipse cx="0" cy="-8" rx="20" ry="10" fill="#fff8e1"/>
    
    <!-- Wooden bucket -->
    <g transform="translate(380,320)">
      <path d="M-20 -10 L-20 20 Q-20 30 0 35 Q20 30 20 20 L20 -10" 
            fill="#8d6e63" stroke="#6d4c41" stroke-width="2"/>
      <!-- Metal bands -->
      <rect x="-22" y="5" width="44" height="4" fill="#757575"/>
      <rect x="-22" y="15" width="44" height="4" fill="#757575"/>
      <!-- Handle -->
      <path d="M-25 0 Q-35 -10 -25 -20" stroke="#6d4c41" stroke-width="3" fill="none"/>
    </g>
    </g>
  
    <!-- Person pouring into container -->
    <g transform="translate(150,250)" opacity="0.8">
    <!-- Head -->
    <circle cx="0" cy="0" r="10" fill="#ffdbcb"/>
    <!-- Body -->
    <rect x="-6" y="10" width="12" height="20" fill="#4caf50"/>
    <!-- Arms -->
    <ellipse cx="-10" cy="18" rx="3" ry="8" fill="#ffdbcb" transform="rotate(-30)"/>
    <ellipse cx="10" cy="18" rx="3" ry="8" fill="#ffdbcb" transform="rotate(30)"/>
    <!-- Pitcher -->
    <ellipse cx="15" cy="12" rx="5" ry="8" fill="#ff9800"/>
    <!-- Water stream -->
    <path d="M18 20 Q22 35 20 50" stroke="#42a5f5" stroke-width="3" fill="none" opacity="0.7"/>
    </g>
  
    <!-- Storage jars -->
    <g transform="translate(100,200)" opacity="0.6">
    <!-- Large jar -->
    <ellipse cx="0" cy="0" rx="15" ry="25" fill="url(#vesselGrad17)"/>
    <ellipse cx="0" cy="-15" rx="10" ry="8" fill="#8d6e63"/>
    <!-- Lid -->
    <ellipse cx="0" cy="-20" rx="12" ry="5" fill="#a1887f"/>
    </g>
  
    <!-- Flower vase -->
    <g transform="translate(380,180)" opacity="0.7">
    <!-- Vase -->
    <path d="M0 20 Q-8 15 -10 0 Q-8 -15 0 -20 Q8 -15 10 0 Q8 15 0 20" 
          fill="url(#vesselGrad17)" stroke="#9e9e9e" stroke-width="1"/>
    <!-- Flowers -->
    <g fill="#f44336">
      <circle cx="-3" cy="-25" r="3"/>
      <circle cx="5" cy="-28" r="3"/>
      <circle cx="0" cy="-32" r="3"/>
    </g>
    <!-- Stems -->
    <g stroke="#4caf50" stroke-width="2">
      <line x1="-3" y1="-25" x2="-2" y2="-15"/>
      <line x1="5" y1="-28" x2="3" y2="-15"/>
      <line x1="0" y1="-32" x2="0" y2="-15"/>
    </g>
    </g>
  
    <!-- Kitchen containers -->
    <g transform="translate(400,350)" opacity="0.6">
    <!-- Salt container -->
    <rect x="0" y="0" width="15" height="20" rx="2" fill="#ffffff" stroke="#e0e0e0" stroke-width="1"/>
    
    <!-- Sugar container -->
    <rect x="20" y="0" width="15" height="20" rx="2" fill="#fff8e1" stroke="#e0e0e0" stroke-width="1"/>
    
    </g>
  
    <!-- Wine/sake cups -->
    <g transform="translate(100,400)" opacity="0.7">
    <!-- Traditional sake cup -->
    <ellipse cx="0" cy="0" rx="12" ry="8" fill="#fff8e1" stroke="#d7ccc8" stroke-width="1"/>
    <ellipse cx="0" cy="-3" rx="10" ry="6" fill="#ffffff"/>
    <!-- Sake inside -->
    <ellipse cx="0" cy="-2" rx="8" ry="4" fill="#ffeb3b" opacity="0.6"/>
    
    <!-- Wine glass -->
    <g transform="translate(30,0)">
      <ellipse cx="0" cy="-10" rx="8" ry="6" fill="url(#vesselGrad17)"/>
      <rect x="-1" y="-4" width="2" height="8" fill="#9e9e9e"/>
      <ellipse cx="0" cy="6" rx="6" ry="2" fill="#9e9e9e"/>
      <!-- Wine -->
      <ellipse cx="0" cy="-8" rx="6" ry="4" fill="#9c27b0" opacity="0.7"/>
    </g>
    </g>
  
    <!-- Collection bin -->
    <g transform="translate(350,400)" opacity="0.5">
    <rect x="0" y="0" width="40" height="30" rx="5" fill="#8d6e63"/>
    <rect x="2" y="2" width="36" height="26" rx="3" fill="#a1887f"/>
    <!-- Items inside -->
    <g fill="#ff9800" opacity="0.6">
      <circle cx="10" cy="10" r="3"/>
      <circle cx="25" cy="12" r="2"/>
      <circle cx="32" cy="8" r="3"/>
    </g>
    </g>
  
    <!-- Measuring cup -->
    <g transform="translate(120,120)" opacity="0.6">
    <path d="M0 0 L-8 0 L-10 20 L10 20 L8 0 Z" fill="url(#vesselGrad17)" stroke="#9e9e9e" stroke-width="1"/>
    <!-- Measurement marks -->
    <g stroke="#424242" stroke-width="1">
      <line x1="-8" y1="5" x2="-6" y2="5"/>
      <line x1="-8" y1="10" x2="-6" y2="10"/>
      <line x1="-8" y1="15" x2="-6" y2="15"/>
    </g>
    <!-- Handle -->
    <path d="M8 10 Q15 10 15 15" stroke="#9e9e9e" stroke-width="2" fill="none"/>
    </g>
  
    <!-- Basket -->
    <g transform="translate(380,120)" opacity="0.6">
    <path d="M0 -10 Q-15 -5 -20 10 Q-15 25 0 30 Q15 25 20 10 Q15 -5 0 -10" 
          fill="#d7ccc8" stroke="#8d6e63" stroke-width="1"/>
    <!-- Weave pattern -->
    <g stroke="#8d6e63" stroke-width="1">
      <line x1="-15" y1="0" x2="15" y2="0"/>
      <line x1="-12" y1="10" x2="12" y2="10"/>
      <line x1="-8" y1="20" x2="8" y2="20"/>
    </g>
    </g>
  
    <!-- Water droplets falling into containers -->
    <g fill="#2196f3" opacity="0.4">
    <circle cx="200" cy="320" r="2"/>
    <circle cx="280" cy="330" r="2"/>
    <circle cx="240" cy="340" r="1"/>
    </g>
  
    <!-- Kanji character 凵 -->
    
    </g>
  </g>
</svg> 