<svg viewBox="0 0 500 500" xmlns="http://www.w3.org/2000/svg">
  <defs>
    <linearGradient id="wrongGradient" x1="0%" y1="0%" x2="100%" y2="100%">
      <stop offset="0%" stop-color="#FF6B6B"/>
      <stop offset="100%" stop-color="#DC143C"/>
    </linearGradient>
    <linearGradient id="rightGradient" x1="0%" y1="0%" x2="100%" y2="100%">
      <stop offset="0%" stop-color="#90EE90"/>
      <stop offset="100%" stop-color="#32CD32"/>
    </linearGradient>
    <radialGradient id="xGradient" cx="0.3" cy="0.3" r="0.8">
      <stop offset="0%" stop-color="#FF0000"/>
      <stop offset="50%" stop-color="#DC143C"/>
      <stop offset="100%" stop-color="#8B0000"/>
    </radialGradient>
  </defs>  <!-- Background -->
  <rect width="500" height="500" fill="#F5F5F5"/>
  
  <!-- Big X mark (wrong/no) -->
  <path d="M80 80 L160 160" stroke="url(#xGradient)" stroke-width="15" stroke-linecap="round"/>
  <path d="M160 80 L80 160" stroke="url(#xGradient)" stroke-width="15" stroke-linecap="round"/>
  
  <!-- Circle around X -->
  <circle cx="120" cy="120" r="60" fill="none" stroke="url(#xGradient)" stroke-width="8"/>
  
  <!-- Checkmark (right) for contrast -->
  <path d="M280 100 L300 120 L340 80" stroke="url(#rightGradient)" stroke-width="12" stroke-linecap="round" fill="none"/>
  <circle cx="310" cy="100" r="40" fill="none" stroke="url(#rightGradient)" stroke-width="6"/>
  
  <!-- Crossed out items -->
  <!-- Crossed out apple -->
  <circle cx="100" cy="250" r="20" fill="#FF6347" stroke="#DC143C" stroke-width="2"/>
  <ellipse cx="105" cy="235" rx="5" ry="8" fill="#32CD32" stroke="#228B22" stroke-width="1"/>
  <path d="M80 230 L120 270" stroke="#FF0000" stroke-width="6"/>
  <path d="M120 230 L80 270" stroke="#FF0000" stroke-width="6"/>
  
  <!-- Crossed out house -->
  <rect x="180" y="240" width="40" height="30" fill="#DEB887" stroke="#8B4513" stroke-width="2"/>
  <path d="M170 240 L200 220 L230 240 Z" fill="#DC143C" stroke="#8B0000" stroke-width="2"/>
  <rect x="190" y="255" width="8" height="15" fill="#8B4513"/>
  <path d="M170 220 L230 280" stroke="#FF0000" stroke-width="5"/>
  <path d="M230 220 L170 280" stroke="#FF0000" stroke-width="5"/>
  
  <!-- Crossed out text -->
  
  <path d="M250 250 L330 270" stroke="#FF0000" stroke-width="4"/>
  
  <!-- Stop sign -->
  <path d="M350 200 L375 180 L400 200 L400 230 L375 250 L350 230 Z" 
    fill="#FF0000" stroke="#8B0000" stroke-width="3"/>
  
  <!-- Prohibited signs -->
  <circle cx="80" cy="350" r="25" fill="none" stroke="#FF0000" stroke-width="5"/>
  <path d="M60 330 L100 370" stroke="#FF0000" stroke-width="5"/>
  <!-- No smoking symbol inside -->
  <ellipse cx="80" cy="345" rx="8" ry="3" fill="#8B4513"/>
  <path d="M80 340 Q82 335 84 340" stroke="#D3D3D3" stroke-width="2" fill="none"/>
  
  <!-- No entry sign -->
  <circle cx="200" cy="350" r="25" fill="#FF0000" stroke="#8B0000" stroke-width="3"/>
  <rect x="180" y="345" width="40" height="10" fill="#FFF"/>
  
  <!-- Wrong way arrow -->
  <path d="M320 320 L280 340 L320 360" stroke="#FF0000" stroke-width="6" fill="none"/>
  <path d="M280 340 L370 340" stroke="#FF0000" stroke-width="6"/>
  
  <!-- Incorrect math -->
  
  <path d="M45 185 L115 205" stroke="#FF0000" stroke-width="3"/>
  <path d="M115 185 L45 205" stroke="#FF0000" stroke-width="3"/>
  
  <!-- Correct math for contrast -->
  
  <path d="M280 180 L300 200 L320 180" stroke="#32CD32" stroke-width="3" fill="none"/>
  
  <!-- False vs True -->
  <rect x="50" y="300" width="60" height="25" fill="url(#wrongGradient)" stroke="#8B0000" stroke-width="2"/>
  
  <rect x="280" y="300" width="60" height="25" fill="url(#rightGradient)" stroke="#228B22" stroke-width="2"/>
  
  <!-- Broken heart (non-love) -->
  <path d="M150 320 Q140 310 130 320 Q130 330 150 350 Q170 330 170 320 Q160 310 150 320" 
    fill="#FF69B4" stroke="#DC143C" stroke-width="2"/>
  <!-- Crack in heart -->
  <path d="M150 315 L150 345" stroke="#8B0000" stroke-width="3"/>
  <path d="M145 325 L155 335" stroke="#8B0000" stroke-width="2"/>
  <path d="M155 325 L145 335" stroke="#8B0000" stroke-width="2"/>
  
  <!-- Thumbs down -->
  <ellipse cx="370" cy="300" rx="8" ry="15" fill="#FFDAB9" stroke="#8B4513" stroke-width="1"/>
  <ellipse cx="370" cy="320" rx="12" ry="8" fill="#FFDAB9" stroke="#8B4513" stroke-width="1"/>
  <circle cx="370" cy="295" r="3" fill="#FF0000"/>
  
  <!-- Negative symbols -->
  
  <!-- Warning triangle -->
  <path d="M300 50 L280 80 L320 80 Z" fill="#FFD700" stroke="#FFA500" stroke-width="2"/>
  
  <!-- Error message box -->
  <rect x="20" y="380" width="100" height="15" fill="#FF0000" stroke="#8B0000" stroke-width="1"/>
  
  <!-- Not equal comparison -->
  <circle cx="200" cy="120" r="15" fill="#4169E1"/>
  
  <circle cx="260" cy="120" r="15" fill="#FF6347"/>
  
  <!-- Chinese character for non/wrong -->
  
  <!-- Diagonal "WRONG" stamp -->
  <g transform="rotate(-15 350 350)">
  <rect x="300" y="340" width="100" height="20" fill="none" stroke="#FF0000" stroke-width="3"/>
  
  <!-- Contrast: "CORRECT" stamp -->
  <g transform="rotate(15 150 380)">
  <rect x="100" y="370" width="100" height="20" fill="none" stroke="#32CD32" stroke-width="3"/>
  
    <!-- Binary representation -->
    
    </g>
  </g>
</svg> 