<svg viewBox="0 0 500 500" xmlns="http://www.w3.org/2000/svg">
  <defs>
    <linearGradient id="softLeatherGradient" x1="0%" y1="0%" x2="100%" y2="100%">
      <stop offset="0%" stop-color="#F4A460"/>
      <stop offset="50%" stop-color="#DEB887"/>
      <stop offset="100%" stop-color="#D2691E"/>
    </linearGradient>
    <radialGradient id="tanningSolution" cx="0.3" cy="0.3" r="0.8">
      <stop offset="0%" stop-color="#D2691E"/>
      <stop offset="50%" stop-color="#A0522D"/>
      <stop offset="100%" stop-color="#8B4513"/>
    </radialGradient>
    <linearGradient id="flexibleGradient" x1="0%" y1="0%" x2="100%" y2="0%">
      <stop offset="0%" stop-color="#DEB887"/>
      <stop offset="25%" stop-color="#F4A460"/>
      <stop offset="50%" stop-color="#DEB887"/>
      <stop offset="75%" stop-color="#F4A460"/>
      <stop offset="100%" stop-color="#DEB887"/>
    </linearGradient>
  </defs>  <!-- Background -->
  <rect width="500" height="500" fill="#FFF8DC"/>
  
  <!-- Tanning vats -->
  <ellipse cx="100" cy="200" rx="60" ry="40" fill="url(#tanningSolution)" stroke="#654321" stroke-width="3"/>
  <ellipse cx="100" cy="185" rx="55" ry="30" fill="#A0522D"/>
  
  <ellipse cx="300" cy="200" rx="60" ry="40" fill="url(#tanningSolution)" stroke="#654321" stroke-width="3"/>
  <ellipse cx="300" cy="185" rx="55" ry="30" fill="#8B4513"/>
  
  <!-- Leather hides soaking in vats -->
  <path d="M70 185 Q85 180 100 185 Q115 180 130 185 Q125 195 115 200 Q100 195 85 200 Q75 195 70 185" 
    fill="url(#softLeatherGradient)" stroke="#D2691E" stroke-width="2" opacity="0.8"/>
  
  <path d="M270 185 Q285 180 300 185 Q315 180 330 185 Q325 195 315 200 Q300 195 285 200 Q275 195 270 185" 
    fill="url(#softLeatherGradient)" stroke="#D2691E" stroke-width="2" opacity="0.8"/>
  
  <!-- Soft leather products -->
  <!-- Flexible leather purse -->
  <path d="M50 300 Q80 290 110 300 Q120 310 115 330 Q110 350 80 355 Q50 350 45 330 Q50 310 50 300" 
    fill="url(#softLeatherGradient)" stroke="#D2691E" stroke-width="2"/>
  
  <!-- Purse curves showing flexibility -->
  <path d="M55 310 Q80 305 105 310" stroke="#CD853F" stroke-width="1.5" fill="none"/>
  <path d="M55 320 Q80 315 105 320" stroke="#CD853F" stroke-width="1.5" fill="none"/>
  <path d="M55 330 Q80 325 105 330" stroke="#CD853F" stroke-width="1.5" fill="none"/>
  
  <!-- Soft leather slippers -->
  <path d="M150 350 Q170 340 190 350 Q195 360 190 370 Q180 375 170 370 Q155 365 150 350" 
    fill="url(#softLeatherGradient)" stroke="#D2691E" stroke-width="2"/>
  <path d="M210 350 Q230 340 250 350 Q255 360 250 370 Q240 375 230 370 Q215 365 210 350" 
    fill="url(#softLeatherGradient)" stroke="#D2691E" stroke-width="2"/>
  
  <!-- Slipper decorative stitching -->
  <path d="M155 355 Q170 350 185 355" stroke="#DAA520" stroke-width="1" stroke-dasharray="2,1"/>
  <path d="M215 355 Q230 350 245 355" stroke="#DAA520" stroke-width="1" stroke-dasharray="2,1"/>
  
  <!-- Flexible leather belt that curves -->
  <path d="M280 320 Q320 310 360 320 Q380 330 370 350 Q360 370 340 375 Q320 370 300 360 Q285 350 280 340 Q275 330 280 320" 
    fill="url(#flexibleGradient)" stroke="#D2691E" stroke-width="2"/>
  
  <!-- Belt buckle -->
  <rect x="275" y="325" width="8" height="6" fill="#C0C0C0" stroke="#A9A9A9" stroke-width="1" rx="1"/>
  
  <!-- Soft leather jacket -->
  <path d="M200 80 Q220 70 240 80 Q250 90 245 110 Q240 130 220 135 Q200 130 195 110 Q200 90 200 80" 
    fill="url(#softLeatherGradient)" stroke="#D2691E" stroke-width="2"/>
  
  <!-- Jacket sleeves -->
  <path d="M200 90 Q180 85 170 95 Q175 105 185 110 Q195 105 200 95" 
    fill="url(#softLeatherGradient)" stroke="#D2691E" stroke-width="2"/>
  <path d="M240 90 Q260 85 270 95 Q265 105 255 110 Q245 105 240 95" 
    fill="url(#softLeatherGradient)" stroke="#D2691E" stroke-width="2"/>
  
  <!-- Jacket zipper -->
  <path d="M220 85 L220 130" stroke="#A9A9A9" stroke-width="3"/>
  <rect x="217" y="105" width="6" height="8" fill="#C0C0C0" rx="1"/>
  
  <!-- Tanning process demonstration -->
  <!-- Raw hide -->
  <rect x="50" y="50" width="40" height="30" fill="#8B7355" stroke="#654321" stroke-width="2"/>
  <text x="70" y="70" text-anchor="middle" font-family="Arial, sans-serif" font-size="8" fill="#FFF">RAW</text>
  
  <!-- Process arrow -->
  <path d="M100 65 L140 65" stroke="#32CD32" stroke-width="4" marker-end="url(#processArrow)"/>
  <defs>
  <marker id="processArrow" markerWidth="10" markerHeight="7" refX="9" refY="3.5" orient="auto">
  <polygon points="0 0, 10 3.5, 0 7" fill="#32CD32"/>
  </marker>
  </defs>
  
  <!-- Tanned soft leather -->
  <path d="M150 50 Q170 45 190 50 Q195 60 190 70 Q180 75 170 70 Q155 65 150 50" 
    fill="url(#softLeatherGradient)" stroke="#D2691E" stroke-width="2"/>
  <text x="170" y="65" text-anchor="middle" font-family="Arial, sans-serif" font-size="6" fill="#8B4513">SOFT</text>
  
  <!-- Flexibility demonstration -->
  <path d="M300 80 Q320 70 340 80 Q350 90 340 100 Q320 110 300 100 Q290 90 300 80" 
    fill="url(#softLeatherGradient)" stroke="#D2691E" stroke-width="2"/>
  
  <!-- Bend lines showing flexibility -->
  <path d="M310 85 Q320 80 330 85" stroke="#A0522D" stroke-width="1" fill="none"/>
  <path d="M310 95 Q320 90 330 95" stroke="#A0522D" stroke-width="1" fill="none"/>
  
  <!-- Motion lines -->
  <path d="M345 85 Q355 80 365 85" stroke="#D2691E" stroke-width="2" fill="none" opacity="0.6"/>
  <path d="M345 90 Q355 85 365 90" stroke="#D2691E" stroke-width="2" fill="none" opacity="0.6"/>
  <path d="M345 95 Q355 90 365 95" stroke="#D2691E" stroke-width="2" fill="none" opacity="0.6"/>
  
  <!-- Tanning tools -->
  <!-- Fleshing knife -->
  <rect x="200" y="250" width="60" height="4" fill="#C0C0C0" stroke="#A9A9A9" stroke-width="1"/>
  <rect x="260" y="245" width="15" height="14" fill="#8B4513" stroke="#654321" stroke-width="1"/>
  
  <!-- Tanning paddle -->
  <ellipse cx="350" cy="280" rx="15" ry="8" fill="#8B4513" stroke="#654321" stroke-width="2"/>
  <rect x="365" y="276" width="25" height="8" fill="#8B4513" stroke="#654321" stroke-width="1"/>
  
  <!-- Softening stones -->
  <ellipse cx="120" cy="280" rx="8" ry="6" fill="#A9A9A9" stroke="#696969" stroke-width="1"/>
  <ellipse cx="140" cy="285" rx="6" ry="4" fill="#D3D3D3" stroke="#A9A9A9" stroke-width="1"/>
  
  <!-- Tanning solution bubbles -->
  <circle cx="85" cy="190" r="2" fill="#DEB887" opacity="0.7"/>
  <circle cx="95" cy="185" r="1.5" fill="#F4A460" opacity="0.7"/>
  <circle cx="105" cy="190" r="2.5" fill="#DEB887" opacity="0.7"/>
  <circle cx="115" cy="188" r="1" fill="#F4A460" opacity="0.7"/>
  
  <circle cx="285" cy="190" r="2" fill="#CD853F" opacity="0.7"/>
  <circle cx="295" cy="185" r="1.5" fill="#DEB887" opacity="0.7"/>
  <circle cx="305" cy="190" r="2.5" fill="#CD853F" opacity="0.7"/>
  <circle cx="315" cy="188" r="1" fill="#DEB887" opacity="0.7"/>
  
  <!-- Soft leather gloves with curves -->
  <path d="M20 150 Q30 140 45 145 Q55 150 60 160 Q65 170 60 185 Q55 195 45 200 Q35 195 30 185 Q25 175 20 165 Q15 155 20 150" 
    fill="url(#softLeatherGradient)" stroke="#D2691E" stroke-width="2"/>
  
  <!-- Glove finger curves -->
  <path d="M45 150 Q50 145 55 150" stroke="#A0522D" stroke-width="1" fill="none"/>
  <path d="M50 155 Q55 150 60 155" stroke="#A0522D" stroke-width="1" fill="none"/>
  <path d="M45 165 Q50 160 55 165" stroke="#A0522D" stroke-width="1" fill="none"/>
  
  <!-- Chinese character -->
  <text x="200" y="30" text-anchor="middle" font-family="serif" font-size="24" font-weight="bold" fill="#D2691E">韋</text>
  
  <!-- Workshop label -->
  <text x="200" y="390" text-anchor="middle" font-family="Arial, sans-serif" font-size="14" font-weight="bold" fill="#8B4513">SOFT LEATHER TANNING</text>
  
  <!-- Steam from vats -->
  <g stroke="#D3D3D3" stroke-width="2" fill="none" opacity="0.5">
  <path d="M85 160 Q90 150 85 140"/>
  <path d="M100 160 Q105 150 100 140"/>
  <path d="M115 160 Q120 150 115 140"/>
  
  <path d="M285 160 Q290 150 285 140"/>
  <path d="M300 160 Q305 150 300 140"/>
  <path d="M315 160 Q320 150 315 140"/>
  </g>
</svg> 