<svg viewBox="0 0 500 500" xmlns="http://www.w3.org/2000/svg">
  <defs>
    <radialGradient id="fightGradient" cx="0.3" cy="0.3" r="0.8">
      <stop offset="0%" stop-color="#FF6B6B"/>
      <stop offset="50%" stop-color="#DC143C"/>
      <stop offset="100%" stop-color="#8B0000"/>
    </radialGradient>
    <linearGradient id="energyGradient" x1="0%" y1="0%" x2="100%" y2="0%">
      <stop offset="0%" stop-color="#FFD700"/>
      <stop offset="50%" stop-color="#FF8C00"/>
      <stop offset="100%" stop-color="#FF4500"/>
    </linearGradient>
    <radialGradient id="explosionGradient" cx="0.5" cy="0.5" r="0.8">
      <stop offset="0%" stop-color="#FFF"/>
      <stop offset="30%" stop-color="#FFD700"/>
      <stop offset="70%" stop-color="#FF4500"/>
      <stop offset="100%" stop-color="#DC143C"/>
    </radialGradient>
  </defs>  <!-- Background -->
  <rect width="500" height="500" fill="#2F2F2F"/>
  
  <!-- Two fighters in combat -->
  <!-- Fighter 1 (left) -->
  <ellipse cx="120" cy="200" rx="15" ry="25" fill="url(#fightGradient)" stroke="#8B0000" stroke-width="2"/>
  <circle cx="120" cy="180" r="12" fill="#FFDAB9" stroke="#DEB887" stroke-width="2"/>
  
  <!-- Fighter 1 arms in action -->
  <ellipse cx="100" cy="190" rx="20" ry="8" fill="#FFDAB9" stroke="#DEB887" stroke-width="1" transform="rotate(-30 100 190)"/>
  <ellipse cx="140" cy="210" rx="20" ry="8" fill="#FFDAB9" stroke="#DEB887" stroke-width="1" transform="rotate(45 140 210)"/>
  
  <!-- Fighter 1 legs -->
  <ellipse cx="110" cy="240" rx="8" ry="20" fill="#4169E1" stroke="#191970" stroke-width="1"/>
  <ellipse cx="130" cy="245" rx="8" ry="20" fill="#4169E1" stroke="#191970" stroke-width="1" transform="rotate(20 130 245)"/>
  
  <!-- Fighter 2 (right) -->
  <ellipse cx="280" cy="200" rx="15" ry="25" fill="url(#fightGradient)" stroke="#8B0000" stroke-width="2"/>
  <circle cx="280" cy="180" r="12" fill="#FFDAB9" stroke="#DEB887" stroke-width="2"/>
  
  <!-- Fighter 2 arms in action -->
  <ellipse cx="260" cy="210" rx="20" ry="8" fill="#FFDAB9" stroke="#DEB887" stroke-width="1" transform="rotate(-45 260 210)"/>
  <ellipse cx="300" cy="190" rx="20" ry="8" fill="#FFDAB9" stroke="#DEB887" stroke-width="1" transform="rotate(30 300 190)"/>
  
  <!-- Fighter 2 legs -->
  <ellipse cx="290" cy="240" rx="8" ry="20" fill="#32CD32" stroke="#228B22" stroke-width="1"/>
  <ellipse cx="270" cy="245" rx="8" ry="20" fill="#32CD32" stroke="#228B22" stroke-width="1" transform="rotate(-20 270 245)"/>
  
  <!-- Impact explosion between fighters -->
  <circle cx="200" cy="200" r="25" fill="url(#explosionGradient)" stroke="#FF4500" stroke-width="3"/>
  
  <!-- Explosion rays -->
  <g stroke="url(#energyGradient)" stroke-width="4" opacity="0.8">
  <path d="M175 175 L150 150"/>
  <path d="M225 175 L250 150"/>
  <path d="M225 225 L250 250"/>
  <path d="M175 225 L150 250"/>
  <path d="M175 200 L140 200"/>
  <path d="M225 200 L260 200"/>
  <path d="M200 175 L200 140"/>
  <path d="M200 225 L200 260"/>
  
  <!-- Speed lines showing movement -->
  <g stroke="#FFD700" stroke-width="3" opacity="0.6">
  <path d="M80 185 L100 190"/>
  <path d="M75 195 L95 200"/>
  <path d="M85 205 L105 210"/>
  
  <path d="M320 185 L300 190"/>
  <path d="M325 195 L305 200"/>
  <path d="M315 205 L295 210"/>
  
    <!-- Martial arts scene -->
    <!-- Karate fighter -->
    <ellipse cx="100" cy="100" rx="12" ry="20" fill="#FFF" stroke="#D3D3D3" stroke-width="2"/>
    <circle cx="100" cy="80" r="8" fill="#FFDAB9" stroke="#DEB887" stroke-width="1"/>
  
    <!-- Karate uniform belt -->
    <rect x="95" y="110" width="10" height="4" fill="#8B0000"/>
  
    <!-- Karate kick -->
    <ellipse cx="120" cy="105" rx="15" ry="6" fill="#FFDAB9" stroke="#DEB887" stroke-width="1" transform="rotate(60 120 105)"/>
  
    <!-- Karate hand strike -->
    <ellipse cx="85" cy="90" rx="12" ry="5" fill="#FFDAB9" stroke="#DEB887" stroke-width="1" transform="rotate(-45 85 90)"/>
  
    <!-- Boxing match -->
    <!-- Boxer 1 -->
    <ellipse cx="300" cy="100" rx="10" ry="18" fill="#FF6347" stroke="#DC143C" stroke-width="2"/>
    <circle cx="300" cy="82" r="6" fill="#FFDAB9" stroke="#DEB887" stroke-width="1"/>
  
    <!-- Boxing gloves -->
    <circle cx="285" cy="90" r="8" fill="#8B0000" stroke="#654321" stroke-width="2"/>
    <circle cx="315" cy="95" r="8" fill="#8B0000" stroke="#654321" stroke-width="2"/>
  
    <!-- Punching bag -->
    <ellipse cx="350" cy="120" rx="15" ry="30" fill="#8B4513" stroke="#654321" stroke-width="2"/>
  
    <!-- Punching bag chain -->
    <rect x="347" y="90" width="6" height="30" fill="#A9A9A9"/>
  
    <!-- Impact on punching bag -->
    <g stroke="#FFD700" stroke-width="2" opacity="0.7">
    <path d="M330 115 L340 110"/>
    <path d="M335 125 L345 120"/>
    <path d="M330 135 L340 130"/>
    </g>
  
    <!-- Sword fighting -->
    <!-- Swordsman 1 -->
    <ellipse cx="50" cy="300" rx="8" ry="15" fill="#4B0082" stroke="#2E0854" stroke-width="2"/>
    <circle cx="50" cy="285" r="5" fill="#FFDAB9" stroke="#DEB887" stroke-width="1"/>
  
    <!-- Sword 1 -->
    <rect x="35" y="275" width="3" height="30" fill="#C0C0C0" stroke="#A9A9A9" stroke-width="1" transform="rotate(-45 36.5 290)"/>
    <rect x="30" y="270" width="8" height="4" fill="#8B4513" transform="rotate(-45 34 272)"/>
  
    <!-- Swordsman 2 -->
    <ellipse cx="80" cy="300" rx="8" ry="15" fill="#8B0000" stroke="#654321" stroke-width="2"/>
    <circle cx="80" cy="285" r="5" fill="#FFDAB9" stroke="#DEB887" stroke-width="1"/>
  
    <!-- Sword 2 -->
    <rect x="85" y="275" width="3" height="30" fill="#C0C0C0" stroke="#A9A9A9" stroke-width="1" transform="rotate(45 86.5 290)"/>
    <rect x="90" y="270" width="8" height="4" fill="#8B4513" transform="rotate(45 94 272)"/>
  
    <!-- Sword clash sparks -->
    <g fill="#FFD700" opacity="0.8">
    <circle cx="65" cy="280" r="2"/>
    <circle cx="70" cy="275" r="1.5"/>
    <circle cx="60" cy="285" r="1"/>
    <circle cx="68" cy="285" r="1"/>
    </g>
  
    <!-- Wrestling scene -->
    <!-- Wrestler 1 -->
    <ellipse cx="200" cy="350" rx="20" ry="15" fill="#FF69B4" stroke="#DC143C" stroke-width="2"/>
    <circle cx="200" cy="335" r="8" fill="#FFDAB9" stroke="#DEB887" stroke-width="1"/>
  
    <!-- Wrestler 2 -->
    <ellipse cx="230" cy="360" rx="20" ry="15" fill="#32CD32" stroke="#228B22" stroke-width="2" transform="rotate(30 230 360)"/>
    <circle cx="225" cy="345" r="8" fill="#FFDAB9" stroke="#DEB887" stroke-width="1"/>
  
    <!-- Wrestling hold -->
    <ellipse cx="215" cy="350" rx="12" ry="6" fill="#FFDAB9" stroke="#DEB887" stroke-width="1" transform="rotate(45 215 350)"/>
  
    <!-- Fighting arena/ring -->
    <circle cx="200" cy="200" r="120" fill="none" stroke="#FFD700" stroke-width="4"/>
    <circle cx="200" cy="200" r="110" fill="none" stroke="#FF4500" stroke-width="2"/>
  
    <!-- Arena ropes -->
    <g stroke="#8B4513" stroke-width="3" fill="none">
    <circle cx="200" cy="200" r="125"/>
    <circle cx="200" cy="200" r="135"/>
    </g>
  
    <!-- Corner posts -->
    <rect x="315" y="75" width="8" height="40" fill="#8B4513"/>
    <rect x="75" y="75" width="8" height="40" fill="#8B4513"/>
    <rect x="315" y="285" width="8" height="40" fill="#8B4513"/>
    <rect x="75" y="285" width="8" height="40" fill="#8B4513"/>
  
    <!-- Crowd cheering (simplified) -->
    <g fill="#2F2F2F" opacity="0.7">
    <ellipse cx="350" cy="50" rx="15" ry="8"/>
    <ellipse cx="370" cy="45" rx="12" ry="6"/>
    <ellipse cx="30" cy="50" rx="15" ry="8"/>
    <ellipse cx="50" cy="45" rx="12" ry="6"/>
    <ellipse cx="380" cy="350" rx="15" ry="8"/>
    <ellipse cx="20" cy="350" rx="15" ry="8"/>
    </g>
  
    <!-- Fighting sound effects -->
    <g fill="#FFD700" font-family="Arial, sans-serif" font-size="20" font-weight="bold">
    
    </g>
  
    <!-- Dust clouds from fighting -->
    <g fill="#D3D3D3" opacity="0.5">
    <circle cx="90" cy="320" r="8"/>
    <circle cx="100" cy="325" r="6"/>
    <circle cx="85" cy="330" r="5"/>
    
    <circle cx="310" cy="115" r="6"/>
    <circle cx="320" cy="120" r="4"/>
    <circle cx="305" cy="125" r="5"/>
    </g>
  
    <!-- Fighting stances demonstration -->
    <!-- Guard position -->
    <g stroke="#4169E1" stroke-width="2" fill="none" opacity="0.6">
    <circle cx="150" cy="80" r="15"/>
    <ellipse cx="135" cy="75" rx="8" ry="4"/>
    <ellipse cx="165" cy="75" rx="8" ry="4"/>
    </g>
  
    <!-- Attack position -->
    <g stroke="#DC143C" stroke-width="2" fill="none" opacity="0.6">
    <circle cx="250" cy="80" r="15"/>
    <ellipse cx="235" cy="85" rx="12" ry="4" transform="rotate(-30 235 85)"/>
    <ellipse cx="265" cy="75" rx="12" ry="4" transform="rotate(30 265 75)"/>
    </g>
  
    <!-- Victory pose -->
    <ellipse cx="350" cy="300" rx="10" ry="15" fill="#FFD700" stroke="#DAA520" stroke-width="2"/>
    <circle cx="350" cy="285" r="6" fill="#FFDAB9" stroke="#DEB887" stroke-width="1"/>
  
    <!-- Raised arms in victory -->
    <ellipse cx="335" cy="275" rx="12" ry="5" fill="#FFDAB9" stroke="#DEB887" stroke-width="1" transform="rotate(-45 335 275)"/>
    <ellipse cx="365" cy="275" rx="12" ry="5" fill="#FFDAB9" stroke="#DEB887" stroke-width="1" transform="rotate(45 365 275)"/>
  
    <!-- Chinese character -->
    
    <!-- Title -->
    
    </g>
  </g>
</svg> 