<svg viewBox="0 0 500 500" xmlns="http://www.w3.org/2000/svg">
  <defs>
    <radialGradient id="flowerGradient" cx="0.3" cy="0.3" r="0.8">
      <stop offset="0%" stop-color="#FFB6C1"/>
      <stop offset="50%" stop-color="#FF69B4"/>
      <stop offset="100%" stop-color="#DC143C"/>
    </radialGradient>
    <linearGradient id="grassGradient" x1="0%" y1="0%" x2="0%" y2="100%">
      <stop offset="0%" stop-color="#90EE90"/>
      <stop offset="50%" stop-color="#32CD32"/>
      <stop offset="100%" stop-color="#228B22"/>
    </linearGradient>
    <radialGradient id="sunflowerGradient" cx="0.3" cy="0.3" r="0.8">
      <stop offset="0%" stop-color="#FFFF99"/>
      <stop offset="50%" stop-color="#FFD700"/>
      <stop offset="100%" stop-color="#DAA520"/>
    </radialGradient>
    <linearGradient id="stemGradient" x1="0%" y1="0%" x2="0%" y2="100%">
      <stop offset="0%" stop-color="#90EE90"/>
      <stop offset="50%" stop-color="#32CD32"/>
      <stop offset="100%" stop-color="#228B22"/>
    </linearGradient>
    <radialGradient id="butterflyGradient" cx="0.3" cy="0.3" r="0.8">
      <stop offset="0%" stop-color="#FFD700"/>
      <stop offset="50%" stop-color="#FF8C00"/>
      <stop offset="100%" stop-color="#FF4500"/>
    </radialGradient>
  </defs>  <!-- Sky background -->
  <rect width="400" height="300" fill="#87CEEB"/>
  
  <!-- Grass field -->
  <rect x="0" y="300" width="400" height="100" fill="url(#grassGradient)"/>
  
  <!-- Sunflower -->
  <g transform="translate(320, 200)">
    <!-- Stem -->
    <rect x="-3" y="50" width="6" height="120" fill="url(#stemGradient)"/>
    <!-- Leaves -->
    <ellipse cx="-15" cy="80" rx="12" ry="6" fill="#32CD32"/>
    <ellipse cx="15" cy="110" rx="12" ry="6" fill="#32CD32"/>
    <!-- Flower center -->
    <circle cx="0" cy="30" r="15" fill="#8B4513"/>
    <!-- Petals -->
    <g fill="url(#sunflowerGradient)" stroke="#DAA520" stroke-width="1">
      <ellipse cx="0" cy="5" rx="6" ry="18"/>
      <ellipse cx="12" cy="10" rx="6" ry="18" transform="rotate(30 12 10)"/>
      <ellipse cx="18" cy="25" rx="6" ry="18" transform="rotate(60 18 25)"/>
      <ellipse cx="12" cy="40" rx="6" ry="18" transform="rotate(90 12 40)"/>
      <ellipse cx="0" cy="45" rx="6" ry="18" transform="rotate(120 0 45)"/>
      <ellipse cx="-12" cy="40" rx="6" ry="18" transform="rotate(150 -12 40)"/>
      <ellipse cx="-18" cy="25" rx="6" ry="18" transform="rotate(180 -18 25)"/>
      <ellipse cx="-12" cy="10" rx="6" ry="18" transform="rotate(210 -12 10)"/>
    </g>
  </g>
  
  <!-- Rose bush -->
  <g transform="translate(100, 250)">
    <!-- Stems -->
    <rect x="-2" y="0" width="4" height="80" fill="#228B22"/>
    <rect x="18" y="20" width="4" height="60" fill="#228B22"/>
    <!-- Thorns -->
    <polygon points="0,20 5,18 2,25" fill="#8B4513"/>
    <polygon points="0,40 5,38 2,45" fill="#8B4513"/>
    <polygon points="20,35 25,33 22,40" fill="#8B4513"/>
    <!-- Roses -->
    <g fill="url(#flowerGradient)" stroke="#DC143C" stroke-width="1">
      <circle cx="0" cy="-10" r="12"/>
      <circle cx="20" cy="10" r="10"/>
    </g>
    <!-- Rose layers -->
    <g fill="#FF1493" opacity="0.8">
      <circle cx="0" cy="-10" r="8"/>
      <circle cx="20" cy="10" r="6"/>
    </g>
    <g fill="#FFB6C1" opacity="0.6">
      <circle cx="0" cy="-10" r="4"/>
      <circle cx="20" cy="10" r="3"/>
    </g>
  </g>
  
  <!-- Tulips -->
  <g transform="translate(200, 280)">
    <!-- Stems -->
    <rect x="-2" y="0" width="4" height="70" fill="url(#stemGradient)"/>
    <rect x="23" y="10" width="4" height="60" fill="url(#stemGradient)"/>
    <rect x="48" y="5" width="4" height="65" fill="url(#stemGradient)"/>
    <!-- Tulip flowers -->
    <ellipse cx="0" cy="-15" rx="8" ry="15" fill="#9370DB"/>
    <ellipse cx="25" cy="-5" rx="8" ry="15" fill="#FF69B4"/>
    <ellipse cx="50" cy="-10" rx="8" ry="15" fill="#FFD700"/>
    <!-- Leaves -->
    <ellipse cx="-10" cy="20" rx="15" ry="5" fill="#32CD32"/>
    <ellipse cx="35" cy="25" rx="15" ry="5" fill="#32CD32"/>
  </g>
  
  <!-- Butterfly -->
  <g transform="translate(250, 150)">
    <!-- Body -->
    <ellipse cx="0" cy="0" rx="2" ry="12" fill="#8B4513"/>
    <!-- Antennae -->
    <path d="M-1 -10 Q-5 -15 -3 -18" stroke="#8B4513" stroke-width="1" fill="none"/>
    <path d="M1 -10 Q5 -15 3 -18" stroke="#8B4513" stroke-width="1" fill="none"/>
    <circle cx="-3" cy="-18" r="1" fill="#8B4513"/>
    <circle cx="3" cy="-18" r="1" fill="#8B4513"/>
    <!-- Wings -->
    <ellipse cx="-8" cy="-5" rx="12" ry="8" fill="url(#butterflyGradient)"/>
    <ellipse cx="8" cy="-5" rx="12" ry="8" fill="url(#butterflyGradient)"/>
    <ellipse cx="-6" cy="8" rx="8" ry="6" fill="#FF8C00"/>
    <ellipse cx="6" cy="8" rx="8" ry="6" fill="#FF8C00"/>
    <!-- Wing patterns -->
    <circle cx="-8" cy="-5" r="3" fill="#FF4500"/>
    <circle cx="8" cy="-5" r="3" fill="#FF4500"/>
  </g>
  
  <!-- Bees -->
  <g transform="translate(150, 120)">
    <!-- Bee body -->
    <ellipse cx="0" cy="0" rx="6" ry="3" fill="#FFD700"/>
    <rect x="-3" y="-1" width="6" height="0.5" fill="#000"/>
    <rect x="-3" y="1" width="6" height="0.5" fill="#000"/>
    <!-- Wings -->
    <ellipse cx="-4" cy="-2" rx="4" ry="2" fill="#E6E6FA" opacity="0.7"/>
    <ellipse cx="4" cy="-2" rx="4" ry="2" fill="#E6E6FA" opacity="0.7"/>
  </g>
  
  <!-- Daisies -->
  <g fill="#FFFFFF" stroke="#FFD700" stroke-width="1">
    <g transform="translate(80, 320)">
      <circle cx="0" cy="0" r="3" fill="#FFD700"/>
      <ellipse cx="0" cy="-8" rx="2" ry="5"/>
      <ellipse cx="6" cy="-4" rx="2" ry="5" transform="rotate(45 6 -4)"/>
      <ellipse cx="8" cy="0" rx="2" ry="5" transform="rotate(90 8 0)"/>
      <ellipse cx="6" cy="4" rx="2" ry="5" transform="rotate(135 6 4)"/>
      <ellipse cx="0" cy="8" rx="2" ry="5" transform="rotate(180 0 8)"/>
      <ellipse cx="-6" cy="4" rx="2" ry="5" transform="rotate(225 -6 4)"/>
      <ellipse cx="-8" cy="0" rx="2" ry="5" transform="rotate(270 -8 0)"/>
      <ellipse cx="-6" cy="-4" rx="2" ry="5" transform="rotate(315 -6 -4)"/>
    </g>
    
    <g transform="translate(300, 340)">
      <circle cx="0" cy="0" r="2" fill="#FFD700"/>
      <ellipse cx="0" cy="-6" rx="1.5" ry="3"/>
      <ellipse cx="4" cy="-3" rx="1.5" ry="3" transform="rotate(45 4 -3)"/>
      <ellipse cx="6" cy="0" rx="1.5" ry="3" transform="rotate(90 6 0)"/>
      <ellipse cx="4" cy="3" rx="1.5" ry="3" transform="rotate(135 4 3)"/>
      <ellipse cx="0" cy="6" rx="1.5" ry="3" transform="rotate(180 0 6)"/>
      <ellipse cx="-4" cy="3" rx="1.5" ry="3" transform="rotate(225 -4 3)"/>
      <ellipse cx="-6" cy="0" rx="1.5" ry="3" transform="rotate(270 -6 0)"/>
      <ellipse cx="-4" cy="-3" rx="1.5" ry="3" transform="rotate(315 -4 -3)"/>
    </g>
  </g>
</svg> 