<svg xmlns="http://www.w3.org/2000/svg" width="500" height="500" viewBox="0 0 500 500">
  <defs>
    <linearGradient id="bgGrad195" x1="0%" y1="0%" x2="0%" y2="100%">
      <stop offset="0%" style="stop-color:#81d4fa;stop-opacity:1" />
      <stop offset="50%" style="stop-color:#29b6f6;stop-opacity:1" />
      <stop offset="100%" style="stop-color:#0277bd;stop-opacity:1" />
    </linearGradient>
    <radialGradient id="fishGrad195" cx="30%" cy="40%" r="70%">
      <stop offset="0%" style="stop-color:#ff7043;stop-opacity:1" />
      <stop offset="50%" style="stop-color:#ff5722;stop-opacity:1" />
      <stop offset="100%" style="stop-color:#d84315;stop-opacity:1" />
    </radialGradient>
    <radialGradient id="fishGrad2_195" cx="30%" cy="40%" r="70%">
      <stop offset="0%" style="stop-color:#ffd54f;stop-opacity:1" />
      <stop offset="50%" style="stop-color:#ffb300;stop-opacity:1" />
      <stop offset="100%" style="stop-color:#ff8f00;stop-opacity:1" />
    </radialGradient>
    <radialGradient id="waterGlow195" cx="50%" cy="50%" r="70%">
      <stop offset="0%" style="stop-color:#b3e5fc;stop-opacity:0.6" />
      <stop offset="100%" style="stop-color:#b3e5fc;stop-opacity:0" />
    </radialGradient>
  </defs>
  
  <!-- Underwater background -->
  <rect width="500" height="500" fill="url(#bgGrad195)"/>
  
  <!-- Water glow effect -->
  <ellipse cx="250" cy="250" rx="200" ry="180" fill="url(#waterGlow195)"/>
  
  <!-- Water surface ripples -->
  <g stroke="#e1f5fe" stroke-width="2" fill="none" opacity="0.6">
  <path d="M0 80 Q50 70 100 80 T200 80 T300 80 T400 80 T500 80"/>
  <path d="M0 100 Q50 90 100 100 T200 100 T300 100 T400 100 T500 100"/>
  
  <!-- Main fish representing 魚 -->
  <!-- Fish body -->
  <ellipse cx="250" cy="250" rx="80" ry="45" fill="url(#fishGrad195)" stroke="#bf360c" stroke-width="3"/>
  
  <!-- Fish head -->
  <ellipse cx="180" cy="250" rx="30" ry="35" fill="url(#fishGrad195)" stroke="#bf360c" stroke-width="2"/>
  
  <!-- Fish eye -->
  <circle cx="170" cy="240" r="12" fill="#fff"/>
  <circle cx="170" cy="240" r="8" fill="#000"/>
  <circle cx="172" cy="238" r="3" fill="#fff"/>
  
  <!-- Fish mouth -->
  <ellipse cx="155" cy="255" rx="8" ry="5" fill="#bf360c"/>
  
  <!-- Fish gills -->
  <g stroke="#bf360c" stroke-width="2" opacity="0.6">
  <path d="M200 230 Q210 240 200 250"/>
  <path d="M205 235 Q215 245 205 255"/>
  
    <!-- Fish fins -->
    <!-- Dorsal fin -->
    <path d="M220 205 Q240 180 280 185 Q300 190 320 200 Q300 210 280 215 Q240 220 220 205" 
        fill="url(#fishGrad195)" stroke="#bf360c" stroke-width="2"/>
  
    <!-- Ventral fin -->
    <path d="M220 295 Q240 320 280 315 Q300 310 320 300 Q300 290 280 285 Q240 280 220 295" 
        fill="url(#fishGrad195)" stroke="#bf360c" stroke-width="2"/>
  
    <!-- Pectoral fins -->
    <ellipse cx="190" cy="270" rx="15" ry="25" fill="url(#fishGrad195)" transform="rotate(30 190 270)"/>
    <ellipse cx="190" cy="230" rx="15" ry="25" fill="url(#fishGrad195)" transform="rotate(-30 190 230)"/>
  
    <!-- Fish tail -->
    <path d="M330 250 Q380 220 400 240 Q410 250 400 260 Q380 280 330 250" 
        fill="url(#fishGrad195)" stroke="#bf360c" stroke-width="3"/>
  
    <!-- Fish scales pattern -->
    <g stroke="#d84315" stroke-width="1" fill="none" opacity="0.4">
    <path d="M200 230 Q210 235 200 240"/>
    <path d="M210 235 Q220 240 210 245"/>
    <path d="M220 240 Q230 245 220 250"/>
    <path d="M200 245 Q210 250 200 255"/>
    <path d="M210 250 Q220 255 210 260"/>
    <path d="M220 255 Q230 260 220 265"/>
    <path d="M240 225 Q250 230 240 235"/>
    <path d="M250 230 Q260 235 250 240"/>
    <path d="M260 235 Q270 240 260 245"/>
    <path d="M240 240 Q250 245 240 250"/>
    <path d="M250 245 Q260 250 250 255"/>
    <path d="M260 250 Q270 255 260 260"/>
    <path d="M240 255 Q250 260 240 265"/>
    <path d="M250 260 Q260 265 250 270"/>
    <path d="M260 265 Q270 270 260 275"/>
    </g>
  
    <!-- Smaller fish swimming around -->
    <g fill="url(#fishGrad2_195)" opacity="0.8">
    <!-- Small fish 1 -->
    <g transform="translate(120,180) scale(0.6)">
      <ellipse cx="0" cy="0" rx="25" ry="15"/>
      <path d="M25,0 L40,-8 L40,8 Z"/>
      <circle cx="-8" cy="-3" r="4" fill="#000"/>
    </g>
    
    <!-- Small fish 2 -->
    <g transform="translate(380,200) scale(0.5)">
      <ellipse cx="0" cy="0" rx="25" ry="15"/>
      <path d="M25,0 L40,-8 L40,8 Z"/>
      <circle cx="-8" cy="-3" r="4" fill="#000"/>
    </g>
    
    <!-- Small fish 3 -->
    <g transform="translate(150,350) scale(0.7)">
      <ellipse cx="0" cy="0" rx="25" ry="15"/>
      <path d="M25,0 L40,-8 L40,8 Z"/>
      <circle cx="-8" cy="-3" r="4" fill="#000"/>
    </g>
    
    <!-- Small fish 4 -->
    <g transform="translate(350,320) scale(0.4)">
      <ellipse cx="0" cy="0" rx="25" ry="15"/>
      <path d="M25,0 L40,-8 L40,8 Z"/>
      <circle cx="-8" cy="-3" r="4" fill="#000"/>
    </g>
    </g>
  
    <!-- Seaweed and aquatic plants -->
    <g fill="#4caf50" opacity="0.7">
    <!-- Left seaweed -->
    <path d="M80 400 Q70 350 80 300 Q90 250 80 200 Q70 150 80 100" 
          stroke="#4caf50" stroke-width="8" fill="none"/>
    <path d="M100 420 Q110 370 100 320 Q90 270 100 220 Q110 170 100 120" 
          stroke="#4caf50" stroke-width="6" fill="none"/>
    
    <!-- Right seaweed -->
    <path d="M420 450 Q430 400 420 350 Q410 300 420 250 Q430 200 420 150" 
          stroke="#4caf50" stroke-width="8" fill="none"/>
    <path d="M400 430 Q390 380 400 330 Q410 280 400 230 Q390 180 400 130" 
          stroke="#4caf50" stroke-width="6" fill="none"/>
    </g>
  
    <!-- Bubbles -->
    <g fill="#e1f5fe" opacity="0.8">
    <circle cx="180" cy="150" r="6"/>
    <circle cx="200" cy="130" r="4"/>
    <circle cx="220" cy="110" r="8"/>
    <circle cx="240" cy="90" r="3"/>
    <circle cx="260" cy="70" r="5"/>
    
    <circle cx="350" cy="180" r="5"/>
    <circle cx="370" cy="160" r="3"/>
    <circle cx="390" cy="140" r="7"/>
    
    <circle cx="120" cy="300" r="4"/>
    <circle cx="140" cy="280" r="6"/>
    <circle cx="160" cy="260" r="2"/>
    </g>
  
    <!-- Coral formations -->
    <g fill="#ff5722" opacity="0.6">
    <g transform="translate(50,400)">
      <path d="M0,0 Q10,-20 20,0 Q30,-15 40,0 Q50,-25 60,0"/>
      <path d="M5,0 Q15,-15 25,0 Q35,-20 45,0 Q55,-10 65,0"/>
    </g>
    
    <g transform="translate(420,380)">
      <path d="M0,0 Q8,-15 16,0 Q24,-20 32,0 Q40,-12 48,0"/>
      <path d="M4,0 Q12,-18 20,0 Q28,-10 36,0 Q44,-22 52,0"/>
    </g>
    </g>
  
    <!-- Sand and rocks on ocean floor -->
    <g fill="#8d6e63" opacity="0.5">
    <ellipse cx="150" cy="450" rx="200" ry="30"/>
    <ellipse cx="350" cy="460" rx="150" ry="25"/>
    </g>
  
    <!-- Rocks -->
    <g fill="#616161" opacity="0.7">
    <ellipse cx="100" cy="440" rx="20" ry="15"/>
    <ellipse cx="400" cy="450" rx="25" ry="18"/>
    <ellipse cx="300" cy="465" rx="15" ry="12"/>
    </g>
  
    <!-- Swimming motion lines -->
    <g stroke="#4fc3f7" stroke-width="2" opacity="0.5">
    <path d="M130 250 Q120 245 110 250"/>
    <path d="M125 255 Q115 250 105 255"/>
    <path d="M135 260 Q125 255 115 260"/>
    </g>
  
    <!-- Water currents -->
    <g stroke="#81d4fa" stroke-width="1" fill="none" opacity="0.3">
    <path d="M0 200 Q50 190 100 200 T200 200 T300 200 T400 200 T500 200"/>
    <path d="M0 300 Q50 290 100 300 T200 300 T300 300 T400 300 T500 300"/>
    <path d="M0 400 Q50 390 100 400 T200 400 T300 400 T400 400 T500 400"/>
    </g>
  
    <!-- Fishing hook (background element) -->
    <g transform="translate(400,100)" opacity="0.3">
    <line x1="0" y1="0" x2="0" y2="50" stroke="#9e9e9e" stroke-width="2"/>
    <path d="M0,50 Q10,60 5,70 Q0,75 -5,70" stroke="#9e9e9e" stroke-width="2" fill="none"/>
    </g>
  
    <!-- Kanji character 魚 -->
    <text x="100" y="80" font-family="serif" font-size="56" font-weight="bold" text-anchor="middle" fill="#0277bd" opacity="0.8">魚</text>
    </g>
  </g>
</svg> 