<svg viewBox="0 0 500 500" xmlns="http://www.w3.org/2000/svg">
  <defs>
    <linearGradient id="snowGradient" x1="0%" y1="0%" x2="0%" y2="100%">
      <stop offset="0%" stop-color="#F0F8FF"/>
      <stop offset="50%" stop-color="#E6E6FA"/>
      <stop offset="100%" stop-color="#D3D3D3"/>
    </linearGradient>
    <radialGradient id="snowflakeGradient" cx="0.3" cy="0.3" r="0.8">
      <stop offset="0%" stop-color="#FFFFFF"/>
      <stop offset="50%" stop-color="#F0F8FF"/>
      <stop offset="100%" stop-color="#E6E6FA"/>
    </radialGradient>
    <linearGradient id="pineGradient" x1="0%" y1="0%" x2="0%" y2="100%">
      <stop offset="0%" stop-color="#228B22"/>
      <stop offset="50%" stop-color="#006400"/>
      <stop offset="100%" stop-color="#2F4F2F"/>
    </linearGradient>
    <linearGradient id="iceGradient" x1="0%" y1="0%" x2="100%" y2="0%">
      <stop offset="0%" stop-color="#B0E0E6"/>
      <stop offset="50%" stop-color="#87CEEB"/>
      <stop offset="100%" stop-color="#4682B4"/>
    </linearGradient>
  </defs>  <!-- Winter sky -->
  <rect width="500" height="500" fill="#D3D3D3"/>
  
  <!-- Snow-covered ground -->
  <ellipse cx="200" cy="400" rx="250" ry="50" fill="url(#snowGradient)"/>
  <rect x="0" y="350" width="400" height="50" fill="url(#snowGradient)"/>
  
  <!-- Snow-covered mountains -->
  <polygon points="0,300 150,200 300,250 400,180 400,400 0,400" 
       fill="#F0F8FF" stroke="#E6E6FA" stroke-width="2"/>
  
  <!-- Pine trees -->
  <g fill="url(#pineGradient)" stroke="#2F4F2F" stroke-width="1">
  <!-- Tree 1 -->
  <polygon points="80,320 90,280 100,320"/>
  <polygon points="85,300 95,260 105,300"/>
  <polygon points="90,280 100,240 110,280"/>
  <rect x="95" y="320" width="4" height="20" fill="#8B4513"/>
  
  <!-- Tree 2 -->
  <polygon points="200,340 215,290 230,340"/>
  <polygon points="205,320 220,270 235,320"/>
  <polygon points="210,300 225,250 240,300"/>
  <rect x="217" y="340" width="6" height="25" fill="#8B4513"/>
  
  <!-- Tree 3 -->
  <polygon points="320,330 330,290 340,330"/>
  <polygon points="325,310 335,270 345,310"/>
  <polygon points="330,290 340,250 350,290"/>
  <rect x="335" y="330" width="4" height="18" fill="#8B4513"/>
  
  <!-- Snow on tree branches -->
  <g fill="#FFFFFF">
  <ellipse cx="90" cy="280" rx="15" ry="3"/>
  <ellipse cx="95" cy="300" rx="12" ry="2"/>
  <ellipse cx="100" cy="320" rx="10" ry="2"/>
  
  <ellipse cx="215" cy="290" rx="18" ry="4"/>
  <ellipse cx="220" cy="320" rx="15" ry="3"/>
  <ellipse cx="225" cy="340" rx="12" ry="2"/>
  
  <ellipse cx="330" cy="290" rx="12" ry="3"/>
  <ellipse cx="335" cy="310" rx="10" ry="2"/>
  <ellipse cx="340" cy="330" rx="8" ry="2"/>
  
    <!-- Frozen pond -->
    <ellipse cx="150" cy="360" rx="60" ry="25" fill="url(#iceGradient)" stroke="#4682B4" stroke-width="2"/>
  
    <!-- Ice skater -->
    <g transform="translate(150, 350)">
    <!-- Body -->
    <ellipse cx="0" cy="0" rx="8" ry="12" fill="#DC143C"/>
    <!-- Head -->
    <circle cx="0" cy="-15" r="6" fill="#FFDAB9"/>
    <!-- Arms -->
    <ellipse cx="-12" cy="-5" rx="15" ry="4" fill="#DC143C" transform="rotate(-30 -12 -5)"/>
    <ellipse cx="12" cy="-5" rx="15" ry="4" fill="#DC143C" transform="rotate(30 12 -5)"/>
    <!-- Legs -->
    <ellipse cx="-4" cy="15" rx="4" ry="12" fill="#000080"/>
    <ellipse cx="4" cy="15" rx="4" ry="12" fill="#000080"/>
    <!-- Ice skates -->
    <ellipse cx="-4" cy="30" rx="8" ry="2" fill="#000"/>
    <ellipse cx="4" cy="30" rx="8" ry="2" fill="#000"/>
    <!-- Hat -->
    <ellipse cx="0" cy="-20" rx="7" ry="3" fill="#FF4500"/>
    </g>
  
    <!-- Snowman -->
    <g transform="translate(280, 320)">
    <!-- Base -->
    <circle cx="0" cy="20" r="15" fill="#F0F8FF"/>
    <!-- Middle -->
    <circle cx="0" cy="0" r="12" fill="#F0F8FF"/>
    <!-- Head -->
    <circle cx="0" cy="-15" r="8" fill="#F0F8FF"/>
    <!-- Eyes -->
    <circle cx="-3" cy="-17" r="1" fill="#000"/>
    <circle cx="3" cy="-17" r="1" fill="#000"/>
    <!-- Carrot nose -->
    <polygon points="0,-14 6,-13 0,-12" fill="#FF8C00"/>
    <!-- Buttons -->
    <circle cx="0" cy="-2" r="1" fill="#000"/>
    <circle cx="0" cy="3" r="1" fill="#000"/>
    <circle cx="0" cy="8" r="1" fill="#000"/>
    <!-- Hat -->
    <rect x="-5" y="-25" width="10" height="8" fill="#000"/>
    <rect x="-6" y="-18" width="12" height="2" fill="#000"/>
    <!-- Arms -->
    <path d="M-12 -5 L-20 -10" stroke="#8B4513" stroke-width="2"/>
    <path d="M12 -5 L20 -10" stroke="#8B4513" stroke-width="2"/>
    <path d="M-18 -8 L-22 -12" stroke="#8B4513" stroke-width="1"/>
    <path d="M18 -8 L22 -12" stroke="#8B4513" stroke-width="1"/>
    </g>
  
    <!-- Falling snowflakes -->
    <g fill="url(#snowflakeGradient)" opacity="0.8">
    <!-- Large snowflakes -->
    <g transform="translate(100, 150)">
      <circle cx="0" cy="0" r="3"/>
      <path d="M-5 0 L5 0 M0 -5 L0 5 M-3 -3 L3 3 M-3 3 L3 -3" stroke="#FFFFFF" stroke-width="1"/>
    </g>
    
    <g transform="translate(250, 100)">
      <circle cx="0" cy="0" r="2.5"/>
      <path d="M-4 0 L4 0 M0 -4 L0 4 M-3 -3 L3 3 M-3 3 L3 -3" stroke="#FFFFFF" stroke-width="0.8"/>
    </g>
    
    <g transform="translate(350, 180)">
      <circle cx="0" cy="0" r="2"/>
      <path d="M-3 0 L3 0 M0 -3 L0 3 M-2 -2 L2 2 M-2 2 L2 -2" stroke="#FFFFFF" stroke-width="0.6"/>
    </g>
    
    <!-- Medium snowflakes -->
    <circle cx="60" cy="120" r="2"/>
    <circle cx="180" cy="80" r="1.5"/>
    <circle cx="300" cy="220" r="2"/>
    <circle cx="50" cy="200" r="1"/>
    <circle cx="380" cy="140" r="1.5"/>
    <circle cx="120" cy="60" r="1"/>
    
    <!-- Small snowflakes -->
    <circle cx="40" cy="100" r="0.8"/>
    <circle cx="160" cy="40" r="0.5"/>
    <circle cx="220" cy="160" r="0.8"/>
    <circle cx="340" cy="80" r="0.6"/>
    <circle cx="80" cy="250" r="0.5"/>
    <circle cx="280" cy="120" r="0.7"/>
    <circle cx="370" cy="200" r="0.5"/>
    <circle cx="20" cy="180" r="0.6"/>
    <circle cx="380" cy="60" r="0.4"/>
    <circle cx="140" cy="300" r="0.5"/>
    </g>
  
    <!-- Winter bird -->
    <g transform="translate(50, 180)">
    <!-- Body -->
    <ellipse cx="0" cy="0" rx="8" ry="5" fill="#DC143C"/>
    <!-- Head -->
    <circle cx="-6" cy="-2" r="4" fill="#DC143C"/>
    <!-- Wing -->
    <ellipse cx="2" cy="-1" rx="6" ry="3" fill="#8B0000"/>
    <!-- Beak -->
    <polygon points="-10,-2 -12,-1 -10,0" fill="#FFD700"/>
    <!-- Eye -->
    <circle cx="-7" cy="-3" r="1" fill="#000"/>
    <!-- Tail -->
    <polygon points="6,0 12,-2 12,2" fill="#8B0000"/>
    </g>
  
    <!-- Icicles -->
    <g fill="#B0E0E6" stroke="#87CEEB" stroke-width="1">
    <polygon points="180,200 185,230 190,200"/>
    <polygon points="220,190 224,215 228,190"/>
    <polygon points="320,180 323,200 326,180"/>
    <polygon points="250,195 252,210 254,195"/>
    </g>
    </g>
  </g>
</svg> 