<svg viewBox="0 0 500 500" xmlns="http://www.w3.org/2000/svg">
  <defs>
    <linearGradient id="skyGradient" x1="0%" y1="0%" x2="0%" y2="100%">
      <stop offset="0%" stop-color="#FFB6C1"/>
      <stop offset="50%" stop-color="#87CEEB"/>
      <stop offset="100%" stop-color="#4682B4"/>
    </linearGradient>
    <linearGradient id="buildingGradient1" x1="0%" y1="0%" x2="100%" y2="0%">
      <stop offset="0%" stop-color="#708090"/>
      <stop offset="50%" stop-color="#778899"/>
      <stop offset="100%" stop-color="#2F4F4F"/>
    </linearGradient>
    <linearGradient id="buildingGradient2" x1="0%" y1="0%" x2="100%" y2="0%">
      <stop offset="0%" stop-color="#4682B4"/>
      <stop offset="50%" stop-color="#6495ED"/>
      <stop offset="100%" stop-color="#1E90FF"/>
    </linearGradient>
    <radialGradient id="windowGradient" cx="0.3" cy="0.3" r="0.8">
      <stop offset="0%" stop-color="#FFD700"/>
      <stop offset="50%" stop-color="#FFA500"/>
      <stop offset="100%" stop-color="#FF8C00"/>
    </radialGradient>
    <radialGradient id="sunGradient" cx="0.3" cy="0.3" r="0.8">
      <stop offset="0%" stop-color="#FFFF99"/>
      <stop offset="50%" stop-color="#FFD700"/>
      <stop offset="100%" stop-color="#FFA500"/>
    </radialGradient>
  </defs>  <!-- Sky background -->
  <rect width="500" height="500" fill="url(#skyGradient)"/>
  
  <!-- Sun -->
  <circle cx="80" cy="80" r="25" fill="url(#sunGradient)" stroke="#FF8C00" stroke-width="2"/>
  
  <!-- Buildings -->
  <!-- Building 1 -->
  <rect x="50" y="200" width="40" height="200" fill="url(#buildingGradient1)" stroke="#2F4F4F" stroke-width="2"/>
  <rect x="55" y="220" width="6" height="8" fill="url(#windowGradient)"/>
  <rect x="65" y="220" width="6" height="8" fill="url(#windowGradient)"/>
  <rect x="75" y="220" width="6" height="8" fill="url(#windowGradient)"/>
  <rect x="55" y="240" width="6" height="8" fill="url(#windowGradient)"/>
  <rect x="75" y="240" width="6" height="8" fill="url(#windowGradient)"/>
  <rect x="55" y="260" width="6" height="8" fill="url(#windowGradient)"/>
  <rect x="65" y="260" width="6" height="8" fill="url(#windowGradient)"/>
  <rect x="75" y="260" width="6" height="8" fill="url(#windowGradient)"/>
  
  <!-- Building 2 -->
  <rect x="100" y="150" width="50" height="250" fill="url(#buildingGradient2)" stroke="#1E90FF" stroke-width="2"/>
  <rect x="110" y="170" width="8" height="10" fill="url(#windowGradient)"/>
  <rect x="125" y="170" width="8" height="10" fill="url(#windowGradient)"/>
  <rect x="140" y="170" width="8" height="10" fill="url(#windowGradient)"/>
  <rect x="110" y="190" width="8" height="10" fill="url(#windowGradient)"/>
  <rect x="125" y="190" width="8" height="10" fill="url(#windowGradient)"/>
  <rect x="140" y="190" width="8" height="10" fill="url(#windowGradient)"/>
  <rect x="110" y="210" width="8" height="10" fill="url(#windowGradient)"/>
  <rect x="125" y="210" width="8" height="10" fill="url(#windowGradient)"/>
  <rect x="140" y="210" width="8" height="10" fill="url(#windowGradient)"/>
  
  <!-- Building 3 (tallest) -->
  <rect x="160" y="100" width="35" height="300" fill="#8B008B" stroke="#4B0082" stroke-width="2"/>
  <rect x="167" y="120" width="6" height="8" fill="url(#windowGradient)"/>
  <rect x="177" y="120" width="6" height="8" fill="url(#windowGradient)"/>
  <rect x="187" y="120" width="6" height="8" fill="url(#windowGradient)"/>
  <rect x="167" y="140" width="6" height="8" fill="url(#windowGradient)"/>
  <rect x="177" y="140" width="6" height="8" fill="url(#windowGradient)"/>
  <rect x="187" y="140" width="6" height="8" fill="url(#windowGradient)"/>
  <rect x="167" y="160" width="6" height="8" fill="url(#windowGradient)"/>
  <rect x="177" y="160" width="6" height="8" fill="url(#windowGradient)"/>
  <rect x="187" y="160" width="6" height="8" fill="url(#windowGradient)"/>
  
  <!-- Building 4 -->
  <rect x="200" y="180" width="45" height="220" fill="#DC143C" stroke="#8B0000" stroke-width="2"/>
  <rect x="210" y="200" width="7" height="9" fill="url(#windowGradient)"/>
  <rect x="222" y="200" width="7" height="9" fill="url(#windowGradient)"/>
  <rect x="234" y="200" width="7" height="9" fill="url(#windowGradient)"/>
  <rect x="210" y="220" width="7" height="9" fill="url(#windowGradient)"/>
  <rect x="222" y="220" width="7" height="9" fill="url(#windowGradient)"/>
  <rect x="234" y="220" width="7" height="9" fill="url(#windowGradient)"/>
  <rect x="210" y="240" width="7" height="9" fill="url(#windowGradient)"/>
  <rect x="222" y="240" width="7" height="9" fill="url(#windowGradient)"/>
  <rect x="234" y="240" width="7" height="9" fill="url(#windowGradient)"/>
  
  <!-- Building 5 -->
  <rect x="250" y="160" width="38" height="240" fill="#32CD32" stroke="#228B22" stroke-width="2"/>
  <rect x="258" y="180" width="6" height="8" fill="url(#windowGradient)"/>
  <rect x="268" y="180" width="6" height="8" fill="url(#windowGradient)"/>
  <rect x="278" y="180" width="6" height="8" fill="url(#windowGradient)"/>
  <rect x="258" y="200" width="6" height="8" fill="url(#windowGradient)"/>
  <rect x="268" y="200" width="6" height="8" fill="url(#windowGradient)"/>
  <rect x="278" y="200" width="6" height="8" fill="url(#windowGradient)"/>
  <rect x="258" y="220" width="6" height="8" fill="url(#windowGradient)"/>
  <rect x="268" y="220" width="6" height="8" fill="url(#windowGradient)"/>
  <rect x="278" y="220" width="6" height="8" fill="url(#windowGradient)"/>
  
  <!-- Building 6 -->
  <rect x="295" y="190" width="42" height="210" fill="#FF8C00" stroke="#FF4500" stroke-width="2"/>
  <rect x="305" y="210" width="7" height="9" fill="url(#windowGradient)"/>
  <rect x="317" y="210" width="7" height="9" fill="url(#windowGradient)"/>
  <rect x="329" y="210" width="7" height="9" fill="url(#windowGradient)"/>
  <rect x="305" y="230" width="7" height="9" fill="url(#windowGradient)"/>
  <rect x="317" y="230" width="7" height="9" fill="url(#windowGradient)"/>
  <rect x="329" y="230" width="7" height="9" fill="url(#windowGradient)"/>
  <rect x="305" y="250" width="7" height="9" fill="url(#windowGradient)"/>
  <rect x="317" y="250" width="7" height="9" fill="url(#windowGradient)"/>
  <rect x="329" y="250" width="7" height="9" fill="url(#windowGradient)"/>
  
  <!-- Building 7 -->
  <rect x="345" y="220" width="35" height="180" fill="#9370DB" stroke="#8B008B" stroke-width="2"/>
  <rect x="352" y="240" width="6" height="8" fill="url(#windowGradient)"/>
  <rect x="362" y="240" width="6" height="8" fill="url(#windowGradient)"/>
  <rect x="372" y="240" width="6" height="8" fill="url(#windowGradient)"/>
  <rect x="352" y="260" width="6" height="8" fill="url(#windowGradient)"/>
  <rect x="362" y="260" width="6" height="8" fill="url(#windowGradient)"/>
  <rect x="372" y="260" width="6" height="8" fill="url(#windowGradient)"/>
  
  <!-- Antennas and rooftop details -->
  <rect x="70" y="190" width="2" height="15" fill="#2F2F2F"/>
  <rect x="125" y="140" width="2" height="20" fill="#2F2F2F"/>
  <rect x="177" y="90" width="2" height="25" fill="#2F2F2F"/>
  <rect x="222" y="170" width="2" height="18" fill="#2F2F2F"/>
  <rect x="269" y="150" width="2" height="22" fill="#2F2F2F"/>
  <rect x="316" y="180" width="2" height="20" fill="#2F2F2F"/>
  <rect x="362" y="210" width="2" height="15" fill="#2F2F2F"/>
  
  <!-- Small antenna elements -->
  <circle cx="71" cy="188" r="2" fill="#FF0000"/>
  <circle cx="126" cy="138" r="2" fill="#FF0000"/>
  <circle cx="178" cy="88" r="2" fill="#FF0000"/>
  <circle cx="223" cy="168" r="2" fill="#FF0000"/>
  <circle cx="270" cy="148" r="2" fill="#FF0000"/>
  <circle cx="317" cy="178" r="2" fill="#FF0000"/>
  <circle cx="363" cy="208" r="2" fill="#FF0000"/>
  
  <!-- Road -->
  <rect x="0" y="380" width="400" height="20" fill="#2F2F2F"/>
  
  <!-- Street lines -->
  <rect x="0" y="389" width="400" height="2" fill="#FFFF00"/>
  
  <!-- Cars -->
  <rect x="30" y="376" width="20" height="8" fill="#FF0000" rx="2"/>
  <circle cx="35" cy="382" r="2" fill="#2F2F2F"/>
  <circle cx="45" cy="382" r="2" fill="#2F2F2F"/>
  
  <rect x="120" y="376" width="18" height="8" fill="#0000FF" rx="2"/>
  <circle cx="125" cy="382" r="2" fill="#2F2F2F"/>
  <circle cx="133" cy="382" r="2" fill="#2F2F2F"/>
  
  <rect x="280" y="376" width="22" height="8" fill="#32CD32" rx="2"/>
  <circle cx="286" cy="382" r="2" fill="#2F2F2F"/>
  <circle cx="296" cy="382" r="2" fill="#2F2F2F"/>
  
  <!-- Clouds -->
  <g fill="#FFFFFF" opacity="0.7">
  <ellipse cx="300" cy="60" rx="25" ry="15"/>
  <ellipse cx="320" cy="55" rx="20" ry="12"/>
  <ellipse cx="310" cy="45" rx="15" ry="10"/>
  
  <ellipse cx="150" cy="40" rx="30" ry="18"/>
  <ellipse cx="175" cy="35" rx="25" ry="15"/>
  <ellipse cx="160" cy="25" rx="20" ry="12"/>
  
  <!-- Birds -->
  <g stroke="#2F2F2F" stroke-width="1" fill="none">
  <path d="M250 80 Q255 75 260 80"/>
  <path d="M270 90 Q275 85 280 90"/>
  <path d="M290 70 Q295 65 300 70"/>
    </g>
  </g>
</svg> 