<svg viewBox="0 0 500 500" xmlns="http://www.w3.org/2000/svg">
  <defs>
    <linearGradient id="desertGradient" x1="0%" y1="0%" x2="0%" y2="100%">
      <stop offset="0%" stop-color="#FFE4B5"/>
      <stop offset="50%" stop-color="#DEB887"/>
      <stop offset="100%" stop-color="#D2B48C"/>
    </linearGradient>
    <linearGradient id="skyGradient" x1="0%" y1="0%" x2="0%" y2="100%">
      <stop offset="0%" stop-color="#FFB6C1"/>
      <stop offset="50%" stop-color="#87CEEB"/>
      <stop offset="100%" stop-color="#4682B4"/>
    </linearGradient>
    <radialGradient id="sunGradient" cx="0.3" cy="0.3" r="0.8">
      <stop offset="0%" stop-color="#FFFF99"/>
      <stop offset="50%" stop-color="#FFD700"/>
      <stop offset="100%" stop-color="#FFA500"/>
    </radialGradient>
    <linearGradient id="cactusGradient" x1="0%" y1="0%" x2="100%" y2="0%">
      <stop offset="0%" stop-color="#90EE90"/>
      <stop offset="50%" stop-color="#32CD32"/>
      <stop offset="100%" stop-color="#228B22"/>
    </linearGradient>
    <radialGradient id="oasisGradient" cx="0.3" cy="0.3" r="0.8">
      <stop offset="0%" stop-color="#00CED1"/>
      <stop offset="50%" stop-color="#4682B4"/>
      <stop offset="100%" stop-color="#000080"/>
    </radialGradient>
  </defs>  <!-- Sky background -->
  <rect width="400" height="250" fill="url(#skyGradient)"/>
  
  <!-- Desert sand -->
  <rect x="0" y="250" width="400" height="150" fill="url(#desertGradient)"/>
  
  <!-- Sand dunes -->
  <ellipse cx="100" cy="350" rx="80" ry="30" fill="#DEB887"/>
  <ellipse cx="300" cy="370" rx="90" ry="25" fill="#CD853F"/>
  <ellipse cx="200" cy="340" rx="70" ry="35" fill="#D2B48C"/>
  
  <!-- Sun -->
  <circle cx="350" cy="80" r="40" fill="url(#sunGradient)" stroke="#FF8C00" stroke-width="3"/>
  
  <!-- Sun rays -->
  <g stroke="#FFD700" stroke-width="4">
    <path d="M350 20 L350 10"/>
    <path d="M380 50 L390 40"/>
    <path d="M410 80 L420 80"/>
    <path d="M380 110 L390 120"/>
    <path d="M350 140 L350 150"/>
    <path d="M320 110 L310 120"/>
    <path d="M290 80 L280 80"/>
    <path d="M320 50 L310 40"/>
  </g>
  
  <!-- Large cactus -->
  <g transform="translate(150, 280)">
    <!-- Main trunk -->
    <rect x="-8" y="0" width="16" height="80" rx="8" fill="url(#cactusGradient)"/>
    <!-- Left arm -->
    <rect x="-25" y="20" width="12" height="40" rx="6" fill="url(#cactusGradient)"/>
    <rect x="-25" y="15" width="20" height="12" rx="6" fill="url(#cactusGradient)"/>
    <!-- Right arm -->
    <rect x="13" y="30" width="12" height="35" rx="6" fill="url(#cactusGradient)"/>
    <rect x="5" y="25" width="20" height="12" rx="6" fill="url(#cactusGradient)"/>
    <!-- Spines -->
    <g stroke="#8B4513" stroke-width="1">
      <path d="M-6 10 L-9 8"/>
      <path d="M0 15 L0 12"/>
      <path d="M6 10 L9 8"/>
      <path d="M-6 30 L-9 28"/>
      <path d="M0 35 L0 32"/>
      <path d="M6 30 L9 28"/>
      <path d="M-6 50 L-9 48"/>
      <path d="M0 55 L0 52"/>
      <path d="M6 50 L9 48"/>
      
      <path d="M-19 25 L-22 23"/>
      <path d="M-19 45 L-22 43"/>
      
      <path d="M19 35 L22 33"/>
      <path d="M19 55 L22 53"/>
    </g>
    <!-- Cactus flower -->
    <circle cx="0" cy="-5" r="4" fill="#FF69B4"/>
    <circle cx="0" cy="-5" r="2" fill="#FFD700"/>
  </g>
  
  <!-- Smaller cacti -->
  <g transform="translate(80, 320)">
    <rect x="-4" y="0" width="8" height="40" rx="4" fill="url(#cactusGradient)"/>
    <g stroke="#8B4513" stroke-width="0.5">
      <path d="M-2 10 L-4 9"/>
      <path d="M2 10 L4 9"/>
      <path d="M-2 25 L-4 24"/>
      <path d="M2 25 L4 24"/>
    </g>
  </g>
  
  <g transform="translate(320, 340)">
    <rect x="-5" y="0" width="10" height="30" rx="5" fill="url(#cactusGradient)"/>
    <rect x="-12" y="10" width="8" height="20" rx="4" fill="url(#cactusGradient)"/>
    <rect x="-12" y="8" width="12" height="8" rx="4" fill="url(#cactusGradient)"/>
    <g stroke="#8B4513" stroke-width="0.5">
      <path d="M-3 8 L-5 7"/>
      <path d="M3 8 L5 7"/>
      <path d="M-8 15 L-10 14"/>
      <path d="M-8 25 L-10 24"/>
    </g>
  </g>
  
  <!-- Desert rocks -->
  <ellipse cx="50" cy="380" rx="15" ry="8" fill="#8B4513"/>
  <ellipse cx="250" cy="385" rx="20" ry="10" fill="#A0522D"/>
  <ellipse cx="370" cy="375" rx="12" ry="6" fill="#CD853F"/>
  
  <!-- Small oasis -->
  <ellipse cx="280" cy="350" rx="25" ry="15" fill="url(#oasisGradient)"/>
  
  <!-- Palm tree at oasis -->
  <g transform="translate(290, 320)">
    <!-- Trunk -->
    <rect x="-3" y="0" width="6" height="35" fill="#8B4513"/>
    <!-- Palm fronds -->
    <path d="M0 0 Q-15 -10 -25 -5" stroke="#32CD32" stroke-width="3" fill="none"/>
    <path d="M0 0 Q-10 -15 -5 -25" stroke="#32CD32" stroke-width="3" fill="none"/>
    <path d="M0 0 Q10 -15 5 -25" stroke="#32CD32" stroke-width="3" fill="none"/>
    <path d="M0 0 Q15 -10 25 -5" stroke="#32CD32" stroke-width="3" fill="none"/>
    <path d="M0 0 Q0 -20 0 -30" stroke="#32CD32" stroke-width="3" fill="none"/>
    <!-- Coconuts -->
    <circle cx="-2" cy="5" r="2" fill="#8B4513"/>
    <circle cx="3" cy="3" r="2" fill="#8B4513"/>
  </g>
  
  <!-- Desert animals -->
  <!-- Lizard -->
  <g transform="translate(200, 370)">
    <ellipse cx="0" cy="0" rx="8" ry="3" fill="#8FBC8F"/>
    <ellipse cx="-6" cy="-1" rx="3" ry="2" fill="#8FBC8F"/>
    <path d="M6 0 Q12 0 15 2" stroke="#8FBC8F" stroke-width="2" fill="none"/>
    <circle cx="-7" cy="-2" r="0.5" fill="#000"/>
    <!-- Legs -->
    <ellipse cx="-3" cy="2" rx="1" ry="3" fill="#8FBC8F"/>
    <ellipse cx="3" cy="2" rx="1" ry="3" fill="#8FBC8F"/>
  </g>
  
  <!-- Snake -->
  <path d="M100 390 Q120 385 140 390 Q160 395 180 390 Q200 385 220 390" 
        stroke="#8B4513" stroke-width="4" fill="none"/>
  <circle cx="100" cy="390" r="3" fill="#8B4513"/>
  <circle cx="98" cy="389" r="1" fill="#FF0000"/>
  
  <!-- Scorpion -->
  <g transform="translate(350, 390)">
    <ellipse cx="0" cy="0" rx="6" ry="3" fill="#8B4513"/>
    <ellipse cx="-4" cy="-1" rx="2" ry="1.5" fill="#8B4513"/>
    <path d="M4 0 Q8 -2 10 -5 Q12 -3 10 -1" stroke="#8B4513" stroke-width="1.5" fill="none"/>
    <circle cx="10" cy="-5" r="1" fill="#8B0000"/>
    <!-- Claws -->
    <ellipse cx="-6" cy="-2" rx="2" ry="1" fill="#8B4513"/>
    <ellipse cx="-6" cy="0" rx="2" ry="1" fill="#8B4513"/>
    <!-- Legs -->
    <path d="M-2 2 L-4 4" stroke="#8B4513" stroke-width="1"/>
    <path d="M0 2 L-2 4" stroke="#8B4513" stroke-width="1"/>
    <path d="M2 2 L0 4" stroke="#8B4513" stroke-width="1"/>
    <path d="M4 2 L2 4" stroke="#8B4513" stroke-width="1"/>
  </g>
  
  <!-- Desert flowers -->
  <g fill="#FF69B4" stroke="#DC143C" stroke-width="0.5">
    <circle cx="120" cy="360" r="2"/>
    <circle cx="260" cy="375" r="1.5"/>
    <circle cx="40" cy="370" r="1"/>
  </g>
  
  <!-- Tumbleweeds -->
  <g fill="#DEB887" stroke="#CD853F" stroke-width="1" opacity="0.7">
    <circle cx="180" cy="380" r="8"/>
    <path d="M172 380 Q180 372 188 380 Q180 388 172 380"/>
    <path d="M180 372 Q188 380 180 388 Q172 380 180 372"/>
    
    <circle cx="300" cy="385" r="6"/>
    <path d="M294 385 Q300 379 306 385 Q300 391 294 385"/>
    <path d="M300 379 Q306 385 300 391 Q294 385 300 379"/>
  </g>
  
  <!-- Wind lines -->
  <g stroke="#DEB887" stroke-width="1" opacity="0.5">
    <path d="M20 300 Q30 295 40 300"/>
    <path d="M60 310 Q70 305 80 310"/>
    <path d="M350 290 Q360 285 370 290"/>
    <path d="M380 310 Q390 305 400 310"/>
  </g>
</svg> 