<svg viewBox="0 0 500 500" xmlns="http://www.w3.org/2000/svg">
  <defs>
    <linearGradient id="autumnSkyGradient" x1="0%" y1="0%" x2="0%" y2="100%">
      <stop offset="0%" stop-color="#FFB347"/>
      <stop offset="50%" stop-color="#FFA07A"/>
      <stop offset="100%" stop-color="#FF7F50"/>
    </linearGradient>
    <radialGradient id="redLeafGradient" cx="0.3" cy="0.3" r="0.8">
      <stop offset="0%" stop-color="#FF6347"/>
      <stop offset="50%" stop-color="#DC143C"/>
      <stop offset="100%" stop-color="#8B0000"/>
    </radialGradient>
    <radialGradient id="orangeLeafGradient" cx="0.3" cy="0.3" r="0.8">
      <stop offset="0%" stop-color="#FFD700"/>
      <stop offset="50%" stop-color="#FF8C00"/>
      <stop offset="100%" stop-color="#FF4500"/>
    </radialGradient>
    <radialGradient id="yellowLeafGradient" cx="0.3" cy="0.3" r="0.8">
      <stop offset="0%" stop-color="#FFFF99"/>
      <stop offset="50%" stop-color="#FFD700"/>
      <stop offset="100%" stop-color="#DAA520"/>
    </radialGradient>
    <linearGradient id="trunkGradient" x1="0%" y1="0%" x2="100%" y2="0%">
      <stop offset="0%" stop-color="#8B4513"/>
      <stop offset="50%" stop-color="#A0522D"/>
      <stop offset="100%" stop-color="#CD853F"/>
    </linearGradient>
    <linearGradient id="pathGradient" x1="0%" y1="0%" x2="0%" y2="100%">
      <stop offset="0%" stop-color="#DEB887"/>
      <stop offset="100%" stop-color="#D2B48C"/>
    </linearGradient>
  </defs>  <!-- Autumn sky -->
  <rect width="400" height="300" fill="url(#autumnSkyGradient)"/>
  
  <!-- Ground -->
  <rect x="0" y="300" width="400" height="100" fill="#8B4513"/>
  
  <!-- Forest path -->
  <path d="M150 400 Q180 350 200 300 Q220 250 250 200" 
        stroke="url(#pathGradient)" stroke-width="30" fill="none"/>
  
  <!-- Large trees -->
  <!-- Tree 1 - Oak -->
  <g transform="translate(80, 200)">
    <rect x="-8" y="50" width="16" height="80" fill="url(#trunkGradient)"/>
    <circle cx="0" cy="30" r="40" fill="url(#redLeafGradient)"/>
    <circle cx="-25" cy="20" r="25" fill="url(#orangeLeafGradient)"/>
    <circle cx="25" cy="25" r="30" fill="url(#yellowLeafGradient)"/>
    <circle cx="0" cy="50" r="20" fill="url(#redLeafGradient)"/>
  </g>
  
  <!-- Tree 2 - Maple -->
  <g transform="translate(320, 180)">
    <rect x="-10" y="60" width="20" height="100" fill="url(#trunkGradient)"/>
    <circle cx="0" cy="40" r="45" fill="url(#orangeLeafGradient)"/>
    <circle cx="-30" cy="30" r="28" fill="url(#redLeafGradient)"/>
    <circle cx="30" cy="35" r="32" fill="url(#yellowLeafGradient)"/>
    <circle cx="0" cy="70" r="25" fill="url(#orangeLeafGradient)"/>
  </g>
  
  <!-- Tree 3 - Birch -->
  <g transform="translate(200, 150)">
    <rect x="-6" y="40" width="12" height="120" fill="#F5F5DC"/>
    <g stroke="#2F2F2F" stroke-width="1">
      <path d="M-6 60 L6 60"/>
      <path d="M-6 80 L6 80"/>
      <path d="M-6 100 L6 100"/>
      <path d="M-6 120 L6 120"/>
    </g>
    <circle cx="0" cy="20" r="35" fill="url(#yellowLeafGradient)"/>
    <circle cx="-20" cy="15" r="22" fill="url(#orangeLeafGradient)"/>
    <circle cx="20" cy="18" r="25" fill="url(#redLeafGradient)"/>
  </g>
  
  <!-- Smaller background trees -->
  <g opacity="0.7">
    <g transform="translate(50, 220)">
      <rect x="-4" y="30" width="8" height="50" fill="#8B4513"/>
      <circle cx="0" cy="15" r="20" fill="url(#redLeafGradient)"/>
    </g>
    
    <g transform="translate(150, 240)">
      <rect x="-3" y="25" width="6" height="40" fill="#8B4513"/>
      <circle cx="0" cy="12" r="15" fill="url(#orangeLeafGradient)"/>
    </g>
    
    <g transform="translate(370, 230)">
      <rect x="-5" y="35" width="10" height="45" fill="#8B4513"/>
      <circle cx="0" cy="20" r="18" fill="url(#yellowLeafGradient)"/>
    </g>
  </g>
  
  <!-- Falling leaves -->
  <g>
    <!-- Red maple leaves -->
    <g fill="url(#redLeafGradient)" stroke="#8B0000" stroke-width="0.5">
      <g transform="translate(150, 120) rotate(45)">
        <path d="M0 -8 L-3 -3 L-8 -3 L-3 0 L-5 5 L0 2 L5 5 L3 0 L8 -3 L3 -3 Z"/>
      </g>
      
      <g transform="translate(250, 180) rotate(-30)">
        <path d="M0 -6 L-2 -2 L-6 -2 L-2 0 L-3 4 L0 1 L3 4 L2 0 L6 -2 L2 -2 Z"/>
      </g>
      
      <g transform="translate(100, 80) rotate(60)">
        <path d="M0 -5 L-2 -1 L-5 -1 L-2 1 L-3 3 L0 1 L3 3 L2 1 L5 -1 L2 -1 Z"/>
      </g>
    </g>
    
    <!-- Orange oak leaves -->
    <g fill="url(#orangeLeafGradient)" stroke="#FF4500" stroke-width="0.5">
      <g transform="translate(300, 140) rotate(-60)">
        <ellipse cx="0" cy="0" rx="4" ry="8"/>
        <path d="M-2 -4 Q-4 -6 -2 -8"/>
        <path d="M2 -4 Q4 -6 2 -8"/>
        <path d="M-2 4 Q-4 6 -2 8"/>
        <path d="M2 4 Q4 6 2 8"/>
      </g>
      
      <g transform="translate(180, 60) rotate(20)">
        <ellipse cx="0" cy="0" rx="3" ry="6"/>
        <path d="M-1 -3 Q-3 -4 -1 -6"/>
        <path d="M1 -3 Q3 -4 1 -6"/>
        <path d="M-1 3 Q-3 4 -1 6"/>
        <path d="M1 3 Q3 4 1 6"/>
      </g>
    </g>
    
    <!-- Yellow birch leaves -->
    <g fill="url(#yellowLeafGradient)" stroke="#DAA520" stroke-width="0.5">
      <g transform="translate(220, 100) rotate(-15)">
        <ellipse cx="0" cy="0" rx="2" ry="5"/>
        <path d="M-1 -2 Q-2 -3 -1 -4"/>
        <path d="M1 -2 Q2 -3 1 -4"/>
      </g>
      
      <g transform="translate(350, 160) rotate(75)">
        <ellipse cx="0" cy="0" rx="2.5" ry="6"/>
        <path d="M-1 -3 Q-2 -4 -1 -5"/>
        <path d="M1 -3 Q2 -4 1 -5"/>
      </g>
      
      <g transform="translate(80, 140) rotate(-45)">
        <ellipse cx="0" cy="0" rx="2" ry="4"/>
        <path d="M-1 -2 Q-2 -2 -1 -3"/>
        <path d="M1 -2 Q2 -2 1 -3"/>
      </g>
    </g>
  </g>
  
  <!-- Forest floor with fallen leaves -->
  <g opacity="0.8">
    <ellipse cx="90" cy="350" rx="8" ry="3" fill="url(#redLeafGradient)" transform="rotate(30 90 350)"/>
    <ellipse cx="140" cy="380" rx="6" ry="2.5" fill="url(#orangeLeafGradient)" transform="rotate(-45 140 380)"/>
    <ellipse cx="200" cy="360" rx="7" ry="3" fill="url(#yellowLeafGradient)" transform="rotate(60 200 360)"/>
    <ellipse cx="280" cy="370" rx="5" ry="2" fill="url(#redLeafGradient)" transform="rotate(-30 280 370)"/>
    <ellipse cx="320" cy="390" rx="6" ry="2.5" fill="url(#orangeLeafGradient)" transform="rotate(15 320 390)"/>
    <ellipse cx="160" cy="340" rx="4" ry="2" fill="url(#yellowLeafGradient)" transform="rotate(-60 160 340)"/>
    <ellipse cx="250" cy="385" rx="5" ry="2.5" fill="url(#redLeafGradient)" transform="rotate(45 250 385)"/>
    <ellipse cx="110" cy="390" rx="6" ry="3" fill="url(#orangeLeafGradient)" transform="rotate(-15 110 390)"/>
    <ellipse cx="350" cy="360" rx="5" ry="2" fill="url(#yellowLeafGradient)" transform="rotate(30 350 360)"/>
  </g>
  
  <!-- Mushrooms -->
  <g>
    <g transform="translate(120, 330)">
      <rect x="-1" y="0" width="2" height="8" fill="#F5DEB3"/>
      <ellipse cx="0" cy="-2" rx="4" ry="3" fill="#8B4513"/>
      <circle cx="-1" cy="-3" r="0.5" fill="#F5DEB3"/>
    </g>
    
    <g transform="translate(270, 320)">
      <rect x="-0.5" y="0" width="1" height="6" fill="#F5DEB3"/>
      <ellipse cx="0" cy="-1" rx="3" ry="2" fill="#DC143C"/>
      <circle cx="-1" cy="-2" r="0.3" fill="#FFFFFF"/>
      <circle cx="1" cy="-1.5" r="0.3" fill="#FFFFFF"/>
    </g>
  </g>
  
  <!-- Squirrel gathering acorns -->
  <g transform="translate(180, 320)">
    <ellipse cx="0" cy="0" rx="8" ry="5" fill="#8B4513"/>
    <circle cx="-6" cy="-3" r="4" fill="#8B4513"/>
    <path d="M6 -2 Q15 -8 18 -15 Q20 -10 15 -5 Q10 0 6 2" fill="#CD853F"/>
    <circle cx="-7" cy="-4" r="1" fill="#000"/>
    <ellipse cx="-9" cy="-6" rx="1" ry="2" fill="#8B4513"/>
    <ellipse cx="-4" cy="-6" rx="1" ry="2" fill="#8B4513"/>
    <!-- Acorn in paws -->
    <ellipse cx="-10" cy="0" rx="2" ry="3" fill="#8B4513"/>
    <ellipse cx="-10" cy="-2" rx="1.5" ry="1" fill="#CD853F"/>
  </g>
  
  <!-- Deer in distance -->
  <g transform="translate(300, 280)" opacity="0.6">
    <ellipse cx="0" cy="0" rx="12" ry="8" fill="#DEB887"/>
    <ellipse cx="-10" cy="-5" rx="6" ry="5" fill="#DEB887"/>
    <rect x="-8" y="5" width="2" height="12" fill="#8B4513"/>
    <rect x="-3" y="5" width="2" height="12" fill="#8B4513"/>
    <rect x="3" y="5" width="2" height="12" fill="#8B4513"/>
    <rect x="8" y="5" width="2" height="12" fill="#8B4513"/>
    <path d="M-13 -8 L-16 -15" stroke="#8B4513" stroke-width="1.5" fill="none"/>
    <path d="M-7 -8 L-4 -15" stroke="#8B4513" stroke-width="1.5" fill="none"/>
    <circle cx="-12" cy="-7" r="1" fill="#000"/>
  </g>
  
  <!-- Acorns on ground -->
  <g fill="#8B4513">
    <g transform="translate(240, 350)">
      <ellipse cx="0" cy="0" rx="3" ry="4"/>
      <ellipse cx="0" cy="-3" rx="2" ry="1.5" fill="#CD853F"/>
    </g>
    
    <g transform="translate(190, 380)">
      <ellipse cx="0" cy="0" rx="2.5" ry="3"/>
      <ellipse cx="0" cy="-2" rx="1.5" ry="1" fill="#CD853F"/>
    </g>
    
    <g transform="translate(310, 340)">
      <ellipse cx="0" cy="0" rx="2" ry="3"/>
      <ellipse cx="0" cy="-2" rx="1" ry="0.8" fill="#CD853F"/>
    </g>
  </g>
  
  <!-- Birds flying -->
  <g stroke="#2F2F2F" stroke-width="2" fill="none">
    <path d="M80 40 Q85 35 90 40"/>
    <path d="M100 50 Q105 45 110 50"/>
    <path d="M120 30 Q125 25 130 30"/>
    <path d="M340 60 Q345 55 350 60"/>
    <path d="M360 70 Q365 65 370 70"/>
  </g>
  
  <!-- Mist/fog effect -->
  <g fill="#FFFFFF" opacity="0.3">
    <ellipse cx="200" cy="250" rx="100" ry="20"/>
    <ellipse cx="150" cy="270" rx="80" ry="15"/>
    <ellipse cx="250" cy="260" rx="90" ry="18"/>
  </g>
  
  <!-- Tree branches with hanging leaves -->
  <g stroke="#8B4513" stroke-width="3" fill="none">
    <path d="M60 180 Q80 160 100 180"/>
    <path d="M340 170 Q320 150 300 170"/>
  </g>
  
  <!-- Wind effect on leaves -->
  <g stroke="#FF8C00" stroke-width="1" opacity="0.5">
    <path d="M120 100 Q130 95 140 100"/>
    <path d="M280 130 Q290 125 300 130"/>
    <path d="M200 80 Q210 75 220 80"/>
  </g>
</svg> 