<svg xmlns="http://www.w3.org/2000/svg" width="500" height="500" viewBox="0 0 500 500">
  <defs>
    <linearGradient id="bgGrad21" x1="0%" y1="0%" x2="0%" y2="100%">
      <stop offset="0%" style="stop-color:#fff8e1;stop-opacity:1" />
      <stop offset="100%" style="stop-color:#fff3c4;stop-opacity:1" />
    </linearGradient>
    <linearGradient id="spoonGrad21" x1="0%" y1="0%" x2="0%" y2="100%">
      <stop offset="0%" style="stop-color:#e0e0e0;stop-opacity:1" />
      <stop offset="50%" style="stop-color:#bdbdbd;stop-opacity:1" />
      <stop offset="100%" style="stop-color:#9e9e9e;stop-opacity:1" />
    </linearGradient>
  </defs>
  
  <!-- Background -->
  <rect width="500" height="500" fill="url(#bgGrad21)"/>
  
  <!-- Large wooden ladle -->
  <g transform="translate(250,300)">
  <!-- Bowl of ladle -->
  <ellipse cx="0" cy="0" rx="35" ry="25" fill="#8d6e63"/>
  <ellipse cx="0" cy="-5" rx="30" ry="20" fill="#a1887f"/>
  <ellipse cx="0" cy="-8" rx="25" ry="15" fill="#bcaaa4"/>
  
  <!-- Handle -->
  <rect x="30" y="-3" width="60" height="6" rx="3" fill="#8d6e63"/>
  
  <!-- Handle grip -->
  <ellipse cx="95" cy="0" rx="8" ry="4" fill="#6d4c41"/>
  
  <!-- Liquid in ladle -->
  <ellipse cx="0" cy="-5" rx="20" ry="12" fill="#ff9800" opacity="0.6"/>
  
  <!-- Main radical shape 匕 (spoon/ladle) -->
  <!-- Vertical stroke -->
  <path d="M200 150 L200 250" 
      stroke="#8d6e63" stroke-width="14" fill="none" stroke-linecap="round"/>
  
  <!-- Horizontal stroke with curve -->
  <path d="M200 200 L250 200 Q270 180 250 160" 
      stroke="#8d6e63" stroke-width="12" fill="none" stroke-linecap="round"/>
  
  <!-- Curved hook -->
  <path d="M200 250 Q220 270 240 250" 
      stroke="#8d6e63" stroke-width="10" fill="none" stroke-linecap="round"/>
  
  <!-- Kitchen utensils -->
  <g transform="translate(120,200)" opacity="0.8">
  <!-- Soup spoon -->
  <ellipse cx="0" cy="0" rx="12" ry="8" fill="url(#spoonGrad21)"/>
  <rect x="10" y="-2" width="25" height="4" rx="2" fill="url(#spoonGrad21)"/>
  
  <!-- Tea spoon -->
  <g transform="translate(0,40)">
    <ellipse cx="0" cy="0" rx="8" ry="6" fill="url(#spoonGrad21)"/>
    <rect x="6" y="-1" width="20" height="2" rx="1" fill="url(#spoonGrad21)"/>
    
    <!-- Dessert spoon -->
    <g transform="translate(0,20)">
      <ellipse cx="0" cy="0" rx="10" ry="7" fill="url(#spoonGrad21)"/>
      <rect x="8" y="-1" width="22" height="3" rx="1" fill="url(#spoonGrad21)"/>
    </g>
    </g>
  
    <!-- Person eating soup -->
    <g transform="translate(380,250)" opacity="0.7">
    <!-- Head -->
    <circle cx="0" cy="0" r="15" fill="#ffdbcb"/>
    <!-- Body -->
    <rect x="-8" y="15" width="16" height="25" fill="#4caf50"/>
    <!-- Arm holding spoon -->
    <ellipse cx="15" cy="25" rx="5" ry="12" fill="#ffdbcb" transform="rotate(30)"/>
    <!-- Spoon -->
    <ellipse cx="25" cy="20" rx="4" ry="3" fill="url(#spoonGrad21)"/>
    <rect x="29" y="18" width="8" height="2" fill="url(#spoonGrad21)"/>
    <!-- Bowl -->
    <ellipse cx="0" cy="40" rx="15" ry="8" fill="#ffffff" stroke="#e0e0e0" stroke-width="1"/>
    </g>
  
    <!-- Cooking pot with ladle -->
    <g transform="translate(100,350)" opacity="0.8">
    <!-- Pot -->
    <ellipse cx="0" cy="0" rx="30" ry="20" fill="#424242"/>
    <ellipse cx="0" cy="-10" rx="25" ry="15" fill="#616161"/>
    <!-- Handle -->
    <ellipse cx="-35" cy="-5" rx="4" ry="8" fill="#424242" stroke="none"/>
    <!-- Steam -->
    <g stroke="#e0e0e0" stroke-width="2" opacity="0.6" fill="none">
      <path d="M-10 -20 Q-12 -30 -10 -35"/>
      <path d="M0 -20 Q2 -30 0 -35"/>
      <path d="M10 -20 Q12 -30 10 -35"/>
    </g>
    <!-- Ladle in pot -->
    <ellipse cx="15" cy="-8" rx="8" ry="5" fill="#8d6e63"/>
    <rect x="23" y="-10" width="15" height="3" fill="#8d6e63"/>
    </g>
  
    <!-- Ice cream scoop -->
    <g transform="translate(400,350)" opacity="0.7">
    <!-- Scoop -->
    <ellipse cx="0" cy="0" rx="12" ry="10" fill="url(#spoonGrad21)"/>
    <rect x="10" y="-2" width="20" height="4" fill="#8d6e63"/>
    <!-- Ice cream -->
    <circle cx="0" cy="-5" r="8" fill="#ffb3ba"/>
    </g>
  
    <!-- Baby spoon -->
    <g transform="translate(120,120)" opacity="0.6">
    <!-- Soft spoon -->
    <ellipse cx="0" cy="0" rx="10" ry="8" fill="#ff8a80"/>
    <rect x="8" y="-2" width="15" height="4" rx="2" fill="#ff8a80"/>
    <!-- Colorful design -->
    <circle cx="0" cy="0" r="3" fill="#ffeb3b"/>
    </g>
  
    <!-- Serving ladle -->
    <g transform="translate(380,120)" opacity="0.6">
    <!-- Large bowl -->
    <ellipse cx="0" cy="0" rx="18" ry="12" fill="url(#spoonGrad21)"/>
    <ellipse cx="0" cy="-3" rx="15" ry="9" fill="#f5f5f5"/>
    <!-- Long handle -->
    <rect x="15" y="-2" width="40" height="4" fill="#8d6e63"/>
    <!-- Handle end -->
    <circle cx="58" cy="0" r="3" fill="#6d4c41"/>
    </g>
  
    <!-- Measuring spoons -->
    <g transform="translate(100,450)" opacity="0.5">
    <!-- 1 tbsp -->
    <ellipse cx="0" cy="0" rx="8" ry="6" fill="url(#spoonGrad21)"/>
    <rect x="6" y="-1" width="12" height="2" fill="url(#spoonGrad21)"/>
    
    <!-- 1 tsp -->
    <ellipse cx="25" cy="0" rx="6" ry="4" fill="url(#spoonGrad21)"/>
    <rect x="30" y="-1" width="10" height="2" fill="url(#spoonGrad21)"/>
    
    <!-- 1/2 tsp -->
    <ellipse cx="45" cy="0" rx="4" ry="3" fill="url(#spoonGrad21)"/>
    <rect x="48" y="-1" width="8" height="2" fill="url(#spoonGrad21)"/>
    
    </g>
  
    <!-- Honey dripping from spoon -->
    <g transform="translate(350,200)" opacity="0.7">
    <!-- Honey dipper -->
    <ellipse cx="0" cy="0" rx="8" ry="6" fill="#8d6e63"/>
    <rect x="6" y="-1" width="15" height="2" fill="#8d6e63"/>
    <!-- Honey ridges -->
    <g stroke="#6d4c41" stroke-width="1">
      <line x1="-4" y1="-2" x2="4" y2="-2"/>
      <line x1="-4" y1="2" x2="4" y2="2"/>
    </g>
    <!-- Dripping honey -->
    <path d="M0 6 Q2 15 0 25" stroke="#ffb300" stroke-width="3" fill="none"/>
    <circle cx="0" cy="25" r="2" fill="#ff8f00"/>
    </g>
  
    <!-- Soup bowl with spoon -->
    <g transform="translate(450,250)" opacity="0.6">
    <!-- Bowl -->
    <ellipse cx="0" cy="0" rx="20" ry="12" fill="#ffffff" stroke="#e0e0e0" stroke-width="2"/>
    <!-- Soup -->
    <ellipse cx="0" cy="-5" rx="15" ry="8" fill="#ff9800" opacity="0.6"/>
    <!-- Spoon resting in bowl -->
    <ellipse cx="15" cy="-2" rx="6" ry="4" fill="url(#spoonGrad21)"/>
    <rect x="21" y="-3" width="10" height="2" fill="url(#spoonGrad21)"/>
    </g>
  
    <!-- Slotted spoon -->
    <g transform="translate(200,450)" opacity="0.6">
    <!-- Spoon bowl with holes -->
    <ellipse cx="0" cy="0" rx="12" ry="8" fill="url(#spoonGrad21)"/>
    <!-- Holes -->
    <g fill="#424242">
      <circle cx="-4" cy="-2" r="1"/>
      <circle cx="0" cy="0" r="1"/>
      <circle cx="4" cy="-2" r="1"/>
      <circle cx="-2" cy="3" r="1"/>
      <circle cx="2" cy="3" r="1"/>
    </g>
    <!-- Handle -->
    <rect x="10" y="-2" width="20" height="4" fill="url(#spoonGrad21)"/>
    </g>
  
    <!-- Gravy boat with ladle -->
    <g transform="translate(350,400)" opacity="0.7">
    <!-- Gravy boat -->
    <ellipse cx="0" cy="0" rx="25" ry="12" fill="#ffffff" stroke="#d7ccc8" stroke-width="2"/>
    <path d="M25 -5 Q35 -8 40 -2 Q35 5 25 2" fill="#ffffff" stroke="#d7ccc8" stroke-width="1"/>
    <!-- Gravy -->
    <ellipse cx="0" cy="-3" rx="20" ry="8" fill="#8d4e00" opacity="0.7"/>
    <!-- Small ladle -->
    <ellipse cx="15" cy="-5" rx="5" ry="3" fill="url(#spoonGrad21)"/>
    <rect x="20" y="-6" width="8" height="2" fill="url(#spoonGrad21)"/>
    </g>
  
    <!-- Kanji character 匕 -->
    
    </g>
  </g>
</svg> 