<svg xmlns="http://www.w3.org/2000/svg" width="500" height="500" viewBox="0 0 500 500">
  <defs>
    <linearGradient id="bgGrad23" x1="0%" y1="0%" x2="100%" y2="100%">
      <stop offset="0%" style="stop-color:#e8eaf6;stop-opacity:1" />
      <stop offset="100%" style="stop-color:#c5cae9;stop-opacity:1" />
    </linearGradient>
    <radialGradient id="shadowGrad23" cx="50%" cy="30%" r="70%">
      <stop offset="0%" style="stop-color:#1a237e;stop-opacity:0.8" />
      <stop offset="50%" style="stop-color:#283593;stop-opacity:0.6" />
      <stop offset="100%" style="stop-color:#3f51b5;stop-opacity:0.3" />
    </radialGradient>
    <linearGradient id="concealGrad23" x1="0%" y1="0%" x2="0%" y2="100%">
      <stop offset="0%" style="stop-color:#5c6bc0;stop-opacity:0.9" />
      <stop offset="50%" style="stop-color:#3f51b5;stop-opacity:0.7" />
      <stop offset="100%" style="stop-color:#283593;stop-opacity:0.5" />
    </linearGradient>
    <radialGradient id="mysteryGrad23" cx="40%" cy="40%" r="60%">
      <stop offset="0%" style="stop-color:#7986cb;stop-opacity:0.8" />
      <stop offset="100%" style="stop-color:#5c6bc0;stop-opacity:0.4" />
    </radialGradient>
    <linearGradient id="hiddenGrad23" x1="0%" y1="0%" x2="100%" y2="0%">
      <stop offset="0%" style="stop-color:#9fa8da;stop-opacity:0.6" />
      <stop offset="50%" style="stop-color:#7986cb;stop-opacity:0.8" />
      <stop offset="100%" style="stop-color:#5c6bc0;stop-opacity:0.6" />
    </linearGradient>
    <radialGradient id="glowGrad23" cx="50%" cy="50%" r="60%">
      <stop offset="0%" style="stop-color:#9fa8da;stop-opacity:0.5" />
      <stop offset="100%" style="stop-color:#9fa8da;stop-opacity:0" />
    </radialGradient>
    <filter id="blur23" x="-50%" y="-50%" width="200%" height="200%">
      <feGaussianBlur in="SourceGraphic" stdDeviation="3"/>
    </filter>
  </defs>
  
  <!-- Background -->
  <rect width="500" height="500" fill="url(#bgGrad23)"/>
  
  <!-- Mysterious atmosphere -->
  <ellipse cx="250" cy="250" rx="200" ry="160" fill="url(#glowGrad23)"/>
  
  <!-- Main concealing container representing 匸 -->
  <g transform="translate(250,250)" opacity="0.9">
  <!-- Hidden compartment shadow -->
  <rect x="-52" y="28" width="104" height="52" rx="10" fill="url(#shadowGrad23)" filter="url(#blur23)"/>
  
  <!-- Main concealing box -->
  <rect x="-50" y="25" width="100" height="50" rx="8" fill="url(#concealGrad23)" stroke="#1a237e" stroke-width="3"/>
  
  <!-- Slightly open lid revealing mystery -->
  <rect x="-55" y="15" width="110" height="15" rx="5" fill="url(#hiddenGrad23)" stroke="#283593" stroke-width="2" transform="rotate(-5 0 22)"/>
  
  <!-- Mysterious glow from inside -->
  <ellipse cx="0" cy="25" rx="30" ry="8" fill="#b39ddb" opacity="0.8"/>
  <ellipse cx="0" cy="25" rx="20" ry="6" fill="#e1bee7" opacity="0.6"/>
  
  <!-- Box interior depth -->
  <rect x="-45" y="30" width="90" height="40" rx="5" fill="#1a237e" opacity="0.4"/>
  
  <!-- Partially visible hidden object -->
  <g transform="translate(0,35)" opacity="0.7">
  <circle cx="0" cy="0" r="8" fill="#ff9800" opacity="0.8"/>
  <circle cx="0" cy="0" r="5" fill="#ffc107" opacity="0.9"/>
  <circle cx="0" cy="0" r="3" fill="#fff176" opacity="0.7"/>
  
  <!-- Lock mechanism -->
  <rect x="-8" y="12" width="16" height="12" rx="3" fill="#424242" stroke="#212121" stroke-width="1"/>
  <circle cx="0" cy="18" r="3" fill="#616161"/>
  <rect x="-1" y="20" width="2" height="4" rx="1" fill="#757575"/>
  
    <!-- Concealed treasures scattered around -->
    <g transform="translate(120,180)" opacity="0.6">
    <!-- Hidden behind curtain -->
    <path d="M0,0 Q10,-5 20,0 Q30,5 40,0 L40,60 Q30,65 20,60 Q10,55 0,60 Z" 
          fill="url(#hiddenGrad23)" 
          stroke="#5c6bc0" 
          stroke-width="2"/>
    
    <!-- Curtain folds -->
    <g stroke="#3f51b5" stroke-width="1" fill="none" opacity="0.6">
      <path d="M8,15 Q12,10 16,15"/>
      <path d="M24,15 Q28,10 32,15"/>
      <path d="M6,35 Q10,30 14,35"/>
      <path d="M26,35 Q30,30 34,35"/>
    </g>
    
    <!-- Partially visible object behind curtain -->
    <circle cx="20" cy="40" r="6" fill="#ff5722" opacity="0.4"/>
    </g>
  
    <!-- Secret compartment in wall -->
    <g transform="translate(380,200)" opacity="0.7">
    <!-- Wall panel -->
    <rect x="0" y="0" width="80" height="60" rx="5" fill="#9e9e9e" stroke="#757575" stroke-width="2"/>
    
    <!-- Slightly ajar panel -->
    <rect x="5" y="5" width="35" height="50" rx="3" fill="#bdbdbd" stroke="#9e9e9e" stroke-width="1" transform="rotate(-3 22 30)"/>
    
    <!-- Dark interior -->
    <rect x="8" y="8" width="30" height="44" rx="2" fill="#1a237e" opacity="0.8"/>
    
    <!-- Hidden items glimpsed inside -->
    <g fill="#7986cb" opacity="0.5">
      <rect x="12" y="12" width="8" height="12" rx="1"/>
      <circle cx="25" cy="25" r="4"/>
      <rect x="18" y="35" width="6" height="10" rx="1"/>
    </g>
    
    <!-- Secret handle -->
    <circle cx="35" cy="30" r="2" fill="#424242" opacity="0.8"/>
    </g>
  
    <!-- Camouflaged objects -->
    <g transform="translate(100,350)" opacity="0.8">
    <!-- Object blending with background -->
    <ellipse cx="0" cy="0" rx="25" ry="15" fill="url(#concealGrad23)" opacity="0.7"/>
    
    <!-- Camouflage pattern -->
    <g fill="#7986cb" opacity="0.4">
      <ellipse cx="-8" cy="-5" rx="6" ry="4"/>
      <ellipse cx="5" cy="2" rx="4" ry="6"/>
      <ellipse cx="-3" cy="8" rx="5" ry="3"/>
    </g>
    
    <!-- True form slightly visible -->
    <circle cx="0" cy="0" r="8" fill="#e91e63" opacity="0.3"/>
    </g>
  
    <!-- Invisible ink effect -->
    <g transform="translate(300,120)" opacity="0.5">
    <!-- Paper with hidden message -->
    <rect x="0" y="0" width="60" height="40" rx="3" fill="#ffffff" stroke="#e0e0e0" stroke-width="1"/>
    
    <!-- Barely visible text -->
    <g fill="#9fa8da" opacity="0.3">
      <rect x="5" y="8" width="20" height="2" rx="1"/>
      <rect x="5" y="15" width="35" height="2" rx="1"/>
      <rect x="5" y="22" width="25" height="2" rx="1"/>
      <rect x="5" y="29" width="40" height="2" rx="1"/>
    </g>
    
    <!-- Revealing light -->
    <ellipse cx="30" cy="20" rx="15" ry="10" fill="#fff176" opacity="0.2"/>
    </g>
  
    <!-- Hidden passage -->
    <g transform="translate(50,250)" opacity="0.6">
    <!-- Concealed doorway -->
    <path d="M0,0 Q5,-5 10,0 L10,50 Q5,55 0,50 Z" 
          fill="url(#shadowGrad23)" 
          stroke="#1a237e" 
          stroke-width="2"/>
    
    <!-- Darkness within -->
    <path d="M2,2 Q4,0 8,2 L8,48 Q4,50 2,48 Z" 
          fill="#0d47a1" 
          opacity="0.8"/>
    
    <!-- Mysterious glow from within -->
    <ellipse cx="5" cy="25" rx="3" ry="15" fill="#b39ddb" opacity="0.4"/>
    </g>
  
    <!-- Stealth figure -->
    <g transform="translate(400,350)" opacity="0.7">
    <!-- Shadow silhouette -->
    <ellipse cx="0" cy="0" rx="20" ry="30" fill="url(#shadowGrad23)" opacity="0.8"/>
    
    <!-- Hidden features -->
    <g fill="#1a237e" opacity="0.6">
      <circle cx="0" cy="-15" r="8"/>
      <rect x="-6" y="-8" width="12" height="20" rx="6"/>
      <rect x="-4" y="12" width="3" height="15" rx="1"/>
      <rect x="1" y="12" width="3" height="15" rx="1"/>
    </g>
    
    <!-- Only eyes visible -->
    <g fill="#e3f2fd" opacity="0.9">
      <circle cx="-3" cy="-15" r="2"/>
      <circle cx="3" cy="-15" r="2"/>
    </g>
    </g>
  
    <!-- Capability elements - concealment tools -->
    <g transform="translate(150,100)" opacity="0.6">
    <!-- Magnifying glass (for detection) -->
    <circle cx="0" cy="0" r="12" fill="none" stroke="#757575" stroke-width="3"/>
    <circle cx="0" cy="0" r="8" fill="#e3f2fd" opacity="0.7"/>
    <rect x="8" y="8" width="3" height="15" rx="1" fill="#8d6e63" transform="rotate(45 9 15)"/>
    
    <!-- Reflection in glass -->
    <arc cx="-3" cy="-3" r="5" fill="#ffffff" opacity="0.5"/>
    </g>
  
    <!-- Mystery fog/mist -->
    <g opacity="0.4">
    <ellipse cx="150" cy="300" rx="40" ry="20" fill="#9fa8da" opacity="0.3" filter="url(#blur23)"/>
    <ellipse cx="350" cy="280" rx="35" ry="15" fill="#b39ddb" opacity="0.3" filter="url(#blur23)"/>
    <ellipse cx="200" cy="400" rx="30" ry="18" fill="#c5cae9" opacity="0.4" filter="url(#blur23)"/>
    </g>
  
    <!-- Hidden compartment mechanisms -->
    <g transform="translate(420,280)" opacity="0.8">
    <!-- Hidden spring mechanism -->
    <g stroke="#616161" stroke-width="2" fill="none">
      <path d="M0,0 Q5,-3 10,0 Q15,3 20,0 Q25,-3 30,0"/>
    </g>
    
    <!-- Concealed button -->
    <circle cx="15" cy="0" r="3" fill="#424242" opacity="0.7"/>
    </g>
  
    <!-- Concealment sparkles (things appearing/disappearing) -->
    <g fill="#b39ddb" opacity="0.6">
    <circle cx="180" cy="150" r="2" opacity="0.3"/>
    <circle cx="320" cy="180" r="3" opacity="0.7"/>
    <circle cx="160" cy="320" r="2" opacity="0.4"/>
    <circle cx="340" cy="150" r="2" opacity="0.5"/>
    <circle cx="120" cy="220" r="3" opacity="0.3"/>
    <circle cx="380" cy="320" r="2" opacity="0.6"/>
    </g>
  
    <!-- Hidden paths (dotted lines) -->
    <g stroke="#7986cb" stroke-width="2" fill="none" opacity="0.3" stroke-dasharray="5,10">
    <path d="M80 200 Q150 180 220 200 Q290 220 360 200"/>
    <path d="M200 80 Q220 150 200 220"/>
    <path d="M300 400 Q280 320 300 250"/>
    </g>
  
    <!-- Number indicator -->
    
    <!-- Kanji character 匸 -->
    
    </g>
  </g>
</svg> 