<svg xmlns="http://www.w3.org/2000/svg" width="500" height="500" viewBox="0 0 500 500">
  <defs>
    <linearGradient id="bgGrad31" x1="0%" y1="0%" x2="100%" y2="100%">
      <stop offset="0%" style="stop-color:#e8eaf6;stop-opacity:1" />
      <stop offset="100%" style="stop-color:#c5cae9;stop-opacity:1" />
    </linearGradient>
    <linearGradient id="enclosureGrad31" x1="0%" y1="0%" x2="0%" y2="100%">
      <stop offset="0%" style="stop-color:#5c6bc0;stop-opacity:1" />
      <stop offset="50%" style="stop-color:#3f51b5;stop-opacity:1" />
      <stop offset="100%" style="stop-color:#283593;stop-opacity:1" />
    </linearGradient>
    <radialGradient id="barrierGrad31" cx="30%" cy="30%" r="70%">
      <stop offset="0%" style="stop-color:#7986cb;stop-opacity:1" />
      <stop offset="100%" style="stop-color:#5c6bc0;stop-opacity:1" />
    </radialGradient>
    <linearGradient id="protectiveGrad31" x1="0%" y1="0%" x2="100%" y2="0%">
      <stop offset="0%" style="stop-color:#9fa8da;stop-opacity:0.9" />
      <stop offset="50%" style="stop-color:#7986cb;stop-opacity:1" />
      <stop offset="100%" style="stop-color:#5c6bc0;stop-opacity:0.9" />
    </linearGradient>
    <radialGradient id="glowGrad31" cx="50%" cy="50%" r="60%">
      <stop offset="0%" style="stop-color:#9fa8da;stop-opacity:0.5" />
      <stop offset="100%" style="stop-color:#9fa8da;stop-opacity:0" />
    </radialGradient>
    <linearGradient id="innerGrad31" x1="0%" y1="0%" x2="0%" y2="100%">
      <stop offset="0%" style="stop-color:#e8eaf6;stop-opacity:0.9" />
      <stop offset="100%" style="stop-color:#c5cae9;stop-opacity:0.7" />
    </linearGradient>
    <filter id="protective31">
      <feDropShadow dx="2" dy="2" stdDeviation="3" flood-color="#283593" flood-opacity="0.3"/>
    </filter>
  </defs>
  
  <!-- Background -->
  <rect width="500" height="500" fill="url(#bgGrad31)"/>
  
  <!-- Protective atmosphere -->
  <ellipse cx="250" cy="250" rx="200" ry="160" fill="url(#glowGrad31)"/>
  
  <!-- Main enclosure representing 囗 -->
  <g transform="translate(250,220)" opacity="0.95">
  <!-- Outer protective barrier -->
  <rect x="-60" y="-40" width="120" height="80" rx="12" 
      fill="none" 
      stroke="url(#enclosureGrad31)" 
      stroke-width="8" 
      filter="url(#protective31)"/>
  
  <!-- Inner sanctuary space -->
  <rect x="-50" y="-30" width="100" height="60" rx="8" 
      fill="url(#innerGrad31)" 
      opacity="0.7"/>
  
  <!-- Reinforced corners -->
  <g fill="#1a237e" opacity="0.8">
  <rect x="-65" y="-45" width="10" height="10" rx="2"/>
  <rect x="55" y="-45" width="10" height="10" rx="2"/>
  <rect x="-65" y="35" width="10" height="10" rx="2"/>
  <rect x="55" y="35" width="10" height="10" rx="2"/>
  
  <!-- Interior protected elements -->
  <g opacity="0.8">
    <!-- Valuable item inside -->
    <circle cx="0" cy="0" r="15" fill="#ffb300" opacity="0.9"/>
    <circle cx="0" cy="0" r="10" fill="#ffc107" opacity="0.8"/>
    <circle cx="0" cy="0" r="5" fill="#fff176" opacity="0.9"/>
    
    <!-- Protective glow around item -->
    <circle cx="0" cy="0" r="20" fill="none" stroke="#7986cb" stroke-width="2" opacity="0.5"/>
    
    <!-- Security pattern on walls -->
    <g stroke="#3f51b5" stroke-width="2" fill="none" opacity="0.6">
      <!-- Top wall pattern -->
      <line x1="-40" y1="-35" x2="-20" y2="-35"/>
      <line x1="-10" y1="-35" x2="10" y2="-35"/>
      <line x1="20" y1="-35" x2="40" y2="-35"/>
      
      <!-- Bottom wall pattern -->
      <line x1="-40" y1="25" x2="-20" y2="25"/>
      <line x1="-10" y1="25" x2="10" y2="25"/>
      <line x1="20" y1="25" x2="40" y2="25"/>
      
      <!-- Side wall patterns -->
      <line x1="-55" y1="-20" x2="-55" y2="-5"/>
      <line x1="-55" y1="5" x2="-55" y2="20"/>
      <line x1="45" y1="-20" x2="45" y2="-5"/>
      <line x1="45" y1="5" x2="45" y2="20"/>
    </g>
    </g>
  
    <!-- Garden enclosure -->
    <g transform="translate(100,350)" opacity="0.8">
    <!-- Garden fence -->
    <rect x="0" y="0" width="120" height="80" rx="8" 
          fill="none" 
          stroke="url(#barrierGrad31)" 
          stroke-width="6"/>
    
    <!-- Fence posts -->
    <g fill="#5c6bc0">
      <rect x="-3" y="-5" width="6" height="90" rx="3"/>
      <rect x="27" y="-5" width="6" height="90" rx="3"/>
      <rect x="57" y="-5" width="6" height="90" rx="3"/>
      <rect x="87" y="-5" width="6" height="90" rx="3"/>
      <rect x="117" y="-5" width="6" height="90" rx="3"/>
    </g>
    
    <!-- Protected garden inside -->
    <g opacity="0.9">
      <!-- Flowers -->
      <g fill="#e91e63" opacity="0.8">
        <circle cx="20" cy="20" r="4"/>
        <circle cx="40" cy="15" r="4"/>
        <circle cx="80" cy="25" r="4"/>
        <circle cx="100" cy="18" r="4"/>
      </g>
      
      <!-- Stems -->
      <g stroke="#4caf50" stroke-width="2">
        <line x1="20" y1="24" x2="20" y2="40"/>
        <line x1="40" y1="19" x2="40" y2="40"/>
        <line x1="80" y1="29" x2="80" y2="45"/>
        <line x1="100" y1="22" x2="100" y2="40"/>
      </g>
      
      <!-- Leaves -->
      <g fill="#66bb6a" opacity="0.7">
        <ellipse cx="25" cy="35" rx="4" ry="2"/>
        <ellipse cx="15" cy="32" rx="4" ry="2"/>
        <ellipse cx="45" cy="30" rx="4" ry="2"/>
        <ellipse cx="85" cy="38" rx="4" ry="2"/>
      </g>
    </g>
    
    <!-- Garden gate -->
    <rect x="50" y="0" width="20" height="80" rx="4" 
          fill="url(#protectiveGrad31)" 
          opacity="0.7"/>
    
    <!-- Gate handle -->
    <circle cx="65" cy="40" r="3" fill="#1a237e" opacity="0.8"/>
    </g>
  
    <!-- Fortress walls -->
    <g transform="translate(380,150)" opacity="0.7">
    <!-- Main wall -->
    <rect x="0" y="0" width="100" height="60" rx="8" 
          fill="url(#enclosureGrad31)" 
          stroke="#1a237e" 
          stroke-width="3"/>
    
    <!-- Battlements -->
    <g fill="#3f51b5">
      <rect x="10" y="0" width="8" height="-15" rx="2"/>
      <rect x="25" y="0" width="8" height="-15" rx="2"/>
      <rect x="40" y="0" width="8" height="-15" rx="2"/>
      <rect x="55" y="0" width="8" height="-15" rx="2"/>
      <rect x="70" y="0" width="8" height="-15" rx="2"/>
      <rect x="85" y="0" width="8" height="-15" rx="2"/>
    </g>
    
    <!-- Arrow slits -->
    <g fill="#1a237e" opacity="0.8">
      <rect x="20" y="25" width="3" height="20" rx="1"/>
      <rect x="50" y="25" width="3" height="20" rx="1"/>
      <rect x="80" y="25" width="3" height="20" rx="1"/>
    </g>
    
    <!-- Wall foundation -->
    <rect x="-5" y="60" width="110" height="20" rx="5" fill="#283593" opacity="0.8"/>
    </g>
  
    <!-- Protective circle -->
    <g transform="translate(120,180)" opacity="0.8">
    <!-- Magic circle boundary -->
    <circle cx="0" cy="0" r="40" 
            fill="none" 
            stroke="url(#enclosureGrad31)" 
            stroke-width="6"/>
    
    <!-- Inner protection rings -->
    <circle cx="0" cy="0" r="30" 
            fill="none" 
            stroke="#7986cb" 
            stroke-width="3" 
            opacity="0.7"/>
    
    <circle cx="0" cy="0" r="20" 
            fill="none" 
            stroke="#9fa8da" 
            stroke-width="2" 
            opacity="0.6"/>
    
    <!-- Protected element in center -->
    <g fill="#ff9800" opacity="0.9">
      <circle cx="0" cy="0" r="12"/>
      <circle cx="0" cy="0" r="8" fill="#ffc107"/>
      <circle cx="0" cy="0" r="4" fill="#fff176"/>
    </g>
    
    <!-- Mystical symbols around circle -->
    <g fill="#5c6bc0" opacity="0.7">
      <polygon points="0,-45 3,-38 10,-38 5,-33 7,-26 0,-30 -7,-26 -5,-33 -10,-38 -3,-38"/>
      <polygon points="45,0 38,3 38,10 33,5 26,7 30,0 26,-7 33,-5 38,-10 38,-3" transform="rotate(90 45 0)"/>
      <polygon points="0,45 -3,38 -10,38 -5,33 -7,26 0,30 7,26 5,33 10,38 3,38" transform="rotate(180 0 45)"/>
      <polygon points="-45,0 -38,-3 -38,-10 -33,-5 -26,-7 -30,0 -26,7 -33,5 -38,10 -38,3" transform="rotate(270 -45 0)"/>
    </g>
    </g>
  
    <!-- Enclosed courtyard -->
    <g transform="translate(350,350)" opacity="0.6">
    <!-- Courtyard walls -->
    <rect x="0" y="0" width="80" height="80" rx="5" 
          fill="none" 
          stroke="url(#barrierGrad31)" 
          stroke-width="5"/>
    
    <!-- Central fountain -->
    <g transform="translate(40,40)">
      <circle cx="0" cy="0" r="15" fill="#4fc3f7" opacity="0.8"/>
      <circle cx="0" cy="0" r="10" fill="#81d4fa" opacity="0.9"/>
      
      <!-- Water spouts -->
      <g stroke="#29b6f6" stroke-width="2" fill="none" opacity="0.7">
        <path d="M0,-10 Q-3,-15 0,-20 Q3,-15 0,-10"/>
        <path d="M10,0 Q15,-3 20,0 Q15,3 10,0"/>
        <path d="M0,10 Q3,15 0,20 Q-3,15 0,10"/>
        <path d="M-10,0 Q-15,3 -20,0 Q-15,-3 -10,0"/>
      </g>
    </g>
    
    <!-- Courtyard gardens -->
    <g fill="#4caf50" opacity="0.7">
      <ellipse cx="15" cy="15" rx="6" ry="4"/>
      <ellipse cx="65" cy="15" rx="6" ry="4"/>
      <ellipse cx="15" cy="65" rx="6" ry="4"/>
      <ellipse cx="65" cy="65" rx="6" ry="4"/>
    </g>
    
    <!-- Archways -->
    <g fill="#5c6bc0" opacity="0.5">
      <rect x="35" y="0" width="10" height="8" rx="5"/>
      <rect x="72" y="35" width="8" height="10" rx="4"/>
      <rect x="35" y="72" width="10" height="8" rx="5"/>
      <rect x="0" y="35" width="8" height="10" rx="4"/>
    </g>
    </g>
  
    <!-- Safe vault -->
    <g transform="translate(50,120)" opacity="0.7">
    <!-- Vault door -->
    <rect x="0" y="0" width="60" height="80" rx="10" 
          fill="url(#enclosureGrad31)" 
          stroke="#1a237e" 
          stroke-width="4"/>
    
    <!-- Vault wheel -->
    <circle cx="30" cy="30" r="15" fill="#283593" stroke="#1a237e" stroke-width="2"/>
    <circle cx="30" cy="30" r="10" fill="#3f51b5"/>
    <circle cx="30" cy="30" r="5" fill="#5c6bc0"/>
    
    <!-- Wheel spokes -->
    <g stroke="#1a237e" stroke-width="3">
      <line x1="30" y1="15" x2="30" y2="25"/>
      <line x1="30" y1="35" x2="30" y2="45"/>
      <line x1="15" y1="30" x2="25" y2="30"/>
      <line x1="35" y1="30" x2="45" y2="30"/>
    </g>
    
    <!-- Lock mechanisms -->
    <g fill="#1a237e">
      <rect x="25" y="50" width="10" height="6" rx="3"/>
      <rect x="25" y="60" width="10" height="6" rx="3"/>
    </g>
    
    <!-- Vault hinges -->
    <g fill="#283593">
      <rect x="55" y="15" width="8" height="15" rx="4"/>
      <rect x="55" y="50" width="8" height="15" rx="4"/>
    </g>
    </g>
  
    <!-- Capability sparkles -->
    <g fill="#7986cb" opacity="0.7">
    <path d="M180 100 L190 90 L200 100 L190 110 Z"/>
    <path d="M320 140 L330 130 L340 140 L330 150 Z"/>
    <path d="M160 400 L165 395 L170 400 L165 405 Z"/>
    <path d="M400 250 L405 245 L410 250 L405 255 Z"/>
    <path d="M80 280 L85 275 L90 280 L85 285 Z"/>
    </g>
  
    <!-- Protective energy fields -->
    <g stroke="#9fa8da" stroke-width="2" fill="none" opacity="0.4">
    <ellipse cx="200" cy="180" rx="30" ry="20"/>
    <ellipse cx="300" cy="280" rx="25" ry="35"/>
    <ellipse cx="180" cy="350" rx="35" ry="15"/>
    </g>
  
    <!-- Enclosure symbols -->
    <g fill="#5c6bc0" opacity="0.5">
    <!-- Boundary markers -->
    <rect x="50" y="50" width="6" height="30" rx="3"/>
    <rect x="444" y="50" width="6" height="30" rx="3"/>
    <rect x="50" y="420" width="6" height="30" rx="3"/>
    <rect x="444" y="420" width="6" height="30" rx="3"/>
    
    <!-- Corner reinforcements -->
    <polygon points="50,50 65,50 50,65"/>
    <polygon points="450,50 435,50 450,65"/>
    <polygon points="50,450 65,450 50,435"/>
    <polygon points="450,450 435,450 450,435"/>
    </g>
  
    <!-- Security patrol paths -->
    <g stroke="#7986cb" stroke-width="2" fill="none" opacity="0.3" stroke-dasharray="8,4">
    <rect x="30" y="30" width="440" height="440" rx="20"/>
    <rect x="60" y="60" width="380" height="380" rx="15"/>
    </g>
  
    <!-- Number indicator -->
    
    <!-- Kanji character 囗 -->
    
    </g>
  </g>
</svg> 