<svg xmlns="http://www.w3.org/2000/svg" width="500" height="500" viewBox="0 0 500 500">
  <defs>
    <linearGradient id="bgGrad35" x1="0%" y1="0%" x2="100%" y2="100%">
      <stop offset="0%" style="stop-color:#e8eaf6;stop-opacity:1" />
      <stop offset="100%" style="stop-color:#c5cae9;stop-opacity:1" />
    </linearGradient>
    <linearGradient id="slowGrad35" x1="0%" y1="0%" x2="0%" y2="100%">
      <stop offset="0%" style="stop-color:#5c6bc0;stop-opacity:1" />
      <stop offset="50%" style="stop-color:#3f51b5;stop-opacity:1" />
      <stop offset="100%" style="stop-color:#283593;stop-opacity:1" />
    </linearGradient>
    <radialGradient id="deliberateGrad35" cx="40%" cy="30%" r="70%">
      <stop offset="0%" style="stop-color:#7986cb;stop-opacity:1" />
      <stop offset="100%" style="stop-color:#5c6bc0;stop-opacity:1" />
    </radialGradient>
    <linearGradient id="mindfulGrad35" x1="0%" y1="0%" x2="100%" y2="0%">
      <stop offset="0%" style="stop-color:#9fa8da;stop-opacity:0.9" />
      <stop offset="50%" style="stop-color:#7986cb;stop-opacity:1" />
      <stop offset="100%" style="stop-color:#5c6bc0;stop-opacity:0.9" />
    </linearGradient>
    <radialGradient id="glowGrad35" cx="50%" cy="50%" r="60%">
      <stop offset="0%" style="stop-color:#9fa8da;stop-opacity:0.5" />
      <stop offset="100%" style="stop-color:#9fa8da;stop-opacity:0" />
    </radialGradient>
    <linearGradient id="paceGrad35" x1="0%" y1="0%" x2="0%" y2="100%">
      <stop offset="0%" style="stop-color:#e8eaf6;stop-opacity:0.9" />
      <stop offset="100%" style="stop-color:#c5cae9;stop-opacity:0.7" />
    </linearGradient>
    <filter id="slowMotion35">
      <feGaussianBlur in="SourceGraphic" stdDeviation="2" result="blur"/>
      <feMerge>
        <feMergeNode in="blur"/>
        <feMergeNode in="SourceGraphic"/>
      </feMerge>
    </filter>
  </defs>
  
  <!-- Background -->
  <rect width="500" height="500" fill="url(#bgGrad35)"/>
  
  <!-- Peaceful atmosphere -->
  <ellipse cx="250" cy="250" rx="200" ry="160" fill="url(#glowGrad35)"/>
  
  <!-- Main slow walking figure representing 夊 -->
  <g transform="translate(250,220)" opacity="0.95">
  <!-- Walking figure -->
  <circle cx="0" cy="-30" r="12" fill="url(#deliberateGrad35)"/>  <!-- Head -->
  
  <!-- Body in slow motion -->
  <ellipse cx="0" cy="-5" rx="10" ry="25" fill="url(#slowGrad35)" filter="url(#slowMotion35)"/>
  
  <!-- Arms moving slowly -->
  <ellipse cx="-18" cy="-8" rx="4" ry="15" fill="#5c6bc0" transform="rotate(-10 -18 -8)" opacity="0.8"/>
  <ellipse cx="18" cy="-8" rx="4" ry="15" fill="#5c6bc0" transform="rotate(10 18 -8)" opacity="0.8"/>
  
  <!-- Legs in careful step -->
  <ellipse cx="-5" cy="20" rx="4" ry="18" fill="url(#slowGrad35)" transform="rotate(-5 -5 20)"/>
  <ellipse cx="8" cy="25" rx="4" ry="18" fill="url(#slowGrad35)" transform="rotate(15 8 25)"/>
  
  <!-- Feet positioned carefully -->
  <ellipse cx="-8" cy="38" rx="6" ry="3" fill="#3f51b5" transform="rotate(-5 -8 38)"/>
  <ellipse cx="15" cy="42" rx="6" ry="3" fill="#3f51b5" transform="rotate(15 15 42)"/>
  
  <!-- Motion blur effect -->
  <g opacity="0.3">
  <ellipse cx="2" cy="-5" rx="10" ry="25" fill="#9fa8da"/>
  <ellipse cx="-3" cy="22" rx="4" ry="18" fill="#b39ddb" transform="rotate(-3 -3 22)"/>
  
  <!-- Mindful expression -->
  <g fill="#283593" opacity="0.8">
    <circle cx="-3" cy="-32" r="1"/>  <!-- Left eye -->
    <circle cx="3" cy="-32" r="1"/>   <!-- Right eye -->
    <path d="M-2,-25 Q0,-23 2,-25" stroke="#283593" stroke-width="1" fill="none"/>  <!-- Smile -->
    </g>
  
    <!-- Turtle (symbol of slowness) -->
    <g transform="translate(120,180)" opacity="0.8">
    <!-- Shell -->
    <ellipse cx="0" cy="0" rx="20" ry="15" fill="url(#deliberateGrad35)" stroke="#3f51b5" stroke-width="2"/>
    
    <!-- Shell pattern -->
    <g stroke="#283593" stroke-width="1" fill="none" opacity="0.7">
      <ellipse cx="0" cy="0" rx="12" ry="9"/>
      <line x1="-8" y1="-5" x2="8" y2="5"/>
      <line x1="8" y1="-5" x2="-8" y2="5"/>
      <ellipse cx="0" cy="0" rx="6" ry="4"/>
    </g>
    
    <!-- Head -->
    <ellipse cx="22" cy="-3" rx="6" ry="4" fill="#7986cb"/>
    <circle cx="25" cy="-4" r="1" fill="#1a237e"/>  <!-- Eye -->
    
    <!-- Legs -->
    <ellipse cx="-15" cy="10" rx="3" ry="6" fill="#7986cb"/>
    <ellipse cx="15" cy="10" rx="3" ry="6" fill="#7986cb"/>
    <ellipse cx="-10" cy="-12" rx="3" ry="5" fill="#7986cb"/>
    <ellipse cx="10" cy="-12" rx="3" ry="5" fill="#7986cb"/>
    
    <!-- Tail -->
    <ellipse cx="-18" cy="2" rx="2" ry="3" fill="#7986cb"/>
    </g>
  
    <!-- Snail (another slow creature) -->
    <g transform="translate(350,200)" opacity="0.8">
    <!-- Shell spiral -->
    <circle cx="0" cy="0" r="12" fill="url(#mindfulGrad35)" stroke="#5c6bc0" stroke-width="2"/>
    
    <!-- Spiral pattern -->
    <g stroke="#3f51b5" stroke-width="2" fill="none" opacity="0.8">
      <circle cx="0" cy="0" r="8"/>
      <circle cx="0" cy="0" r="5"/>
      <circle cx="0" cy="0" r="2"/>
    </g>
    
    <!-- Body -->
    <ellipse cx="15" cy="8" rx="8" ry="4" fill="#9fa8da"/>
    
    <!-- Tentacles -->
    <g stroke="#7986cb" stroke-width="2" fill="none">
      <path d="M20,5 Q25,0 22,-3"/>
      <path d="M22,5 Q27,2 25,-1"/>
    </g>
    
    <!-- Eyes on tentacles -->
    <circle cx="22" cy="-3" r="1" fill="#1a237e"/>
    <circle cx="25" cy="-1" r="1" fill="#1a237e"/>
    
    <!-- Slime trail -->
    <path d="M15,12 Q10,15 5,18 Q0,20 -5,22" 
          stroke="#b39ddb" 
          stroke-width="3" 
          fill="none" 
          opacity="0.5" 
          stroke-dasharray="2,4"/>
    </g>
  
    <!-- Zen garden (slow, mindful activity) -->
    <g transform="translate(80,320)" opacity="0.7">
    <!-- Sand base -->
    <ellipse cx="0" cy="0" rx="60" ry="40" fill="#f5f5f5" opacity="0.8"/>
    
    <!-- Raked patterns (slow, deliberate) -->
    <g stroke="#9fa8da" stroke-width="1" fill="none" opacity="0.6">
      <path d="M-50,-30 Q-25,-35 0,-30 Q25,-25 50,-30"/>
      <path d="M-50,-20 Q-25,-25 0,-20 Q25,-15 50,-20"/>
      <path d="M-50,-10 Q-25,-15 0,-10 Q25,-5 50,-10"/>
      <path d="M-50,0 Q-25,-5 0,0 Q25,5 50,0"/>
      <path d="M-50,10 Q-25,5 0,10 Q25,15 50,10"/>
      <path d="M-50,20 Q-25,15 0,20 Q25,25 50,20"/>
      <path d="M-50,30 Q-25,25 0,30 Q25,35 50,30"/>
    </g>
    
    <!-- Zen stones (placed slowly, mindfully) -->
    <g fill="#607d8b" opacity="0.9">
      <ellipse cx="-20" cy="-10" rx="8" ry="5"/>
      <ellipse cx="15" cy="5" rx="6" ry="8"/>
      <ellipse cx="-10" cy="15" rx="5" ry="3"/>
    </g>
    
    <!-- Rake -->
    <g transform="translate(40,25)">
      <rect x="0" y="0" width="2" height="20" rx="1" fill="#8d6e63"/>
      <rect x="-8" y="-3" width="16" height="3" rx="1" fill="#6d4c41"/>
      <g stroke="#5d4037" stroke-width="1">
        <line x1="-6" y1="-3" x2="-6" y2="0"/>
        <line x1="-2" y1="-3" x2="-2" y2="0"/>
        <line x1="2" y1="-3" x2="2" y2="0"/>
        <line x1="6" y1="-3" x2="6" y2="0"/>
      </g>
    </g>
    </g>
  
    <!-- Clock showing slow time -->
    <g transform="translate(400,320)" opacity="0.8">
    <!-- Clock face -->
    <circle cx="0" cy="0" r="25" fill="#ffffff" stroke="url(#slowGrad35)" stroke-width="3"/>
    
    <!-- Hour markers -->
    <g stroke="#3f51b5" stroke-width="2">
      <line x1="0" y1="-22" x2="0" y2="-18"/>  <!-- 12 -->
      <line x1="22" y1="0" x2="18" y2="0"/>    <!-- 3 -->
      <line x1="0" y1="22" x2="0" y2="18"/>    <!-- 6 -->
      <line x1="-22" y1="0" x2="-18" y2="0"/>  <!-- 9 -->
    </g>
    
    <!-- Clock hands (moving slowly) -->
    <g stroke="#283593" stroke-width="2" fill="none">
      <line x1="0" y1="0" x2="0" y2="-12"/>    <!-- Hour hand -->
      <line x1="0" y1="0" x2="8" y2="-8"/>     <!-- Minute hand -->
    </g>
    
    <!-- Center dot -->
    <circle cx="0" cy="0" r="2" fill="#283593"/>
    
    <!-- Slow motion effect around clock -->
    <circle cx="0" cy="0" r="30" fill="none" stroke="#9fa8da" stroke-width="1" opacity="0.4" stroke-dasharray="3,6"/>
    </g>
  
    <!-- Meditation figure (slow breathing) -->
    <g transform="translate(150,350)" opacity="0.7">
    <!-- Seated figure -->
    <ellipse cx="0" cy="0" rx="12" ry="8" fill="url(#mindfulGrad35)"/>  <!-- Lower body -->
    <ellipse cx="0" cy="-15" rx="8" ry="12" fill="url(#deliberateGrad35)"/>  <!-- Upper body -->
    <circle cx="0" cy="-25" r="6" fill="#7986cb"/>  <!-- Head -->
    
    <!-- Peaceful expression -->
    <g fill="#3f51b5" opacity="0.8">
      <path d="M-2,-27 Q-2,-26 -2,-25" stroke="#3f51b5" stroke-width="1" fill="none"/>  <!-- Closed eyes -->
      <path d="M2,-27 Q2,-26 2,-25" stroke="#3f51b5" stroke-width="1" fill="none"/>
    </g>
    
    <!-- Arms in meditation pose -->
    <ellipse cx="-8" cy="-8" rx="3" ry="8" fill="#7986cb" transform="rotate(-20 -8 -8)"/>
    <ellipse cx="8" cy="-8" rx="3" ry="8" fill="#7986cb" transform="rotate(20 8 -8)"/>
    
    <!-- Breathing aura (slow, rhythmic) -->
    <g fill="none" stroke="#b39ddb" stroke-width="2" opacity="0.4">
      <ellipse cx="0" cy="-15" rx="20" ry="25" stroke-dasharray="5,10"/>
      <ellipse cx="0" cy="-15" rx="30" ry="35" stroke-dasharray="3,12" opacity="0.3"/>
    </g>
    </g>
  
    <!-- Slow growing plant -->
    <g transform="translate(50,150)" opacity="0.8">
    <!-- Stem growing slowly -->
    <rect x="-1" y="0" width="2" height="40" rx="1" fill="#4caf50"/>
    
    <!-- Leaves unfurling slowly -->
    <g fill="#66bb6a" opacity="0.8">
      <ellipse cx="-8" cy="10" rx="6" ry="3" transform="rotate(-20 -8 10)"/>
      <ellipse cx="8" cy="15" rx="5" ry="3" transform="rotate(20 8 15)"/>
      <ellipse cx="-6" cy="25" rx="4" ry="2" transform="rotate(-15 -6 25)"/>
    </g>
    
    <!-- Flower bud (slow to bloom) -->
    <ellipse cx="0" cy="-5" rx="4" ry="6" fill="#e91e63" opacity="0.7"/>
    <ellipse cx="0" cy="-8" rx="2" ry="3" fill="#f48fb1" opacity="0.8"/>
    
    <!-- Growth time indicators -->
    <g fill="#7986cb" opacity="0.5">
      <circle cx="15" cy="5" r="2"/>
      <circle cx="20" cy="8" r="1"/>
      <circle cx="25" cy="12" r="2"/>
    </g>
    </g>
  
    <!-- Hourglass (time flowing slowly) -->
    <g transform="translate(450,150)" opacity="0.8">
    <!-- Hourglass frame -->
    <path d="M-8,-20 L8,-20 L8,-15 L0,0 L8,15 L8,20 L-8,20 L-8,15 L0,0 L-8,-15 Z" 
          fill="none" 
          stroke="url(#slowGrad35)" 
          stroke-width="2"/>
    
    <!-- Sand in top -->
    <polygon points="-6,-18 6,-18 6,-16 0,-2 -6,-16" fill="#ffb300" opacity="0.8"/>
    
    <!-- Sand in bottom -->
    <polygon points="-4,16 4,16 4,18 -4,18" fill="#ffb300" opacity="0.8"/>
    
    <!-- Falling sand (very slow) -->
    <g fill="#ffc107" opacity="0.6">
      <circle cx="0" cy="-5" r="0.5"/>
      <circle cx="0" cy="0" r="0.5"/>
      <circle cx="0" cy="5" r="0.5"/>
    </g>
    
    <!-- Time markers -->
    <g fill="#9fa8da" opacity="0.5">
      <rect x="-10" y="-10" width="3" height="1" rx="0.5"/>
      <rect x="-10" y="0" width="3" height="1" rx="0.5"/>
      <rect x="-10" y="10" width="3" height="1" rx="0.5"/>
    </g>
    </g>
  
    <!-- Capability sparkles (slow appearance) -->
    <g fill="#7986cb" opacity="0.6">
    <path d="M180 100 L190 90 L200 100 L190 110 Z" opacity="0.3"/>
    <path d="M320 140 L330 130 L340 140 L330 150 Z" opacity="0.6"/>
    <path d="M160 400 L165 395 L170 400 L165 405 Z" opacity="0.4"/>
    <path d="M400 250 L405 245 L410 250 L405 255 Z" opacity="0.5"/>
    <path d="M120 280 L125 275 L130 280 L125 285 Z" opacity="0.3"/>
    </g>
  
    <!-- Slow flow lines -->
    <g stroke="#9fa8da" stroke-width="2" fill="none" opacity="0.3">
    <path d="M100 200 Q150 180 200 200 Q250 220 300 200" stroke-dasharray="20,10"/>
    <path d="M200 100 Q220 150 240 200" stroke-dasharray="15,15"/>
    <path d="M300 350 Q280 300 260 250" stroke-dasharray="25,5"/>
    </g>
  
    <!-- Peaceful energy fields -->
    <g stroke="#7986cb" stroke-width="2" fill="none" opacity="0.2" stroke-dasharray="12,8">
    <ellipse cx="250" cy="220" rx="60" ry="40"/>
    <ellipse cx="200" cy="340" rx="50" ry="30"/>
    </g>
  
    <!-- Number indicator -->
    <text x="50" y="450" font-family="Arial, sans-serif" font-size="24" font-weight="300" text-anchor="middle" fill="#283593" opacity="0.4">35</text>
  
    <!-- Kanji character 夊 -->
    <text x="420" y="80" font-family="serif" font-size="56" font-weight="bold" text-anchor="middle" fill="#1a237e" opacity="0.8">夊</text>
    </g>
  </g>
</svg> 