<svg xmlns="http://www.w3.org/2000/svg" width="500" height="500" viewBox="0 0 500 500">
  <defs>
    <linearGradient id="bgGrad38" x1="0%" y1="0%" x2="100%" y2="100%">
      <stop offset="0%" style="stop-color:#fce4ec;stop-opacity:1" />
      <stop offset="100%" style="stop-color:#f8bbd9;stop-opacity:1" />
    </linearGradient>
    <linearGradient id="kimonoGrad38" x1="0%" y1="0%" x2="0%" y2="100%">
      <stop offset="0%" style="stop-color:#ec407a;stop-opacity:1" />
      <stop offset="50%" style="stop-color:#e91e63;stop-opacity:1" />
      <stop offset="100%" style="stop-color:#ad1457;stop-opacity:1" />
    </linearGradient>
    <radialGradient id="graceGlow38" cx="50%" cy="50%" r="60%">
      <stop offset="0%" style="stop-color:#f48fb1;stop-opacity:0.4" />
      <stop offset="100%" style="stop-color:#f48fb1;stop-opacity:0" />
    </radialGradient>
    <linearGradient id="hairGrad38" x1="0%" y1="0%" x2="0%" y2="100%">
      <stop offset="0%" style="stop-color:#4e342e;stop-opacity:1" />
      <stop offset="100%" style="stop-color:#3e2723;stop-opacity:1" />
    </linearGradient>
  </defs>
  
  <!-- Background -->
  <rect width="500" height="500" fill="url(#bgGrad38)"/>
  
  <!-- Grace aura -->
  <ellipse cx="250" cy="280" rx="120" ry="160" fill="url(#graceGlow38)"/>
  
  <!-- Elegant feminine figure representing 女 -->
  <!-- Head -->
  <circle cx="250" cy="130" r="25" fill="#ffab91" stroke="#d84315" stroke-width="2"/>
  
  <!-- Beautiful hair in traditional style -->
  <path d="M225 115 Q250 95 275 115 Q280 130 275 145 Q250 155 225 145 Q220 130 225 115" 
    fill="url(#hairGrad38)" stroke="#2e1a00" stroke-width="2"/>
  
  <!-- Hair ornament/pin -->
  <g transform="translate(270,110)">
  <circle cx="0" cy="0" r="4" fill="#ffeb3b"/>
  <path d="M-2,-8 L2,-8 L0,-12 Z" fill="#ff5722"/>
  
  <!-- Face features -->
  <g fill="#d84315" opacity="0.8">
  <ellipse cx="243" cy="125" rx="2" ry="3"/>  <!-- Left eye -->
  <ellipse cx="257" cy="125" rx="2" ry="3"/>  <!-- Right eye -->
  <ellipse cx="250" cy="135" rx="6" ry="3"/>  <!-- Gentle smile -->
  
    <!-- Graceful neck -->
    <rect x="240" y="155" width="20" height="25" rx="10" fill="#ffab91"/>
  
    <!-- Kimono/dress body (forming the 女 shape) -->
    <!-- Upper body -->
    <path d="M220 180 Q250 170 280 180 L275 250 Q250 260 225 250 Z" 
        fill="url(#kimonoGrad38)" stroke="#880e4f" stroke-width="2"/>
  
    <!-- Kimono sleeves -->
    <ellipse cx="190" cy="200" rx="30" ry="40" fill="url(#kimonoGrad38)" opacity="0.8"/>
    <ellipse cx="310" cy="200" rx="30" ry="40" fill="url(#kimonoGrad38)" opacity="0.8"/>
  
    <!-- Lower kimono (wider, flowing) -->
    <path d="M225 250 Q180 300 160 380 Q200 400 250 390 Q300 400 340 380 Q320 300 275 250 Z" 
        fill="url(#kimonoGrad38)" stroke="#880e4f" stroke-width="2"/>
  
    <!-- Kimono obi (sash) -->
    <rect x="220" y="240" width="60" height="20" rx="10" fill="#c2185b"/>
    <rect x="225" y="245" width="50" height="10" rx="5" fill="#ff6f9d" opacity="0.7"/>
  
    <!-- Elegant posture lines -->
    <g stroke="#ad1457" stroke-width="2" fill="none" opacity="0.4">
    <path d="M225 250 Q210 300 220 350"/>
    <path d="M275 250 Q290 300 280 350"/>
    </g>
  
    <!-- Kimono pattern decorations -->
    <g fill="#c2185b" opacity="0.6">
    <circle cx="240" cy="200" r="3"/>
    <circle cx="260" cy="210" r="2"/>
    <circle cx="230" cy="220" r="2"/>
    <circle cx="270" cy="300" r="3"/>
    <circle cx="230" cy="320" r="2"/>
    <circle cx="200" cy="350" r="2"/>
    <circle cx="300" cy="340" r="3"/>
    </g>
  
    <!-- Cherry blossoms floating around -->
    <g fill="#e91e63" opacity="0.7">
    <g transform="translate(150,150)">
      <path d="M0,-5 Q5,0 0,5 Q-5,0 0,-5"/>
      <path d="M-5,0 Q0,-5 5,0 Q0,5 -5,0"/>
    </g>
    <g transform="translate(350,200)">
      <path d="M0,-3 Q3,0 0,3 Q-3,0 0,-3"/>
      <path d="M-3,0 Q0,-3 3,0 Q0,3 -3,0"/>
    </g>
    <g transform="translate(120,300)">
      <path d="M0,-4 Q4,0 0,4 Q-4,0 0,-4"/>
      <path d="M-4,0 Q0,-4 4,0 Q0,4 -4,0"/>
    </g>
    </g>
  
    <!-- Graceful feet (traditional footwear) -->
    <ellipse cx="230" cy="400" rx="12" ry="6" fill="#8d6e63"/>
    <ellipse cx="270" cy="400" rx="12" ry="6" fill="#8d6e63"/>
  
    <!-- Delicate hands -->
    <ellipse cx="190" cy="220" rx="8" ry="12" fill="#ffab91" transform="rotate(-20 190 220)"/>
    <ellipse cx="310" cy="220" rx="8" ry="12" fill="#ffab91" transform="rotate(20 310 220)"/>
  
    <!-- Shadow -->
    <ellipse cx="250" cy="430" rx="60" ry="15" fill="#ad1457" opacity="0.3"/>
  
    <!-- Feminine energy emanation -->
    <g stroke="#f06292" stroke-width="1" fill="none" opacity="0.3">
    <circle cx="250" cy="280" r="100"/>
    <circle cx="250" cy="280" r="120"/>
    <circle cx="250" cy="280" r="140"/>
    </g>
  
    <!-- Kanji character 女 -->
    <text x="400" y="120" font-family="serif" font-size="56" font-weight="bold" text-anchor="middle" fill="#880e4f" opacity="0.8">女</text>
    </g>
  </g>
</svg> 