<svg xmlns="http://www.w3.org/2000/svg" width="500" height="500" viewBox="0 0 500 500">
  <defs>
    <linearGradient id="bgGrad40" x1="0%" y1="0%" x2="0%" y2="100%">
      <stop offset="0%" style="stop-color:#f3e5f5;stop-opacity:1" />
      <stop offset="100%" style="stop-color:#e1bee7;stop-opacity:1" />
    </linearGradient>
    <linearGradient id="bodyGrad40" x1="0%" y1="0%" x2="0%" y2="100%">
      <stop offset="0%" style="stop-color:#ffcc80;stop-opacity:1" />
      <stop offset="50%" style="stop-color:#ffb74d;stop-opacity:1" />
      <stop offset="100%" style="stop-color:#ff8f00;stop-opacity:1" />
    </linearGradient>
    <radialGradient id="formGlow40" cx="50%" cy="50%" r="70%">
      <stop offset="0%" style="stop-color:#ce93d8;stop-opacity:0.4" />
      <stop offset="100%" style="stop-color:#ce93d8;stop-opacity:0" />
    </radialGradient>
    <linearGradient id="structureGrad40" x1="0%" y1="0%" x2="100%" y2="0%">
      <stop offset="0%" style="stop-color:#a1887f;stop-opacity:1" />
      <stop offset="100%" style="stop-color:#8d6e63;stop-opacity:1" />
    </linearGradient>
  </defs>
  
  <!-- Background -->
  <rect width="500" height="500" fill="url(#bgGrad40)"/>
  
  <!-- Form aura -->
  <ellipse cx="250" cy="250" rx="180" ry="160" fill="url(#formGlow40)"/>
  
  <!-- Main body structure representing 尸 -->
  <!-- Head/skull -->
  <ellipse cx="250" cy="150" rx="40" ry="35" fill="url(#bodyGrad40)" stroke="#e65100" stroke-width="3"/>
  
  <!-- Horizontal top stroke -->
  <rect x="180" y="130" width="140" height="15" rx="7" fill="url(#bodyGrad40)" stroke="#e65100" stroke-width="2"/>
  
  <!-- Vertical body line -->
  <rect x="240" y="145" width="20" height="200" rx="10" fill="url(#bodyGrad40)" stroke="#e65100" stroke-width="3"/>
  
  <!-- Extended horizontal stroke -->
  <rect x="260" y="220" width="80" height="12" rx="6" fill="url(#bodyGrad40)" stroke="#e65100" stroke-width="2"/>
  
  <!-- Body anatomy outline -->
  <g stroke="#bf360c" stroke-width="2" fill="none" opacity="0.6">
  <!-- Ribcage -->
  <ellipse cx="250" cy="200" rx="35" ry="50"/>
  <!-- Pelvis -->
  <ellipse cx="250" cy="280" rx="30" ry="25"/>
  <!-- Spine curve -->
  <path d="M250 180 Q255 220 250 260 Q245 300 250 340"/>
  
  <!-- Skeletal structure -->
  <g stroke="url(#structureGrad40)" stroke-width="1" opacity="0.4">
  <!-- Ribs -->
  <path d="M225 185 Q240 190 255 185"/>
  <path d="M225 200 Q240 205 255 200"/>
  <path d="M225 215 Q240 220 255 215"/>
  <path d="M225 230 Q240 235 255 230"/>
  
  <!-- Shoulder structure -->
  <line x1="210" y1="170" x2="230" y2="180"/>
  <line x1="290" y1="170" x2="270" y2="180"/>
  
    <!-- Human form silhouette -->
    <g fill="url(#bodyGrad40)" opacity="0.3">
    <!-- Arms -->
    <ellipse cx="180" cy="200" rx="15" ry="60" transform="rotate(-20 180 200)"/>
    <ellipse cx="320" cy="200" rx="15" ry="60" transform="rotate(20 320 200)"/>
    
    <!-- Legs -->
    <ellipse cx="230" cy="380" rx="18" ry="80"/>
    <ellipse cx="270" cy="380" rx="18" ry="80"/>
    </g>
  
    <!-- Life energy indicators -->
    <g stroke="#9c27b0" stroke-width="2" opacity="0.5">
    <circle cx="250" cy="200" r="40"/>
    <circle cx="250" cy="200" r="55"/>
    <circle cx="250" cy="200" r="70"/>
    </g>
  
    <!-- Anatomical reference points -->
    <g fill="#8e24aa" opacity="0.6">
    <circle cx="235" cy="155" r="3"/> <!-- Eye -->
    <circle cx="265" cy="155" r="3"/> <!-- Eye -->
    <circle cx="250" cy="165" r="2"/> <!-- Nose -->
    <ellipse cx="250" cy="175" rx="8" ry="3"/> <!-- Mouth -->
    </g>
  
    <!-- Chakra/energy centers -->
    <g fill="#ab47bc" opacity="0.7">
    <circle cx="250" cy="150" r="4"/> <!-- Crown -->
    <circle cx="250" cy="170" r="4"/> <!-- Third eye -->
    <circle cx="250" cy="190" r="4"/> <!-- Throat -->
    <circle cx="250" cy="220" r="4"/> <!-- Heart -->
    <circle cx="250" cy="250" r="4"/> <!-- Solar plexus -->
    <circle cx="250" cy="280" r="4"/> <!-- Sacral -->
    <circle cx="250" cy="310" r="4"/> <!-- Root -->
    </g>
  
    <!-- Anatomical diagrams -->
    <g transform="translate(80,200)" opacity="0.6">
    <!-- Skeleton reference -->
    <circle cx="0" cy="0" r="12" fill="none" stroke="url(#structureGrad40)" stroke-width="2"/>
    <rect x="-2" y="12" width="4" height="30" fill="url(#structureGrad40)"/>
    <rect x="-8" y="20" width="16" height="3" fill="url(#structureGrad40)"/>
    </g>
  
    <g transform="translate(420,200)" opacity="0.6">
    <!-- Body proportions -->
    <rect x="-10" y="-20" width="20" height="40" fill="none" stroke="url(#bodyGrad40)" stroke-width="2"/>
    <line x1="-15" y1="0" x2="15" y2="0" stroke="url(#bodyGrad40)" stroke-width="1"/>
    </g>
  
    <!-- Medical symbols -->
    <g transform="translate(100,350)" opacity="0.7">
    <circle cx="0" cy="0" r="15" fill="none" stroke="#f44336" stroke-width="3"/>
    <line x1="0" y1="-10" x2="0" y2="10" stroke="#f44336" stroke-width="3"/>
    <line x1="-10" y1="0" x2="10" y2="0" stroke="#f44336" stroke-width="3"/>
    </g>
  
    <!-- Ancient body art -->
    <g stroke="#8e24aa" stroke-width="1" fill="none" opacity="0.4">
    <path d="M200 300 Q210 290 220 300 Q230 310 240 300"/>
    <path d="M260 300 Q270 290 280 300 Q290 310 300 300"/>
    <circle cx="250" cy="320" r="8"/>
    <path d="M180 250 Q190 240 200 250"/>
    <path d="M300 250 Q290 240 280 250"/>
    </g>
  
    <!-- Breath/life essence -->
    <g fill="#ba68c8" opacity="0.5">
    <ellipse cx="220" cy="200" rx="8" ry="15" transform="rotate(30 220 200)"/>
    <ellipse cx="280" cy="200" rx="8" ry="15" transform="rotate(-30 280 200)"/>
    <ellipse cx="250" cy="240" rx="15" ry="8"/>
    </g>
  
    <!-- Golden ratio proportions -->
    <g stroke="#ff9800" stroke-width="1" opacity="0.3">
    <line x1="250" y1="130" x2="250" y2="350"/>
    <line x1="200" y1="240" x2="300" y2="240"/>
    <circle cx="250" cy="240" r="55"/>
    </g>
  
    <!-- Life force sparkles -->
    <g fill="#ce93d8" opacity="0.8">
    <path d="M150 150 L160 140 L170 150 L160 160 Z"/>
    <path d="M330 150 L340 140 L350 150 L340 160 Z"/>
    <path d="M180 350 L190 340 L200 350 L190 360 Z"/>
    <path d="M300 350 L310 340 L320 350 L310 360 Z"/>
    </g>
  
    <!-- Anatomical measurements -->
    <g transform="translate(50,100)" opacity="0.5">
    <line x1="0" y1="0" x2="30" y2="0" stroke="#9e9e9e" stroke-width="1"/>
    
    </g>
  
    <!-- Kanji character 尸 -->
    
    </g>
  </g>
</svg> 