<svg xmlns="http://www.w3.org/2000/svg" width="500" height="500" viewBox="0 0 500 500">
  <defs>
    <linearGradient id="bgGrad41" x1="0%" y1="0%" x2="100%" y2="100%">
      <stop offset="0%" style="stop-color:#e8f5e8;stop-opacity:1" />
      <stop offset="100%" style="stop-color:#c8e6c9;stop-opacity:1" />
    </linearGradient>
    <linearGradient id="bambooGrad41" x1="0%" y1="0%" x2="0%" y2="100%">
      <stop offset="0%" style="stop-color:#66bb6a;stop-opacity:1" />
      <stop offset="50%" style="stop-color:#4caf50;stop-opacity:1" />
      <stop offset="100%" style="stop-color:#388e3c;stop-opacity:1" />
    </linearGradient>
    <radialGradient id="leafGlow41" cx="50%" cy="50%" r="40%">
      <stop offset="0%" style="stop-color:#a5d6a7;stop-opacity:0.8" />
      <stop offset="100%" style="stop-color:#a5d6a7;stop-opacity:0" />
    </radialGradient>
  </defs>
  
  <!-- Background -->
  <rect width="500" height="500" fill="url(#bgGrad41)"/>
  
  <!-- Bamboo stalks representing growth and strength -->
  <rect x="100" y="80" width="30" height="340" rx="15" fill="url(#bambooGrad41)"/>
  <rect x="200" y="60" width="30" height="360" rx="15" fill="url(#bambooGrad41)"/>
  <rect x="300" y="90" width="30" height="330" rx="15" fill="url(#bambooGrad41)"/>
  <rect x="370" y="100" width="30" height="320" rx="15" fill="url(#bambooGrad41)"/>
  
  <!-- Bamboo segments -->
  <g stroke="#2e7d32" stroke-width="2" fill="none">
  <line x1="95" y1="150" x2="135" y2="150"/>
  <line x1="95" y1="220" x2="135" y2="220"/>
  <line x1="95" y1="290" x2="135" y2="290"/>
  <line x1="95" y1="360" x2="135" y2="360"/>
  
  <line x1="195" y1="130" x2="235" y2="130"/>
  <line x1="195" y1="200" x2="235" y2="200"/>
  <line x1="195" y1="270" x2="235" y2="270"/>
  <line x1="195" y1="340" x2="235" y2="340"/>
  
  <line x1="295" y1="160" x2="335" y2="160"/>
  <line x1="295" y1="230" x2="335" y2="230"/>
  <line x1="295" y1="300" x2="335" y2="300"/>
  <line x1="295" y1="370" x2="335" y2="370"/>
  
  <line x1="365" y1="170" x2="405" y2="170"/>
  <line x1="365" y1="240" x2="405" y2="240"/>
  <line x1="365" y1="310" x2="405" y2="310"/>
  <line x1="365" y1="380" x2="405" y2="380"/>
  
  <!-- Bamboo leaves -->
  <g fill="#689f38" opacity="0.8">
  <ellipse cx="85" cy="100" rx="25" ry="8" transform="rotate(-30 85 100)"/>
  <ellipse cx="140" cy="90" rx="20" ry="6" transform="rotate(45 140 90)"/>
  <ellipse cx="180" cy="70" rx="25" ry="8" transform="rotate(-20 180 70)"/>
  <ellipse cx="240" cy="80" rx="20" ry="6" transform="rotate(30 240 80)"/>
  <ellipse cx="280" cy="100" rx="25" ry="8" transform="rotate(-40 280 100)"/>
  <ellipse cx="340" cy="95" rx="20" ry="6" transform="rotate(20 340 95)"/>
  <ellipse cx="410" cy="110" rx="25" ry="8" transform="rotate(-25 410 110)"/>
  
    <!-- Gentle wind effect -->
    <ellipse cx="250" cy="200" rx="150" ry="30" fill="url(#leafGlow41)" opacity="0.4"/>
  
    <!-- Dew drops -->
    <g fill="#81c784" opacity="0.6">
    <circle cx="120" cy="180" r="3"/>
    <circle cx="220" cy="160" r="4"/>
    <circle cx="320" cy="190" r="3"/>
    <circle cx="380" cy="200" r="3"/>
    </g>
  
    <!-- Number "41" integrated -->
    <text x="450" y="450" font-family="Arial, sans-serif" font-size="28" font-weight="300" text-anchor="middle" fill="#2e7d32" opacity="0.5">41</text>
  
    <!-- Kanji character 四十一 -->
    <text x="50" y="60" font-family="serif" font-size="36" font-weight="bold" text-anchor="middle" fill="#1b5e20" opacity="0.9">四十一</text>
    </g>
  </g>
</svg> 