<svg xmlns="http://www.w3.org/2000/svg" width="500" height="500" viewBox="0 0 500 500">
  <defs>
    <linearGradient id="bgGrad42" x1="0%" y1="0%" x2="100%" y2="100%">
      <stop offset="0%" style="stop-color:#fff3e0;stop-opacity:1" />
      <stop offset="100%" style="stop-color:#ffe0b2;stop-opacity:1" />
    </linearGradient>
    <linearGradient id="petalGrad42" x1="0%" y1="0%" x2="100%" y2="100%">
      <stop offset="0%" style="stop-color:#ffb74d;stop-opacity:1" />
      <stop offset="50%" style="stop-color:#ff9800;stop-opacity:1" />
      <stop offset="100%" style="stop-color:#f57c00;stop-opacity:1" />
    </linearGradient>
    <radialGradient id="flowerCenter42" cx="50%" cy="50%" r="50%">
      <stop offset="0%" style="stop-color:#fff59d;stop-opacity:1" />
      <stop offset="100%" style="stop-color:#ffb300;stop-opacity:1" />
    </radialGradient>
    <radialGradient id="bloom42" cx="50%" cy="50%" r="60%">
      <stop offset="0%" style="stop-color:#ffcc80;stop-opacity:0.6" />
      <stop offset="100%" style="stop-color:#ffcc80;stop-opacity:0" />
    </radialGradient>
  </defs>
  
  <!-- Background -->
  <rect width="500" height="500" fill="url(#bgGrad42)"/>
  
  <!-- Blooming flowers representing the dual nature of 42 -->
  <!-- First flower -->
  <g transform="translate(150,200)">
  <ellipse cx="0" cy="0" rx="80" ry="15" fill="url(#bloom42)"/>
  <g fill="url(#petalGrad42)">
  <ellipse cx="0" cy="-40" rx="20" ry="50" transform="rotate(0)"/>
  <ellipse cx="35" cy="-20" rx="20" ry="50" transform="rotate(45)"/>
  <ellipse cx="35" cy="20" rx="20" ry="50" transform="rotate(90)"/>
  <ellipse cx="0" cy="40" rx="20" ry="50" transform="rotate(135)"/>
  <ellipse cx="-35" cy="20" rx="20" ry="50" transform="rotate(180)"/>
  <ellipse cx="-35" cy="-20" rx="20" ry="50" transform="rotate(225)"/>
  <circle cx="0" cy="0" r="15" fill="url(#flowerCenter42)"/>
  
    <!-- Second flower -->
    <g transform="translate(350,280)">
    <ellipse cx="0" cy="0" rx="80" ry="15" fill="url(#bloom42)"/>
    <g fill="url(#petalGrad42)">
      <ellipse cx="0" cy="-40" rx="20" ry="50" transform="rotate(30)"/>
      <ellipse cx="35" cy="-20" rx="20" ry="50" transform="rotate(75)"/>
      <ellipse cx="35" cy="20" rx="20" ry="50" transform="rotate(120)"/>
      <ellipse cx="0" cy="40" rx="20" ry="50" transform="rotate(165)"/>
      <ellipse cx="-35" cy="20" rx="20" ry="50" transform="rotate(210)"/>
      <ellipse cx="-35" cy="-20" rx="20" ry="50" transform="rotate(255)"/>
    </g>
    <circle cx="0" cy="0" r="15" fill="url(#flowerCenter42)"/>
    </g>
  
    <!-- Flower stems -->
    <rect x="145" y="250" width="10" height="150" rx="5" fill="#689f38"/>
    <rect x="345" y="330" width="10" height="120" rx="5" fill="#689f38"/>
  
    <!-- Leaves -->
    <g fill="#8bc34a" opacity="0.8">
    <ellipse cx="130" cy="320" rx="25" ry="12" transform="rotate(-30 130 320)"/>
    <ellipse cx="170" cy="340" rx="20" ry="10" transform="rotate(20 170 340)"/>
    <ellipse cx="330" cy="380" rx="25" ry="12" transform="rotate(-45 330 380)"/>
    <ellipse cx="370" cy="400" rx="20" ry="10" transform="rotate(30 370 400)"/>
    </g>
  
    <!-- Floating pollen -->
    <g fill="#fff176" opacity="0.7">
    <circle cx="100" cy="150" r="3"/>
    <circle cx="250" cy="120" r="2"/>
    <circle cx="400" cy="180" r="3"/>
    <circle cx="320" cy="150" r="2"/>
    <circle cx="180" cy="100" r="2"/>
    </g>
  
    <!-- Gentle breeze lines -->
    <g stroke="#ffcc80" stroke-width="2" fill="none" opacity="0.4">
    <path d="M50 100 Q80 90 110 100"/>
    <path d="M380 120 Q410 110 440 120"/>
    <path d="M70 300 Q100 290 130 300"/>
    <path d="M370 350 Q400 340 430 350"/>
    </g>
  
    <!-- Garden ground -->
    <ellipse cx="250" cy="460" rx="200" ry="25" fill="#8bc34a" opacity="0.3"/>
  
    <!-- Number "42" integrated -->
    <text x="450" y="50" font-family="Arial, sans-serif" font-size="28" font-weight="300" text-anchor="middle" fill="#e65100" opacity="0.5">42</text>
  
    <!-- Kanji character 四十二 -->
    <text x="80" y="80" font-family="serif" font-size="36" font-weight="bold" text-anchor="middle" fill="#bf360c" opacity="0.9">四十二</text>
    </g>
  </g>
</svg> 