<svg xmlns="http://www.w3.org/2000/svg" width="500" height="500" viewBox="0 0 500 500">
  <defs>
    <linearGradient id="bgGrad45" x1="0%" y1="0%" x2="100%" y2="100%">
      <stop offset="0%" style="stop-color:#f3e5f5;stop-opacity:1" />
      <stop offset="100%" style="stop-color:#e1bee7;stop-opacity:1" />
    </linearGradient>
    <linearGradient id="waveGrad45" x1="0%" y1="0%" x2="100%" y2="0%">
      <stop offset="0%" style="stop-color:#ab47bc;stop-opacity:1" />
      <stop offset="50%" style="stop-color:#9c27b0;stop-opacity:1" />
      <stop offset="100%" style="stop-color:#7b1fa2;stop-opacity:1" />
    </linearGradient>
    <radialGradient id="ripple45" cx="50%" cy="50%" r="50%">
      <stop offset="0%" style="stop-color:#ce93d8;stop-opacity:0.8" />
      <stop offset="100%" style="stop-color:#ce93d8;stop-opacity:0" />
    </radialGradient>
    <linearGradient id="foamGrad45" x1="0%" y1="0%" x2="0%" y2="100%">
      <stop offset="0%" style="stop-color:#ffffff;stop-opacity:0.9" />
      <stop offset="100%" style="stop-color:#e1bee7;stop-opacity:0.5" />
    </linearGradient>
  </defs>
  
  <!-- Background -->
  <rect width="500" height="500" fill="url(#bgGrad45)"/>
  
  <!-- Five flowing waves representing the rhythm of 45 -->
  <!-- Bottom wave -->
  <path d="M0 400 Q125 380 250 400 T500 400 L500 450 L0 450 Z" fill="url(#waveGrad45)" opacity="0.9"/>
  
  <!-- Fourth wave -->
  <path d="M0 350 Q125 330 250 350 T500 350 L500 420 Q375 400 250 420 T0 420 Z" fill="url(#waveGrad45)" opacity="0.8"/>
  
  <!-- Third wave -->
  <path d="M0 300 Q125 280 250 300 T500 300 L500 370 Q375 350 250 370 T0 370 Z" fill="url(#waveGrad45)" opacity="0.7"/>
  
  <!-- Second wave -->
  <path d="M0 250 Q125 230 250 250 T500 250 L500 320 Q375 300 250 320 T0 320 Z" fill="url(#waveGrad45)" opacity="0.6"/>
  
  <!-- Top wave -->
  <path d="M0 200 Q125 180 250 200 T500 200 L500 270 Q375 250 250 270 T0 270 Z" fill="url(#waveGrad45)" opacity="0.5"/>
  
  <!-- Wave foam and bubbles -->
  <g fill="url(#foamGrad45)">
  <ellipse cx="100" cy="390" rx="20" ry="8"/>
  <ellipse cx="200" cy="385" rx="15" ry="6"/>
  <ellipse cx="300" cy="392" rx="18" ry="7"/>
  <ellipse cx="400" cy="388" rx="12" ry="5"/>
  
  <ellipse cx="150" cy="340" rx="15" ry="6"/>
  <ellipse cx="350" cy="345" rx="12" ry="5"/>
  
  <ellipse cx="120" cy="290" rx="10" ry="4"/>
  <ellipse cx="380" cy="295" rx="8" ry="3"/>
  
  <!-- Floating bubbles -->
  <g fill="#ffffff" opacity="0.7">
  <circle cx="80" cy="180" r="6"/>
  <circle cx="180" cy="160" r="4"/>
  <circle cx="280" cy="170" r="5"/>
  <circle cx="380" cy="155" r="4"/>
  <circle cx="480" cy="175" r="3"/>
  
  <circle cx="120" cy="120" r="3"/>
  <circle cx="220" cy="110" r="4"/>
  <circle cx="320" cy="125" r="3"/>
  <circle cx="420" cy="115" r="2"/>
  
    <!-- Ripple effects -->
    <g fill="none" stroke="#ba68c8" stroke-width="2" opacity="0.4">
    <circle cx="150" cy="200" r="30"/>
    <circle cx="150" cy="200" r="50"/>
    <circle cx="350" cy="180" r="25"/>
    <circle cx="350" cy="180" r="40"/>
    </g>
  
    <!-- Central vortex representing the power of 45 -->
    <g transform="translate(250,150)">
    <circle cx="0" cy="0" r="60" fill="url(#ripple45)" opacity="0.3"/>
    <path d="M0 -40 Q20 -20 40 0 Q20 20 0 40 Q-20 20 -40 0 Q-20 -20 0 -40" 
          fill="none" stroke="#8e24aa" stroke-width="3" opacity="0.6"/>
    </g>
  
    <!-- Flowing current lines -->
    <g stroke="#ce93d8" stroke-width="2" fill="none" opacity="0.5">
    <path d="M50 220 Q150 200 250 220 Q350 240 450 220"/>
    <path d="M30 260 Q130 240 230 260 Q330 280 430 260"/>
    <path d="M70 300 Q170 280 270 300 Q370 320 470 300"/>
    </g>
  
    <!-- Seafoam sparkles -->
    <g fill="#e1bee7" opacity="0.6">
    <path d="M90 220 L95 215 L100 220 L95 225 Z"/>
    <path d="M290 240 L295 235 L300 240 L295 245 Z"/>
    <path d="M190 180 L193 177 L196 180 L193 183 Z"/>
    <path d="M390 200 L393 197 L396 200 L393 203 Z"/>
    </g>
  
    <!-- Number "45" integrated -->
    <text x="450" y="50" font-family="Arial, sans-serif" font-size="28" font-weight="300" text-anchor="middle" fill="#4a148c" opacity="0.5">45</text>
  
    <!-- Kanji character 四十五 -->
    <text x="80" y="50" font-family="serif" font-size="36" font-weight="bold" text-anchor="middle" fill="#4a148c" opacity="0.9">四十五</text>
    </g>
  </g>
</svg> 