<svg xmlns="http://www.w3.org/2000/svg" width="500" height="500" viewBox="0 0 500 500">
  <defs>
    <linearGradient id="bgGrad47" x1="0%" y1="0%" x2="0%" y2="100%">
      <stop offset="0%" style="stop-color:#e8f5e8;stop-opacity:1" />
      <stop offset="50%" style="stop-color:#c8e6c8;stop-opacity:1" />
      <stop offset="100%" style="stop-color:#a5d6a7;stop-opacity:1" />
    </linearGradient>
    <linearGradient id="riverGrad47" x1="0%" y1="0%" x2="0%" y2="100%">
      <stop offset="0%" style="stop-color:#4fc3f7;stop-opacity:0.9" />
      <stop offset="50%" style="stop-color:#29b6f6;stop-opacity:0.8" />
      <stop offset="100%" style="stop-color:#0277bd;stop-opacity:0.9" />
    </linearGradient>
    <radialGradient id="flowGlow47" cx="50%" cy="50%" r="60%">
      <stop offset="0%" style="stop-color:#81d4fa;stop-opacity:0.6" />
      <stop offset="100%" style="stop-color:#81d4fa;stop-opacity:0" />
    </radialGradient>
    <linearGradient id="bankGrad47" x1="0%" y1="0%" x2="0%" y2="100%">
      <stop offset="0%" style="stop-color:#8d6e63;stop-opacity:1" />
      <stop offset="100%" style="stop-color:#6d4c41;stop-opacity:1" />
    </linearGradient>
  </defs>
  
  <!-- Landscape background -->
  <rect width="500" height="500" fill="url(#bgGrad47)"/>
  
  <!-- River flow aura -->
  <ellipse cx="250" cy="250" rx="200" ry="150" fill="url(#flowGlow47)"/>
  
  <!-- Main river representing 川 -->
  <!-- Left stream -->
  <path d="M50 100 Q80 150 70 200 Q60 250 80 300 Q100 350 90 400 Q85 450 90 500" 
    stroke="url(#riverGrad47)" stroke-width="25" fill="none" stroke-linecap="round"/>
  
  <!-- Center stream (main river) -->
  <path d="M200 50 Q220 100 210 150 Q200 200 220 250 Q240 300 230 350 Q220 400 230 450 Q235 480 230 500" 
    stroke="url(#riverGrad47)" stroke-width="35" fill="none" stroke-linecap="round"/>
  
  <!-- Right stream -->
  <path d="M380 80 Q360 130 370 180 Q380 230 360 280 Q340 330 350 380 Q355 430 350 500" 
    stroke="url(#riverGrad47)" stroke-width="28" fill="none" stroke-linecap="round"/>
  
  <!-- Water flow indicators -->
  <g stroke="#4fc3f7" stroke-width="3" fill="none" opacity="0.6">
  <!-- Left stream flow -->
  <path d="M45 120 Q50 130 55 140"/>
  <path d="M65 180 Q70 190 75 200"/>
  <path d="M55 240 Q60 250 65 260"/>
  <path d="M75 320 Q80 330 85 340"/>
  
  <!-- Center stream flow -->
  <path d="M195 80 Q200 90 205 100"/>
  <path d="M215 140 Q220 150 225 160"/>
  <path d="M205 220 Q210 230 215 240"/>
  <path d="M225 280 Q230 290 235 300"/>
  <path d="M215 360 Q220 370 225 380"/>
  
  <!-- Right stream flow -->
  <path d="M375 100 Q380 110 385 120"/>
  <path d="M355 160 Q360 170 365 180"/>
  <path d="M375 210 Q380 220 385 230"/>
  <path d="M345 300 Q350 310 355 320"/>
  
  <!-- River banks -->
  <g fill="url(#bankGrad47)" opacity="0.7">
  <!-- Left bank -->
  <path d="M20 100 Q30 150 25 200 Q20 250 30 300 Q40 350 35 400 L40 500 L0 500 L0 100 Z"/>
  <path d="M100 120 Q110 170 105 220 Q100 270 110 320 Q120 370 115 420 L125 500 L100 500 L90 120 Z"/>
  
  <!-- Center banks -->
  <path d="M170 60 Q180 110 175 160 Q170 210 180 260 Q190 310 185 360 Q180 410 185 460 L195 500 L165 500 L165 60 Z"/>
  <path d="M260 70 Q270 120 265 170 Q260 220 270 270 Q280 320 275 370 Q270 420 275 470 L285 500 L255 500 L255 70 Z"/>
  
  <!-- Right bank -->
  <path d="M320 90 Q310 140 315 190 Q320 240 310 290 Q300 340 305 390 Q310 440 305 490 L295 500 L325 500 L350 90 Z"/>
  <path d="M410 100 Q420 150 415 200 Q410 250 420 300 Q430 350 425 400 L435 500 L500 500 L500 100 Z"/>
  
    <!-- Vegetation along banks -->
    <g fill="#4caf50" opacity="0.8">
    <!-- Left bank vegetation -->
    <path d="M15 180 L20 160 L25 180"/>
    <path d="M35 220 L40 200 L45 220"/>
    <path d="M10 300 L15 280 L20 300"/>
    <path d="M110 200 L115 180 L120 200"/>
    <path d="M105 280 L110 260 L115 280"/>
    
    <!-- Center vegetation -->
    <path d="M160 140 L165 120 L170 140"/>
    <path d="M290 160 L295 140 L300 160"/>
    <path d="M155 240 L160 220 L165 240"/>
    <path d="M295 240 L300 220 L305 240"/>
    
    <!-- Right bank vegetation -->
    <path d="M310 180 L315 160 L320 180"/>
    <path d="M435 200 L440 180 L445 200"/>
    <path d="M305 300 L310 280 L315 300"/>
    <path d="M440 320 L445 300 L450 320"/>
    </g>
  
    <!-- River stones -->
    <g fill="#9e9e9e" opacity="0.6">
    <ellipse cx="75" cy="250" rx="8" ry="6"/>
    <ellipse cx="210" cy="180" rx="10" ry="8"/>
    <ellipse cx="370" cy="220" rx="9" ry="7"/>
    <ellipse cx="85" cy="350" rx="7" ry="5"/>
    <ellipse cx="225" cy="320" rx="12" ry="9"/>
    <ellipse cx="355" cy="380" rx="8" ry="6"/>
    </g>
  
    <!-- Water ripples -->
    <g stroke="#29b6f6" stroke-width="1" fill="none" opacity="0.4">
    <circle cx="80" cy="200" r="10"/>
    <circle cx="80" cy="200" r="15"/>
    <circle cx="220" cy="150" r="12"/>
    <circle cx="220" cy="150" r="18"/>
    <circle cx="360" cy="180" r="11"/>
    <circle cx="360" cy="180" r="16"/>
    </g>
  
    <!-- Fish swimming -->
    <g fill="#ff7043" opacity="0.7">
    <g transform="translate(70,280)">
      <ellipse cx="0" cy="0" rx="12" ry="6"/>
      <path d="M-12,0 L-20,-4 L-20,4 Z"/>
      <circle cx="5" cy="-2" r="1" fill="#000"/>
    </g>
    
    <g transform="translate(210,200)">
      <ellipse cx="0" cy="0" rx="10" ry="5"/>
      <path d="M-10,0 L-16,-3 L-16,3 Z"/>
      <circle cx="4" cy="-1" r="1" fill="#000"/>
    </g>
    </g>
  
    <!-- Bridge crossing -->
    <g transform="translate(200,250)" opacity="0.8">
    <rect x="-50" y="-5" width="100" height="10" rx="5" fill="#8d6e63"/>
    <rect x="-45" y="-15" width="5" height="20" fill="#6d4c41"/>
    <rect x="40" y="-15" width="5" height="20" fill="#6d4c41"/>
    </g>
  
    <!-- Water lilies -->
    <g fill="#e91e63" opacity="0.7">
    <g transform="translate(85,320)">
      <circle cx="0" cy="0" r="6" fill="#4caf50"/>
      <path d="M-3,-3 Q0,-6 3,-3 Q6,0 3,3 Q0,6 -3,3 Q-6,0 -3,-3" fill="#e91e63"/>
    </g>
    
    <g transform="translate(350,300)">
      <circle cx="0" cy="0" r="5" fill="#4caf50"/>
      <path d="M-2,-2 Q0,-4 2,-2 Q4,0 2,2 Q0,4 -2,2 Q-4,0 -2,-2" fill="#e91e63"/>
    </g>
    </g>
  
    <!-- Dragonflies -->
    <g fill="#9c27b0" opacity="0.6">
    <g transform="translate(100,150)">
      <ellipse cx="0" cy="0" rx="8" ry="2"/>
      <ellipse cx="0" cy="0" rx="2" ry="8"/>
      <circle cx="0" cy="3" r="2"/>
    </g>
    
    <g transform="translate(300,120)">
      <ellipse cx="0" cy="0" rx="6" ry="1"/>
      <ellipse cx="0" cy="0" rx="1" ry="6"/>
      <circle cx="0" cy="2" r="1"/>
    </g>
    </g>
  
    <!-- Water sound waves -->
    <g stroke="#81d4fa" stroke-width="1" fill="none" opacity="0.3">
    <path d="M50 450 Q100 440 150 450"/>
    <path d="M200 470 Q250 460 300 470"/>
    <path d="M350 450 Q400 440 450 450"/>
    </g>
  
    <!-- Kanji character 川 -->
    <text x="450" y="80" font-family="serif" font-size="56" font-weight="bold" text-anchor="middle" fill="#0277bd" opacity="0.8">川</text>
    </g>
  </g>
</svg> 