<svg xmlns="http://www.w3.org/2000/svg" width="500" height="500" viewBox="0 0 500 500">
  <defs>
    <linearGradient id="bgGrad48" x1="0%" y1="0%" x2="100%" y2="100%">
      <stop offset="0%" style="stop-color:#e8f5e8;stop-opacity:1" />
      <stop offset="100%" style="stop-color:#a5d6a7;stop-opacity:1" />
    </linearGradient>
    <linearGradient id="petalGrad48" x1="0%" y1="0%" x2="100%" y2="100%">
      <stop offset="0%" style="stop-color:#66bb6a;stop-opacity:1" />
      <stop offset="50%" style="stop-color:#4caf50;stop-opacity:1" />
      <stop offset="100%" style="stop-color:#2e7d32;stop-opacity:1" />
    </linearGradient>
    <radialGradient id="flowerGlow48" cx="50%" cy="50%" r="60%">
      <stop offset="0%" style="stop-color:#c8e6c9;stop-opacity:0.8" />
      <stop offset="100%" style="stop-color:#c8e6c9;stop-opacity:0" />
    </radialGradient>
    <linearGradient id="stemGrad48" x1="0%" y1="0%" x2="0%" y2="100%">
      <stop offset="0%" style="stop-color:#689f38;stop-opacity:1" />
      <stop offset="100%" style="stop-color:#33691e;stop-opacity:1" />
    </linearGradient>
  </defs>
  
  <!-- Background -->
  <rect width="500" height="500" fill="url(#bgGrad48)"/>
  
  <!-- Eight-petaled lotus representing 48 -->
  <g transform="translate(250,250)">
  <!-- Outer glow -->
  <circle cx="0" cy="0" r="120" fill="url(#flowerGlow48)" opacity="0.4"/>
  
  <!-- Eight petals arranged symmetrically -->
  <g fill="url(#petalGrad48)">
  <!-- North petal -->
  <ellipse cx="0" cy="-60" rx="25" ry="80" transform="rotate(0)"/>
  <!-- Northeast petal -->
  <ellipse cx="42" cy="-42" rx="25" ry="80" transform="rotate(45)"/>
  <!-- East petal -->
  <ellipse cx="60" cy="0" rx="25" ry="80" transform="rotate(90)"/>
  <!-- Southeast petal -->
  <ellipse cx="42" cy="42" rx="25" ry="80" transform="rotate(135)"/>
  <!-- South petal -->
  <ellipse cx="0" cy="60" rx="25" ry="80" transform="rotate(180)"/>
  <!-- Southwest petal -->
  <ellipse cx="-42" cy="42" rx="25" ry="80" transform="rotate(225)"/>
  <!-- West petal -->
  <ellipse cx="-60" cy="0" rx="25" ry="80" transform="rotate(270)"/>
  <!-- Northwest petal -->
  <ellipse cx="-42" cy="-42" rx="25" ry="80" transform="rotate(315)"/>
  
  <!-- Sacred center -->
  <circle cx="0" cy="0" r="30" fill="#fff59d"/>
  <circle cx="0" cy="0" r="20" fill="#ffeb3b"/>
  <circle cx="0" cy="0" r="10" fill="#ff6f00"/>
  
    <!-- Lotus stem -->
    <rect x="240" y="330" width="20" height="150" rx="10" fill="url(#stemGrad48)"/>
  
    <!-- Floating lily pads -->
    <g fill="#4caf50" opacity="0.7">
    <ellipse cx="150" cy="400" rx="40" ry="30" transform="rotate(-20 150 400)"/>
    <path d="M150 400 L170 410" stroke="#2e7d32" stroke-width="2" fill="none"/>
    
    <ellipse cx="380" cy="420" rx="35" ry="25" transform="rotate(15 380 420)"/>
    <path d="M380 420 L365 430" stroke="#2e7d32" stroke-width="2" fill="none"/>
    
    <ellipse cx="100" cy="350" rx="30" ry="20" transform="rotate(-45 100 350)"/>
    <path d="M100 350 L115 360" stroke="#2e7d32" stroke-width="2" fill="none"/>
    </g>
  
    <!-- Water ripples -->
    <g fill="none" stroke="#81c784" stroke-width="2" opacity="0.5">
    <circle cx="200" cy="380" r="25"/>
    <circle cx="200" cy="380" r="40"/>
    <circle cx="320" cy="400" r="20"/>
    <circle cx="320" cy="400" r="35"/>
    </g>
  
    <!-- Dewdrops on petals -->
    <g fill="#ffffff" opacity="0.8">
    <circle cx="220" cy="190" r="4"/>
    <circle cx="310" cy="220" r="3"/>
    <circle cx="280" cy="310" r="4"/>
    <circle cx="190" cy="280" r="3"/>
    <circle cx="180" cy="220" r="3"/>
    <circle cx="320" cy="280" r="4"/>
    <circle cx="250" cy="170" r="2"/>
    <circle cx="250" cy="330" r="3"/>
    </g>
  
    <!-- Sacred geometry lines -->
    <g stroke="#388e3c" stroke-width="1" fill="none" opacity="0.3">
    <circle cx="250" cy="250" r="100"/>
    <circle cx="250" cy="250" r="70"/>
    <line x1="250" y1="150" x2="250" y2="350"/>
    <line x1="150" y1="250" x2="350" y2="250"/>
    <line x1="180" y1="180" x2="320" y2="320"/>
    <line x1="320" y1="180" x2="180" y2="320"/>
    </g>
  
    <!-- Floating pollen -->
    <g fill="#fff176" opacity="0.6">
    <circle cx="120" cy="150" r="2"/>
    <circle cx="380" cy="180" r="3"/>
    <circle cx="100" cy="300" r="2"/>
    <circle cx="400" cy="320" r="2"/>
    <circle cx="200" cy="100" r="2"/>
    <circle cx="300" cy="450" r="3"/>
    </g>
  
    <!-- Number "48" integrated -->
    <text x="450" y="50" font-family="Arial, sans-serif" font-size="28" font-weight="300" text-anchor="middle" fill="#1b5e20" opacity="0.5">48</text>
  
    <!-- Kanji character 四十八 -->
    <text x="80" y="50" font-family="serif" font-size="36" font-weight="bold" text-anchor="middle" fill="#1b5e20" opacity="0.9">四十八</text>
    </g>
  </g>
</svg> 