<svg xmlns="http://www.w3.org/2000/svg" width="500" height="500" viewBox="0 0 500 500">
  <defs>
    <linearGradient id="bgGrad49" x1="0%" y1="0%" x2="100%" y2="100%">
      <stop offset="0%" style="stop-color:#fce4ec;stop-opacity:1" />
      <stop offset="100%" style="stop-color:#f8bbd9;stop-opacity:1" />
    </linearGradient>
    <linearGradient id="cloudGrad49" x1="0%" y1="0%" x2="100%" y2="100%">
      <stop offset="0%" style="stop-color:#ffffff;stop-opacity:0.9" />
      <stop offset="50%" style="stop-color:#f48fb1;stop-opacity:0.7" />
      <stop offset="100%" style="stop-color:#ec407a;stop-opacity:0.8" />
    </linearGradient>
    <radialGradient id="skyGlow49" cx="50%" cy="50%" r="70%">
      <stop offset="0%" style="stop-color:#f8bbd9;stop-opacity:0.6" />
      <stop offset="100%" style="stop-color:#f8bbd9;stop-opacity:0" />
    </radialGradient>
    <linearGradient id="starGrad49" x1="0%" y1="0%" x2="100%" y2="100%">
      <stop offset="0%" style="stop-color:#fff59d;stop-opacity:1" />
      <stop offset="100%" style="stop-color:#ffb300;stop-opacity:1" />
    </linearGradient>
  </defs>
  
  <!-- Background -->
  <rect width="500" height="500" fill="url(#bgGrad49)"/>
  
  <!-- Nine clouds floating across the pink sunset sky -->
  <!-- Cloud formations representing the completion before 50 -->
  <g fill="url(#cloudGrad49)">
  <!-- Top row clouds -->
  <g transform="translate(100,80)">
  <ellipse cx="0" cy="0" rx="35" ry="20"/>
  <ellipse cx="-20" cy="5" rx="25" ry="15"/>
  <ellipse cx="20" cy="5" rx="30" ry="18"/>
  
  <g transform="translate(300,70)">
    <ellipse cx="0" cy="0" rx="40" ry="22"/>
    <ellipse cx="-25" cy="8" rx="30" ry="16"/>
    <ellipse cx="25" cy="8" rx="35" ry="20"/>
    
    <g transform="translate(450,90)">
      <ellipse cx="0" cy="0" rx="30" ry="18"/>
      <ellipse cx="-18" cy="6" rx="22" ry="12"/>
      <ellipse cx="18" cy="6" rx="25" ry="15"/>
    </g>
    
    <!-- Middle row clouds -->
    <g transform="translate(80,180)">
      <ellipse cx="0" cy="0" rx="45" ry="25"/>
      <ellipse cx="-28" cy="10" rx="35" ry="18"/>
      <ellipse cx="28" cy="10" rx="40" ry="22"/>
    </g>
    
    <g transform="translate(250,160)">
      <ellipse cx="0" cy="0" rx="50" ry="28"/>
      <ellipse cx="-30" cy="12" rx="38" ry="20"/>
      <ellipse cx="30" cy="12" rx="42" ry="24"/>
    </g>
    
    <g transform="translate(420,170)">
      <ellipse cx="0" cy="0" rx="35" ry="20"/>
      <ellipse cx="-22" cy="8" rx="28" ry="15"/>
      <ellipse cx="22" cy="8" rx="30" ry="18"/>
    </g>
    
    <!-- Bottom row clouds -->
    <g transform="translate(120,280)">
      <ellipse cx="0" cy="0" rx="40" ry="22"/>
      <ellipse cx="-25" cy="10" rx="30" ry="16"/>
      <ellipse cx="25" cy="10" rx="35" ry="20"/>
    </g>
    
    <g transform="translate(350,290)">
      <ellipse cx="0" cy="0" rx="38" ry="21"/>
      <ellipse cx="-23" cy="9" rx="28" ry="15"/>
      <ellipse cx="23" cy="9" rx="32" ry="18"/>
    </g>
    
    <g transform="translate(200,350)">
      <ellipse cx="0" cy="0" rx="42" ry="24"/>
      <ellipse cx="-26" cy="11" rx="32" ry="17"/>
      <ellipse cx="26" cy="11" rx="36" ry="20"/>
    </g>
    </g>
  
    <!-- Sunset glow -->
    <ellipse cx="250" cy="450" rx="300" ry="100" fill="url(#skyGlow49)" opacity="0.5"/>
  
    <!-- Nine twinkling stars scattered in the twilight -->
    <g fill="url(#starGrad49)">
    <g transform="translate(150,120)">
      <path d="M0,-8 L2,-2 L8,0 L2,2 L0,8 L-2,2 L-8,0 L-2,-2 Z"/>
    </g>
    <g transform="translate(380,110)">
      <path d="M0,-6 L1.5,-1.5 L6,0 L1.5,1.5 L0,6 L-1.5,1.5 L-6,0 L-1.5,-1.5 Z"/>
    </g>
    <g transform="translate(50,200)">
      <path d="M0,-5 L1.2,-1.2 L5,0 L1.2,1.2 L0,5 L-1.2,1.2 L-5,0 L-1.2,-1.2 Z"/>
    </g>
    <g transform="translate(470,180)">
      <path d="M0,-7 L1.8,-1.8 L7,0 L1.8,1.8 L0,7 L-1.8,1.8 L-7,0 L-1.8,-1.8 Z"/>
    </g>
    <g transform="translate(180,240)">
      <path d="M0,-4 L1,-1 L4,0 L1,1 L0,4 L-1,1 L-4,0 L-1,-1 Z"/>
    </g>
    <g transform="translate(320,220)">
      <path d="M0,-6 L1.5,-1.5 L6,0 L1.5,1.5 L0,6 L-1.5,1.5 L-6,0 L-1.5,-1.5 Z"/>
    </g>
    <g transform="translate(90,320)">
      <path d="M0,-5 L1.2,-1.2 L5,0 L1.2,1.2 L0,5 L-1.2,1.2 L-5,0 L-1.2,-1.2 Z"/>
    </g>
    <g transform="translate(420,340)">
      <path d="M0,-4 L1,-1 L4,0 L1,1 L0,4 L-1,1 L-4,0 L-1,-1 Z"/>
    </g>
    <g transform="translate(280,380)">
      <path d="M0,-6 L1.5,-1.5 L6,0 L1.5,1.5 L0,6 L-1.5,1.5 L-6,0 L-1.5,-1.5 Z"/>
    </g>
    </g>
  
    <!-- Gentle wind currents -->
    <g stroke="#f48fb1" stroke-width="2" fill="none" opacity="0.4">
    <path d="M30 140 Q80 130 130 140"/>
    <path d="M370 150 Q420 140 470 150"/>
    <path d="M50 250 Q100 240 150 250"/>
    <path d="M350 260 Q400 250 450 260"/>
    <path d="M80 360 Q130 350 180 360"/>
    <path d="M320 370 Q370 360 420 370"/>
    </g>
  
    <!-- Twilight shimmer -->
    <g fill="#ffffff" opacity="0.6">
    <circle cx="200" cy="150" r="2"/>
    <circle cx="300" cy="200" r="3"/>
    <circle cx="150" cy="300" r="2"/>
    <circle cx="380" cy="280" r="2"/>
    <circle cx="100" cy="380" r="3"/>
    <circle cx="400" cy="120" r="2"/>
    </g>
  
    <!-- Mountain silhouette -->
    <path d="M0 450 L100 380 L200 420 L300 390 L400 410 L500 380 L500 500 L0 500 Z" 
        fill="#ad1457" opacity="0.6"/>
  
    <!-- Number "49" integrated -->
    
    <!-- Kanji character 四十九 -->
    
    </g>
  </g>
</svg> 