<svg xmlns="http://www.w3.org/2000/svg" width="500" height="500" viewBox="0 0 500 500">
  <defs>
    <linearGradient id="bgGrad51" x1="0%" y1="0%" x2="100%" y2="100%">
      <stop offset="0%" style="stop-color:#e3f2fd;stop-opacity:1" />
      <stop offset="100%" style="stop-color:#90caf9;stop-opacity:1" />
    </linearGradient>
    <linearGradient id="phoenixGrad51" x1="0%" y1="0%" x2="100%" y2="100%">
      <stop offset="0%" style="stop-color:#ff6b35;stop-opacity:1" />
      <stop offset="50%" style="stop-color:#f7931e;stop-opacity:1" />
      <stop offset="100%" style="stop-color:#ffb300;stop-opacity:1" />
    </linearGradient>
    <radialGradient id="fireGlow51" cx="50%" cy="50%" r="60%">
      <stop offset="0%" style="stop-color:#fff59d;stop-opacity:0.8" />
      <stop offset="100%" style="stop-color:#ff6b35;stop-opacity:0" />
    </radialGradient>
    <linearGradient id="featherGrad51" x1="0%" y1="0%" x2="100%" y2="0%">
      <stop offset="0%" style="stop-color:#ff8a65;stop-opacity:1" />
      <stop offset="50%" style="stop-color:#ff7043;stop-opacity:1" />
      <stop offset="100%" style="stop-color:#d84315;stop-opacity:1" />
    </linearGradient>
  </defs>
  
  <!-- Background -->
  <rect width="500" height="500" fill="url(#bgGrad51)"/>
  
  <!-- Soaring phoenix representing rebirth and the beginning of a new cycle at 51 -->
  <g transform="translate(250,250)">
  <!-- Phoenix body -->
  <ellipse cx="0" cy="20" rx="40" ry="80" fill="url(#phoenixGrad51)"/>
  
  <!-- Phoenix head -->
  <ellipse cx="0" cy="-40" rx="25" ry="35" fill="url(#phoenixGrad51)"/>
  
  <!-- Phoenix beak -->
  <path d="M0 -60 L15 -70 L5 -50 Z" fill="#d84315"/>
  
  <!-- Phoenix eye -->
  <circle cx="8" cy="-45" r="4" fill="#ffffff"/>
  <circle cx="8" cy="-45" r="2" fill="#000000"/>
  
  <!-- Magnificent tail feathers -->
  <g fill="url(#featherGrad51)">
  <ellipse cx="-10" cy="100" rx="15" ry="60" transform="rotate(-20)"/>
  <ellipse cx="0" cy="110" rx="18" ry="70" transform="rotate(0)"/>
  <ellipse cx="10" cy="100" rx="15" ry="60" transform="rotate(20)"/>
  <ellipse cx="-20" cy="90" rx="12" ry="50" transform="rotate(-40)"/>
  <ellipse cx="20" cy="90" rx="12" ry="50" transform="rotate(40)"/>
  
  <!-- Wing spread wide -->
  <!-- Left wing -->
  <g transform="rotate(-30)">
    <ellipse cx="-50" cy="0" rx="70" ry="25" fill="url(#phoenixGrad51)" opacity="0.9"/>
    <ellipse cx="-70" cy="-5" rx="50" ry="20" fill="url(#featherGrad51)" opacity="0.8"/>
    <ellipse cx="-90" cy="-10" rx="30" ry="15" fill="url(#phoenixGrad51)" opacity="0.7"/>
    
    <!-- Right wing -->
    <g transform="rotate(30)">
      <ellipse cx="50" cy="0" rx="70" ry="25" fill="url(#phoenixGrad51)" opacity="0.9"/>
      <ellipse cx="70" cy="-5" rx="50" ry="20" fill="url(#featherGrad51)" opacity="0.8"/>
      <ellipse cx="90" cy="-10" rx="30" ry="15" fill="url(#phoenixGrad51)" opacity="0.7"/>
    </g>
    
    <!-- Flame aura -->
    <circle cx="0" cy="0" r="150" fill="url(#fireGlow51)" opacity="0.3"/>
    </g>
  
    <!-- Fire particles rising -->
    <g fill="#ff6b35" opacity="0.7">
    <circle cx="180" cy="380" r="4"/>
    <circle cx="200" cy="360" r="3"/>
    <circle cx="190" cy="340" r="2"/>
    <circle cx="210" cy="320" r="3"/>
    
    <circle cx="320" cy="390" r="3"/>
    <circle cx="310" cy="370" r="4"/>
    <circle cx="330" cy="350" r="2"/>
    <circle cx="315" cy="330" r="3"/>
    
    <circle cx="120" cy="200" r="2"/>
    <circle cx="380" cy="180" r="3"/>
    <circle cx="100" cy="300" r="2"/>
    <circle cx="400" cy="280" r="2"/>
    </g>
  
    <!-- Wind currents showing flight -->
    <g stroke="#ffb74d" stroke-width="3" fill="none" opacity="0.5">
    <path d="M50 200 Q150 180 250 200"/>
    <path d="M250 200 Q350 180 450 200"/>
    <path d="M80 300 Q180 280 280 300"/>
    <path d="M280 300 Q380 280 480 300"/>
    </g>
  
    <!-- Trailing flame streams -->
    <g stroke="#ff8a65" stroke-width="2" fill="none" opacity="0.6">
    <path d="M220 350 Q200 370 180 390"/>
    <path d="M280 350 Q300 370 320 390"/>
    <path d="M240 360 Q235 380 230 400"/>
    <path d="M260 360 Q265 380 270 400"/>
    </g>
  
    <!-- Celestial sparkles -->
    <g fill="#fff59d" opacity="0.8">
    <path d="M80 120 L85 115 L90 120 L85 125 Z"/>
    <path d="M420 100 L425 95 L430 100 L425 105 Z"/>
    <path d="M60 350 L65 345 L70 350 L65 355 Z"/>
    <path d="M440 380 L445 375 L450 380 L445 385 Z"/>
    <path d="M150 80 L153 77 L156 80 L153 83 Z"/>
    <path d="M350 90 L353 87 L356 90 L353 93 Z"/>
    </g>
  
    <!-- Mountain peaks in distance -->
    <path d="M0 450 L80 400 L160 440 L240 410 L320 445 L400 415 L480 450 L500 440 L500 500 L0 500 Z" 
        fill="#1976d2" opacity="0.4"/>
  
    <!-- Number "51" integrated -->
    
    <!-- Kanji character 五十一 -->
    
    </g>
  </g>
</svg> 