<svg xmlns="http://www.w3.org/2000/svg" width="500" height="500" viewBox="0 0 500 500">
  <defs>
    <linearGradient id="bgGrad53" x1="0%" y1="0%" x2="100%" y2="100%">
      <stop offset="0%" style="stop-color:#fff3e0;stop-opacity:1" />
      <stop offset="100%" style="stop-color:#ffcc80;stop-opacity:1" />
    </linearGradient>
    <linearGradient id="honeyGrad53" x1="0%" y1="0%" x2="100%" y2="100%">
      <stop offset="0%" style="stop-color:#ffb74d;stop-opacity:1" />
      <stop offset="50%" style="stop-color:#ff9800;stop-opacity:1" />
      <stop offset="100%" style="stop-color:#f57c00;stop-opacity:1" />
    </linearGradient>
    <radialGradient id="hexGlow53" cx="50%" cy="50%" r="50%">
      <stop offset="0%" style="stop-color:#fff59d;stop-opacity:0.8" />
      <stop offset="100%" style="stop-color:#ffb74d;stop-opacity:0" />
    </radialGradient>
    <linearGradient id="beeGrad53" x1="0%" y1="0%" x2="100%" y2="0%">
      <stop offset="0%" style="stop-color:#ffeb3b;stop-opacity:1" />
      <stop offset="50%" style="stop-color:#ffc107;stop-opacity:1" />
      <stop offset="100%" style="stop-color:#ff6f00;stop-opacity:1" />
    </linearGradient>
  </defs>
  
  <!-- Background -->
  <rect width="500" height="500" fill="url(#bgGrad53)"/>
  
  <!-- Honeycomb pattern representing community and productivity -->
  <!-- Central hexagon cluster -->
  <g transform="translate(250,250)" fill="url(#honeyGrad53)" opacity="0.9">
  <!-- Center hex -->
  <polygon points="0,-30 26,-15 26,15 0,30 -26,15 -26,-15"/>
  
  <!-- Surrounding hexagons -->
  <polygon points="52,-30 78,-15 78,15 52,30 26,15 26,-15"/>
  <polygon points="26,-60 52,-45 52,-15 26,0 0,-15 0,-45"/>
  <polygon points="-26,-60 0,-45 0,-15 -26,0 -52,-15 -52,-45"/>
  <polygon points="-52,-30 -26,-15 -26,15 -52,30 -78,15 -78,-15"/>
  <polygon points="-26,30 0,45 0,75 -26,90 -52,75 -52,45"/>
  <polygon points="26,30 52,45 52,75 26,90 0,75 0,45"/>
  
  <!-- Additional honeycomb layers -->
  <g transform="translate(120,150)" fill="url(#honeyGrad53)" opacity="0.7">
  <polygon points="0,-20 17,-10 17,10 0,20 -17,10 -17,-10"/>
  <polygon points="34,-20 51,-10 51,10 34,20 17,10 17,-10"/>
  <polygon points="17,-40 34,-30 34,-10 17,0 0,-10 0,-30"/>
  
    <g transform="translate(380,180)" fill="url(#honeyGrad53)" opacity="0.7">
    <polygon points="0,-20 17,-10 17,10 0,20 -17,10 -17,-10"/>
    <polygon points="-34,-20 -17,-10 -17,10 -34,20 -51,10 -51,-10"/>
    <polygon points="-17,-40 0,-30 0,-10 -17,0 -34,-10 -34,-30"/>
    </g>
  
    <g transform="translate(150,380)" fill="url(#honeyGrad53)" opacity="0.6">
    <polygon points="0,-15 13,-7 13,7 0,15 -13,7 -13,-7"/>
    <polygon points="26,-15 39,-7 39,7 26,15 13,7 13,-7"/>
    </g>
  
    <g transform="translate(350,400)" fill="url(#honeyGrad53)" opacity="0.6">
    <polygon points="0,-15 13,-7 13,7 0,15 -13,7 -13,-7"/>
    <polygon points="-26,-15 -13,-7 -13,7 -26,15 -39,7 -39,-7"/>
    </g>
  
    <!-- Three flying bees representing 53 -->
    <g transform="translate(100,120)">
    <!-- Bee body -->
    <ellipse cx="0" cy="0" rx="15" ry="8" fill="url(#beeGrad53)"/>
    <!-- Bee stripes -->
    <rect x="-8" y="-4" width="3" height="8" fill="#8d6e63"/>
    <rect x="5" y="-4" width="3" height="8" fill="#8d6e63"/>
    <!-- Wings -->
    <ellipse cx="-5" cy="-8" rx="8" ry="4" fill="#ffffff" opacity="0.7"/>
    <ellipse cx="5" cy="-8" rx="8" ry="4" fill="#ffffff" opacity="0.7"/>
    <!-- Trail -->
    <path d="M-20 0 Q-30 -5 -40 0" stroke="#ffb74d" stroke-width="2" fill="none" opacity="0.5"/>
    </g>
  
    <g transform="translate(400,280)">
    <!-- Bee body -->
    <ellipse cx="0" cy="0" rx="15" ry="8" fill="url(#beeGrad53)" transform="rotate(45)"/>
    <!-- Bee stripes -->
    <rect x="-8" y="-4" width="3" height="8" fill="#8d6e63" transform="rotate(45)"/>
    <rect x="5" y="-4" width="3" height="8" fill="#8d6e63" transform="rotate(45)"/>
    <!-- Wings -->
    <ellipse cx="-5" cy="-8" rx="8" ry="4" fill="#ffffff" opacity="0.7" transform="rotate(45)"/>
    <ellipse cx="5" cy="-8" rx="8" ry="4" fill="#ffffff" opacity="0.7" transform="rotate(45)"/>
    <!-- Trail -->
    <path d="M20 -20 Q30 -30 40 -20" stroke="#ffb74d" stroke-width="2" fill="none" opacity="0.5"/>
    </g>
  
    <g transform="translate(80,380)">
    <!-- Bee body -->
    <ellipse cx="0" cy="0" rx="15" ry="8" fill="url(#beeGrad53)" transform="rotate(-30)"/>
    <!-- Bee stripes -->
    <rect x="-8" y="-4" width="3" height="8" fill="#8d6e63" transform="rotate(-30)"/>
    <rect x="5" y="-4" width="3" height="8" fill="#8d6e63" transform="rotate(-30)"/>
    <!-- Wings -->
    <ellipse cx="-5" cy="-8" rx="8" ry="4" fill="#ffffff" opacity="0.7" transform="rotate(-30)"/>
    <ellipse cx="5" cy="-8" rx="8" ry="4" fill="#ffffff" opacity="0.7" transform="rotate(-30)"/>
    <!-- Trail -->
    <path d="M-15 15 Q-25 25 -35 20" stroke="#ffb74d" stroke-width="2" fill="none" opacity="0.5"/>
    </g>
  
    <!-- Golden honey drops -->
    <g fill="#ffc107" opacity="0.8">
    <circle cx="180" cy="200" r="4"/>
    <circle cx="320" cy="220" r="3"/>
    <circle cx="200" cy="350" r="5"/>
    <circle cx="350" cy="320" r="4"/>
    <circle cx="140" cy="280" r="3"/>
    <circle cx="380" cy="260" r="4"/>
    </g>
  
    <!-- Honeycomb glow effects -->
    <g opacity="0.4">
    <circle cx="250" cy="250" r="80" fill="url(#hexGlow53)"/>
    <circle cx="120" cy="150" r="40" fill="url(#hexGlow53)"/>
    <circle cx="380" cy="180" r="40" fill="url(#hexGlow53)"/>
    </g>
  
    <!-- Flower nectar sources -->
    <g fill="#ff5722" opacity="0.6">
    <circle cx="60" cy="100" r="8"/>
    <circle cx="440" cy="120" r="6"/>
    <circle cx="50" cy="400" r="7"/>
    <circle cx="450" cy="380" r="5"/>
    <!-- Petals around flowers -->
    <g fill="#ff8a65" opacity="0.5">
      <ellipse cx="60" cy="85" rx="4" ry="8"/>
      <ellipse cx="75" cy="100" rx="8" ry="4"/>
      <ellipse cx="60" cy="115" rx="4" ry="8"/>
      <ellipse cx="45" cy="100" rx="8" ry="4"/>
    </g>
    </g>
  
    <!-- Flight paths -->
    <g stroke="#ffb74d" stroke-width="1" fill="none" opacity="0.4">
    <path d="M100 120 Q200 150 300 120"/>
    <path d="M400 280 Q300 320 200 300"/>
    <path d="M80 380 Q180 350 280 380"/>
    </g>
  
    <!-- Number "53" integrated -->
    
    <!-- Kanji character 五十三 -->
    
    </g>
  </g>
</svg> 