<svg xmlns="http://www.w3.org/2000/svg" width="500" height="500" viewBox="0 0 500 500">
  <defs>
    <linearGradient id="bgGrad54" x1="0%" y1="0%" x2="100%" y2="100%">
      <stop offset="0%" style="stop-color:#e8eaf6;stop-opacity:1" />
      <stop offset="100%" style="stop-color:#c5cae9;stop-opacity:1" />
    </linearGradient>
    <linearGradient id="windGrad54" x1="0%" y1="0%" x2="100%" y2="0%">
      <stop offset="0%" style="stop-color:#9fa8da;stop-opacity:1" />
      <stop offset="50%" style="stop-color:#7986cb;stop-opacity:1" />
      <stop offset="100%" style="stop-color:#5c6bc0;stop-opacity:1" />
    </linearGradient>
    <radialGradient id="vortexGlow54" cx="50%" cy="50%" r="60%">
      <stop offset="0%" style="stop-color:#e8eaf6;stop-opacity:0.8" />
      <stop offset="100%" style="stop-color:#9fa8da;stop-opacity:0" />
    </radialGradient>
    <linearGradient id="leafGrad54" x1="0%" y1="0%" x2="100%" y2="100%">
      <stop offset="0%" style="stop-color:#a5d6a7;stop-opacity:1" />
      <stop offset="100%" style="stop-color:#66bb6a;stop-opacity:1" />
    </linearGradient>
  </defs>
  
  <!-- Background -->
  <rect width="500" height="500" fill="url(#bgGrad54)"/>
  
  <!-- Four spiraling wind currents representing the dynamic nature of 54 -->
  <!-- Central vortex -->
  <g transform="translate(250,250)">
  <circle cx="0" cy="0" r="100" fill="url(#vortexGlow54)" opacity="0.3"/>
  
  <!-- Spiral arms -->
  <g stroke="url(#windGrad54)" stroke-width="6" fill="none" opacity="0.8">
  <path d="M0 -80 Q-60 -60 -80 0 Q-60 60 0 80 Q60 60 80 0 Q60 -60 0 -80"/>
  <path d="M0 -60 Q-45 -45 -60 0 Q-45 45 0 60 Q45 45 60 0 Q45 -45 0 -60"/>
  <path d="M0 -40 Q-30 -30 -40 0 Q-30 30 0 40 Q30 30 40 0 Q30 -30 0 -40"/>
  <path d="M0 -20 Q-15 -15 -20 0 Q-15 15 0 20 Q15 15 20 0 Q15 -15 0 -20"/>
  
    <!-- Four corner wind spirals -->
    <g transform="translate(120,120)">
    <g stroke="url(#windGrad54)" stroke-width="4" fill="none" opacity="0.6">
      <path d="M0 -30 Q-22 -22 -30 0 Q-22 22 0 30 Q22 22 30 0 Q22 -22 0 -30"/>
    </g>
    <circle cx="0" cy="0" r="40" fill="url(#vortexGlow54)" opacity="0.2"/>
    </g>
  
    <g transform="translate(380,120)">
    <g stroke="url(#windGrad54)" stroke-width="4" fill="none" opacity="0.6">
      <path d="M0 -30 Q-22 -22 -30 0 Q-22 22 0 30 Q22 22 30 0 Q22 -22 0 -30"/>
    </g>
    <circle cx="0" cy="0" r="40" fill="url(#vortexGlow54)" opacity="0.2"/>
    </g>
  
    <g transform="translate(120,380)">
    <g stroke="url(#windGrad54)" stroke-width="4" fill="none" opacity="0.6">
      <path d="M0 -30 Q-22 -22 -30 0 Q-22 22 0 30 Q22 22 30 0 Q22 -22 0 -30"/>
    </g>
    <circle cx="0" cy="0" r="40" fill="url(#vortexGlow54)" opacity="0.2"/>
    </g>
  
    <g transform="translate(380,380)">
    <g stroke="url(#windGrad54)" stroke-width="4" fill="none" opacity="0.6">
      <path d="M0 -30 Q-22 -22 -30 0 Q-22 22 0 30 Q22 22 30 0 Q22 -22 0 -30"/>
    </g>
    <circle cx="0" cy="0" r="40" fill="url(#vortexGlow54)" opacity="0.2"/>
    </g>
  
    <!-- Swirling leaves caught in the wind -->
    <g fill="url(#leafGrad54)" opacity="0.7">
    <g transform="translate(180,160) rotate(45)">
      <ellipse cx="0" cy="0" rx="12" ry="6"/>
    </g>
    <g transform="translate(320,180) rotate(-30)">
      <ellipse cx="0" cy="0" rx="10" ry="5"/>
    </g>
    <g transform="translate(160,340) rotate(120)">
      <ellipse cx="0" cy="0" rx="14" ry="7"/>
    </g>
    <g transform="translate(340,320) rotate(-60)">
      <ellipse cx="0" cy="0" rx="11" ry="6"/>
    </g>
    <g transform="translate(220,300) rotate(90)">
      <ellipse cx="0" cy="0" rx="9" ry="4"/>
    </g>
    <g transform="translate(280,200) rotate(15)">
      <ellipse cx="0" cy="0" rx="13" ry="6"/>
    </g>
    </g>
  
    <!-- Wind trails and motion lines -->
    <g stroke="#9fa8da" stroke-width="2" fill="none" opacity="0.5">
    <path d="M50 100 Q150 80 250 100"/>
    <path d="M450 150 Q350 130 250 150"/>
    <path d="M50 350 Q150 370 250 350"/>
    <path d="M450 400 Q350 420 250 400"/>
    
    <path d="M100 50 Q120 150 100 250"/>
    <path d="M400 50 Q380 150 400 250"/>
    <path d="M100 450 Q120 350 100 250"/>
    <path d="M400 450 Q380 350 400 250"/>
    </g>
  
    <!-- Floating wind particles -->
    <g fill="#c5cae9" opacity="0.6">
    <circle cx="90" cy="200" r="3"/>
    <circle cx="410" cy="180" r="2"/>
    <circle cx="200" cy="90" r="4"/>
    <circle cx="300" cy="410" r="3"/>
    <circle cx="150" cy="250" r="2"/>
    <circle cx="350" cy="250" r="3"/>
    <circle cx="250" cy="150" r="2"/>
    <circle cx="250" cy="350" r="4"/>
    </g>
  
    <!-- Dynamic wind gusts -->
    <g stroke="#7986cb" stroke-width="3" fill="none" opacity="0.4">
    <path d="M80 80 Q120 100 160 80"/>
    <path d="M340 80 Q380 100 420 80"/>
    <path d="M80 420 Q120 400 160 420"/>
    <path d="M340 420 Q380 400 420 420"/>
    </g>
  
    <!-- Energy pulses from center -->
    <g stroke="#5c6bc0" stroke-width="1" fill="none" opacity="0.3">
    <circle cx="250" cy="250" r="120"/>
    <circle cx="250" cy="250" r="140"/>
    <circle cx="250" cy="250" r="160"/>
    </g>
  
    <!-- Atmospheric sparkles -->
    <g fill="#ffffff" opacity="0.7">
    <path d="M130 130 L135 125 L140 130 L135 135 Z"/>
    <path d="M370 130 L375 125 L380 130 L375 135 Z"/>
    <path d="M130 370 L135 365 L140 370 L135 375 Z"/>
    <path d="M370 370 L375 365 L380 370 L375 375 Z"/>
    <path d="M250 80 L253 77 L256 80 L253 83 Z"/>
    <path d="M250 420 L253 417 L256 420 L253 423 Z"/>
    </g>
  
    <!-- Number "54" integrated -->
    <text x="450" y="50" font-family="Arial, sans-serif" font-size="28" font-weight="300" text-anchor="middle" fill="#3f51b5" opacity="0.5">54</text>
  
    <!-- Kanji character 五十四 -->
    <text x="80" y="50" font-family="serif" font-size="36" font-weight="bold" text-anchor="middle" fill="#3f51b5" opacity="0.9">五十四</text>
    </g>
  </g>
</svg> 