<svg xmlns="http://www.w3.org/2000/svg" width="500" height="500" viewBox="0 0 500 500">
  <defs>
    <linearGradient id="bgGrad55" x1="0%" y1="0%" x2="100%" y2="100%">
      <stop offset="0%" style="stop-color:#f1f8e9;stop-opacity:1" />
      <stop offset="100%" style="stop-color:#dcedc8;stop-opacity:1" />
    </linearGradient>
    <linearGradient id="starGrad55" x1="0%" y1="0%" x2="100%" y2="100%">
      <stop offset="0%" style="stop-color:#ffd54f;stop-opacity:1" />
      <stop offset="50%" style="stop-color:#ffeb3b;stop-opacity:1" />
      <stop offset="100%" style="stop-color:#ffc107;stop-opacity:1" />
    </linearGradient>
    <radialGradient id="stellarGlow55" cx="50%" cy="50%" r="50%">
      <stop offset="0%" style="stop-color:#fff59d;stop-opacity:0.9" />
      <stop offset="100%" style="stop-color:#fff59d;stop-opacity:0" />
    </radialGradient>
    <linearGradient id="galaxyGrad55" x1="0%" y1="0%" x2="100%" y2="0%">
      <stop offset="0%" style="stop-color:#8bc34a;stop-opacity:0.6" />
      <stop offset="50%" style="stop-color:#4caf50;stop-opacity:0.6" />
      <stop offset="100%" style="stop-color:#2e7d32;stop-opacity:0.6" />
    </linearGradient>
  </defs>
  
  <!-- Background -->
  <rect width="500" height="500" fill="url(#bgGrad55)"/>
  
  <!-- Five stellar constellations representing the harmony of 55 -->
  <!-- Central constellation -->
  <g transform="translate(250,250)">
  <circle cx="0" cy="0" r="60" fill="url(#stellarGlow55)" opacity="0.4"/>
  
  <!-- Five-pointed star formation -->
  <g fill="url(#starGrad55)">
  <g transform="translate(0,-40)">
    <path d="M0,-8 L2.4,-2.4 L8,0 L2.4,2.4 L0,8 L-2.4,2.4 L-8,0 L-2.4,-2.4 Z"/>
    <g transform="translate(38,12)">
      <path d="M0,-6 L1.8,-1.8 L6,0 L1.8,1.8 L0,6 L-1.8,1.8 L-6,0 L-1.8,-1.8 Z"/>
      <g transform="translate(24,32)">
        <path d="M0,-5 L1.5,-1.5 L5,0 L1.5,1.5 L0,5 L-1.5,1.5 L-5,0 L-1.5,-1.5 Z"/>
      </g>
      <g transform="translate(-24,32)">
        <path d="M0,-5 L1.5,-1.5 L5,0 L1.5,1.5 L0,5 L-1.5,1.5 L-5,0 L-1.5,-1.5 Z"/>
      </g>
      <g transform="translate(-38,12)">
        <path d="M0,-6 L1.8,-1.8 L6,0 L1.8,1.8 L0,6 L-1.8,1.8 L-6,0 L-1.8,-1.8 Z"/>
      </g>
    </g>
    
    <!-- Connecting stellar energy -->
    <g stroke="#ffeb3b" stroke-width="1" fill="none" opacity="0.5">
      <path d="M0 -40 L38 12"/>
      <path d="M38 12 L24 32"/>
      <path d="M24 32 L-24 32"/>
      <path d="M-24 32 L-38 12"/>
      <path d="M-38 12 L0 -40"/>
    </g>
    </g>
  
    <!-- Four corner constellations -->
    <g transform="translate(120,120)">
    <circle cx="0" cy="0" r="30" fill="url(#stellarGlow55)" opacity="0.3"/>
    <g fill="url(#starGrad55)">
      <g transform="translate(0,-15)">
        <path d="M0,-4 L1.2,-1.2 L4,0 L1.2,1.2 L0,4 L-1.2,1.2 L-4,0 L-1.2,-1.2 Z"/>
      </g>
      <g transform="translate(13,8)">
        <path d="M0,-3 L0.9,-0.9 L3,0 L0.9,0.9 L0,3 L-0.9,0.9 L-3,0 L-0.9,-0.9 Z"/>
      </g>
      <g transform="translate(-13,8)">
        <path d="M0,-3 L0.9,-0.9 L3,0 L0.9,0.9 L0,3 L-0.9,0.9 L-3,0 L-0.9,-0.9 Z"/>
      </g>
    </g>
    </g>
  
    <g transform="translate(380,120)">
    <circle cx="0" cy="0" r="30" fill="url(#stellarGlow55)" opacity="0.3"/>
    <g fill="url(#starGrad55)">
      <g transform="translate(0,-15)">
        <path d="M0,-4 L1.2,-1.2 L4,0 L1.2,1.2 L0,4 L-1.2,1.2 L-4,0 L-1.2,-1.2 Z"/>
      </g>
      <g transform="translate(13,8)">
        <path d="M0,-3 L0.9,-0.9 L3,0 L0.9,0.9 L0,3 L-0.9,0.9 L-3,0 L-0.9,-0.9 Z"/>
      </g>
      <g transform="translate(-13,8)">
        <path d="M0,-3 L0.9,-0.9 L3,0 L0.9,0.9 L0,3 L-0.9,0.9 L-3,0 L-0.9,-0.9 Z"/>
      </g>
    </g>
    </g>
  
    <g transform="translate(120,380)">
    <circle cx="0" cy="0" r="30" fill="url(#stellarGlow55)" opacity="0.3"/>
    <g fill="url(#starGrad55)">
      <g transform="translate(0,-15)">
        <path d="M0,-4 L1.2,-1.2 L4,0 L1.2,1.2 L0,4 L-1.2,1.2 L-4,0 L-1.2,-1.2 Z"/>
      </g>
      <g transform="translate(13,8)">
        <path d="M0,-3 L0.9,-0.9 L3,0 L0.9,0.9 L0,3 L-0.9,0.9 L-3,0 L-0.9,-0.9 Z"/>
      </g>
      <g transform="translate(-13,8)">
        <path d="M0,-3 L0.9,-0.9 L3,0 L0.9,0.9 L0,3 L-0.9,0.9 L-3,0 L-0.9,-0.9 Z"/>
      </g>
    </g>
    </g>
  
    <g transform="translate(380,380)">
    <circle cx="0" cy="0" r="30" fill="url(#stellarGlow55)" opacity="0.3"/>
    <g fill="url(#starGrad55)">
      <g transform="translate(0,-15)">
        <path d="M0,-4 L1.2,-1.2 L4,0 L1.2,1.2 L0,4 L-1.2,1.2 L-4,0 L-1.2,-1.2 Z"/>
      </g>
      <g transform="translate(13,8)">
        <path d="M0,-3 L0.9,-0.9 L3,0 L0.9,0.9 L0,3 L-0.9,0.9 L-3,0 L-0.9,-0.9 Z"/>
      </g>
      <g transform="translate(-13,8)">
        <path d="M0,-3 L0.9,-0.9 L3,0 L0.9,0.9 L0,3 L-0.9,0.9 L-3,0 L-0.9,-0.9 Z"/>
      </g>
    </g>
    </g>
  
    <!-- Galactic spiral connecting all constellations -->
    <g stroke="url(#galaxyGrad55)" stroke-width="2" fill="none" opacity="0.6">
    <path d="M120 120 Q200 150 250 250"/>
    <path d="M250 250 Q300 150 380 120"/>
    <path d="M380 120 Q350 200 250 250"/>
    <path d="M250 250 Q200 350 120 380"/>
    <path d="M120 380 Q350 350 380 380"/>
    </g>
  
    <!-- Cosmic dust and nebula -->
    <g fill="#c8e6c9" opacity="0.4">
    <circle cx="180" cy="180" r="5"/>
    <circle cx="320" cy="180" r="4"/>
    <circle cx="180" cy="320" r="6"/>
    <circle cx="320" cy="320" r="4"/>
    <circle cx="250" cy="120" r="3"/>
    <circle cx="250" cy="380" r="5"/>
    <circle cx="80" cy="250" r="4"/>
    <circle cx="420" cy="250" r="3"/>
    </g>
  
    <!-- Stellar wind patterns -->
    <g stroke="#a5d6a7" stroke-width="1" fill="none" opacity="0.4">
    <path d="M50 50 Q150 100 250 50"/>
    <path d="M250 50 Q350 100 450 50"/>
    <path d="M450 150 Q400 250 450 350"/>
    <path d="M450 350 Q350 400 250 450"/>
    <path d="M250 450 Q150 400 50 450"/>
    <path d="M50 350 Q100 250 50 150"/>
    </g>
  
    <!-- Celestial sparkles -->
    <g fill="#ffffff" opacity="0.8">
    <circle cx="90" cy="90" r="2"/>
    <circle cx="410" cy="90" r="3"/>
    <circle cx="90" cy="410" r="2"/>
    <circle cx="410" cy="410" r="2"/>
    <circle cx="250" cy="80" r="2"/>
    <circle cx="250" cy="420" r="3"/>
    <circle cx="60" cy="250" r="2"/>
    <circle cx="440" cy="250" r="2"/>
    </g>
  
    <!-- Sacred geometry pentagram -->
    <g stroke="#ffeb3b" stroke-width="1" fill="none" opacity="0.3">
    <path d="M250 100 L320 220 L180 160 L320 160 L180 220 Z"/>
    </g>
  
    <!-- Number "55" integrated -->
    <text x="450" y="50" font-family="Arial, sans-serif" font-size="28" font-weight="300" text-anchor="middle" fill="#689f38" opacity="0.5">55</text>
  
    <!-- Kanji character 五十五 -->
    <text x="80" y="50" font-family="serif" font-size="36" font-weight="bold" text-anchor="middle" fill="#689f38" opacity="0.9">五十五</text>
    </g>
  </g>
</svg> 