<svg xmlns="http://www.w3.org/2000/svg" width="500" height="500" viewBox="0 0 500 500">
  <defs>
    <linearGradient id="bgGrad56" x1="0%" y1="0%" x2="100%" y2="100%">
      <stop offset="0%" style="stop-color:#e1f5fe;stop-opacity:1" />
      <stop offset="100%" style="stop-color:#b3e5fc;stop-opacity:1" />
    </linearGradient>
    <linearGradient id="iceGrad56" x1="0%" y1="0%" x2="100%" y2="100%">
      <stop offset="0%" style="stop-color:#e1f5fe;stop-opacity:1" />
      <stop offset="50%" style="stop-color:#81d4fa;stop-opacity:1" />
      <stop offset="100%" style="stop-color:#29b6f6;stop-opacity:1" />
    </linearGradient>
    <radialGradient id="crystalGlow56" cx="50%" cy="50%" r="50%">
      <stop offset="0%" style="stop-color:#ffffff;stop-opacity:0.9" />
      <stop offset="100%" style="stop-color:#81d4fa;stop-opacity:0" />
    </radialGradient>
    <linearGradient id="prismGrad56" x1="0%" y1="0%" x2="100%" y2="0%">
      <stop offset="0%" style="stop-color:#e3f2fd;stop-opacity:0.8" />
      <stop offset="25%" style="stop-color:#bbdefb;stop-opacity:0.8" />
      <stop offset="50%" style="stop-color:#90caf9;stop-opacity:0.8" />
      <stop offset="75%" style="stop-color:#64b5f6;stop-opacity:0.8" />
      <stop offset="100%" style="stop-color:#42a5f5;stop-opacity:0.8" />
    </linearGradient>
  </defs>
  
  <!-- Background -->
  <rect width="500" height="500" fill="url(#bgGrad56)"/>
  
  <!-- Six crystalline ice formations representing clarity and structure -->
  <!-- Central hexagonal crystal -->
  <g transform="translate(250,250)">
  <circle cx="0" cy="0" r="70" fill="url(#crystalGlow56)" opacity="0.4"/>
  
  <!-- Hexagonal ice crystal -->
  <polygon points="0,-50 43,-25 43,25 0,50 -43,25 -43,-25" fill="url(#iceGrad56)" opacity="0.9"/>
  <polygon points="0,-40 35,-20 35,20 0,40 -35,20 -35,-20" fill="url(#prismGrad56)" opacity="0.7"/>
  
  <!-- Inner hexagonal pattern -->
  <polygon points="0,-20 17,-10 17,10 0,20 -17,10 -17,-10" fill="#ffffff" opacity="0.8"/>
  
  <!-- Crystal fractal details -->
  <g stroke="#29b6f6" stroke-width="1" fill="none" opacity="0.6">
  <line x1="0" y1="-50" x2="0" y2="50"/>
  <line x1="-43" y1="-25" x2="43" y2="25"/>
  <line x1="-43" y1="25" x2="43" y2="-25"/>
  
    <!-- Five surrounding ice crystals -->
    <g transform="translate(150,150)">
    <circle cx="0" cy="0" r="40" fill="url(#crystalGlow56)" opacity="0.3"/>
    <polygon points="0,-30 26,-15 26,15 0,30 -26,15 -26,-15" fill="url(#iceGrad56)" opacity="0.8"/>
    <polygon points="0,-20 17,-10 17,10 0,20 -17,10 -17,-10" fill="url(#prismGrad56)" opacity="0.6"/>
    </g>
  
    <g transform="translate(350,150)">
    <circle cx="0" cy="0" r="40" fill="url(#crystalGlow56)" opacity="0.3"/>
    <polygon points="0,-30 26,-15 26,15 0,30 -26,15 -26,-15" fill="url(#iceGrad56)" opacity="0.8"/>
    <polygon points="0,-20 17,-10 17,10 0,20 -17,10 -17,-10" fill="url(#prismGrad56)" opacity="0.6"/>
    </g>
  
    <g transform="translate(100,350)">
    <circle cx="0" cy="0" r="35" fill="url(#crystalGlow56)" opacity="0.3"/>
    <polygon points="0,-25 22,-12 22,12 0,25 -22,12 -22,-12" fill="url(#iceGrad56)" opacity="0.8"/>
    <polygon points="0,-15 13,-7 13,7 0,15 -13,7 -13,-7" fill="url(#prismGrad56)" opacity="0.6"/>
    </g>
  
    <g transform="translate(400,350)">
    <circle cx="0" cy="0" r="35" fill="url(#crystalGlow56)" opacity="0.3"/>
    <polygon points="0,-25 22,-12 22,12 0,25 -22,12 -22,-12" fill="url(#iceGrad56)" opacity="0.8"/>
    <polygon points="0,-15 13,-7 13,7 0,15 -13,7 -13,-7" fill="url(#prismGrad56)" opacity="0.6"/>
    </g>
  
    <g transform="translate(250,80)">
    <circle cx="0" cy="0" r="30" fill="url(#crystalGlow56)" opacity="0.3"/>
    <polygon points="0,-20 17,-10 17,10 0,20 -17,10 -17,-10" fill="url(#iceGrad56)" opacity="0.8"/>
    <polygon points="0,-12 10,-6 10,6 0,12 -10,6 -10,-6" fill="url(#prismGrad56)" opacity="0.6"/>
    </g>
  
    <!-- Connecting frost patterns -->
    <g stroke="#81d4fa" stroke-width="2" fill="none" opacity="0.5">
    <path d="M207 207 L250 250"/>
    <path d="M293 207 L250 250"/>
    <path d="M250 130 L250 250"/>
    <path d="M143 293 L250 250"/>
    <path d="M357 293 L250 250"/>
    </g>
  
    <!-- Ice crystal fractals -->
    <g stroke="#29b6f6" stroke-width="1" fill="none" opacity="0.4">
    <g transform="translate(150,150)">
      <line x1="0" y1="-30" x2="0" y2="30"/>
      <line x1="-26" y1="-15" x2="26" y2="15"/>
      <line x1="-26" y1="15" x2="26" y2="-15"/>
    </g>
    <g transform="translate(350,150)">
      <line x1="0" y1="-30" x2="0" y2="30"/>
      <line x1="-26" y1="-15" x2="26" y2="15"/>
      <line x1="-26" y1="15" x2="26" y2="-15"/>
    </g>
    <g transform="translate(100,350)">
      <line x1="0" y1="-25" x2="0" y2="25"/>
      <line x1="-22" y1="-12" x2="22" y2="12"/>
      <line x1="-22" y1="12" x2="22" y2="-12"/>
    </g>
    <g transform="translate(400,350)">
      <line x1="0" y1="-25" x2="0" y2="25"/>
      <line x1="-22" y1="-12" x2="22" y2="12"/>
      <line x1="-22" y1="12" x2="22" y2="-12"/>
    </g>
    </g>
  
    <!-- Floating ice particles -->
    <g fill="#e3f2fd" opacity="0.7">
    <circle cx="80" cy="120" r="3"/>
    <circle cx="420" cy="100" r="4"/>
    <circle cx="60" cy="300" r="3"/>
    <circle cx="440" cy="280" r="2"/>
    <circle cx="200" cy="80" r="2"/>
    <circle cx="300" cy="420" r="3"/>
    <circle cx="180" cy="380" r="2"/>
    <circle cx="320" cy="120" r="3"/>
    </g>
  
    <!-- Prismatic light reflections -->
    <g stroke="url(#prismGrad56)" stroke-width="1" fill="none" opacity="0.5">
    <path d="M120 120 L180 80"/>
    <path d="M380 120 L320 80"/>
    <path d="M70 320 L120 280"/>
    <path d="M430 320 L380 280"/>
    <path d="M220 60 L280 100"/>
    <path d="M220 440 L280 400"/>
    </g>
  
    <!-- Crystalline sparkles -->
    <g fill="#ffffff" opacity="0.9">
    <path d="M90 90 L95 85 L100 90 L95 95 Z"/>
    <path d="M410 90 L415 85 L420 90 L415 95 Z"/>
    <path d="M90 410 L95 405 L100 410 L95 415 Z"/>
    <path d="M410 410 L415 405 L420 410 L415 415 Z"/>
    <path d="M250 60 L253 57 L256 60 L253 63 Z"/>
    <path d="M50 250 L53 247 L56 250 L53 253 Z"/>
    <path d="M450 250 L453 247 L456 250 L453 253 Z"/>
    </g>
  
    <!-- Cold mist effects -->
    <g fill="url(#crystalGlow56)" opacity="0.2">
    <ellipse cx="180" cy="400" rx="60" ry="20"/>
    <ellipse cx="320" cy="100" rx="50" ry="15"/>
    <ellipse cx="80" cy="200" rx="40" ry="12"/>
    <ellipse cx="420" cy="300" rx="45" ry="18"/>
    </g>
  
    <!-- Number "56" integrated -->
    
    <!-- Kanji character 五十六 -->
    
    </g>
  </g>
</svg> 