<svg xmlns="http://www.w3.org/2000/svg" width="500" height="500" viewBox="0 0 500 500">
  <defs>
    <linearGradient id="bgGrad57" x1="0%" y1="0%" x2="100%" y2="100%">
      <stop offset="0%" style="stop-color:#faf2ff;stop-opacity:1" />
      <stop offset="100%" style="stop-color:#e8d5ff;stop-opacity:1" />
    </linearGradient>
    <linearGradient id="aurorGrad57" x1="0%" y1="0%" x2="100%" y2="0%">
      <stop offset="0%" style="stop-color:#ba68c8;stop-opacity:0.8" />
      <stop offset="25%" style="stop-color:#ab47bc;stop-opacity:0.8" />
      <stop offset="50%" style="stop-color:#9c27b0;stop-opacity:0.8" />
      <stop offset="75%" style="stop-color:#8e24aa;stop-opacity:0.8" />
      <stop offset="100%" style="stop-color:#7b1fa2;stop-opacity:0.8" />
    </linearGradient>
    <radialGradient id="mysticGlow57" cx="50%" cy="50%" r="60%">
      <stop offset="0%" style="stop-color:#e1bee7;stop-opacity:0.7" />
      <stop offset="100%" style="stop-color:#e1bee7;stop-opacity:0" />
    </radialGradient>
    <linearGradient id="veilGrad57" x1="0%" y1="0%" x2="0%" y2="100%">
      <stop offset="0%" style="stop-color:#ffffff;stop-opacity:0.9" />
      <stop offset="50%" style="stop-color:#f3e5f5;stop-opacity:0.6" />
      <stop offset="100%" style="stop-color:#e1bee7;stop-opacity:0.3" />
    </linearGradient>
  </defs>
  
  <!-- Background -->
  <rect width="500" height="500" fill="url(#bgGrad57)"/>
  
  <!-- Seven mystical veils dancing in the cosmic wind -->
  <!-- Central aurora veil -->
  <g transform="translate(250,250)">
  <ellipse cx="0" cy="0" rx="100" ry="80" fill="url(#mysticGlow57)" opacity="0.4"/>
  
  <!-- Main flowing veil -->
  <path d="M-80 -60 Q-40 -80 0 -60 Q40 -40 80 -60 Q60 0 40 40 Q0 60 -40 40 Q-80 20 -80 -60" 
      fill="url(#aurorGrad57)" opacity="0.7"/>
  
  <!-- Inner veil pattern -->
  <path d="M-60 -40 Q-30 -50 0 -40 Q30 -30 60 -40 Q40 0 20 30 Q0 40 -20 30 Q-60 10 -60 -40" 
      fill="url(#veilGrad57)" opacity="0.8"/>
  
  <!-- Six surrounding veils -->
  <!-- Top veil -->
  <g transform="translate(250,100)">
  <path d="M-40 -20 Q-20 -30 0 -20 Q20 -10 40 -20 Q30 10 10 30 Q0 35 -10 30 Q-40 15 -40 -20" 
        fill="url(#aurorGrad57)" opacity="0.6"/>
  
    <!-- Top-right veil -->
    <g transform="translate(380,150)">
    <path d="M-30 -15 Q-15 -25 0 -15 Q15 -5 30 -15 Q25 5 5 20 Q0 25 -5 20 Q-30 10 -30 -15" 
          fill="url(#aurorGrad57)" opacity="0.6"/>
    </g>
  
    <!-- Bottom-right veil -->
    <g transform="translate(380,350)">
    <path d="M-35 -15 Q-18 -25 0 -15 Q18 -5 35 -15 Q28 8 8 25 Q0 30 -8 25 Q-35 12 -35 -15" 
          fill="url(#aurorGrad57)" opacity="0.6"/>
    </g>
  
    <!-- Bottom veil -->
    <g transform="translate(250,400)">
    <path d="M-45 -20 Q-22 -30 0 -20 Q22 -10 45 -20 Q35 10 12 30 Q0 35 -12 30 Q-45 15 -45 -20" 
          fill="url(#aurorGrad57)" opacity="0.6"/>
    </g>
  
    <!-- Bottom-left veil -->
    <g transform="translate(120,350)">
    <path d="M-30 -18 Q-15 -28 0 -18 Q15 -8 30 -18 Q25 7 7 22 Q0 27 -7 22 Q-30 12 -30 -18" 
          fill="url(#aurorGrad57)" opacity="0.6"/>
    </g>
  
    <!-- Top-left veil -->
    <g transform="translate(120,150)">
    <path d="M-35 -15 Q-17 -25 0 -15 Q17 -5 35 -15 Q27 8 8 23 Q0 28 -8 23 Q-35 13 -35 -15" 
          fill="url(#aurorGrad57)" opacity="0.6"/>
    </g>
  
    <!-- Mystical connecting energy streams -->
    <g stroke="url(#aurorGrad57)" stroke-width="2" fill="none" opacity="0.4">
    <path d="M250 140 Q200 180 170 150"/>
    <path d="M340 150 Q320 200 380 190"/>
    <path d="M380 310 Q320 300 340 350"/>
    <path d="M250 360 Q300 320 330 350"/>
    <path d="M160 350 Q180 300 120 310"/>
    <path d="M160 150 Q200 200 170 200"/>
    </g>
  
    <!-- Floating ethereal particles -->
    <g fill="#ce93d8" opacity="0.6">
    <circle cx="90" cy="100" r="3"/>
    <circle cx="410" cy="120" r="4"/>
    <circle cx="80" cy="380" r="3"/>
    <circle cx="420" cy="400" r="2"/>
    <circle cx="180" cy="80" r="2"/>
    <circle cx="320" cy="80" r="3"/>
    <circle cx="180" cy="420" r="4"/>
    <circle cx="320" cy="420" r="3"/>
    <circle cx="50" cy="250" r="2"/>
    <circle cx="450" cy="250" r="3"/>
    </g>
  
    <!-- Cosmic wind currents -->
    <g stroke="#ba68c8" stroke-width="1" fill="none" opacity="0.3">
    <path d="M50 80 Q150 60 250 80"/>
    <path d="M250 80 Q350 60 450 80"/>
    <path d="M450 120 Q430 220 450 320"/>
    <path d="M450 320 Q350 340 250 320"/>
    <path d="M250 320 Q150 340 50 320"/>
    <path d="M50 280 Q70 180 50 80"/>
    </g>
  
    <!-- Ethereal sparkles -->
    <g fill="#ffffff" opacity="0.8">
    <path d="M100 120 L105 115 L110 120 L105 125 Z"/>
    <path d="M400 140 L405 135 L410 140 L405 145 Z"/>
    <path d="M100 380 L105 375 L110 380 L105 385 Z"/>
    <path d="M400 360 L405 355 L410 360 L405 365 Z"/>
    <path d="M250 60 L253 57 L256 60 L253 63 Z"/>
    <path d="M250 440 L253 437 L256 440 L253 443 Z"/>
    <path d="M40 250 L43 247 L46 250 L43 253 Z"/>
    <path d="M460 250 L463 247 L466 250 L463 253 Z"/>
    </g>
  
    <!-- Sacred seven-pointed star -->
    <g transform="translate(250,250)" stroke="#9c27b0" stroke-width="1" fill="none" opacity="0.3">
    <g>
      <line x1="0" y1="-70" x2="0" y2="-40"/>
      <line x1="50" y1="-49" x2="28" y2="-28"/>
      <line x1="50" y1="49" x2="28" y2="28"/>
      <line x1="0" y1="70" x2="0" y2="40"/>
      <line x1="-50" y1="49" x2="-28" y2="28"/>
      <line x1="-50" y1="-49" x2="-28" y2="-28"/>
      <line x1="67" y1="22" x2="38" y2="13"/>
    </g>
    </g>
  
    <!-- Dimensional ripples -->
    <g stroke="#ab47bc" stroke-width="1" fill="none" opacity="0.2">
    <circle cx="250" cy="250" r="120"/>
    <circle cx="250" cy="250" r="160"/>
    <circle cx="250" cy="250" r="200"/>
    </g>
  
    <!-- Number "57" integrated -->
    <text x="450" y="50" font-family="Arial, sans-serif" font-size="28" font-weight="300" text-anchor="middle" fill="#6a1b9a" opacity="0.5">57</text>
  
    <!-- Kanji character 五十七 -->
    <text x="80" y="50" font-family="serif" font-size="36" font-weight="bold" text-anchor="middle" fill="#6a1b9a" opacity="0.9">五十七</text>
    </g>
  </g>
</svg> 