<svg xmlns="http://www.w3.org/2000/svg" width="500" height="500" viewBox="0 0 500 500">
  <defs>
    <linearGradient id="bgGrad58" x1="0%" y1="0%" x2="100%" y2="100%">
      <stop offset="0%" style="stop-color:#fff8e1;stop-opacity:1" />
      <stop offset="100%" style="stop-color:#ffecb3;stop-opacity:1" />
    </linearGradient>
    <linearGradient id="leafGrad58" x1="0%" y1="0%" x2="100%" y2="100%">
      <stop offset="0%" style="stop-color:#8bc34a;stop-opacity:1" />
      <stop offset="50%" style="stop-color:#689f38;stop-opacity:1" />
      <stop offset="100%" style="stop-color:#388e3c;stop-opacity:1" />
    </linearGradient>
    <radialGradient id="seasonGlow58" cx="50%" cy="50%" r="50%">
      <stop offset="0%" style="stop-color:#fff9c4;stop-opacity:0.8" />
      <stop offset="100%" style="stop-color:#fff9c4;stop-opacity:0" />
    </radialGradient>
    <linearGradient id="autumnGrad58" x1="0%" y1="0%" x2="100%" y2="0%">
      <stop offset="0%" style="stop-color:#ff8a65;stop-opacity:1" />
      <stop offset="25%" style="stop-color:#ffab40;stop-opacity:1" />
      <stop offset="50%" style="stop-color:#ffb74d;stop-opacity:1" />
      <stop offset="75%" style="stop-color:#ffc107;stop-opacity:1" />
      <stop offset="100%" style="stop-color:#ffd54f;stop-opacity:1" />
    </linearGradient>
  </defs>
  
  <!-- Background -->
  <rect width="500" height="500" fill="url(#bgGrad58)"/>
  
  <!-- Eight seasonal tree branches representing the eternal cycle of 58 -->
  <!-- Central tree trunk -->
  <rect x="240" y="350" width="20" height="120" rx="10" fill="#5d4037"/>
  
  <!-- Eight branches in all directions -->
  <g stroke="#5d4037" stroke-width="8" fill="none">
  <!-- North branch -->
  <path d="M250 350 Q250 300 220 250"/>
  <!-- Northeast branch -->
  <path d="M250 350 Q300 300 350 250"/>
  <!-- East branch -->
  <path d="M250 350 Q320 340 390 330"/>
  <!-- Southeast branch -->
  <path d="M250 350 Q300 380 350 410"/>
  <!-- South branch -->
  <path d="M250 350 Q250 400 220 450"/>
  <!-- Southwest branch -->
  <path d="M250 350 Q200 380 150 410"/>
  <!-- West branch -->
  <path d="M250 350 Q180 340 110 330"/>
  <!-- Northwest branch -->
  <path d="M250 350 Q200 300 150 250"/>
  
  <!-- Seasonal leaves in different stages -->
  <!-- Spring leaves (bright green) -->
  <g fill="#8bc34a" opacity="0.9">
  <ellipse cx="210" cy="240" rx="8" ry="12" transform="rotate(30 210 240)"/>
  <ellipse cx="200" cy="260" rx="6" ry="10" transform="rotate(-15 200 260)"/>
  <ellipse cx="230" cy="250" rx="7" ry="11" transform="rotate(45 230 250)"/>
  
    <!-- Summer leaves (full green) -->
    <g fill="url(#leafGrad58)" opacity="0.9">
    <ellipse cx="360" cy="240" rx="10" ry="14" transform="rotate(-30 360 240)"/>
    <ellipse cx="340" cy="260" rx="8" ry="12" transform="rotate(20 340 260)"/>
    <ellipse cx="370" cy="250" rx="9" ry="13" transform="rotate(-45 370 250)"/>
    <ellipse cx="380" cy="320" rx="7" ry="11" transform="rotate(60 380 320)"/>
    <ellipse cx="400" cy="340" rx="6" ry="9" transform="rotate(-20 400 340)"/>
    </g>
  
    <!-- Autumn leaves (changing colors) -->
    <g fill="url(#autumnGrad58)" opacity="0.9">
    <ellipse cx="360" cy="400" rx="9" ry="13" transform="rotate(45 360 400)"/>
    <ellipse cx="340" cy="420" rx="8" ry="12" transform="rotate(-30 340 420)"/>
    <ellipse cx="230" cy="440" rx="7" ry="11" transform="rotate(15 230 440)"/>
    <ellipse cx="210" cy="460" rx="6" ry="10" transform="rotate(-45 210 460)"/>
    </g>
  
    <!-- Winter branches (bare) -->
    <g fill="#388e3c" opacity="0.7">
    <ellipse cx="140" cy="400" rx="5" ry="8" transform="rotate(30 140 400)"/>
    <ellipse cx="160" cy="420" rx="4" ry="7" transform="rotate(-15 160 420)"/>
    <ellipse cx="120" cy="340" rx="6" ry="9" transform="rotate(60 120 340)"/>
    <ellipse cx="100" cy="320" rx="5" ry="8" transform="rotate(-30 100 320)"/>
    </g>
  
    <!-- Central seasonal cycle glow -->
    <circle cx="250" cy="350" r="100" fill="url(#seasonGlow58)" opacity="0.3"/>
  
    <!-- Falling leaves animation -->
    <g fill="#ffab40" opacity="0.6">
    <ellipse cx="180" cy="180" rx="4" ry="6" transform="rotate(15 180 180)"/>
    <ellipse cx="320" cy="150" rx="3" ry="5" transform="rotate(-30 320 150)"/>
    <ellipse cx="150" cy="300" rx="5" ry="7" transform="rotate(45 150 300)"/>
    <ellipse cx="380" cy="280" rx="4" ry="6" transform="rotate(-15 380 280)"/>
    <ellipse cx="280" cy="120" rx="3" ry="5" transform="rotate(60 280 120)"/>
    <ellipse cx="120" cy="200" rx="4" ry="6" transform="rotate(-45 120 200)"/>
    </g>
  
    <!-- Seasonal wind patterns -->
    <g stroke="#ffcc80" stroke-width="2" fill="none" opacity="0.4">
    <path d="M50 100 Q150 80 250 100"/>
    <path d="M250 100 Q350 80 450 100"/>
    <path d="M450 200 Q430 300 450 400"/>
    <path d="M400 450 Q300 430 200 450"/>
    <path d="M50 400 Q70 300 50 200"/>
    </g>
  
    <!-- Small flower buds -->
    <g fill="#ff6b9d" opacity="0.7">
    <circle cx="220" cy="270" r="3"/>
    <circle cx="350" cy="270" r="4"/>
    <circle cx="280" cy="380" r="3"/>
    <circle cx="180" cy="320" r="2"/>
    </g>
  
    <!-- Growth rings around the tree -->
    <g stroke="#689f38" stroke-width="1" fill="none" opacity="0.3">
    <circle cx="250" cy="350" r="60"/>
    <circle cx="250" cy="350" r="80"/>
    <circle cx="250" cy="350" r="120"/>
    </g>
  
    <!-- Seasonal sparkles -->
    <g fill="#ffffff" opacity="0.8">
    <path d="M80 80 L85 75 L90 80 L85 85 Z"/>
    <path d="M420 80 L425 75 L430 80 L425 85 Z"/>
    <path d="M80 420 L85 415 L90 420 L85 425 Z"/>
    <path d="M420 420 L425 415 L430 420 L425 425 Z"/>
    <path d="M250 50 L253 47 L256 50 L253 53 Z"/>
    </g>
  
    <!-- Number "58" integrated -->
    
    <!-- Kanji character 五十八 -->
    
    </g>
  </g>
</svg> 