<svg xmlns="http://www.w3.org/2000/svg" width="500" height="500" viewBox="0 0 500 500">
  <defs>
    <linearGradient id="bgGrad6" x1="0%" y1="0%" x2="0%" y2="100%">
      <stop offset="0%" style="stop-color:#e1f5fe;stop-opacity:1" />
      <stop offset="100%" style="stop-color:#b3e5fc;stop-opacity:1" />
    </linearGradient>
    <linearGradient id="hookGrad6" x1="0%" y1="0%" x2="0%" y2="100%">
      <stop offset="0%" style="stop-color:#78909c;stop-opacity:1" />
      <stop offset="50%" style="stop-color:#607d8b;stop-opacity:1" />
      <stop offset="100%" style="stop-color:#455a64;stop-opacity:1" />
    </linearGradient>
    <radialGradient id="waterRipple" cx="50%" cy="50%" r="50%">
      <stop offset="0%" style="stop-color:#4fc3f7;stop-opacity:0.4" />
      <stop offset="100%" style="stop-color:#4fc3f7;stop-opacity:0" />
    </radialGradient>
  </defs>
  
  <!-- Background -->
  <rect width="500" height="500" fill="url(#bgGrad6)"/>
  
  <!-- Water surface -->
  <ellipse cx="250" cy="420" rx="200" ry="30" fill="#29b6f6" opacity="0.6"/>
  
  <!-- Water ripples -->
  <g stroke="#03a9f4" stroke-width="2" fill="none" opacity="0.4">
  <ellipse cx="250" cy="420" rx="80" ry="15"/>
  <ellipse cx="250" cy="420" rx="120" ry="20"/>
  <ellipse cx="250" cy="420" rx="160" ry="25"/>
  
  <!-- Fishing line -->
  <line x1="250" y1="80" x2="250" y2="350" stroke="#37474f" stroke-width="2" opacity="0.7"/>
  
  <!-- Main hook shape representing 亅 -->
  <path d="M240 80 L240 300 Q240 350 290 350" 
      stroke="url(#hookGrad6)" stroke-width="12" fill="none" stroke-linecap="round"/>
  
  <!-- Hook point -->
  <path d="M290 350 Q300 355 295 365 Q290 370 285 365" 
      fill="url(#hookGrad6)" stroke="#37474f" stroke-width="2"/>
  
  <!-- Metallic shine on hook -->
  <path d="M244 80 L244 300 Q244 340 280 340" 
      stroke="#90a4ae" stroke-width="3" fill="none" opacity="0.6"/>
  
  <!-- Fishing rod handle (top) -->
  <rect x="235" y="60" width="30" height="30" rx="15" fill="#8d6e63" stroke="#5d4037" stroke-width="2"/>
  
  <!-- Water splash effect -->
  <g fill="#4fc3f7" opacity="0.6">
  <circle cx="280" cy="380" r="4"/>
  <circle cx="300" cy="375" r="3"/>
  <circle cx="260" cy="385" r="2"/>
  <circle cx="320" cy="390" r="3"/>
  
    <!-- Bait/lure -->
    <ellipse cx="295" cy="340" rx="8" ry="12" fill="#ff5722"/>
    <ellipse cx="295" cy="340" rx="4" ry="6" fill="#fff" opacity="0.7"/>
  
    <!-- Fish in water -->
    <g fill="#ff7043" opacity="0.7" transform="translate(180,400)">
    <ellipse cx="0" cy="0" rx="25" ry="12"/>
    <path d="M-25 0 L-35 -8 L-35 8 Z"/>
    <circle cx="8" cy="-3" r="2" fill="#000"/>
    </g>
  
    <!-- Kanji character 亅 -->
    <text x="120" y="120" font-family="serif" font-size="56" font-weight="bold" text-anchor="middle" fill="#37474f" opacity="0.8">亅</text>
    </g>
  </g>
</svg> 