<svg xmlns="http://www.w3.org/2000/svg" width="500" height="500" viewBox="0 0 500 500">
  <defs>
    <linearGradient id="bgGrad62" x1="0%" y1="0%" x2="100%" y2="100%">
      <stop offset="0%" style="stop-color:#e0f2f1;stop-opacity:1" />
      <stop offset="100%" style="stop-color:#b2dfdb;stop-opacity:1" />
    </linearGradient>
    <linearGradient id="hexGrad62" x1="0%" y1="0%" x2="100%" y2="100%">
      <stop offset="0%" style="stop-color:#4db6ac;stop-opacity:1" />
      <stop offset="50%" style="stop-color:#26a69a;stop-opacity:1" />
      <stop offset="100%" style="stop-color:#00695c;stop-opacity:1" />
    </linearGradient>
    <radialGradient id="harmonyGlow62" cx="50%" cy="50%" r="50%">
      <stop offset="0%" style="stop-color:#a7ffeb;stop-opacity:0.8" />
      <stop offset="100%" style="stop-color:#a7ffeb;stop-opacity:0" />
    </radialGradient>
    <linearGradient id="pathGrad62" x1="0%" y1="0%" x2="100%" y2="0%">
      <stop offset="0%" style="stop-color:#80cbc4;stop-opacity:0.8" />
      <stop offset="50%" style="stop-color:#4db6ac;stop-opacity:0.8" />
      <stop offset="100%" style="stop-color:#26a69a;stop-opacity:0.8" />
    </linearGradient>
  </defs>
  
  <!-- Background -->
  <rect width="500" height="500" fill="url(#bgGrad62)"/>
  
  <!-- Six interlocking hexagons plus two connecting elements representing 62 -->
  <!-- Central harmony formation -->
  <g transform="translate(250,250)">
  <circle cx="0" cy="0" r="120" fill="url(#harmonyGlow62)" opacity="0.3"/>
  
  <!-- Six-fold symmetry hexagons -->
  <!-- Center hexagon -->
  <polygon points="0,-40 35,-20 35,20 0,40 -35,20 -35,-20" fill="url(#hexGrad62)" opacity="0.9"/>
  
  <!-- Top hexagon -->
  <polygon points="0,-100 30,-80 30,-60 0,-40 -30,-60 -30,-80" fill="url(#hexGrad62)" opacity="0.8"/>
  
  <!-- Top-right hexagon -->
  <polygon points="52,-70 77,-55 77,-35 52,-20 27,-35 27,-55" fill="url(#hexGrad62)" opacity="0.8"/>
  
  <!-- Bottom-right hexagon -->
  <polygon points="52,20 77,35 77,55 52,70 27,55 27,35" fill="url(#hexGrad62)" opacity="0.8"/>
  
  <!-- Bottom hexagon -->
  <polygon points="0,40 30,60 30,80 0,100 -30,80 -30,60" fill="url(#hexGrad62)" opacity="0.8"/>
  
  <!-- Bottom-left hexagon -->
  <polygon points="-52,20 -27,35 -27,55 -52,70 -77,55 -77,35" fill="url(#hexGrad62)" opacity="0.8"/>
  
  <!-- Top-left hexagon -->
  <polygon points="-52,-70 -27,-55 -27,-35 -52,-20 -77,-35 -77,-55" fill="url(#hexGrad62)" opacity="0.8"/>
  
  <!-- Two additional connecting elements -->
  <!-- Left connector -->
  <g transform="translate(120,250)">
  <polygon points="0,-25 22,-12 22,12 0,25 -22,12 -22,-12" fill="url(#hexGrad62)" opacity="0.7"/>
  <circle cx="0" cy="0" r="35" fill="url(#harmonyGlow62)" opacity="0.2"/>
  
    <!-- Right connector -->
    <g transform="translate(380,250)">
    <polygon points="0,-25 22,-12 22,12 0,25 -22,12 -22,-12" fill="url(#hexGrad62)" opacity="0.7"/>
    <circle cx="0" cy="0" r="35" fill="url(#harmonyGlow62)" opacity="0.2"/>
    </g>
  
    <!-- Connecting energy pathways -->
    <g stroke="url(#pathGrad62)" stroke-width="3" fill="none" opacity="0.6">
    <!-- From center to surrounding hexagons -->
    <line x1="250" y1="210" x2="250" y2="150"/>
    <line x1="302" y1="180" x2="340" y2="150"/>
    <line x1="302" y1="320" x2="340" y2="350"/>
    <line x1="250" y1="290" x2="250" y2="350"/>
    <line x1="198" y1="320" x2="160" y2="350"/>
    <line x1="198" y1="180" x2="160" y2="150"/>
    
    <!-- To external connectors -->
    <line x1="142" y1="250" x2="180" y2="250"/>
    <line x1="320" y1="250" x2="358" y2="250"/>
    </g>
  
    <!-- Sacred geometry underlying pattern -->
    <g stroke="#26a69a" stroke-width="1" fill="none" opacity="0.3">
    <circle cx="250" cy="250" r="100"/>
    <circle cx="250" cy="250" r="140"/>
    <circle cx="250" cy="250" r="180"/>
    
    <!-- Hexagonal grid lines -->
    <line x1="250" y1="70" x2="250" y2="430"/>
    <line x1="100" y1="160" x2="400" y2="340"/>
    <line x1="100" y1="340" x2="400" y2="160"/>
    </g>
  
    <!-- Harmonious energy particles -->
    <g fill="#4db6ac" opacity="0.6">
    <circle cx="150" cy="150" r="4"/>
    <circle cx="350" cy="150" r="3"/>
    <circle cx="150" cy="350" r="4"/>
    <circle cx="350" cy="350" r="3"/>
    <circle cx="250" cy="100" r="3"/>
    <circle cx="250" cy="400" r="4"/>
    <circle cx="80" cy="250" r="3"/>
    <circle cx="420" cy="250" r="3"/>
    </g>
  
    <!-- Flowing balance streams -->
    <g stroke="#80cbc4" stroke-width="2" fill="none" opacity="0.4">
    <path d="M50 100 Q150 120 250 100"/>
    <path d="M250 100 Q350 120 450 100"/>
    <path d="M450 200 Q430 300 450 400"/>
    <path d="M400 450 Q300 430 200 450"/>
    <path d="M50 400 Q70 300 50 200"/>
    </g>
  
    <!-- Crystalline structure highlights -->
    <g fill="#ffffff" opacity="0.6">
    <polygon points="250,210 265,220 265,240 250,250 235,240 235,220"/>
    <polygon points="250,170 260,175 260,185 250,190 240,185 240,175"/>
    <polygon points="302,200 312,205 312,215 302,220 292,215 292,205"/>
    <polygon points="198,200 208,205 208,215 198,220 188,215 188,205"/>
    </g>
  
    <!-- Harmonic resonance sparkles -->
    <g fill="#ffffff" opacity="0.8">
    <path d="M100 100 L105 95 L110 100 L105 105 Z"/>
    <path d="M400 100 L405 95 L410 100 L405 105 Z"/>
    <path d="M100 400 L105 395 L110 400 L105 405 Z"/>
    <path d="M400 400 L405 395 L410 400 L405 405 Z"/>
    <path d="M250 50 L253 47 L256 50 L253 53 Z"/>
    <path d="M250 450 L253 447 L256 450 L253 453 Z"/>
    </g>
  
    <!-- Number "62" integrated -->
    <text x="450" y="50" font-family="Arial, sans-serif" font-size="28" font-weight="300" text-anchor="middle" fill="#00695c" opacity="0.5">62</text>
  
    <!-- Kanji character 六十二 -->
    <text x="80" y="50" font-family="serif" font-size="36" font-weight="bold" text-anchor="middle" fill="#00695c" opacity="0.9">六十二</text>
    </g>
  </g>
</svg> 