<svg xmlns="http://www.w3.org/2000/svg" width="500" height="500" viewBox="0 0 500 500">
  <defs>
    <linearGradient id="bgGrad63" x1="0%" y1="0%" x2="100%" y2="100%">
      <stop offset="0%" style="stop-color:#fff3e0;stop-opacity:1" />
      <stop offset="100%" style="stop-color:#ffe0b2;stop-opacity:1" />
    </linearGradient>
    <linearGradient id="sunGrad63" x1="0%" y1="0%" x2="100%" y2="100%">
      <stop offset="0%" style="stop-color:#ffd54f;stop-opacity:1" />
      <stop offset="50%" style="stop-color:#ffb300;stop-opacity:1" />
      <stop offset="100%" style="stop-color:#ff8f00;stop-opacity:1" />
    </linearGradient>
    <radialGradient id="solarGlow63" cx="50%" cy="50%" r="60%">
      <stop offset="0%" style="stop-color:#fff59d;stop-opacity:0.9" />
      <stop offset="100%" style="stop-color:#fff59d;stop-opacity:0" />
    </radialGradient>
    <linearGradient id="rayGrad63" x1="0%" y1="0%" x2="100%" y2="0%">
      <stop offset="0%" style="stop-color:#ffcc80;stop-opacity:0.8" />
      <stop offset="50%" style="stop-color:#ffb74d;stop-opacity:0.8" />
      <stop offset="100%" style="stop-color:#ffa726;stop-opacity:0.8" />
    </linearGradient>
  </defs>
  
  <!-- Background -->
  <rect width="500" height="500" fill="url(#bgGrad63)"/>
  
  <!-- Six solar rays plus three central elements representing 63 -->
  <!-- Central solar core -->
  <g transform="translate(250,250)">
  <circle cx="0" cy="0" r="100" fill="url(#solarGlow63)" opacity="0.4"/>
  
  <!-- Main sun disk -->
  <circle cx="0" cy="0" r="50" fill="url(#sunGrad63)"/>
  <circle cx="0" cy="0" r="35" fill="#fff59d" opacity="0.8"/>
  <circle cx="0" cy="0" r="20" fill="#ffeb3b"/>
  
  <!-- Inner solar flares -->
  <g fill="#ff8f00" opacity="0.7">
  <ellipse cx="0" cy="-12" rx="3" ry="8"/>
  <ellipse cx="10" cy="-4" rx="3" ry="8" transform="rotate(60 10 -4)"/>
  <ellipse cx="10" cy="4" rx="3" ry="8" transform="rotate(120 10 4)"/>
  <ellipse cx="0" cy="12" rx="3" ry="8" transform="rotate(180)"/>
  <ellipse cx="-10" cy="4" rx="3" ry="8" transform="rotate(240 -10 4)"/>
  <ellipse cx="-10" cy="-4" rx="3" ry="8" transform="rotate(300 -10 -4)"/>
  
    <!-- Six major solar rays -->
    <!-- North ray -->
    <g transform="translate(250,100)">
    <ellipse cx="0" cy="0" rx="15" ry="80" fill="url(#rayGrad63)"/>
    <ellipse cx="0" cy="0" rx="8" ry="60" fill="#ffcc80" opacity="0.6"/>
    </g>
  
    <!-- Northeast ray -->
    <g transform="translate(356,144) rotate(60)">
    <ellipse cx="0" cy="0" rx="12" ry="70" fill="url(#rayGrad63)"/>
    <ellipse cx="0" cy="0" rx="6" ry="50" fill="#ffcc80" opacity="0.6"/>
    </g>
  
    <!-- Southeast ray -->
    <g transform="translate(356,356) rotate(120)">
    <ellipse cx="0" cy="0" rx="12" ry="70" fill="url(#rayGrad63)"/>
    <ellipse cx="0" cy="0" rx="6" ry="50" fill="#ffcc80" opacity="0.6"/>
    </g>
  
    <!-- South ray -->
    <g transform="translate(250,400) rotate(180)">
    <ellipse cx="0" cy="0" rx="15" ry="80" fill="url(#rayGrad63)"/>
    <ellipse cx="0" cy="0" rx="8" ry="60" fill="#ffcc80" opacity="0.6"/>
    </g>
  
    <!-- Southwest ray -->
    <g transform="translate(144,356) rotate(240)">
    <ellipse cx="0" cy="0" rx="12" ry="70" fill="url(#rayGrad63)"/>
    <ellipse cx="0" cy="0" rx="6" ry="50" fill="#ffcc80" opacity="0.6"/>
    </g>
  
    <!-- Northwest ray -->
    <g transform="translate(144,144) rotate(300)">
    <ellipse cx="0" cy="0" rx="12" ry="70" fill="url(#rayGrad63)"/>
    <ellipse cx="0" cy="0" rx="6" ry="50" fill="#ffcc80" opacity="0.6"/>
    </g>
  
    <!-- Three additional solar prominences -->
    <!-- Top prominence -->
    <g transform="translate(220,150)">
    <ellipse cx="0" cy="0" rx="8" ry="25" fill="url(#sunGrad63)" opacity="0.8" transform="rotate(-30)"/>
    </g>
  
    <!-- Right prominence -->
    <g transform="translate(350,280)">
    <ellipse cx="0" cy="0" rx="8" ry="25" fill="url(#sunGrad63)" opacity="0.8" transform="rotate(30)"/>
    </g>
  
    <!-- Left prominence -->
    <g transform="translate(150,320)">
    <ellipse cx="0" cy="0" rx="8" ry="25" fill="url(#sunGrad63)" opacity="0.8" transform="rotate(-60)"/>
    </g>
  
    <!-- Solar winds and energy streams -->
    <g stroke="url(#rayGrad63)" stroke-width="2" fill="none" opacity="0.5">
    <path d="M50 80 Q150 60 250 80"/>
    <path d="M250 80 Q350 60 450 80"/>
    <path d="M420 150 Q440 250 420 350"/>
    <path d="M450 420 Q350 440 250 420"/>
    <path d="M250 420 Q150 440 50 420"/>
    <path d="M80 350 Q60 250 80 150"/>
    </g>
  
    <!-- Coronal mass ejections -->
    <g fill="#ffc107" opacity="0.6">
    <ellipse cx="180" cy="120" rx="4" ry="12" transform="rotate(-45 180 120)"/>
    <ellipse cx="320" cy="130" rx="5" ry="15" transform="rotate(30 320 130)"/>
    <ellipse cx="380" cy="280" rx="4" ry="11" transform="rotate(60 380 280)"/>
    <ellipse cx="320" cy="380" rx="5" ry="14" transform="rotate(120 320 380)"/>
    <ellipse cx="180" cy="370" rx="4" ry="12" transform="rotate(225 180 370)"/>
    <ellipse cx="120" cy="280" rx="5" ry="13" transform="rotate(300 120 280)"/>
    </g>
  
    <!-- Solar plasma particles -->
    <g fill="#ffeb3b" opacity="0.7">
    <circle cx="100" cy="100" r="3"/>
    <circle cx="400" cy="100" r="4"/>
    <circle cx="100" cy="400" r="3"/>
    <circle cx="400" cy="400" r="3"/>
    <circle cx="50" cy="250" r="2"/>
    <circle cx="450" cy="250" r="3"/>
    <circle cx="250" cy="50" r="2"/>
    <circle cx="250" cy="450" r="4"/>
    </g>
  
    <!-- Heliosphere boundary -->
    <g stroke="#ff8f00" stroke-width="1" fill="none" opacity="0.3">
    <circle cx="250" cy="250" r="180"/>
    <circle cx="250" cy="250" r="220"/>
    </g>
  
    <!-- Solar flare sparkles -->
    <g fill="#ffffff" opacity="0.9">
    <path d="M80 80 L85 75 L90 80 L85 85 Z"/>
    <path d="M420 80 L425 75 L430 80 L425 85 Z"/>
    <path d="M80 420 L85 415 L90 420 L85 425 Z"/>
    <path d="M420 420 L425 415 L430 420 L425 425 Z"/>
    <path d="M250 30 L253 27 L256 30 L253 33 Z"/>
    <path d="M250 470 L253 467 L256 470 L253 473 Z"/>
    <path d="M30 250 L33 247 L36 250 L33 253 Z"/>
    <path d="M470 250 L473 247 L476 250 L473 253 Z"/>
    </g>
  
    <!-- Number "63" integrated -->
    <text x="450" y="50" font-family="Arial, sans-serif" font-size="28" font-weight="300" text-anchor="middle" fill="#e65100" opacity="0.5">63</text>
  
    <!-- Kanji character 六十三 -->
    <text x="80" y="50" font-family="serif" font-size="36" font-weight="bold" text-anchor="middle" fill="#e65100" opacity="0.9">六十三</text>
    </g>
  </g>
</svg> 