<svg xmlns="http://www.w3.org/2000/svg" width="500" height="500" viewBox="0 0 500 500">
  <defs>
    <linearGradient id="bgGrad64" x1="0%" y1="0%" x2="100%" y2="100%">
      <stop offset="0%" style="stop-color:#fff3e0;stop-opacity:1" />
      <stop offset="100%" style="stop-color:#ffe0b2;stop-opacity:1" />
    </linearGradient>
    <radialGradient id="handGrad64" cx="40%" cy="30%" r="60%">
      <stop offset="0%" style="stop-color:#ffcc80;stop-opacity:1" />
      <stop offset="100%" style="stop-color:#ffb74d;stop-opacity:1" />
    </radialGradient>
    <linearGradient id="fingerGrad64" x1="0%" y1="0%" x2="0%" y2="100%">
      <stop offset="0%" style="stop-color:#ffab91;stop-opacity:1" />
      <stop offset="100%" style="stop-color:#ff8a65;stop-opacity:1" />
    </linearGradient>
    <radialGradient id="gestureGlow64" cx="50%" cy="50%" r="70%">
      <stop offset="0%" style="stop-color:#ffe0b2;stop-opacity:0.6" />
      <stop offset="100%" style="stop-color:#ffe0b2;stop-opacity:0" />
    </radialGradient>
  </defs>
  
  <!-- Background -->
  <rect width="500" height="500" fill="url(#bgGrad64)"/>
  
  <!-- Gesture energy aura -->
  <ellipse cx="250" cy="250" rx="150" ry="180" fill="url(#gestureGlow64)"/>
  
  <!-- Main hand representing 手 -->
  <!-- Palm -->
  <ellipse cx="250" cy="320" rx="60" ry="80" fill="url(#handGrad64)" stroke="#f57c00" stroke-width="3"/>
  
  <!-- Thumb -->
  <ellipse cx="190" cy="280" rx="20" ry="45" fill="url(#fingerGrad64)" transform="rotate(-30 190 280)"/>
  <!-- Thumb tip -->
  <circle cx="175" cy="250" r="15" fill="url(#fingerGrad64)"/>
  
  <!-- Index finger -->
  <rect x="230" y="150" width="18" height="80" rx="9" fill="url(#fingerGrad64)"/>
  <circle cx="239" cy="140" r="12" fill="url(#fingerGrad64)"/>
  
  <!-- Middle finger -->
  <rect x="255" y="120" width="18" height="110" rx="9" fill="url(#fingerGrad64)"/>
  <circle cx="264" cy="110" r="12" fill="url(#fingerGrad64)"/>
  
  <!-- Ring finger -->
  <rect x="280" y="140" width="18" height="90" rx="9" fill="url(#fingerGrad64)"/>
  <circle cx="289" cy="130" r="12" fill="url(#fingerGrad64)"/>
  
  <!-- Pinky finger -->
  <rect x="305" y="160" width="16" height="70" rx="8" fill="url(#fingerGrad64)"/>
  <circle cx="313" cy="150" r="10" fill="url(#fingerGrad64)"/>
  
  <!-- Fingernails -->
  <g fill="#fff" opacity="0.8">
  <ellipse cx="239" cy="145" rx="6" ry="8"/>
  <ellipse cx="264" cy="115" rx="6" ry="8"/>
  <ellipse cx="289" cy="135" rx="6" ry="8"/>
  <ellipse cx="313" cy="155" rx="5" ry="7"/>
  <ellipse cx="175" cy="250" rx="8" ry="6" transform="rotate(-30 175 250)"/>
  
  <!-- Palm lines -->
  <g stroke="#e65100" stroke-width="2" fill="none" opacity="0.6">
  <path d="M210 300 Q250 310 290 300"/>
  <path d="M220 340 Q250 330 280 340"/>
  <path d="M200 270 Q220 280 240 270"/>
  
    <!-- Wrist -->
    <rect x="220" y="390" width="60" height="30" rx="30" fill="url(#handGrad64)"/>
  
    <!-- Wrist lines -->
    <g stroke="#e65100" stroke-width="1" opacity="0.4">
    <line x1="225" y1="395" x2="275" y2="395"/>
    <line x1="230" y1="405" x2="270" y2="405"/>
    <line x1="235" y1="415" x2="265" y2="415"/>
    </g>
  
    <!-- Finger joint lines -->
    <g stroke="#e65100" stroke-width="1" opacity="0.4">
    <line x1="235" y1="180" x2="243" y2="180"/>
    <line x1="260" y1="160" x2="268" y2="160"/>
    <line x1="285" y1="170" x2="293" y2="170"/>
    <line x1="308" y1="185" x2="316" y2="185"/>
    
    <line x1="235" y1="200" x2="243" y2="200"/>
    <line x1="260" y1="180" x2="268" y2="180"/>
    <line x1="285" y1="190" x2="293" y2="190"/>
    <line x1="308" y1="205" x2="316" y2="205"/>
    </g>
  
    <!-- Action lines showing movement -->
    <g stroke="#ff9800" stroke-width="2" opacity="0.5">
    <path d="M150 120 Q180 130 210 120"/>
    <path d="M320 120 Q350 130 380 120"/>
    <path d="M140 200 Q170 210 200 200"/>
    <path d="M320 200 Q350 210 380 200"/>
    </g>
  
    <!-- Gesture sparkles -->
    <g fill="#ffb74d" opacity="0.7">
    <path d="M180 100 L190 90 L200 100 L190 110 Z"/>
    <path d="M320 90 L330 80 L340 90 L330 100 Z"/>
    <path d="M150 250 L160 240 L170 250 L160 260 Z"/>
    <path d="M340 270 L350 260 L360 270 L350 280 Z"/>
    </g>
  
    <!-- Magic/energy emanating from fingertips -->
    <g fill="#fff176" opacity="0.6">
    <circle cx="239" cy="130" r="4"/>
    <circle cx="264" cy="100" r="5"/>
    <circle cx="289" cy="120" r="4"/>
    <circle cx="313" cy="140" r="3"/>
    <circle cx="175" cy="240" r="4"/>
    </g>
  
    <!-- Tools in grasp -->
    <g transform="translate(320,300)" opacity="0.7">
    <rect x="-2" y="-20" width="4" height="40" rx="2" fill="#795548"/>
    <circle cx="0" cy="-25" r="5" fill="#ff5722"/>
    </g>
  
    <!-- Shadow -->
    <ellipse cx="250" cy="450" rx="80" ry="20" fill="#e65100" opacity="0.3"/>
  
    <!-- Skill/dexterity indication -->
    <g stroke="#ff9800" stroke-width="1" fill="none" opacity="0.4">
    <circle cx="250" cy="250" r="120"/>
    <circle cx="250" cy="250" r="140"/>
    <circle cx="250" cy="250" r="160"/>
    </g>
  
    <!-- Connection to objects -->
    <g fill="#ffcc02" opacity="0.5">
    <circle cx="380" cy="180" r="8"/>
    <circle cx="120" cy="320" r="6"/>
    <circle cx="390" cy="350" r="7"/>
    </g>
  
    <!-- Craftsmanship symbols -->
    <g transform="translate(400,120)" opacity="0.6">
    <rect x="-5" y="-5" width="10" height="10" fill="#8d6e63"/>
    <circle cx="0" cy="10" r="3" fill="#ff5722"/>
    </g>
  
    <!-- Kanji character 手 -->
    <text x="100" y="120" font-family="serif" font-size="56" font-weight="bold" text-anchor="middle" fill="#e65100" opacity="0.8">手</text>
    </g>
  </g>
</svg> 