<svg xmlns="http://www.w3.org/2000/svg" width="500" height="500" viewBox="0 0 500 500">
  <defs>
    <linearGradient id="bgGrad65" x1="0%" y1="0%" x2="100%" y2="100%">
      <stop offset="0%" style="stop-color:#e8eaf6;stop-opacity:1" />
      <stop offset="100%" style="stop-color:#c5cae9;stop-opacity:1" />
    </linearGradient>
    <linearGradient id="spiralGrad65" x1="0%" y1="0%" x2="100%" y2="100%">
      <stop offset="0%" style="stop-color:#7986cb;stop-opacity:1" />
      <stop offset="50%" style="stop-color:#5c6bc0;stop-opacity:1" />
      <stop offset="100%" style="stop-color:#3f51b5;stop-opacity:1" />
    </linearGradient>
    <radialGradient id="vortexGlow65" cx="50%" cy="50%" r="50%">
      <stop offset="0%" style="stop-color:#e8eaf6;stop-opacity:0.8" />
      <stop offset="100%" style="stop-color:#e8eaf6;stop-opacity:0" />
    </radialGradient>
    <linearGradient id="flowGrad65" x1="0%" y1="0%" x2="100%" y2="0%">
      <stop offset="0%" style="stop-color:#9fa8da;stop-opacity:0.8" />
      <stop offset="50%" style="stop-color:#7986cb;stop-opacity:0.8" />
      <stop offset="100%" style="stop-color:#5c6bc0;stop-opacity:0.8" />
    </linearGradient>
  </defs>
  
  <!-- Background -->
  <rect width="500" height="500" fill="url(#bgGrad65)"/>
  
  <!-- Six spiraling galaxies plus five connecting streams representing 65 -->
  <!-- Central galactic core -->
  <g transform="translate(250,250)">
  <circle cx="0" cy="0" r="80" fill="url(#vortexGlow65)" opacity="0.4"/>
  
  <!-- Central spiral -->
  <g stroke="url(#spiralGrad65)" stroke-width="5" fill="none" opacity="0.9">
  <path d="M0 -50 Q-30 -30 -50 0 Q-30 30 0 50 Q30 30 50 0 Q30 -30 0 -50"/>
  <path d="M0 -35 Q-21 -21 -35 0 Q-21 21 0 35 Q21 21 35 0 Q21 -21 0 -35"/>
  <path d="M0 -20 Q-12 -12 -20 0 Q-12 12 0 20 Q12 12 20 0 Q12 -12 0 -20"/>
  
  <!-- Core nucleus -->
  <circle cx="0" cy="0" r="15" fill="#3f51b5"/>
  <circle cx="0" cy="0" r="8" fill="#e8eaf6" opacity="0.8"/>
  
    <!-- Six surrounding galaxies -->
    <!-- Top galaxy -->
    <g transform="translate(250,120)">
    <circle cx="0" cy="0" r="40" fill="url(#vortexGlow65)" opacity="0.3"/>
    <g stroke="url(#spiralGrad65)" stroke-width="3" fill="none" opacity="0.8">
      <path d="M0 -25 Q-15 -15 -25 0 Q-15 15 0 25 Q15 15 25 0 Q15 -15 0 -25"/>
      <path d="M0 -15 Q-9 -9 -15 0 Q-9 9 0 15 Q9 9 15 0 Q9 -9 0 -15"/>
    </g>
    <circle cx="0" cy="0" r="6" fill="#5c6bc0"/>
    </g>
  
    <!-- Top-right galaxy -->
    <g transform="translate(380,150)">
    <circle cx="0" cy="0" r="35" fill="url(#vortexGlow65)" opacity="0.3"/>
    <g stroke="url(#spiralGrad65)" stroke-width="3" fill="none" opacity="0.8">
      <path d="M0 -20 Q-12 -12 -20 0 Q-12 12 0 20 Q12 12 20 0 Q12 -12 0 -20"/>
      <path d="M0 -12 Q-7 -7 -12 0 Q-7 7 0 12 Q7 7 12 0 Q7 -7 0 -12"/>
    </g>
    <circle cx="0" cy="0" r="5" fill="#5c6bc0"/>
    </g>
  
    <!-- Bottom-right galaxy -->
    <g transform="translate(380,350)">
    <circle cx="0" cy="0" r="38" fill="url(#vortexGlow65)" opacity="0.3"/>
    <g stroke="url(#spiralGrad65)" stroke-width="3" fill="none" opacity="0.8">
      <path d="M0 -22 Q-13 -13 -22 0 Q-13 13 0 22 Q13 13 22 0 Q13 -13 0 -22"/>
      <path d="M0 -13 Q-8 -8 -13 0 Q-8 8 0 13 Q8 8 13 0 Q8 -8 0 -13"/>
    </g>
    <circle cx="0" cy="0" r="6" fill="#5c6bc0"/>
    </g>
  
    <!-- Bottom galaxy -->
    <g transform="translate(250,380)">
    <circle cx="0" cy="0" r="42" fill="url(#vortexGlow65)" opacity="0.3"/>
    <g stroke="url(#spiralGrad65)" stroke-width="3" fill="none" opacity="0.8">
      <path d="M0 -24 Q-14 -14 -24 0 Q-14 14 0 24 Q14 14 24 0 Q14 -14 0 -24"/>
      <path d="M0 -14 Q-8 -8 -14 0 Q-8 8 0 14 Q8 8 14 0 Q8 -8 0 -14"/>
    </g>
    <circle cx="0" cy="0" r="6" fill="#5c6bc0"/>
    </g>
  
    <!-- Bottom-left galaxy -->
    <g transform="translate(120,350)">
    <circle cx="0" cy="0" r="36" fill="url(#vortexGlow65)" opacity="0.3"/>
    <g stroke="url(#spiralGrad65)" stroke-width="3" fill="none" opacity="0.8">
      <path d="M0 -21 Q-12 -12 -21 0 Q-12 12 0 21 Q12 12 21 0 Q12 -12 0 -21"/>
      <path d="M0 -12 Q-7 -7 -12 0 Q-7 7 0 12 Q7 7 12 0 Q7 -7 0 -12"/>
    </g>
    <circle cx="0" cy="0" r="5" fill="#5c6bc0"/>
    </g>
  
    <!-- Top-left galaxy -->
    <g transform="translate(120,150)">
    <circle cx="0" cy="0" r="34" fill="url(#vortexGlow65)" opacity="0.3"/>
    <g stroke="url(#spiralGrad65)" stroke-width="3" fill="none" opacity="0.8">
      <path d="M0 -19 Q-11 -11 -19 0 Q-11 11 0 19 Q11 11 19 0 Q11 -11 0 -19"/>
      <path d="M0 -11 Q-6 -6 -11 0 Q-6 6 0 11 Q6 6 11 0 Q6 -6 0 -11"/>
    </g>
    <circle cx="0" cy="0" r="4" fill="#5c6bc0"/>
    </g>
  
    <!-- Five cosmic streams connecting galaxies -->
    <g stroke="url(#flowGrad65)" stroke-width="4" fill="none" opacity="0.6">
    <!-- Central to top -->
    <path d="M250 170 Q220 200 250 200"/>
    <!-- Central to top-right -->
    <path d="M330 200 Q350 220 330 240"/>
    <!-- Central to bottom-right -->
    <path d="M330 300 Q350 280 330 320"/>
    <!-- Central to bottom -->
    <path d="M250 330 Q280 310 250 300"/>
    <!-- Central to bottom-left -->
    <path d="M170 300 Q150 280 170 320"/>
    </g>
  
    <!-- Gravitational waves -->
    <g stroke="#9fa8da" stroke-width="2" fill="none" opacity="0.4">
    <circle cx="250" cy="250" r="120"/>
    <circle cx="250" cy="250" r="160"/>
    <circle cx="250" cy="250" r="200"/>
    </g>
  
    <!-- Dark matter particles -->
    <g fill="#7986cb" opacity="0.5">
    <circle cx="100" cy="100" r="2"/>
    <circle cx="400" cy="100" r="3"/>
    <circle cx="100" cy="400" r="2"/>
    <circle cx="400" cy="400" r="2"/>
    <circle cx="50" cy="250" r="2"/>
    <circle cx="450" cy="250" r="3"/>
    <circle cx="250" cy="50" r="2"/>
    <circle cx="250" cy="450" r="3"/>
    <circle cx="180" cy="180" r="2"/>
    <circle cx="320" cy="180" r="2"/>
    <circle cx="180" cy="320" r="3"/>
    <circle cx="320" cy="320" r="2"/>
    </g>
  
    <!-- Stellar nurseries -->
    <g fill="#e8eaf6" opacity="0.7">
    <ellipse cx="150" cy="200" rx="8" ry="4" transform="rotate(30 150 200)"/>
    <ellipse cx="350" cy="200" rx="6" ry="3" transform="rotate(-45 350 200)"/>
    <ellipse cx="200" cy="350" rx="7" ry="4" transform="rotate(60 200 350)"/>
    <ellipse cx="300" cy="350" rx="5" ry="3" transform="rotate(-30 300 350)"/>
    </g>
  
    <!-- Cosmic dust and nebulae -->
    <g stroke="#c5cae9" stroke-width="1" fill="none" opacity="0.3">
    <path d="M50 80 Q150 60 250 80"/>
    <path d="M250 80 Q350 60 450 80"/>
    <path d="M450 180 Q430 280 450 380"/>
    <path d="M400 450 Q300 430 200 450"/>
    <path d="M50 380 Q70 280 50 180"/>
    </g>
  
    <!-- Galactic sparkles -->
    <g fill="#ffffff" opacity="0.8">
    <path d="M90 90 L95 85 L100 90 L95 95 Z"/>
    <path d="M410 90 L415 85 L420 90 L415 95 Z"/>
    <path d="M90 410 L95 405 L100 410 L95 415 Z"/>
    <path d="M410 410 L415 405 L420 410 L415 415 Z"/>
    <path d="M250 40 L253 37 L256 40 L253 43 Z"/>
    <path d="M250 460 L253 457 L256 460 L253 463 Z"/>
    </g>
  
    <!-- Number "65" integrated -->
    <text x="450" y="50" font-family="Arial, sans-serif" font-size="28" font-weight="300" text-anchor="middle" fill="#283593" opacity="0.5">65</text>
  
    <!-- Kanji character 六十五 -->
    <text x="80" y="50" font-family="serif" font-size="36" font-weight="bold" text-anchor="middle" fill="#283593" opacity="0.9">六十五</text>
    </g>
  </g>
</svg> 