<svg xmlns="http://www.w3.org/2000/svg" width="500" height="500" viewBox="0 0 500 500">
  <defs>
    <linearGradient id="bgGrad68" x1="0%" y1="0%" x2="100%" y2="100%">
      <stop offset="0%" style="stop-color:#e0f7fa;stop-opacity:1" />
      <stop offset="100%" style="stop-color:#b2ebf2;stop-opacity:1" />
    </linearGradient>
    <linearGradient id="waveGrad68" x1="0%" y1="0%" x2="100%" y2="100%">
      <stop offset="0%" style="stop-color:#26c6da;stop-opacity:1" />
      <stop offset="50%" style="stop-color:#00bcd4;stop-opacity:1" />
      <stop offset="100%" style="stop-color:#0097a7;stop-opacity:1" />
    </linearGradient>
    <radialGradient id="oceanGlow68" cx="50%" cy="50%" r="50%">
      <stop offset="0%" style="stop-color:#b2ebf2;stop-opacity:0.8" />
      <stop offset="100%" style="stop-color:#b2ebf2;stop-opacity:0" />
    </radialGradient>
    <linearGradient id="foamGrad68" x1="0%" y1="0%" x2="0%" y2="100%">
      <stop offset="0%" style="stop-color:#ffffff;stop-opacity:0.9" />
      <stop offset="100%" style="stop-color:#b2ebf2;stop-opacity:0.5" />
    </linearGradient>
  </defs>
  
  <!-- Background -->
  <rect width="500" height="500" fill="url(#bgGrad68)"/>
  
  <!-- Six major ocean waves plus eight smaller ripples representing 68 -->
  <!-- Deep ocean base -->
  <ellipse cx="250" cy="450" rx="300" ry="80" fill="url(#oceanGlow68)" opacity="0.3"/>
  
  <!-- Six primary waves -->
  <!-- Wave 1 -->
  <path d="M0 350 Q80 320 160 350 Q240 380 320 350 Q400 320 500 350 L500 400 Q400 370 320 400 Q240 430 160 400 Q80 370 0 400 Z" 
    fill="url(#waveGrad68)" opacity="0.9"/>
  
  <!-- Wave 2 -->
  <path d="M0 320 Q80 290 160 320 Q240 350 320 320 Q400 290 500 320 L500 370 Q400 340 320 370 Q240 400 160 370 Q80 340 0 370 Z" 
    fill="url(#waveGrad68)" opacity="0.8"/>
  
  <!-- Wave 3 -->
  <path d="M0 290 Q80 260 160 290 Q240 320 320 290 Q400 260 500 290 L500 340 Q400 310 320 340 Q240 370 160 340 Q80 310 0 340 Z" 
    fill="url(#waveGrad68)" opacity="0.7"/>
  
  <!-- Wave 4 -->
  <path d="M0 260 Q80 230 160 260 Q240 290 320 260 Q400 230 500 260 L500 310 Q400 280 320 310 Q240 340 160 310 Q80 280 0 310 Z" 
    fill="url(#waveGrad68)" opacity="0.6"/>
  
  <!-- Wave 5 -->
  <path d="M0 230 Q80 200 160 230 Q240 260 320 230 Q400 200 500 230 L500 280 Q400 250 320 280 Q240 310 160 280 Q80 250 0 280 Z" 
    fill="url(#waveGrad68)" opacity="0.5"/>
  
  <!-- Wave 6 -->
  <path d="M0 200 Q80 170 160 200 Q240 230 320 200 Q400 170 500 200 L500 250 Q400 220 320 250 Q240 280 160 250 Q80 220 0 250 Z" 
    fill="url(#waveGrad68)" opacity="0.4"/>
  
  <!-- Eight smaller ripples -->
  <g fill="url(#foamGrad68)">
  <ellipse cx="100" cy="180" rx="30" ry="8"/>
  <ellipse cx="250" cy="160" rx="25" ry="6"/>
  <ellipse cx="400" cy="175" rx="28" ry="7"/>
  <ellipse cx="150" cy="140" rx="20" ry="5"/>
  <ellipse cx="350" cy="145" rx="22" ry="6"/>
  <ellipse cx="50" cy="190" rx="18" ry="4"/>
  <ellipse cx="450" cy="185" rx="20" ry="5"/>
  <ellipse cx="300" cy="130" rx="15" ry="4"/>
  
  <!-- Ocean spray and mist -->
  <g fill="#ffffff" opacity="0.6">
  <circle cx="120" cy="150" r="3"/>
  <circle cx="280" cy="140" r="4"/>
  <circle cx="380" cy="155" r="3"/>
  <circle cx="180" cy="130" r="2"/>
  <circle cx="420" cy="165" r="3"/>
  <circle cx="80" cy="170" r="2"/>
  <circle cx="320" cy="125" r="3"/>
  <circle cx="220" cy="145" r="2"/>
  
    <!-- Tidal currents -->
    <g stroke="#00bcd4" stroke-width="2" fill="none" opacity="0.5">
    <path d="M50 380 Q150 360 250 380"/>
    <path d="M250 380 Q350 360 450 380"/>
    <path d="M80 340 Q180 320 280 340"/>
    <path d="M280 340 Q380 320 480 340"/>
    <path d="M120 300 Q220 280 320 300"/>
    <path d="M320 300 Q420 280 450 300"/>
    </g>
  
    <!-- Underwater swells -->
    <g stroke="#26c6da" stroke-width="1" fill="none" opacity="0.3">
    <circle cx="250" cy="400" r="80"/>
    <circle cx="250" cy="400" r="120"/>
    <circle cx="250" cy="400" r="160"/>
    <circle cx="250" cy="400" r="200"/>
    </g>
  
    <!-- Sea foam bubbles -->
    <g fill="#e0f7fa" opacity="0.7">
    <circle cx="90" cy="360" r="4"/>
    <circle cx="190" cy="340" r="3"/>
    <circle cx="290" cy="350" r="5"/>
    <circle cx="390" cy="330" r="3"/>
    <circle cx="140" cy="310" r="3"/>
    <circle cx="240" cy="290" r="4"/>
    <circle cx="340" cy="300" r="3"/>
    <circle cx="440" cy="280" r="2"/>
    <circle cx="60" cy="250" r="3"/>
    <circle cx="160" cy="230" r="2"/>
    <circle cx="260" cy="240" r="3"/>
    <circle cx="360" cy="220" r="2"/>
    </g>
  
    <!-- Ocean depth effects -->
    <g opacity="0.2">
    <ellipse cx="150" cy="420" rx="60" ry="20" fill="#0097a7"/>
    <ellipse cx="350" cy="430" rx="80" ry="25" fill="#0097a7"/>
    <ellipse cx="250" cy="410" rx="100" ry="30" fill="#00838f"/>
    </g>
  
    <!-- Whitecaps and crests -->
    <g fill="#ffffff" opacity="0.8">
    <path d="M80 200 L85 195 L90 200 L85 205 Z"/>
    <path d="M220 170 L225 165 L230 170 L225 175 Z"/>
    <path d="M360 185 L365 180 L370 185 L365 190 Z"/>
    <path d="M120 230 L125 225 L130 230 L125 235 Z"/>
    <path d="M280 210 L285 205 L290 210 L285 215 Z"/>
    <path d="M420 225 L425 220 L430 225 L425 230 Z"/>
    </g>
  
    <!-- Surface tension effects -->
    <g stroke="#b2ebf2" stroke-width="1" fill="none" opacity="0.4">
    <path d="M50 100 Q150 80 250 100"/>
    <path d="M250 100 Q350 80 450 100"/>
    <path d="M30 150 Q130 130 230 150"/>
    <path d="M270 150 Q370 130 470 150"/>
    </g>
  
    <!-- Number "68" integrated -->
    
    <!-- Kanji character 六十八 -->
    
    </g>
  </g>
</svg> 