<svg xmlns="http://www.w3.org/2000/svg" width="500" height="500" viewBox="0 0 500 500">
  <defs>
    <linearGradient id="bgGrad69" x1="0%" y1="0%" x2="100%" y2="100%">
      <stop offset="0%" style="stop-color:#fce4ec;stop-opacity:1" />
      <stop offset="100%" style="stop-color:#f8bbd9;stop-opacity:1" />
    </linearGradient>
    <linearGradient id="yinGrad69" x1="0%" y1="0%" x2="100%" y2="100%">
      <stop offset="0%" style="stop-color:#424242;stop-opacity:1" />
      <stop offset="50%" style="stop-color:#212121;stop-opacity:1" />
      <stop offset="100%" style="stop-color:#000000;stop-opacity:1" />
    </linearGradient>
    <linearGradient id="yangGrad69" x1="0%" y1="0%" x2="100%" y2="100%">
      <stop offset="0%" style="stop-color:#ffffff;stop-opacity:1" />
      <stop offset="50%" style="stop-color:#f5f5f5;stop-opacity:1" />
      <stop offset="100%" style="stop-color:#e0e0e0;stop-opacity:1" />
    </linearGradient>
    <radialGradient id="harmonyGlow69" cx="50%" cy="50%" r="50%">
      <stop offset="0%" style="stop-color:#ffc1cc;stop-opacity:0.8" />
      <stop offset="100%" style="stop-color:#ffc1cc;stop-opacity:0" />
    </radialGradient>
    <linearGradient id="energyGrad69" x1="0%" y1="0%" x2="100%" y2="0%">
      <stop offset="0%" style="stop-color:#f48fb1;stop-opacity:0.8" />
      <stop offset="50%" style="stop-color:#ec407a;stop-opacity:0.8" />
      <stop offset="100%" style="stop-color:#e91e63;stop-opacity:0.8" />
    </linearGradient>
  </defs>
  
  <!-- Background -->
  <rect width="500" height="500" fill="url(#bgGrad69)"/>
  
  <!-- Six yin-yang symbols plus nine energy swirls representing 69 -->
  <!-- Central large yin-yang -->
  <g transform="translate(250,250)">
  <circle cx="0" cy="0" r="100" fill="url(#harmonyGlow69)" opacity="0.4"/>
  
  <!-- Main yin-yang -->
  <circle cx="0" cy="0" r="60" fill="url(#yangGrad69)"/>
  <path d="M0 -60 A30 30 0 0 1 0 0 A30 30 0 0 0 0 60 A60 60 0 0 0 0 -60" fill="url(#yinGrad69)"/>
  
  <!-- Small circles -->
  <circle cx="0" cy="-30" r="15" fill="url(#yinGrad69)"/>
  <circle cx="0" cy="30" r="15" fill="url(#yangGrad69)"/>
  
  <!-- Six surrounding yin-yang symbols -->
  <!-- Top -->
  <g transform="translate(250,120)">
  <circle cx="0" cy="0" r="30" fill="url(#yangGrad69)"/>
  <path d="M0 -30 A15 15 0 0 1 0 0 A15 15 0 0 0 0 30 A30 30 0 0 0 0 -30" fill="url(#yinGrad69)"/>
  <circle cx="0" cy="-15" r="7" fill="url(#yinGrad69)"/>
  <circle cx="0" cy="15" r="7" fill="url(#yangGrad69)"/>
  
    <!-- Top-right -->
    <g transform="translate(380,170)">
    <circle cx="0" cy="0" r="25" fill="url(#yangGrad69)"/>
    <path d="M0 -25 A12.5 12.5 0 0 1 0 0 A12.5 12.5 0 0 0 0 25 A25 25 0 0 0 0 -25" fill="url(#yinGrad69)"/>
    <circle cx="0" cy="-12.5" r="6" fill="url(#yinGrad69)"/>
    <circle cx="0" cy="12.5" r="6" fill="url(#yangGrad69)"/>
    </g>
  
    <!-- Bottom-right -->
    <g transform="translate(380,330)">
    <circle cx="0" cy="0" r="25" fill="url(#yangGrad69)"/>
    <path d="M0 -25 A12.5 12.5 0 0 1 0 0 A12.5 12.5 0 0 0 0 25 A25 25 0 0 0 0 -25" fill="url(#yinGrad69)"/>
    <circle cx="0" cy="-12.5" r="6" fill="url(#yinGrad69)"/>
    <circle cx="0" cy="12.5" r="6" fill="url(#yangGrad69)"/>
    </g>
  
    <!-- Bottom -->
    <g transform="translate(250,380)">
    <circle cx="0" cy="0" r="30" fill="url(#yangGrad69)"/>
    <path d="M0 -30 A15 15 0 0 1 0 0 A15 15 0 0 0 0 30 A30 30 0 0 0 0 -30" fill="url(#yinGrad69)"/>
    <circle cx="0" cy="-15" r="7" fill="url(#yinGrad69)"/>
    <circle cx="0" cy="15" r="7" fill="url(#yangGrad69)"/>
    </g>
  
    <!-- Bottom-left -->
    <g transform="translate(120,330)">
    <circle cx="0" cy="0" r="25" fill="url(#yangGrad69)"/>
    <path d="M0 -25 A12.5 12.5 0 0 1 0 0 A12.5 12.5 0 0 0 0 25 A25 25 0 0 0 0 -25" fill="url(#yinGrad69)"/>
    <circle cx="0" cy="-12.5" r="6" fill="url(#yinGrad69)"/>
    <circle cx="0" cy="12.5" r="6" fill="url(#yangGrad69)"/>
    </g>
  
    <!-- Top-left -->
    <g transform="translate(120,170)">
    <circle cx="0" cy="0" r="25" fill="url(#yangGrad69)"/>
    <path d="M0 -25 A12.5 12.5 0 0 1 0 0 A12.5 12.5 0 0 0 0 25 A25 25 0 0 0 0 -25" fill="url(#yinGrad69)"/>
    <circle cx="0" cy="-12.5" r="6" fill="url(#yinGrad69)"/>
    <circle cx="0" cy="12.5" r="6" fill="url(#yangGrad69)"/>
    </g>
  
    <!-- Nine energy swirls -->
    <g stroke="url(#energyGrad69)" stroke-width="3" fill="none" opacity="0.6">
    <!-- Corner swirls -->
    <path d="M80 80 Q100 60 120 80 Q100 100 80 80"/>
    <path d="M420 80 Q400 60 380 80 Q400 100 420 80"/>
    <path d="M420 420 Q400 440 380 420 Q400 400 420 420"/>
    <path d="M80 420 Q100 440 120 420 Q100 400 80 420"/>
    
    <!-- Mid-edge swirls -->
    <path d="M250 50 Q270 30 290 50 Q270 70 250 50"/>
    <path d="M450 250 Q470 230 450 210 Q430 230 450 250"/>
    <path d="M250 450 Q230 470 210 450 Q230 430 250 450"/>
    <path d="M50 250 Q30 270 50 290 Q70 270 50 250"/>
    
    <!-- Center swirl -->
    <path d="M250 190 Q290 210 270 250 Q230 270 210 230 Q190 190 230 170 Q270 150 290 190"/>
    </g>
  
    <!-- Harmony waves -->
    <g stroke="#f48fb1" stroke-width="2" fill="none" opacity="0.4">
    <circle cx="250" cy="250" r="140"/>
    <circle cx="250" cy="250" r="180"/>
    <circle cx="250" cy="250" r="220"/>
    </g>
  
    <!-- Floating balance particles -->
    <g opacity="0.6">
    <circle cx="90" cy="100" r="3" fill="#000000"/>
    <circle cx="110" cy="100" r="3" fill="#ffffff"/>
    <circle cx="390" cy="100" r="3" fill="#ffffff"/>
    <circle cx="410" cy="100" r="3" fill="#000000"/>
    <circle cx="90" cy="400" r="3" fill="#ffffff"/>
    <circle cx="110" cy="400" r="3" fill="#000000"/>
    <circle cx="390" cy="400" r="3" fill="#000000"/>
    <circle cx="410" cy="400" r="3" fill="#ffffff"/>
    
    <circle cx="50" cy="240" r="2" fill="#000000"/>
    <circle cx="50" cy="260" r="2" fill="#ffffff"/>
    <circle cx="450" cy="240" r="2" fill="#ffffff"/>
    <circle cx="450" cy="260" r="2" fill="#000000"/>
    </g>
  
    <!-- Duality streams -->
    <g stroke="#ec407a" stroke-width="1" fill="none" opacity="0.3">
    <path d="M120 170 Q180 200 250 190"/>
    <path d="M250 190 Q320 200 380 170"/>
    <path d="M380 330 Q320 300 250 310"/>
    <path d="M250 310 Q180 300 120 330"/>
    </g>
  
    <!-- Cosmic balance indicators -->
    <g fill="#e91e63" opacity="0.5">
    <rect x="180" y="180" width="8" height="8" transform="rotate(45 184 184)"/>
    <rect x="312" y="180" width="8" height="8" transform="rotate(45 316 184)"/>
    <rect x="180" y="312" width="8" height="8" transform="rotate(45 184 316)"/>
    <rect x="312" y="312" width="8" height="8" transform="rotate(45 316 316)"/>
    
    <circle cx="150" cy="250" r="4"/>
    <circle cx="350" cy="250" r="4"/>
    <circle cx="250" cy="150" r="4"/>
    <circle cx="250" cy="350" r="4"/>
    </g>
  
    <!-- Harmonious sparkles -->
    <g fill="#ffffff" opacity="0.8">
    <path d="M100 120 L105 115 L110 120 L105 125 Z"/>
    <path d="M400 120 L405 115 L410 120 L405 125 Z"/>
    <path d="M100 380 L105 375 L110 380 L105 385 Z"/>
    <path d="M400 380 L405 375 L410 380 L405 385 Z"/>
    <path d="M250 60 L253 57 L256 60 L253 63 Z"/>
    <path d="M250 440 L253 437 L256 440 L253 443 Z"/>
    </g>
  
    <!-- Number "69" integrated -->
    
    <!-- Kanji character 六十九 -->
    
    </g>
  </g>
</svg> 