<svg xmlns="http://www.w3.org/2000/svg" width="500" height="500" viewBox="0 0 500 500">
  <defs>
    <linearGradient id="bgGrad7" x1="0%" y1="0%" x2="100%" y2="100%">
      <stop offset="0%" style="stop-color:#fff8e1;stop-opacity:1" />
      <stop offset="100%" style="stop-color:#ffecb3;stop-opacity:1" />
    </linearGradient>
    <linearGradient id="barGrad7" x1="0%" y1="0%" x2="100%" y2="0%">
      <stop offset="0%" style="stop-color:#ffb74d;stop-opacity:1" />
      <stop offset="50%" style="stop-color:#ff9800;stop-opacity:1" />
      <stop offset="100%" style="stop-color:#ffb74d;stop-opacity:1" />
    </linearGradient>
    <linearGradient id="glowGrad7" x1="0%" y1="0%" x2="100%" y2="0%">
      <stop offset="0%" style="stop-color:#ffe082;stop-opacity:0.6" />
      <stop offset="50%" style="stop-color:#ffb300;stop-opacity:0.8" />
      <stop offset="100%" style="stop-color:#ffe082;stop-opacity:0.6" />
    </linearGradient>
  </defs>
  
  <!-- Background -->
  <rect width="500" height="500" fill="url(#bgGrad7)"/>
  
  <!-- Glow effects for the bars -->
  <rect x="80" y="175" width="340" height="35" rx="17" fill="url(#glowGrad7)" opacity="0.4"/>
  <rect x="80" y="290" width="340" height="35" rx="17" fill="url(#glowGrad7)" opacity="0.4"/>
  
  <!-- Top horizontal bar -->
  <rect x="90" y="180" width="320" height="25" rx="12" fill="url(#barGrad7)" stroke="#f57c00" stroke-width="2"/>
  
  <!-- Bottom horizontal bar -->
  <rect x="90" y="295" width="320" height="25" rx="12" fill="url(#barGrad7)" stroke="#f57c00" stroke-width="2"/>
  
  <!-- Highlight effects on bars -->
  <rect x="95" y="185" width="310" height="8" rx="4" fill="#fff3c4" opacity="0.7"/>
  <rect x="95" y="300" width="310" height="8" rx="4" fill="#fff3c4" opacity="0.7"/>
  
  <!-- Decorative end caps -->
  <g fill="#ff8f00" opacity="0.8">
  <circle cx="105" cy="192" r="8"/>
  <circle cx="395" cy="192" r="8"/>
  <circle cx="105" cy="307" r="8"/>
  <circle cx="395" cy="307" r="8"/>
  
  <!-- Elegant sparkle effects -->
  <g fill="#ffb300" opacity="0.6">
  <path d="M150 130 L160 120 L170 130 L160 140 Z"/>
  <path d="M350 360 L360 350 L370 360 L360 370 Z"/>
  <path d="M120 240 L125 235 L130 240 L125 245 Z"/>
  <path d="M380 240 L385 235 L390 240 L385 245 Z"/>
  
    <!-- Connection lines showing relationship -->
    <g stroke="#ffb74d" stroke-width="1" opacity="0.3">
    <line x1="250" y1="205" x2="250" y2="295"/>
    <line x1="150" y1="205" x2="150" y2="295"/>
    <line x1="350" y1="205" x2="350" y2="295"/>
    </g>
  
    <!-- Number "2" subtly integrated -->
    <text x="250" y="400" font-family="Arial, sans-serif" font-size="42" font-weight="300" text-anchor="middle" fill="#e65100" opacity="0.4">2</text>
  
    <!-- Kanji character 二 -->
    <text x="250" y="110" font-family="serif" font-size="64" font-weight="bold" text-anchor="middle" fill="#bf360c" opacity="0.8">二</text>
    </g>
  </g>
</svg> 