<svg xmlns="http://www.w3.org/2000/svg" width="500" height="500" viewBox="0 0 500 500">
  <defs>
    <linearGradient id="bgGrad73" x1="0%" y1="0%" x2="100%" y2="100%">
      <stop offset="0%" style="stop-color:#fff3e0;stop-opacity:1" />
      <stop offset="100%" style="stop-color:#ffe0b2;stop-opacity:1" />
    </linearGradient>
    <linearGradient id="sandGrad73" x1="0%" y1="0%" x2="100%" y2="100%">
      <stop offset="0%" style="stop-color:#ffb74d;stop-opacity:1" />
      <stop offset="50%" style="stop-color:#ffa726;stop-opacity:1" />
      <stop offset="100%" style="stop-color:#ff9800;stop-opacity:1" />
    </linearGradient>
    <radialGradient id="duneGlow73" cx="50%" cy="50%" r="50%">
      <stop offset="0%" style="stop-color:#fff9c4;stop-opacity:0.8" />
      <stop offset="100%" style="stop-color:#fff9c4;stop-opacity:0" />
    </radialGradient>
    <linearGradient id="windGrad73" x1="0%" y1="0%" x2="100%" y2="0%">
      <stop offset="0%" style="stop-color:#ffcc80;stop-opacity:0.8" />
      <stop offset="50%" style="stop-color:#ffb74d;stop-opacity:0.8" />
      <stop offset="100%" style="stop-color:#ffa726;stop-opacity:0.8" />
    </linearGradient>
  </defs>
  
  <!-- Background -->
  <rect width="500" height="500" fill="url(#bgGrad73)"/>
  
  <!-- Seven sand dunes plus three oasis elements representing 73 -->
  <!-- Central oasis -->
  <g transform="translate(250,250)">
  <circle cx="0" cy="0" r="80" fill="url(#duneGlow73)" opacity="0.4"/>
  
  <!-- Oasis water -->
  <ellipse cx="0" cy="20" rx="50" ry="30" fill="#4fc3f7" opacity="0.7"/>
  <ellipse cx="0" cy="20" rx="35" ry="20" fill="#29b6f6" opacity="0.6"/>
  <ellipse cx="0" cy="20" rx="20" ry="12" fill="#03a9f4" opacity="0.8"/>
  
  <!-- Palm trees -->
  <g transform="translate(-20,-40)">
  <rect x="-2" y="0" width="4" height="40" fill="#8d6e63"/>
  <g fill="#66bb6a">
    <ellipse cx="0" cy="-10" rx="12" ry="4" transform="rotate(-30)"/>
    <ellipse cx="0" cy="-10" rx="12" ry="4" transform="rotate(30)"/>
    <ellipse cx="0" cy="-10" rx="12" ry="4" transform="rotate(90)"/>
    
    <g transform="translate(25,-30)">
      <rect x="-2" y="0" width="4" height="35" fill="#8d6e63"/>
      <g fill="#66bb6a">
        <ellipse cx="0" cy="-8" rx="10" ry="3" transform="rotate(-45)"/>
        <ellipse cx="0" cy="-8" rx="10" ry="3" transform="rotate(45)"/>
        <ellipse cx="0" cy="-8" rx="10" ry="3" transform="rotate(135)"/>
      </g>
    </g>
    </g>
  
    <!-- Seven surrounding sand dunes -->
    <!-- North dune -->
    <path d="M150 150 Q200 120 250 150 Q220 180 180 180 Q160 165 150 150" fill="url(#sandGrad73)" opacity="0.8"/>
  
    <!-- Northeast dune -->
    <path d="M320 120 Q360 100 400 120 Q380 140 350 145 Q330 135 320 120" fill="url(#sandGrad73)" opacity="0.7"/>
  
    <!-- East dune -->
    <path d="M380 200 Q420 180 450 200 Q430 220 400 225 Q385 212 380 200" fill="url(#sandGrad73)" opacity="0.8"/>
  
    <!-- Southeast dune -->
    <path d="M350 320 Q390 300 420 320 Q400 340 370 345 Q355 332 350 320" fill="url(#sandGrad73)" opacity="0.7"/>
  
    <!-- South dune -->
    <path d="M200 380 Q240 360 280 380 Q260 400 220 405 Q205 392 200 380" fill="url(#sandGrad73)" opacity="0.8"/>
  
    <!-- Southwest dune -->
    <path d="M100 350 Q140 330 170 350 Q150 370 120 375 Q105 362 100 350" fill="url(#sandGrad73)" opacity="0.7"/>
  
    <!-- West dune -->
    <path d="M80 220 Q120 200 150 220 Q130 240 100 245 Q85 232 80 220" fill="url(#sandGrad73)" opacity="0.8"/>
  
    <!-- Three additional oasis features -->
    <!-- Oasis spring -->
    <g transform="translate(180,180)">
    <circle cx="0" cy="0" r="15" fill="#4fc3f7" opacity="0.6"/>
    <circle cx="0" cy="0" r="8" fill="#03a9f4" opacity="0.8"/>
    </g>
  
    <!-- Date palms cluster -->
    <g transform="translate(320,320)">
    <rect x="-1" y="0" width="2" height="25" fill="#8d6e63"/>
    <rect x="8" y="0" width="2" height="20" fill="#8d6e63"/>
    <g fill="#66bb6a" opacity="0.7">
      <ellipse cx="0" cy="-5" rx="8" ry="2" transform="rotate(-20)"/>
      <ellipse cx="0" cy="-5" rx="8" ry="2" transform="rotate(40)"/>
      <ellipse cx="9" cy="-4" rx="6" ry="2" transform="rotate(10)"/>
      <ellipse cx="9" cy="-4" rx="6" ry="2" transform="rotate(-50)"/>
    </g>
    </g>
  
    <!-- Rock formation -->
    <g transform="translate(120,350)">
    <ellipse cx="0" cy="0" rx="20" ry="12" fill="#8d6e63" opacity="0.6"/>
    <ellipse cx="8" cy="-5" rx="12" ry="8" fill="#6d4c41" opacity="0.7"/>
    <ellipse cx="-6" cy="-3" rx="10" ry="6" fill="#5d4037" opacity="0.8"/>
    </g>
  
    <!-- Desert wind patterns -->
    <g stroke="url(#windGrad73)" stroke-width="2" fill="none" opacity="0.5">
    <path d="M50 100 Q150 80 250 100"/>
    <path d="M250 100 Q350 80 450 100"/>
    <path d="M450 200 Q430 300 450 400"/>
    <path d="M400 450 Q300 430 200 450"/>
    <path d="M50 400 Q70 300 50 200"/>
    </g>
  
    <!-- Sand particles in wind -->
    <g fill="#ffcc80" opacity="0.6">
    <circle cx="100" cy="120" r="2"/>
    <circle cx="200" cy="100" r="1"/>
    <circle cx="300" cy="110" r="2"/>
    <circle cx="400" cy="95" r="1"/>
    <circle cx="420" cy="180" r="2"/>
    <circle cx="430" cy="280" r="1"/>
    <circle cx="380" cy="420" r="2"/>
    <circle cx="280" cy="430" r="1"/>
    <circle cx="180" cy="440" r="2"/>
    <circle cx="80" cy="420" r="1"/>
    <circle cx="60" cy="320" r="2"/>
    <circle cx="70" cy="220" r="1"/>
    </g>
  
    <!-- Mirage effects -->
    <g stroke="#fff9c4" stroke-width="1" fill="none" opacity="0.3">
    <path d="M100 200 Q150 190 200 200"/>
    <path d="M300 300 Q350 290 400 300"/>
    <path d="M150 350 Q200 340 250 350"/>
    </g>
  
    <!-- Desert heat shimmer -->
    <g opacity="0.2">
    <ellipse cx="200" cy="400" rx="40" ry="10" fill="url(#windGrad73)"/>
    <ellipse cx="350" cy="380" rx="30" ry="8" fill="url(#windGrad73)"/>
    <ellipse cx="120" cy="420" rx="25" ry="6" fill="url(#windGrad73)"/>
    </g>
  
    <!-- Cacti silhouettes -->
    <g fill="#689f38" opacity="0.6">
    <rect x="98" y="280" width="4" height="30" rx="2"/>
    <rect x="88" y="290" width="15" height="4" rx="2"/>
    <rect x="108" y="285" width="8" height="4" rx="2"/>
    
    <rect x="378" y="250" width="4" height="25" rx="2"/>
    <rect x="370" y="258" width="12" height="4" rx="2"/>
    </g>
  
    <!-- Scorching sun rays -->
    <g stroke="#ffb74d" stroke-width="1" fill="none" opacity="0.4">
    <circle cx="250" cy="250" r="120"/>
    <circle cx="250" cy="250" r="160"/>
    <circle cx="250" cy="250" r="200"/>
    </g>
  
    <!-- Desert sparkles -->
    <g fill="#ffffff" opacity="0.8">
    <path d="M90 90 L95 85 L100 90 L95 95 Z"/>
    <path d="M410 90 L415 85 L420 90 L415 95 Z"/>
    <path d="M90 410 L95 405 L100 410 L95 415 Z"/>
    <path d="M410 410 L415 405 L420 410 L415 415 Z"/>
    <path d="M250 60 L253 57 L256 60 L253 63 Z"/>
    <path d="M250 440 L253 437 L256 440 L253 443 Z"/>
    </g>
  
    <!-- Number "73" integrated -->
    <text x="450" y="50" font-family="Arial, sans-serif" font-size="28" font-weight="300" text-anchor="middle" fill="#e65100" opacity="0.5">73</text>
  
    <!-- Kanji character 七十三 -->
    <text x="80" y="50" font-family="serif" font-size="36" font-weight="bold" text-anchor="middle" fill="#e65100" opacity="0.9">七十三</text>
    </g>
  </g>
</svg> 