<svg xmlns="http://www.w3.org/2000/svg" width="500" height="500" viewBox="0 0 500 500">
  <defs>
    <radialGradient id="bgGrad74" cx="50%" cy="30%" r="80%">
      <stop offset="0%" style="stop-color:#1a237e;stop-opacity:1" />
      <stop offset="50%" style="stop-color:#283593;stop-opacity:1" />
      <stop offset="100%" style="stop-color:#0d47a1;stop-opacity:1" />
    </radialGradient>
    <radialGradient id="moonGrad74" cx="30%" cy="30%" r="70%">
      <stop offset="0%" style="stop-color:#fff9c4;stop-opacity:1" />
      <stop offset="50%" style="stop-color:#fff176;stop-opacity:1" />
      <stop offset="100%" style="stop-color:#fdd835;stop-opacity:1" />
    </radialGradient>
    <radialGradient id="craterGrad74" cx="40%" cy="40%" r="60%">
      <stop offset="0%" style="stop-color:#ffcc02;stop-opacity:1" />
      <stop offset="100%" style="stop-color:#ff8f00;stop-opacity:1" />
    </radialGradient>
    <radialGradient id="glowGrad74" cx="50%" cy="50%" r="60%">
      <stop offset="0%" style="stop-color:#fff9c4;stop-opacity:0.8" />
      <stop offset="100%" style="stop-color:#fff9c4;stop-opacity:0" />
    </radialGradient>
  </defs>
  
  <!-- Night sky background -->
  <rect width="500" height="500" fill="url(#bgGrad74)"/>
  
  <!-- Stars scattered in sky -->
  <g fill="#fff9c4" opacity="0.8">
  <circle cx="80" cy="80" r="2"/>
  <circle cx="150" cy="60" r="1"/>
  <circle cx="200" cy="90" r="1"/>
  <circle cx="350" cy="70" r="2"/>
  <circle cx="420" cy="100" r="1"/>
  <circle cx="100" cy="150" r="1"/>
  <circle cx="400" cy="180" r="1"/>
  <circle cx="50" cy="200" r="2"/>
  <circle cx="450" cy="250" r="1"/>
  <circle cx="70" cy="300" r="1"/>
  <circle cx="380" cy="320" r="2"/>
  <circle cx="120" cy="400" r="1"/>
  <circle cx="430" cy="400" r="1"/>
  
  <!-- Milky Way effect -->
  <ellipse cx="250" cy="100" rx="200" ry="50" fill="#ffffff" opacity="0.1" transform="rotate(30 250 100)"/>
  
  <!-- Moon glow -->
  <circle cx="250" cy="250" r="150" fill="url(#glowGrad74)"/>
  
  <!-- Main moon representing 月 -->
  <circle cx="250" cy="250" r="100" fill="url(#moonGrad74)" stroke="#ffb300" stroke-width="3"/>
  
  <!-- Moon craters -->
  <g fill="url(#craterGrad74)" opacity="0.6">
  <ellipse cx="220" cy="220" rx="15" ry="12"/>
  <ellipse cx="280" cy="200" rx="10" ry="8"/>
  <ellipse cx="270" cy="270" rx="12" ry="10"/>
  <ellipse cx="200" cy="280" rx="8" ry="6"/>
  <ellipse cx="240" cy="300" rx="6" ry="5"/>
  <ellipse cx="290" cy="230" rx="7" ry="6"/>
  
    <!-- Moon phases around main moon -->
    <!-- New moon -->
    <circle cx="120" cy="120" r="25" fill="#283593" stroke="#fff176" stroke-width="1" opacity="0.7"/>
  
    <!-- Waxing crescent -->
    <g transform="translate(380,120)">
    <circle cx="0" cy="0" r="25" fill="#283593" opacity="0.7"/>
    <path d="M-15,-20 Q0,-25 15,-20 Q0,0 15,20 Q0,25 -15,20 Q0,0 -15,-20" fill="url(#moonGrad74)" opacity="0.7"/>
    </g>
  
    <!-- Waxing gibbous -->
    <g transform="translate(120,380)">
    <circle cx="0" cy="0" r="25" fill="url(#moonGrad74)" opacity="0.7"/>
    <path d="M0,-25 Q15,-20 20,0 Q15,20 0,25 Q-5,0 0,-25" fill="#283593" opacity="0.7"/>
    </g>
  
    <!-- Waning gibbous -->
    <g transform="translate(380,380)">
    <circle cx="0" cy="0" r="25" fill="url(#moonGrad74)" opacity="0.7"/>
    <path d="M0,-25 Q-15,-20 -20,0 Q-15,20 0,25 Q5,0 0,-25" fill="#283593" opacity="0.7"/>
    </g>
  
    <!-- Lunar surface texture -->
    <g stroke="#ffb300" stroke-width="1" fill="none" opacity="0.3">
    <circle cx="250" cy="250" r="80"/>
    <circle cx="250" cy="250" r="60"/>
    <path d="M200 250 Q225 230 250 250 Q275 270 300 250"/>
    <path d="M250 200 Q230 225 250 250 Q270 275 250 300"/>
    </g>
  
    <!-- Mare (lunar seas) -->
    <g fill="#ffcc02" opacity="0.4">
    <ellipse cx="230" cy="240" rx="30" ry="20"/>
    <ellipse cx="270" cy="260" rx="25" ry="15"/>
    </g>
  
    <!-- Lunar mountains -->
    <g fill="#fff176" opacity="0.5">
    <path d="M180 280 L190 270 L200 280"/>
    <path d="M300 220 L310 210 L320 220"/>
    <path d="M260 180 L270 170 L280 180"/>
    </g>
  
    <!-- Moonlight beams -->
    <g stroke="#fff9c4" stroke-width="2" opacity="0.5">
    <line x1="250" y1="150" x2="250" y2="50"/>
    <line x1="320" y1="180" x2="400" y2="100"/>
    <line x1="350" y1="250" x2="450" y2="250"/>
    <line x1="320" y1="320" x2="400" y2="400"/>
    <line x1="250" y1="350" x2="250" y2="450"/>
    <line x1="180" y1="320" x2="100" y2="400"/>
    <line x1="150" y1="250" x2="50" y2="250"/>
    <line x1="180" y1="180" x2="100" y2="100"/>
    </g>
  
    <!-- Tidal effects -->
    <g stroke="#3f51b5" stroke-width="2" fill="none" opacity="0.4">
    <path d="M50 450 Q100 440 150 450 T250 450 T350 450 T450 450"/>
    <path d="M30 470 Q80 460 130 470 T230 470 T330 470 T430 470"/>
    </g>
  
    <!-- Night creatures silhouettes -->
    <g fill="#1a237e" opacity="0.6">
    <!-- Owl -->
    <g transform="translate(400,300)">
      <ellipse cx="0" cy="0" rx="8" ry="12"/>
      <circle cx="-3" cy="-5" r="2"/>
      <circle cx="3" cy="-5" r="2"/>
    </g>
    
    <!-- Bat -->
    <g transform="translate(100,200)">
      <path d="M-8,0 Q-5,-5 0,0 Q5,-5 8,0 Q5,2 0,0 Q-5,2 -8,0"/>
    </g>
    </g>
  
    <!-- Lunar calendar marks -->
    <g stroke="#fff176" stroke-width="1" opacity="0.4">
    <circle cx="250" cy="100" r="80"/>
    <line x1="250" y1="20" x2="250" y2="40"/>
    <line x1="330" y1="100" x2="310" y2="100"/>
    <line x1="250" y1="180" x2="250" y2="160"/>
    <line x1="170" y1="100" x2="190" y2="100"/>
    </g>
  
    <!-- Moon's gravitational field -->
    <g stroke="#fff9c4" stroke-width="1" fill="none" opacity="0.2">
    <circle cx="250" cy="250" r="120"/>
    <circle cx="250" cy="250" r="140"/>
    <circle cx="250" cy="250" r="160"/>
    <circle cx="250" cy="250" r="180"/>
    </g>
  
    <!-- Kanji character 月 -->
    
    </g>
  </g>
</svg> 