<svg xmlns="http://www.w3.org/2000/svg" width="500" height="500" viewBox="0 0 500 500">
  <defs>
    <linearGradient id="bgGrad77" x1="0%" y1="0%" x2="100%" y2="100%">
      <stop offset="0%" style="stop-color:#ffebee;stop-opacity:1" />
      <stop offset="100%" style="stop-color:#ffcdd2;stop-opacity:1" />
    </linearGradient>
    <linearGradient id="footGrad77" x1="0%" y1="0%" x2="0%" y2="100%">
      <stop offset="0%" style="stop-color:#f44336;stop-opacity:1" />
      <stop offset="50%" style="stop-color:#d32f2f;stop-opacity:1" />
      <stop offset="100%" style="stop-color:#b71c1c;stop-opacity:1" />
    </linearGradient>
    <radialGradient id="stopGlow77" cx="50%" cy="50%" r="70%">
      <stop offset="0%" style="stop-color:#ef5350;stop-opacity:0.6" />
      <stop offset="100%" style="stop-color:#ef5350;stop-opacity:0" />
    </radialGradient>
    <linearGradient id="motionGrad77" x1="0%" y1="0%" x2="100%" y2="0%">
      <stop offset="0%" style="stop-color:#ff5722;stop-opacity:0.8" />
      <stop offset="100%" style="stop-color:#ff5722;stop-opacity:0" />
    </linearGradient>
  </defs>
  
  <!-- Background -->
  <rect width="500" height="500" fill="url(#bgGrad77)"/>
  
  <!-- Stop energy aura -->
  <ellipse cx="250" cy="300" rx="180" ry="150" fill="url(#stopGlow77)"/>
  
  <!-- Main stopping foot representing 止 -->
  <!-- Foot sole (horizontal base of 止) -->
  <rect x="150" y="320" width="200" height="30" rx="15" fill="url(#footGrad77)" stroke="#8d0000" stroke-width="3"/>
  
  <!-- Foot vertical part (vertical stroke of 止) -->
  <rect x="230" y="200" width="25" height="150" rx="12" fill="url(#footGrad77)" stroke="#8d0000" stroke-width="3"/>
  
  <!-- Foot toe (top part of 止) -->
  <ellipse cx="242" cy="180" rx="20" ry="25" fill="url(#footGrad77)" stroke="#8d0000" stroke-width="2"/>
  
  <!-- Motion blur lines (showing deceleration) -->
  <g stroke="url(#motionGrad77)" stroke-width="4" opacity="0.7">
  <line x1="50" y1="300" x2="140" y2="300"/>
  <line x1="60" y1="320" x2="140" y2="320"/>
  <line x1="70" y1="280" x2="140" y2="280"/>
  <line x1="40" y1="340" x2="140" y2="340"/>
  <line x1="80" y1="260" x2="140" y2="260"/>
  
  <!-- Speed reduction indicators -->
  <g fill="#ff5722" opacity="0.6">
  <rect x="80" y="295" width="15" height="10"/>
  <rect x="100" y="295" width="12" height="10"/>
  <rect x="120" y="295" width="8" height="10"/>
  <rect x="135" y="295" width="5" height="10"/>
  
    <!-- STOP sign -->
    <g transform="translate(380,150)">
    <polygon points="0,-30 21,-21 21,21 0,30 -21,21 -21,-21" fill="#d32f2f" stroke="#b71c1c" stroke-width="3"/>
    <text x="0" y="5" font-family="Arial, sans-serif" font-size="14" font-weight="bold" text-anchor="middle" fill="#fff">STOP</text>
    </g>
  
    <!-- Brake marks on ground -->
    <g stroke="#424242" stroke-width="3" opacity="0.6">
    <line x1="80" y1="380" x2="350" y2="380"/>
    <line x1="85" y1="390" x2="345" y2="390"/>
    <line x1="90" y1="400" x2="340" y2="400"/>
    </g>
  
    <!-- Dust clouds from sudden stop -->
    <g fill="#bdbdbd" opacity="0.5">
    <ellipse cx="120" cy="360" rx="20" ry="15"/>
    <ellipse cx="380" cy="370" rx="25" ry="18"/>
    <ellipse cx="100" cy="350" rx="15" ry="12"/>
    <ellipse cx="400" cy="360" rx="18" ry="14"/>
    </g>
  
    <!-- Momentum indicators -->
    <g stroke="#ff1744" stroke-width="2" opacity="0.5">
    <path d="M100 250 Q150 240 200 250"/>
    <path d="M90 270 Q140 260 190 270"/>
    <path d="M110 230 Q160 220 210 230"/>
    </g>
  
    <!-- Emergency signals -->
    <g fill="#ff1744" opacity="0.8">
    <circle cx="120" cy="200" r="8"/>
    <circle cx="120" cy="200" r="12" fill="none" stroke="#ff1744" stroke-width="2" opacity="0.4"/>
    <circle cx="120" cy="200" r="16" fill="none" stroke="#ff1744" stroke-width="2" opacity="0.2"/>
    </g>
  
    <!-- Sudden halt impact lines -->
    <g stroke="#d32f2f" stroke-width="3" opacity="0.6">
    <line x1="350" y1="250" x2="380" y2="220"/>
    <line x1="350" y1="280" x2="380" y2="310"/>
    <line x1="350" y1="320" x2="380" y2="350"/>
    <line x1="350" y1="350" x2="380" y2="380"/>
    </g>
  
    <!-- Balance/stability indicators -->
    <g stroke="#8d0000" stroke-width="2" fill="none" opacity="0.4">
    <path d="M200 380 Q250 370 300 380"/>
    <line x1="242" y1="160" x2="242" y2="380"/>
    </g>
  
    <!-- Warning triangles -->
    <g fill="#ff9800" opacity="0.7">
    <g transform="translate(100,120)">
      <path d="M0,-15 L13,10 L-13,10 Z"/>
      <text x="0" y="2" font-family="Arial, sans-serif" font-size="12" font-weight="bold" text-anchor="middle" fill="#000">!</text>
    </g>
    
    <g transform="translate(400,120)">
      <path d="M0,-15 L13,10 L-13,10 Z"/>
      <text x="0" y="2" font-family="Arial, sans-serif" font-size="12" font-weight="bold" text-anchor="middle" fill="#000">!</text>
    </g>
    </g>
  
    <!-- Sudden deceleration sparkles -->
    <g fill="#ff5722" opacity="0.7">
    <path d="M160 200 L170 190 L180 200 L170 210 Z"/>
    <path d="M320 240 L330 230 L340 240 L330 250 Z"/>
    <path d="M140 350 L150 340 L160 350 L150 360 Z"/>
    <path d="M340 380 L350 370 L360 380 L350 390 Z"/>
    </g>
  
    <!-- Ground impact -->
    <g stroke="#8d0000" stroke-width="2" fill="none" opacity="0.3">
    <circle cx="242" cy="420" r="30"/>
    <circle cx="242" cy="420" r="50"/>
    <circle cx="242" cy="420" r="70"/>
    </g>
  
    <!-- Friction heat -->
    <g fill="#ff6f00" opacity="0.4">
    <ellipse cx="200" cy="400" rx="40" ry="15"/>
    <ellipse cx="280" cy="405" rx="35" ry="12"/>
    </g>
  
    <!-- Traffic control elements -->
    <g transform="translate(50,350)" opacity="0.6">
    <rect x="0" y="0" width="8" height="40" fill="#ffeb3b"/>
    <rect x="0" y="45" width="8" height="15" fill="#f44336"/>
    </g>
  
    <!-- Stopping distance markers -->
    <g fill="#9e9e9e" opacity="0.5">
    <rect x="30" y="440" width="5" height="15"/>
    <rect x="100" y="440" width="5" height="15"/>
    <rect x="170" y="440" width="5" height="15"/>
    <rect x="240" y="440" width="5" height="15"/>
    <text x="135" y="470" font-family="Arial, sans-serif" font-size="12" text-anchor="middle" fill="#616161">Stopping Distance</text>
    </g>
  
    <!-- Kanji character 止 -->
    <text x="100" y="80" font-family="serif" font-size="56" font-weight="bold" text-anchor="middle" fill="#b71c1c" opacity="0.8">止</text>
    </g>
  </g>
</svg> 