<svg xmlns="http://www.w3.org/2000/svg" width="500" height="500" viewBox="0 0 500 500">
  <defs>
    <linearGradient id="bgGrad78" x1="0%" y1="0%" x2="100%" y2="100%">
      <stop offset="0%" style="stop-color:#e8f5e8;stop-opacity:1" />
      <stop offset="100%" style="stop-color:#c8e6c8;stop-opacity:1" />
    </linearGradient>
    <linearGradient id="correctGrad78" x1="0%" y1="0%" x2="0%" y2="100%">
      <stop offset="0%" style="stop-color:#4caf50;stop-opacity:1" />
      <stop offset="50%" style="stop-color:#388e3c;stop-opacity:1" />
      <stop offset="100%" style="stop-color:#2e7d32;stop-opacity:1" />
    </linearGradient>
    <radialGradient id="rightGlow78" cx="50%" cy="50%" r="70%">
      <stop offset="0%" style="stop-color:#a5d6a7;stop-opacity:0.6" />
      <stop offset="100%" style="stop-color:#a5d6a7;stop-opacity:0" />
    </radialGradient>
    <linearGradient id="precisionGrad78" x1="0%" y1="0%" x2="100%" y2="0%">
      <stop offset="0%" style="stop-color:#66bb6a;stop-opacity:1" />
      <stop offset="100%" style="stop-color:#4caf50;stop-opacity:1" />
    </linearGradient>
  </defs>
  
  <!-- Background -->
  <rect width="500" height="500" fill="url(#bgGrad78)"/>
  
  <!-- Righteousness aura -->
  <ellipse cx="250" cy="250" rx="180" ry="150" fill="url(#rightGlow78)"/>
  
  <!-- Main character representing 正 -->
  <!-- Top horizontal line -->
  <rect x="150" y="150" width="200" height="20" rx="10" fill="url(#correctGrad78)" stroke="#1b5e20" stroke-width="2"/>
  
  <!-- Vertical line -->
  <rect x="240" y="150" width="20" height="200" rx="10" fill="url(#correctGrad78)" stroke="#1b5e20" stroke-width="2"/>
  
  <!-- Middle horizontal lines -->
  <rect x="170" y="220" width="160" height="15" rx="7" fill="url(#correctGrad78)" stroke="#1b5e20" stroke-width="2"/>
  <rect x="170" y="260" width="160" height="15" rx="7" fill="url(#correctGrad78)" stroke="#1b5e20" stroke-width="2"/>
  
  <!-- Bottom horizontal line -->
  <rect x="150" y="330" width="200" height="20" rx="10" fill="url(#correctGrad78)" stroke="#1b5e20" stroke-width="2"/>
  
  <!-- Precision grid lines -->
  <g stroke="#81c784" stroke-width="1" opacity="0.3">
  <!-- Vertical guides -->
  <line x1="100" y1="100" x2="100" y2="400"/>
  <line x1="150" y1="100" x2="150" y2="400"/>
  <line x1="200" y1="100" x2="200" y2="400"/>
  <line x1="250" y1="100" x2="250" y2="400"/>
  <line x1="300" y1="100" x2="300" y2="400"/>
  <line x1="350" y1="100" x2="350" y2="400"/>
  <line x1="400" y1="100" x2="400" y2="400"/>
  
  <!-- Horizontal guides -->
  <line x1="100" y1="150" x2="400" y2="150"/>
  <line x1="100" y1="200" x2="400" y2="200"/>
  <line x1="100" y1="250" x2="400" y2="250"/>
  <line x1="100" y1="300" x2="400" y2="300"/>
  <line x1="100" y1="350" x2="400" y2="350"/>
  
  <!-- Balance indicators -->
  <g stroke="#4caf50" stroke-width="2" opacity="0.6">
  <!-- Balance scales -->
  <g transform="translate(80,200)">
    <line x1="-20" y1="0" x2="20" y2="0"/>
    <line x1="0" y1="-10" x2="0" y2="10"/>
    <circle cx="-15" cy="10" r="8" fill="none"/>
    <circle cx="15" cy="10" r="8" fill="none"/>
    
    <g transform="translate(420,300)">
      <line x1="-15" y1="0" x2="15" y2="0"/>
      <line x1="0" y1="-8" x2="0" y2="8"/>
      <circle cx="-12" cy="8" r="6" fill="none"/>
      <circle cx="12" cy="8" r="6" fill="none"/>
    </g>
    </g>
  
    <!-- Checkmarks showing correctness -->
    <g stroke="url(#correctGrad78)" stroke-width="4" fill="none" opacity="0.8">
    <path d="M100 120 L120 140 L160 100"/>
    <path d="M380 120 L400 140 L440 100"/>
    <path d="M80 380 L100 400 L140 360"/>
    <path d="M360 380 L380 400 L420 360"/>
    </g>
  
    <!-- Rulers/measurement tools -->
    <g fill="url(#precisionGrad78)" opacity="0.7">
    <!-- Horizontal ruler -->
    <g transform="translate(100,80)">
      <rect x="0" y="0" width="300" height="15" rx="2"/>
      <g stroke="#1b5e20" stroke-width="1">
        <line x1="0" y1="15" x2="0" y2="20"/>
        <line x1="50" y1="15" x2="50" y2="18"/>
        <line x1="100" y1="15" x2="100" y2="20"/>
        <line x1="150" y1="15" x2="150" y2="18"/>
        <line x1="200" y1="15" x2="200" y2="20"/>
        <line x1="250" y1="15" x2="250" y2="18"/>
        <line x1="300" y1="15" x2="300" y2="20"/>
      </g>
    </g>
    
    <!-- Vertical ruler -->
    <g transform="translate(50,150)">
      <rect x="0" y="0" width="15" height="200" rx="2"/>
      <g stroke="#1b5e20" stroke-width="1">
        <line x1="15" y1="0" x2="20" y2="0"/>
        <line x1="15" y1="40" x2="18" y2="40"/>
        <line x1="15" y1="80" x2="20" y2="80"/>
        <line x1="15" y1="120" x2="18" y2="120"/>
        <line x1="15" y1="160" x2="20" y2="160"/>
        <line x1="15" y1="200" x2="20" y2="200"/>
      </g>
    </g>
    </g>
  
    <!-- Level/spirit level -->
    <g transform="translate(150,450)" opacity="0.8">
    <rect x="0" y="0" width="200" height="20" rx="10" fill="#ffeb3b" stroke="#f57c00" stroke-width="2"/>
    <circle cx="100" cy="10" r="6" fill="#4caf50"/>
    <circle cx="100" cy="10" r="3" fill="#fff"/>
    <text x="100" y="35" font-family="Arial, sans-serif" font-size="10" text-anchor="middle" fill="#2e7d32">LEVEL</text>
    </g>
  
    <!-- Right angles -->
    <g stroke="url(#correctGrad78)" stroke-width="3" fill="none" opacity="0.6">
    <path d="M120 120 L120 140 L140 140"/>
    <path d="M360 120 L360 140 L380 140"/>
    <path d="M120 360 L120 380 L140 380"/>
    <path d="M360 360 L360 380 L380 380"/>
    </g>
  
    <!-- Accuracy targets -->
    <g stroke="url(#correctGrad78)" stroke-width="2" fill="none" opacity="0.5">
    <g transform="translate(450,150)">
      <circle cx="0" cy="0" r="15"/>
      <circle cx="0" cy="0" r="10"/>
      <circle cx="0" cy="0" r="5"/>
      <circle cx="0" cy="0" r="2" fill="#4caf50"/>
    </g>
    
    <g transform="translate(50,350)">
      <circle cx="0" cy="0" r="12"/>
      <circle cx="0" cy="0" r="8"/>
      <circle cx="0" cy="0" r="4"/>
      <circle cx="0" cy="0" r="1" fill="#4caf50"/>
    </g>
    </g>
  
    <!-- Mathematical equals signs -->
    <g fill="url(#correctGrad78)" opacity="0.6">
    <rect x="380" y="210" width="30" height="5" rx="2"/>
    <rect x="380" y="225" width="30" height="5" rx="2"/>
    
    <rect x="90" y="270" width="25" height="4" rx="2"/>
    <rect x="90" y="282" width="25" height="4" rx="2"/>
    </g>
  
    <!-- Compass/protractor -->
    <g transform="translate(450,350)" opacity="0.7">
    <circle cx="0" cy="0" r="20" stroke="url(#correctGrad78)" stroke-width="2" fill="none"/>
    <line x1="0" y1="0" x2="0" y2="-20" stroke="url(#correctGrad78)" stroke-width="2"/>
    <line x1="0" y1="0" x2="14" y2="-14" stroke="url(#correctGrad78)" stroke-width="2"/>
    <circle cx="0" cy="0" r="2" fill="url(#correctGrad78)"/>
    </g>
  
    <!-- Justice/law symbols -->
    <g transform="translate(50,100)" opacity="0.6">
    <rect x="0" y="0" width="3" height="30" fill="url(#correctGrad78)"/>
    <ellipse cx="1.5" cy="35" rx="8" ry="5" fill="url(#correctGrad78)"/>
    <text x="1.5" y="50" font-family="Arial, sans-serif" font-size="8" text-anchor="middle" fill="#2e7d32">⚖</text>
    </g>
  
    <!-- Approval stamps -->
    <g fill="url(#correctGrad78)" opacity="0.7">
    <g transform="translate(400,200)">
      <circle cx="0" cy="0" r="15"/>
      <text x="0" y="3" font-family="Arial, sans-serif" font-size="10" font-weight="bold" text-anchor="middle" fill="#fff">✓</text>
    </g>
    
    <g transform="translate(100,300)">
      <circle cx="0" cy="0" r="12"/>
      <text x="0" y="3" font-family="Arial, sans-serif" font-size="8" font-weight="bold" text-anchor="middle" fill="#fff">OK</text>
    </g>
    </g>
  
    <!-- Alignment sparkles -->
    <g fill="url(#correctGrad78)" opacity="0.8">
    <path d="M200 100 L210 90 L220 100 L210 110 Z"/>
    <path d="M300 400 L310 390 L320 400 L310 410 Z"/>
    <path d="M450 250 L460 240 L470 250 L460 260 Z"/>
    <path d="M50 250 L60 240 L70 250 L60 260 Z"/>
    </g>
  
    <!-- Kanji character 正 -->
    <text x="100" y="80" font-family="serif" font-size="56" font-weight="bold" text-anchor="middle" fill="#1b5e20" opacity="0.8">正</text>
    </g>
  </g>
</svg> 