<svg xmlns="http://www.w3.org/2000/svg" width="500" height="500" viewBox="0 0 500 500">
  <defs>
    <linearGradient id="bgGrad79" x1="0%" y1="0%" x2="0%" y2="100%">
      <stop offset="0%" style="stop-color:#0d47a1;stop-opacity:1" />
      <stop offset="50%" style="stop-color:#1565c0;stop-opacity:1" />
      <stop offset="100%" style="stop-color:#1976d2;stop-opacity:1" />
    </linearGradient>
    <radialGradient id="starGrad79" cx="50%" cy="50%" r="50%">
      <stop offset="0%" style="stop-color:#fff9c4;stop-opacity:1" />
      <stop offset="100%" style="stop-color:#ffeb3b;stop-opacity:1" />
    </radialGradient>
    <radialGradient id="celestialGlow79" cx="50%" cy="50%" r="70%">
      <stop offset="0%" style="stop-color:#64b5f6;stop-opacity:0.6" />
      <stop offset="100%" style="stop-color:#64b5f6;stop-opacity:0" />
    </radialGradient>
    <linearGradient id="dipperGrad79" x1="0%" y1="0%" x2="0%" y2="100%">
      <stop offset="0%" style="stop-color:#8d6e63;stop-opacity:1" />
      <stop offset="100%" style="stop-color:#5d4037;stop-opacity:1" />
    </linearGradient>
  </defs>
  
  <!-- Night sky background -->
  <rect width="500" height="500" fill="url(#bgGrad79)"/>
  
  <!-- Celestial aura -->
  <ellipse cx="250" cy="200" rx="200" ry="150" fill="url(#celestialGlow79)"/>
  
  <!-- Big Dipper constellation representing 斗 -->
  <!-- The seven main stars of the Big Dipper -->
  <g fill="url(#starGrad79)">
  <!-- Bowl stars -->
  <circle cx="150" cy="150" r="8"/>
  <circle cx="200" cy="140" r="9"/>
  <circle cx="220" cy="180" r="7"/>
  <circle cx="170" cy="190" r="8"/>
  
  <!-- Handle stars -->
  <circle cx="250" cy="120" r="7"/>
  <circle cx="300" cy="100" r="8"/>
  <circle cx="350" cy="90" r="9"/>
  
  <!-- Star connections forming the dipper -->
  <g stroke="#fff9c4" stroke-width="2" opacity="0.8">
  <!-- Bowl connections -->
  <line x1="150" y1="150" x2="200" y2="140"/>
  <line x1="200" y1="140" x2="220" y2="180"/>
  <line x1="220" y1="180" x2="170" y2="190"/>
  <line x1="170" y1="190" x2="150" y2="150"/>
  
  <!-- Handle connections -->
  <line x1="200" y1="140" x2="250" y2="120"/>
  <line x1="250" y1="120" x2="300" y2="100"/>
  <line x1="300" y1="100" x2="350" y2="90"/>
  
    <!-- Star twinkle effects -->
    <g stroke="#fff9c4" stroke-width="1" opacity="0.6">
    <g transform="translate(150,150)">
      <line x1="-12" y1="0" x2="12" y2="0"/>
      <line x1="0" y1="-12" x2="0" y2="12"/>
      <line x1="-8" y1="-8" x2="8" y2="8"/>
      <line x1="-8" y1="8" x2="8" y2="-8"/>
    </g>
    
    <g transform="translate(200,140)">
      <line x1="-10" y1="0" x2="10" y2="0"/>
      <line x1="0" y1="-10" x2="0" y2="10"/>
      <line x1="-7" y1="-7" x2="7" y2="7"/>
      <line x1="-7" y1="7" x2="7" y2="-7"/>
    </g>
    
    <g transform="translate(350,90)">
      <line x1="-15" y1="0" x2="15" y2="0"/>
      <line x1="0" y1="-15" x2="0" y2="15"/>
      <line x1="-10" y1="-10" x2="10" y2="10"/>
      <line x1="-10" y1="10" x2="10" y2="-10"/>
    </g>
    </g>
  
    <!-- Physical dipper/ladle representing the character -->
    <g transform="translate(250,300)" opacity="0.8">
    <!-- Dipper bowl -->
    <ellipse cx="0" cy="0" rx="30" ry="25" fill="url(#dipperGrad79)" stroke="#4e342e" stroke-width="3"/>
    <ellipse cx="0" cy="-5" rx="25" ry="20" fill="#a1887f"/>
    
    <!-- Dipper handle -->
    <rect x="25" y="-3" width="60" height="6" rx="3" fill="url(#dipperGrad79)" stroke="#4e342e" stroke-width="2"/>
    
    <!-- Handle grip -->
    <ellipse cx="85" cy="0" rx="8" ry="12" fill="#6d4c41"/>
    
    <!-- Bowl interior -->
    <ellipse cx="0" cy="0" rx="20" ry="15" fill="#8d6e63"/>
    </g>
  
    <!-- Measurement markings -->
    <g transform="translate(200,350)" opacity="0.7">
    <rect x="0" y="0" width="100" height="20" rx="10" fill="url(#dipperGrad79)" stroke="#4e342e" stroke-width="2"/>
    <g stroke="#4e342e" stroke-width="1">
      <line x1="10" y1="20" x2="10" y2="25"/>
      <line x1="25" y1="20" x2="25" y2="23"/>
      <line x1="40" y1="20" x2="40" y2="25"/>
      <line x1="55" y1="20" x2="55" y2="23"/>
      <line x1="70" y1="20" x2="70" y2="25"/>
      <line x1="85" y1="20" x2="85" y2="23"/>
      <line x1="100" y1="20" x2="100" y2="25"/>
    </g>
    <text x="50" y="35" font-family="Arial, sans-serif" font-size="8" text-anchor="middle" fill="#fff9c4">Measure</text>
    </g>
  
    <!-- Other stars in the sky -->
    <g fill="#fff9c4" opacity="0.7">
    <circle cx="80" cy="100" r="3"/>
    <circle cx="400" cy="150" r="4"/>
    <circle cx="50" cy="200" r="2"/>
    <circle cx="450" cy="200" r="3"/>
    <circle cx="100" cy="300" r="2"/>
    <circle cx="380" cy="320" r="3"/>
    <circle cx="420" cy="80" r="2"/>
    <circle cx="70" cy="350" r="2"/>
    </g>
  
    <!-- Milky Way -->
    <g fill="#ffffff" opacity="0.1">
    <ellipse cx="200" cy="250" rx="150" ry="40" transform="rotate(45 200 250)"/>
    <ellipse cx="300" cy="150" rx="120" ry="30" transform="rotate(45 300 150)"/>
    </g>
  
    <!-- Ancient measuring tools -->
    <g transform="translate(100,400)" opacity="0.6">
    <!-- Ancient scale -->
    <line x1="0" y1="0" x2="60" y2="0" stroke="#8d6e63" stroke-width="3"/>
    <line x1="30" y1="0" x2="30" y2="-20" stroke="#8d6e63" stroke-width="2"/>
    <ellipse cx="10" cy="5" rx="8" ry="4" fill="#a1887f"/>
    <ellipse cx="50" cy="5" rx="8" ry="4" fill="#a1887f"/>
    </g>
  
    <!-- Compass for navigation -->
    <g transform="translate(400,400)" opacity="0.7">
    <circle cx="0" cy="0" r="20" fill="none" stroke="#fff9c4" stroke-width="2"/>
    <path d="M0,-15 L-5,-5 L0,-10 L5,-5 Z" fill="#f44336"/>
    <path d="M0,15 L-5,5 L0,10 L5,5 Z" fill="#ffffff"/>
    <text x="0" y="-25" font-family="Arial, sans-serif" font-size="8" text-anchor="middle" fill="#fff9c4">N</text>
    </g>
  
    <!-- Constellation lines to other stars -->
    <g stroke="#64b5f6" stroke-width="1" opacity="0.3">
    <line x1="80" y1="100" x2="150" y2="150"/>
    <line x1="400" y1="150" x2="350" y2="90"/>
    <line x1="450" y1="200" x2="420" y2="80"/>
    </g>
  
    <!-- Northern lights effect -->
    <g fill="none" stroke="#4caf50" stroke-width="2" opacity="0.4">
    <path d="M50 50 Q150 30 250 50 Q350 70 450 50"/>
    <path d="M30 80 Q130 60 230 80 Q330 100 430 80"/>
    </g>
  
    <!-- Ancient astronomical instruments -->
    <g transform="translate(50,300)" opacity="0.6">
    <circle cx="0" cy="0" r="15" fill="none" stroke="#ffb300" stroke-width="2"/>
    <g stroke="#ffb300" stroke-width="1">
      <line x1="0" y1="-10" x2="0" y2="10"/>
      <line x1="-10" y1="0" x2="10" y2="0"/>
      <circle cx="0" cy="0" r="5"/>
    </g>
    </g>
  
    <!-- Celestial sparkles -->
    <g fill="#fff9c4" opacity="0.8">
    <path d="M120 250 L130 240 L140 250 L130 260 Z"/>
    <path d="M320 250 L330 240 L340 250 L330 260 Z"/>
    <path d="M200 350 L210 340 L220 350 L210 360 Z"/>
    <path d="M300 380 L310 370 L320 380 L310 390 Z"/>
    </g>
  
    <!-- Moon phases -->
    <g transform="translate(450,300)" opacity="0.5">
    <circle cx="0" cy="0" r="15" fill="#fff9c4"/>
    <path d="M5,-12 Q15,-5 5,12 Q10,0 5,-12" fill="#1976d2"/>
    </g>
  
    <!-- Star formation patterns -->
    <g stroke="#81d4fa" stroke-width="1" fill="none" opacity="0.2">
    <polygon points="100,200 120,180 140,200 120,220"/>
    <polygon points="350,300 370,280 390,300 370,320"/>
    </g>
  
    <!-- Navigation aids -->
    <g fill="#ffcc02" opacity="0.6">
    <text x="250" y="450" font-family="Arial, sans-serif" font-size="10" text-anchor="middle">Ursa Major - The Great Bear</text>
    </g>
  
    <!-- Kanji character 斗 -->
    <text x="450" y="80" font-family="serif" font-size="56" font-weight="bold" text-anchor="middle" fill="#fff9c4" opacity="0.8">斗</text>
    </g>
  </g>
</svg> 