<svg xmlns="http://www.w3.org/2000/svg" width="500" height="500" viewBox="0 0 500 500">
  <defs>
    <linearGradient id="bgGrad8" x1="0%" y1="0%" x2="0%" y2="100%">
      <stop offset="0%" style="stop-color:#e3f2fd;stop-opacity:1" />
      <stop offset="100%" style="stop-color:#bbdefb;stop-opacity:1" />
    </linearGradient>
    <linearGradient id="roofGrad8" x1="0%" y1="0%" x2="0%" y2="100%">
      <stop offset="0%" style="stop-color:#8d6e63;stop-opacity:1" />
      <stop offset="50%" style="stop-color:#6d4c41;stop-opacity:1" />
      <stop offset="100%" style="stop-color:#5d4037;stop-opacity:1" />
    </linearGradient>
    <linearGradient id="tileGrad8" x1="0%" y1="0%" x2="0%" y2="100%">
      <stop offset="0%" style="stop-color:#a1887f;stop-opacity:1" />
      <stop offset="100%" style="stop-color:#8d6e63;stop-opacity:1" />
    </linearGradient>
    <radialGradient id="cloudGrad8" cx="50%" cy="50%" r="50%">
      <stop offset="0%" style="stop-color:#ffffff;stop-opacity:0.9" />
      <stop offset="100%" style="stop-color:#e3f2fd;stop-opacity:0.4" />
    </radialGradient>
  </defs>
  
  <!-- Background -->
  <rect width="500" height="500" fill="url(#bgGrad8)"/>
  
  <!-- Clouds in background -->
  <g fill="url(#cloudGrad8)">
  <ellipse cx="120" cy="100" rx="40" ry="25"/>
  <ellipse cx="150" cy="95" rx="35" ry="20"/>
  <ellipse cx="380" cy="80" rx="50" ry="30"/>
  <ellipse cx="420" cy="75" rx="30" ry="18"/>
  
  <!-- Main roof structure representing 亠 -->
  <!-- Central peak -->
  <path d="M250 120 L180 200 L320 200 Z" fill="url(#roofGrad8)" stroke="#4e342e" stroke-width="3"/>
  
  <!-- Roof tiles -->
  <g fill="url(#tileGrad8)" opacity="0.8">
  <rect x="190" y="170" width="120" height="8" rx="4"/>
  <rect x="195" y="180" width="110" height="8" rx="4"/>
  <rect x="200" y="190" width="100" height="8" rx="4"/>
  
    <!-- Ridge line at peak -->
    <line x1="180" y1="200" x2="320" y2="200" stroke="#795548" stroke-width="6" stroke-linecap="round"/>
  
    <!-- Decorative roof ornament -->
    <circle cx="250" cy="120" r="8" fill="#bf360c"/>
    <rect x="246" y="105" width="8" height="25" fill="#bf360c"/>
  
    <!-- Support beam showing the "dot" part of 亠 -->
    <rect x="240" y="200" width="20" height="80" fill="url(#roofGrad8)" stroke="#4e342e" stroke-width="2"/>
  
    <!-- Architectural details -->
    <g stroke="#6d4c41" stroke-width="2" fill="none">
    <path d="M190 195 Q250 190 310 195"/>
    <line x1="210" y1="200" x2="215" y2="210"/>
    <line x1="290" y1="200" x2="285" y2="210"/>
    </g>
  
    <!-- Shadow beneath roof -->
    <ellipse cx="250" cy="300" rx="80" ry="15" fill="#37474f" opacity="0.3"/>
  
    <!-- Traditional roof edge curves -->
    <path d="M180 200 Q170 205 175 215" stroke="#8d6e63" stroke-width="4" fill="none"/>
    <path d="M320 200 Q330 205 325 215" stroke="#8d6e63" stroke-width="4" fill="none"/>
  
    <!-- Subtle texture lines on roof -->
    <g stroke="#795548" stroke-width="1" opacity="0.4">
    <line x1="200" y1="140" x2="300" y2="140"/>
    <line x1="210" y1="160" x2="290" y2="160"/>
    <line x1="220" y1="180" x2="280" y2="180"/>
    </g>
  
    <!-- Kanji character 亠 -->
    
    </g>
  </g>
</svg> 