<svg xmlns="http://www.w3.org/2000/svg" width="500" height="500" viewBox="0 0 500 500">
  <defs>
    <linearGradient id="bgGrad80" x1="0%" y1="0%" x2="100%" y2="100%">
      <stop offset="0%" style="stop-color:#faf2ff;stop-opacity:1" />
      <stop offset="100%" style="stop-color:#e8d5ff;stop-opacity:1" />
    </linearGradient>
    <linearGradient id="infinityGrad80" x1="0%" y1="0%" x2="100%" y2="100%">
      <stop offset="0%" style="stop-color:#ba68c8;stop-opacity:1" />
      <stop offset="50%" style="stop-color:#ab47bc;stop-opacity:1" />
      <stop offset="100%" style="stop-color:#9c27b0;stop-opacity:1" />
    </linearGradient>
    <radialGradient id="eternalGlow80" cx="50%" cy="50%" r="50%">
      <stop offset="0%" style="stop-color:#e1bee7;stop-opacity:0.9" />
      <stop offset="100%" style="stop-color:#e1bee7;stop-opacity:0" />
    </radialGradient>
    <linearGradient id="cycleGrad80" x1="0%" y1="0%" x2="100%" y2="0%">
      <stop offset="0%" style="stop-color:#ce93d8;stop-opacity:0.8" />
      <stop offset="25%" style="stop-color:#ba68c8;stop-opacity:0.8" />
      <stop offset="50%" style="stop-color:#ab47bc;stop-opacity:0.8" />
      <stop offset="75%" style="stop-color:#9c27b0;stop-opacity:0.8" />
      <stop offset="100%" style="stop-color:#8e24aa;stop-opacity:0.8" />
    </linearGradient>
  </defs>
  
  <!-- Background -->
  <rect width="500" height="500" fill="url(#bgGrad80)"/>
  
  <!-- Eight infinity loops representing the eternal nature of 80 -->
  <!-- Central infinity symbol -->
  <g transform="translate(250,250)">
  <circle cx="0" cy="0" r="120" fill="url(#eternalGlow80)" opacity="0.4"/>
  
  <!-- Main infinity loop -->
  <g stroke="url(#infinityGrad80)" stroke-width="12" fill="none" opacity="0.9">
  <path d="M-60 0 Q-60 -40 -20 -40 Q20 -40 20 0 Q20 40 60 40 Q100 40 100 0 Q100 -40 60 -40 Q20 -40 20 0 Q20 40 -20 40 Q-60 40 -60 0"/>
  
  <!-- Inner infinity path -->
  <g stroke="url(#cycleGrad80)" stroke-width="6" fill="none" opacity="0.7">
    <path d="M-40 0 Q-40 -25 -15 -25 Q15 -25 15 0 Q15 25 40 25 Q65 25 65 0 Q65 -25 40 -25 Q15 -25 15 0 Q15 25 -15 25 Q-40 25 -40 0"/>
    
    <!-- Sacred center points -->
    <circle cx="-25" cy="0" r="8" fill="#9c27b0"/>
    <circle cx="25" cy="0" r="8" fill="#9c27b0"/>
    <circle cx="-25" cy="0" r="4" fill="#e1bee7"/>
    <circle cx="25" cy="0" r="4" fill="#e1bee7"/>
    </g>
  
    <!-- Eight surrounding smaller infinity loops -->
    <!-- North -->
    <g transform="translate(250,100)">
    <g stroke="url(#infinityGrad80)" stroke-width="6" fill="none" opacity="0.8">
      <path d="M-20 0 Q-20 -15 -8 -15 Q8 -15 8 0 Q8 15 20 15 Q32 15 32 0 Q32 -15 20 -15 Q8 -15 8 0 Q8 15 -8 15 Q-20 15 -20 0"/>
    </g>
    <circle cx="-10" cy="0" r="3" fill="#ab47bc"/>
    <circle cx="10" cy="0" r="3" fill="#ab47bc"/>
    </g>
  
    <!-- Northeast -->
    <g transform="translate(380,150)">
    <g stroke="url(#infinityGrad80)" stroke-width="5" fill="none" opacity="0.7">
      <path d="M-18 0 Q-18 -12 -7 -12 Q7 -12 7 0 Q7 12 18 12 Q29 12 29 0 Q29 -12 18 -12 Q7 -12 7 0 Q7 12 -7 12 Q-18 12 -18 0"/>
    </g>
    <circle cx="-8" cy="0" r="2" fill="#ab47bc"/>
    <circle cx="8" cy="0" r="2" fill="#ab47bc"/>
    </g>
  
    <!-- East -->
    <g transform="translate(420,250)">
    <g stroke="url(#infinityGrad80)" stroke-width="6" fill="none" opacity="0.8">
      <path d="M-20 0 Q-20 -15 -8 -15 Q8 -15 8 0 Q8 15 20 15 Q32 15 32 0 Q32 -15 20 -15 Q8 -15 8 0 Q8 15 -8 15 Q-20 15 -20 0"/>
    </g>
    <circle cx="-10" cy="0" r="3" fill="#ab47bc"/>
    <circle cx="10" cy="0" r="3" fill="#ab47bc"/>
    </g>
  
    <!-- Southeast -->
    <g transform="translate(380,350)">
    <g stroke="url(#infinityGrad80)" stroke-width="5" fill="none" opacity="0.7">
      <path d="M-18 0 Q-18 -12 -7 -12 Q7 -12 7 0 Q7 12 18 12 Q29 12 29 0 Q29 -12 18 -12 Q7 -12 7 0 Q7 12 -7 12 Q-18 12 -18 0"/>
    </g>
    <circle cx="-8" cy="0" r="2" fill="#ab47bc"/>
    <circle cx="8" cy="0" r="2" fill="#ab47bc"/>
    </g>
  
    <!-- South -->
    <g transform="translate(250,400)">
    <g stroke="url(#infinityGrad80)" stroke-width="6" fill="none" opacity="0.8">
      <path d="M-20 0 Q-20 -15 -8 -15 Q8 -15 8 0 Q8 15 20 15 Q32 15 32 0 Q32 -15 20 -15 Q8 -15 8 0 Q8 15 -8 15 Q-20 15 -20 0"/>
    </g>
    <circle cx="-10" cy="0" r="3" fill="#ab47bc"/>
    <circle cx="10" cy="0" r="3" fill="#ab47bc"/>
    </g>
  
    <!-- Southwest -->
    <g transform="translate(120,350)">
    <g stroke="url(#infinityGrad80)" stroke-width="5" fill="none" opacity="0.7">
      <path d="M-18 0 Q-18 -12 -7 -12 Q7 -12 7 0 Q7 12 18 12 Q29 12 29 0 Q29 -12 18 -12 Q7 -12 7 0 Q7 12 -7 12 Q-18 12 -18 0"/>
    </g>
    <circle cx="-8" cy="0" r="2" fill="#ab47bc"/>
    <circle cx="8" cy="0" r="2" fill="#ab47bc"/>
    </g>
  
    <!-- West -->
    <g transform="translate(80,250)">
    <g stroke="url(#infinityGrad80)" stroke-width="6" fill="none" opacity="0.8">
      <path d="M-20 0 Q-20 -15 -8 -15 Q8 -15 8 0 Q8 15 20 15 Q32 15 32 0 Q32 -15 20 -15 Q8 -15 8 0 Q8 15 -8 15 Q-20 15 -20 0"/>
    </g>
    <circle cx="-10" cy="0" r="3" fill="#ab47bc"/>
    <circle cx="10" cy="0" r="3" fill="#ab47bc"/>
    </g>
  
    <!-- Northwest -->
    <g transform="translate(120,150)">
    <g stroke="url(#infinityGrad80)" stroke-width="5" fill="none" opacity="0.7">
      <path d="M-18 0 Q-18 -12 -7 -12 Q7 -12 7 0 Q7 12 18 12 Q29 12 29 0 Q29 -12 18 -12 Q7 -12 7 0 Q7 12 -7 12 Q-18 12 -18 0"/>
    </g>
    <circle cx="-8" cy="0" r="2" fill="#ab47bc"/>
    <circle cx="8" cy="0" r="2" fill="#ab47bc"/>
    </g>
  
    <!-- Eternal flow connections -->
    <g stroke="url(#cycleGrad80)" stroke-width="3" fill="none" opacity="0.5">
    <path d="M250 130 Q200 180 150 150"/>
    <path d="M350 150 Q320 200 380 220"/>
    <path d="M420 280 Q370 320 380 380"/>
    <path d="M350 400 Q300 370 250 380"/>
    <path d="M220 400 Q170 370 120 380"/>
    <path d="M80 320 Q130 280 120 220"/>
    <path d="M80 220 Q130 180 120 120"/>
    <path d="M150 100 Q200 130 250 100"/>
    </g>
  
    <!-- Cosmic cycles -->
    <g stroke="#ce93d8" stroke-width="2" fill="none" opacity="0.4">
    <circle cx="250" cy="250" r="140"/>
    <circle cx="250" cy="250" r="180"/>
    <circle cx="250" cy="250" r="220"/>
    </g>
  
    <!-- Eternal particles -->
    <g fill="#ba68c8" opacity="0.6">
    <circle cx="100" cy="100" r="3"/>
    <circle cx="400" cy="100" r="2"/>
    <circle cx="100" cy="400" r="3"/>
    <circle cx="400" cy="400" r="2"/>
    <circle cx="50" cy="250" r="2"/>
    <circle cx="450" cy="250" r="3"/>
    <circle cx="250" cy="50" r="2"/>
    <circle cx="250" cy="450" r="3"/>
    <circle cx="180" cy="180" r="2"/>
    <circle cx="320" cy="180" r="3"/>
    <circle cx="180" cy="320" r="2"/>
    <circle cx="320" cy="320" r="2"/>
    </g>
  
    <!-- Möbius strip effects -->
    <g stroke="#ab47bc" stroke-width="1" fill="none" opacity="0.3">
    <path d="M50 150 Q100 130 150 150 Q200 170 250 150"/>
    <path d="M250 150 Q300 130 350 150 Q400 170 450 150"/>
    <path d="M450 200 Q430 250 450 300"/>
    <path d="M450 350 Q400 330 350 350 Q300 370 250 350"/>
    <path d="M250 350 Q200 330 150 350 Q100 370 50 350"/>
    <path d="M50 300 Q70 250 50 200"/>
    </g>
  
    <!-- Sacred geometry octagon -->
    <g stroke="#9c27b0" stroke-width="1" fill="none" opacity="0.3">
    <polygon points="250,80 320,130 370,200 370,300 320,370 250,420 180,370 130,300 130,200 180,130"/>
    </g>
  
    <!-- Temporal flux indicators -->
    <g fill="#ce93d8" opacity="0.5">
    <rect x="180" y="180" width="6" height="6" transform="rotate(45 183 183)"/>
    <rect x="314" y="180" width="6" height="6" transform="rotate(45 317 183)"/>
    <rect x="180" y="314" width="6" height="6" transform="rotate(45 183 317)"/>
    <rect x="314" y="314" width="6" height="6" transform="rotate(45 317 317)"/>
    
    <ellipse cx="150" cy="250" rx="8" ry="4"/>
    <ellipse cx="350" cy="250" rx="8" ry="4"/>
    <ellipse cx="250" cy="150" rx="4" ry="8"/>
    <ellipse cx="250" cy="350" rx="4" ry="8"/>
    </g>
  
    <!-- Infinite sparkles -->
    <g fill="#ffffff" opacity="0.8">
    <path d="M100 120 L105 115 L110 120 L105 125 Z"/>
    <path d="M400 120 L405 115 L410 120 L405 125 Z"/>
    <path d="M100 380 L105 375 L110 380 L105 385 Z"/>
    <path d="M400 380 L405 375 L410 380 L405 385 Z"/>
    <path d="M250 60 L253 57 L256 60 L253 63 Z"/>
    <path d="M250 440 L253 437 L256 440 L253 443 Z"/>
    <path d="M60 250 L63 247 L66 250 L63 253 Z"/>
    <path d="M440 250 L443 247 L446 250 L443 253 Z"/>
    </g>
  
    <!-- Number "80" integrated -->
    
    <!-- Kanji character 八十 -->
    
    </g>
  </g>
</svg> 