<svg xmlns="http://www.w3.org/2000/svg" width="500" height="500" viewBox="0 0 500 500">
  <defs>
    <linearGradient id="bgGrad83" x1="0%" y1="0%" x2="100%" y2="100%">
      <stop offset="0%" style="stop-color:#e3f2fd;stop-opacity:1" />
      <stop offset="100%" style="stop-color:#bbdefb;stop-opacity:1" />
    </linearGradient>
    <linearGradient id="cloudGrad83" x1="0%" y1="0%" x2="100%" y2="100%">
      <stop offset="0%" style="stop-color:#90caf9;stop-opacity:1" />
      <stop offset="50%" style="stop-color:#64b5f6;stop-opacity:1" />
      <stop offset="100%" style="stop-color:#2196f3;stop-opacity:1" />
    </linearGradient>
    <radialGradient id="skyGlow83" cx="50%" cy="50%" r="50%">
      <stop offset="0%" style="stop-color:#e1f5fe;stop-opacity:0.8" />
      <stop offset="100%" style="stop-color:#e1f5fe;stop-opacity:0" />
    </radialGradient>
    <linearGradient id="windGrad83" x1="0%" y1="0%" x2="100%" y2="0%">
      <stop offset="0%" style="stop-color:#b3e5fc;stop-opacity:0.8" />
      <stop offset="50%" style="stop-color:#81d4fa;stop-opacity:0.8" />
      <stop offset="100%" style="stop-color:#4fc3f7;stop-opacity:0.8" />
    </linearGradient>
  </defs>
  
  <!-- Background -->
  <rect width="500" height="500" fill="url(#bgGrad83)"/>
  
  <!-- Eight cloud formations plus three wind streams representing 83 -->
  <!-- Central cloud mass -->
  <g transform="translate(250,250)">
  <circle cx="0" cy="0" r="100" fill="url(#skyGlow83)" opacity="0.4"/>
  
  <!-- Main cloud formation -->
  <ellipse cx="0" cy="0" rx="60" ry="30" fill="url(#cloudGrad83)" opacity="0.9"/>
  <ellipse cx="-30" cy="-10" rx="35" ry="20" fill="url(#cloudGrad83)" opacity="0.8"/>
  <ellipse cx="30" cy="-10" rx="35" ry="20" fill="url(#cloudGrad83)" opacity="0.8"/>
  <ellipse cx="0" cy="15" rx="40" ry="18" fill="url(#windGrad83)" opacity="0.7"/>
  
  <!-- Inner vapor core -->
  <ellipse cx="0" cy="-5" rx="25" ry="12" fill="#ffffff" opacity="0.6"/>
  
  <!-- Eight surrounding clouds -->
  <!-- North cloud -->
  <g transform="translate(250,120)">
  <ellipse cx="0" cy="0" rx="40" ry="20" fill="url(#cloudGrad83)" opacity="0.8"/>
  <ellipse cx="-15" cy="-5" rx="22" ry="12" fill="url(#cloudGrad83)" opacity="0.7"/>
  <ellipse cx="15" cy="-5" rx="22" ry="12" fill="url(#cloudGrad83)" opacity="0.7"/>
  <ellipse cx="0" cy="8" rx="18" ry="8" fill="#ffffff" opacity="0.5"/>
  
    <!-- Northeast cloud -->
    <g transform="translate(380,160)">
    <ellipse cx="0" cy="0" rx="35" ry="18" fill="url(#cloudGrad83)" opacity="0.7"/>
    <ellipse cx="-12" cy="-4" rx="18" ry="10" fill="url(#cloudGrad83)" opacity="0.6"/>
    <ellipse cx="12" cy="-4" rx="18" ry="10" fill="url(#cloudGrad83)" opacity="0.6"/>
    <ellipse cx="0" cy="6" rx="15" ry="7" fill="#ffffff" opacity="0.4"/>
    </g>
  
    <!-- East cloud -->
    <g transform="translate(420,250)">
    <ellipse cx="0" cy="0" rx="38" ry="19" fill="url(#cloudGrad83)" opacity="0.8"/>
    <ellipse cx="-14" cy="-4" rx="20" ry="11" fill="url(#cloudGrad83)" opacity="0.7"/>
    <ellipse cx="14" cy="-4" rx="20" ry="11" fill="url(#cloudGrad83)" opacity="0.7"/>
    <ellipse cx="0" cy="7" rx="16" ry="8" fill="#ffffff" opacity="0.5"/>
    </g>
  
    <!-- Southeast cloud -->
    <g transform="translate(380,340)">
    <ellipse cx="0" cy="0" rx="35" ry="18" fill="url(#cloudGrad83)" opacity="0.7"/>
    <ellipse cx="-12" cy="-4" rx="18" ry="10" fill="url(#cloudGrad83)" opacity="0.6"/>
    <ellipse cx="12" cy="-4" rx="18" ry="10" fill="url(#cloudGrad83)" opacity="0.6"/>
    <ellipse cx="0" cy="6" rx="15" ry="7" fill="#ffffff" opacity="0.4"/>
    </g>
  
    <!-- South cloud -->
    <g transform="translate(250,380)">
    <ellipse cx="0" cy="0" rx="40" ry="20" fill="url(#cloudGrad83)" opacity="0.8"/>
    <ellipse cx="-15" cy="-5" rx="22" ry="12" fill="url(#cloudGrad83)" opacity="0.7"/>
    <ellipse cx="15" cy="-5" rx="22" ry="12" fill="url(#cloudGrad83)" opacity="0.7"/>
    <ellipse cx="0" cy="8" rx="18" ry="8" fill="#ffffff" opacity="0.5"/>
    </g>
  
    <!-- Southwest cloud -->
    <g transform="translate(120,340)">
    <ellipse cx="0" cy="0" rx="35" ry="18" fill="url(#cloudGrad83)" opacity="0.7"/>
    <ellipse cx="-12" cy="-4" rx="18" ry="10" fill="url(#cloudGrad83)" opacity="0.6"/>
    <ellipse cx="12" cy="-4" rx="18" ry="10" fill="url(#cloudGrad83)" opacity="0.6"/>
    <ellipse cx="0" cy="6" rx="15" ry="7" fill="#ffffff" opacity="0.4"/>
    </g>
  
    <!-- West cloud -->
    <g transform="translate(80,250)">
    <ellipse cx="0" cy="0" rx="38" ry="19" fill="url(#cloudGrad83)" opacity="0.8"/>
    <ellipse cx="-14" cy="-4" rx="20" ry="11" fill="url(#cloudGrad83)" opacity="0.7"/>
    <ellipse cx="14" cy="-4" rx="20" ry="11" fill="url(#cloudGrad83)" opacity="0.7"/>
    <ellipse cx="0" cy="7" rx="16" ry="8" fill="#ffffff" opacity="0.5"/>
    </g>
  
    <!-- Northwest cloud -->
    <g transform="translate(120,160)">
    <ellipse cx="0" cy="0" rx="35" ry="18" fill="url(#cloudGrad83)" opacity="0.7"/>
    <ellipse cx="-12" cy="-4" rx="18" ry="10" fill="url(#cloudGrad83)" opacity="0.6"/>
    <ellipse cx="12" cy="-4" rx="18" ry="10" fill="url(#cloudGrad83)" opacity="0.6"/>
    <ellipse cx="0" cy="6" rx="15" ry="7" fill="#ffffff" opacity="0.4"/>
    </g>
  
    <!-- Three major wind streams -->
    <g stroke="url(#windGrad83)" stroke-width="4" fill="none" opacity="0.6">
    <!-- Upper stream -->
    <path d="M50 150 Q150 130 250 150 Q350 130 450 150"/>
    <!-- Middle stream -->
    <path d="M50 250 Q150 230 250 250 Q350 230 450 250"/>
    <!-- Lower stream -->
    <path d="M50 350 Q150 330 250 350 Q350 330 450 350"/>
    </g>
  
    <!-- Atmospheric pressure waves -->
    <g stroke="#64b5f6" stroke-width="2" fill="none" opacity="0.4">
    <circle cx="250" cy="250" r="120"/>
    <circle cx="250" cy="250" r="160"/>
    <circle cx="250" cy="250" r="200"/>
    </g>
  
    <!-- Water vapor particles -->
    <g fill="#b3e5fc" opacity="0.6">
    <circle cx="100" cy="100" r="2"/>
    <circle cx="400" cy="100" r="3"/>
    <circle cx="100" cy="400" r="2"/>
    <circle cx="400" cy="400" r="3"/>
    <circle cx="50" cy="200" r="2"/>
    <circle cx="450" cy="200" r="3"/>
    <circle cx="50" cy="300" r="2"/>
    <circle cx="450" cy="300" r="3"/>
    <circle cx="200" cy="50" r="2"/>
    <circle cx="300" cy="50" r="3"/>
    <circle cx="200" cy="450" r="2"/>
    <circle cx="300" cy="450" r="3"/>
    </g>
  
    <!-- Thermal updrafts -->
    <g stroke="#90caf9" stroke-width="1" fill="none" opacity="0.3">
    <path d="M100 450 Q120 350 140 250 Q160 150 180 50"/>
    <path d="M200 450 Q220 350 240 250 Q260 150 280 50"/>
    <path d="M300 450 Q320 350 340 250 Q360 150 380 50"/>
    </g>
  
    <!-- Cloud shadows -->
    <g fill="#2196f3" opacity="0.2">
    <ellipse cx="180" cy="300" rx="25" ry="8"/>
    <ellipse cx="320" cy="300" rx="25" ry="8"/>
    <ellipse cx="250" cy="380" rx="30" ry="10"/>
    <ellipse cx="120" cy="240" rx="20" ry="6"/>
    <ellipse cx="380" cy="240" rx="20" ry="6"/>
    </g>
  
    <!-- Sky sparkles -->
    <g fill="#ffffff" opacity="0.8">
    <path d="M100 120 L105 115 L110 120 L105 125 Z"/>
    <path d="M400 120 L405 115 L410 120 L405 125 Z"/>
    <path d="M100 380 L105 375 L110 380 L105 385 Z"/>
    <path d="M400 380 L405 375 L410 380 L405 385 Z"/>
    <path d="M250 60 L253 57 L256 60 L253 63 Z"/>
    <path d="M250 440 L253 437 L256 440 L253 443 Z"/>
    </g>
  
    <!-- Number "83" integrated -->
    
    <!-- Kanji character 八十三 -->
    
    </g>
  </g>
</svg> 