<svg xmlns="http://www.w3.org/2000/svg" width="500" height="500" viewBox="0 0 500 500">
  <defs>
    <linearGradient id="bgGrad84" x1="0%" y1="0%" x2="100%" y2="100%">
      <stop offset="0%" style="stop-color:#f3e5f5;stop-opacity:1" />
      <stop offset="100%" style="stop-color:#e1bee7;stop-opacity:1" />
    </linearGradient>
    <linearGradient id="compassGrad84" x1="0%" y1="0%" x2="100%" y2="100%">
      <stop offset="0%" style="stop-color:#ab47bc;stop-opacity:1" />
      <stop offset="50%" style="stop-color:#9c27b0;stop-opacity:1" />
      <stop offset="100%" style="stop-color:#7b1fa2;stop-opacity:1" />
    </linearGradient>
    <radialGradient id="directionGlow84" cx="50%" cy="50%" r="50%">
      <stop offset="0%" style="stop-color:#e1bee7;stop-opacity:0.8" />
      <stop offset="100%" style="stop-color:#e1bee7;stop-opacity:0" />
    </radialGradient>
    <linearGradient id="needleGrad84" x1="0%" y1="0%" x2="0%" y2="100%">
      <stop offset="0%" style="stop-color:#ce93d8;stop-opacity:1" />
      <stop offset="50%" style="stop-color:#ba68c8;stop-opacity:1" />
      <stop offset="100%" style="stop-color:#9c27b0;stop-opacity:1" />
    </linearGradient>
  </defs>
  
  <!-- Background -->
  <rect width="500" height="500" fill="url(#bgGrad84)"/>
  
  <!-- Eight compass directions plus four cardinal markers representing 84 -->
  <!-- Central compass core -->
  <g transform="translate(250,250)">
  <circle cx="0" cy="0" r="100" fill="url(#directionGlow84)" opacity="0.4"/>
  
  <!-- Compass rose base -->
  <circle cx="0" cy="0" r="60" fill="url(#compassGrad84)" opacity="0.9"/>
  <circle cx="0" cy="0" r="45" fill="url(#needleGrad84)" opacity="0.7"/>
  <circle cx="0" cy="0" r="30" fill="#e1bee7" opacity="0.6"/>
  
  <!-- Central pivot -->
  <circle cx="0" cy="0" r="15" fill="#7b1fa2"/>
  <circle cx="0" cy="0" r="8" fill="#e1bee7"/>
  
  <!-- Eight direction needles -->
  <!-- North needle -->
  <g transform="translate(250,250)">
  <polygon points="0,-50 8,-35 0,-25 -8,-35" fill="url(#needleGrad84)" opacity="0.9"/>
  <polygon points="0,-25 5,-20 0,-15 -5,-20" fill="#ffffff" opacity="0.6"/>
  
    <!-- Northeast needle -->
    <g transform="translate(250,250) rotate(45)">
    <polygon points="0,-45 6,-32 0,-22 -6,-32" fill="url(#needleGrad84)" opacity="0.8"/>
    <polygon points="0,-22 4,-18 0,-13 -4,-18" fill="#ffffff" opacity="0.5"/>
    </g>
  
    <!-- East needle -->
    <g transform="translate(250,250) rotate(90)">
    <polygon points="0,-50 8,-35 0,-25 -8,-35" fill="url(#needleGrad84)" opacity="0.9"/>
    <polygon points="0,-25 5,-20 0,-15 -5,-20" fill="#ffffff" opacity="0.6"/>
    </g>
  
    <!-- Southeast needle -->
    <g transform="translate(250,250) rotate(135)">
    <polygon points="0,-45 6,-32 0,-22 -6,-32" fill="url(#needleGrad84)" opacity="0.8"/>
    <polygon points="0,-22 4,-18 0,-13 -4,-18" fill="#ffffff" opacity="0.5"/>
    </g>
  
    <!-- South needle -->
    <g transform="translate(250,250) rotate(180)">
    <polygon points="0,-50 8,-35 0,-25 -8,-35" fill="url(#needleGrad84)" opacity="0.9"/>
    <polygon points="0,-25 5,-20 0,-15 -5,-20" fill="#ffffff" opacity="0.6"/>
    </g>
  
    <!-- Southwest needle -->
    <g transform="translate(250,250) rotate(225)">
    <polygon points="0,-45 6,-32 0,-22 -6,-32" fill="url(#needleGrad84)" opacity="0.8"/>
    <polygon points="0,-22 4,-18 0,-13 -4,-18" fill="#ffffff" opacity="0.5"/>
    </g>
  
    <!-- West needle -->
    <g transform="translate(250,250) rotate(270)">
    <polygon points="0,-50 8,-35 0,-25 -8,-35" fill="url(#needleGrad84)" opacity="0.9"/>
    <polygon points="0,-25 5,-20 0,-15 -5,-20" fill="#ffffff" opacity="0.6"/>
    </g>
  
    <!-- Northwest needle -->
    <g transform="translate(250,250) rotate(315)">
    <polygon points="0,-45 6,-32 0,-22 -6,-32" fill="url(#needleGrad84)" opacity="0.8"/>
    <polygon points="0,-22 4,-18 0,-13 -4,-18" fill="#ffffff" opacity="0.5"/>
    </g>
  
    <!-- Four cardinal direction markers -->
    <!-- North marker -->
    <g transform="translate(250,100)">
    <rect x="-8" y="-10" width="16" height="20" rx="4" fill="url(#compassGrad84)" opacity="0.8"/>
    <text x="0" y="5" font-family="serif" font-size="14" font-weight="bold" text-anchor="middle" fill="#ffffff">N</text>
    </g>
  
    <!-- East marker -->
    <g transform="translate(400,250)">
    <rect x="-8" y="-10" width="16" height="20" rx="4" fill="url(#compassGrad84)" opacity="0.8"/>
    <text x="0" y="5" font-family="serif" font-size="14" font-weight="bold" text-anchor="middle" fill="#ffffff">E</text>
    </g>
  
    <!-- South marker -->
    <g transform="translate(250,400)">
    <rect x="-8" y="-10" width="16" height="20" rx="4" fill="url(#compassGrad84)" opacity="0.8"/>
    <text x="0" y="5" font-family="serif" font-size="14" font-weight="bold" text-anchor="middle" fill="#ffffff">S</text>
    </g>
  
    <!-- West marker -->
    <g transform="translate(100,250)">
    <rect x="-8" y="-10" width="16" height="20" rx="4" fill="url(#compassGrad84)" opacity="0.8"/>
    <text x="0" y="5" font-family="serif" font-size="14" font-weight="bold" text-anchor="middle" fill="#ffffff">W</text>
    </g>
  
    <!-- Compass degrees markings -->
    <g stroke="#ba68c8" stroke-width="1" fill="none" opacity="0.4">
    <circle cx="250" cy="250" r="120"/>
    <circle cx="250" cy="250" r="140"/>
    <circle cx="250" cy="250" r="160"/>
    </g>
  
    <!-- Degree markers -->
    <g fill="#ab47bc" opacity="0.6">
    <!-- 30 degree marks -->
    <circle cx="293" cy="160" r="2"/>
    <circle cx="340" cy="207" r="2"/>
    <circle cx="340" cy="293" r="2"/>
    <circle cx="293" cy="340" r="2"/>
    <circle cx="207" cy="340" r="2"/>
    <circle cx="160" cy="293" r="2"/>
    <circle cx="160" cy="207" r="2"/>
    <circle cx="207" cy="160" r="2"/>
    
    <!-- 60 degree marks -->
    <circle cx="325" cy="175" r="3"/>
    <circle cx="325" cy="325" r="3"/>
    <circle cx="175" cy="325" r="3"/>
    <circle cx="175" cy="175" r="3"/>
    </g>
  
    <!-- Magnetic field lines -->
    <g stroke="#ce93d8" stroke-width="2" fill="none" opacity="0.5">
    <path d="M250 130 Q220 160 250 190"/>
    <path d="M250 130 Q280 160 250 190"/>
    <path d="M370 250 Q340 220 310 250"/>
    <path d="M370 250 Q340 280 310 250"/>
    <path d="M250 370 Q280 340 250 310"/>
    <path d="M250 370 Q220 340 250 310"/>
    <path d="M130 250 Q160 280 190 250"/>
    <path d="M130 250 Q160 220 190 250"/>
    </g>
  
    <!-- Navigation stars -->
    <g fill="#ffffff" opacity="0.7">
    <path d="M80 80 L85 75 L90 80 L85 85 Z"/>
    <path d="M420 80 L425 75 L430 80 L425 85 Z"/>
    <path d="M80 420 L85 415 L90 420 L85 425 Z"/>
    <path d="M420 420 L425 415 L430 420 L425 425 Z"/>
    <path d="M250 50 L253 47 L256 50 L253 53 Z"/>
    <path d="M250 450 L253 447 L256 450 L253 453 Z"/>
    <path d="M50 250 L53 247 L56 250 L53 253 Z"/>
    <path d="M450 250 L453 247 L456 250 L453 253 Z"/>
    </g>
  
    <!-- Directional aura -->
    <g stroke="#9c27b0" stroke-width="1" fill="none" opacity="0.3">
    <path d="M50 100 Q150 80 250 100"/>
    <path d="M250 100 Q350 80 450 100"/>
    <path d="M450 200 Q430 300 450 400"/>
    <path d="M400 450 Q300 430 200 450"/>
    <path d="M50 400 Q70 300 50 200"/>
    </g>
  
    <!-- Number "84" integrated -->
    <text x="450" y="50" font-family="Arial, sans-serif" font-size="28" font-weight="300" text-anchor="middle" fill="#6a1b9a" opacity="0.5">84</text>
  
    <!-- Kanji character 八十四 -->
    <text x="80" y="50" font-family="serif" font-size="36" font-weight="bold" text-anchor="middle" fill="#6a1b9a" opacity="0.9">八十四</text>
    </g>
  </g>
</svg> 