<svg xmlns="http://www.w3.org/2000/svg" width="500" height="500" viewBox="0 0 500 500">
  <defs>
    <linearGradient id="bgGrad88" x1="0%" y1="0%" x2="100%" y2="100%">
      <stop offset="0%" style="stop-color:#e1f5fe;stop-opacity:1" />
      <stop offset="100%" style="stop-color:#b3e5fc;stop-opacity:1" />
    </linearGradient>
    <linearGradient id="keyGrad88" x1="0%" y1="0%" x2="100%" y2="100%">
      <stop offset="0%" style="stop-color:#29b6f6;stop-opacity:1" />
      <stop offset="50%" style="stop-color:#03a9f4;stop-opacity:1" />
      <stop offset="100%" style="stop-color:#0288d1;stop-opacity:1" />
    </linearGradient>
    <radialGradient id="pianoGlow88" cx="50%" cy="50%" r="50%">
      <stop offset="0%" style="stop-color:#b3e5fc;stop-opacity:0.8" />
      <stop offset="100%" style="stop-color:#b3e5fc;stop-opacity:0" />
    </radialGradient>
    <linearGradient id="blackKeyGrad88" x1="0%" y1="0%" x2="0%" y2="100%">
      <stop offset="0%" style="stop-color:#37474f;stop-opacity:1" />
      <stop offset="100%" style="stop-color:#263238;stop-opacity:1" />
    </linearGradient>
  </defs>
  
  <!-- Background -->
  <rect width="500" height="500" fill="url(#bgGrad88)"/>
  
  <!-- Eighty-eight piano keys representing 88 -->
  <!-- Piano base -->
  <g transform="translate(250,250)">
  <circle cx="0" cy="0" r="100" fill="url(#pianoGlow88)" opacity="0.4"/>
  
  <!-- Piano body -->
  <rect x="-120" y="-40" width="240" height="80" rx="10" fill="url(#keyGrad88)" opacity="0.9"/>
  <rect x="-110" y="-30" width="220" height="60" rx="8" fill="#e1f5fe" opacity="0.8"/>
  
  <!-- White keys (representing major portion of 88) -->
  <g transform="translate(120,250)">
  <!-- Row 1 -->
  <rect x="0" y="-20" width="15" height="40" rx="2" fill="#ffffff" stroke="#03a9f4" stroke-width="1"/>
  <rect x="20" y="-20" width="15" height="40" rx="2" fill="#ffffff" stroke="#03a9f4" stroke-width="1"/>
  <rect x="40" y="-20" width="15" height="40" rx="2" fill="#ffffff" stroke="#03a9f4" stroke-width="1"/>
  <rect x="60" y="-20" width="15" height="40" rx="2" fill="#ffffff" stroke="#03a9f4" stroke-width="1"/>
  <rect x="80" y="-20" width="15" height="40" rx="2" fill="#ffffff" stroke="#03a9f4" stroke-width="1"/>
  <rect x="100" y="-20" width="15" height="40" rx="2" fill="#ffffff" stroke="#03a9f4" stroke-width="1"/>
  <rect x="120" y="-20" width="15" height="40" rx="2" fill="#ffffff" stroke="#03a9f4" stroke-width="1"/>
  <rect x="140" y="-20" width="15" height="40" rx="2" fill="#ffffff" stroke="#03a9f4" stroke-width="1"/>
  <rect x="160" y="-20" width="15" height="40" rx="2" fill="#ffffff" stroke="#03a9f4" stroke-width="1"/>
  <rect x="180" y="-20" width="15" height="40" rx="2" fill="#ffffff" stroke="#03a9f4" stroke-width="1"/>
  <rect x="200" y="-20" width="15" height="40" rx="2" fill="#ffffff" stroke="#03a9f4" stroke-width="1"/>
  <rect x="220" y="-20" width="15" height="40" rx="2" fill="#ffffff" stroke="#03a9f4" stroke-width="1"/>
  <rect x="240" y="-20" width="15" height="40" rx="2" fill="#ffffff" stroke="#03a9f4" stroke-width="1"/>
  <rect x="260" y="-20" width="15" height="40" rx="2" fill="#ffffff" stroke="#03a9f4" stroke-width="1"/>
  
    <!-- Black keys -->
    <g transform="translate(130,250)">
    <!-- Sharps/Flats -->
    <rect x="0" y="-25" width="10" height="25" rx="1" fill="url(#blackKeyGrad88)"/>
    <rect x="20" y="-25" width="10" height="25" rx="1" fill="url(#blackKeyGrad88)"/>
    <rect x="50" y="-25" width="10" height="25" rx="1" fill="url(#blackKeyGrad88)"/>
    <rect x="70" y="-25" width="10" height="25" rx="1" fill="url(#blackKeyGrad88)"/>
    <rect x="90" y="-25" width="10" height="25" rx="1" fill="url(#blackKeyGrad88)"/>
    <rect x="130" y="-25" width="10" height="25" rx="1" fill="url(#blackKeyGrad88)"/>
    <rect x="150" y="-25" width="10" height="25" rx="1" fill="url(#blackKeyGrad88)"/>
    <rect x="180" y="-25" width="10" height="25" rx="1" fill="url(#blackKeyGrad88)"/>
    <rect x="200" y="-25" width="10" height="25" rx="1" fill="url(#blackKeyGrad88)"/>
    <rect x="220" y="-25" width="10" height="25" rx="1" fill="url(#blackKeyGrad88)"/>
    </g>
  
    <!-- Additional key representations spread around -->
    <!-- Upper keys -->
    <g transform="translate(100,150)">
    <rect x="0" y="0" width="8" height="20" rx="1" fill="#ffffff" stroke="#03a9f4"/>
    <rect x="10" y="0" width="8" height="20" rx="1" fill="#ffffff" stroke="#03a9f4"/>
    <rect x="20" y="0" width="8" height="20" rx="1" fill="#ffffff" stroke="#03a9f4"/>
    <rect x="30" y="0" width="8" height="20" rx="1" fill="#ffffff" stroke="#03a9f4"/>
    <rect x="40" y="0" width="8" height="20" rx="1" fill="#ffffff" stroke="#03a9f4"/>
    <rect x="50" y="0" width="8" height="20" rx="1" fill="#ffffff" stroke="#03a9f4"/>
    <rect x="60" y="0" width="8" height="20" rx="1" fill="#ffffff" stroke="#03a9f4"/>
    <rect x="70" y="0" width="8" height="20" rx="1" fill="#ffffff" stroke="#03a9f4"/>
    <!-- Black keys -->
    <rect x="4" y="0" width="5" height="12" rx="1" fill="url(#blackKeyGrad88)"/>
    <rect x="14" y="0" width="5" height="12" rx="1" fill="url(#blackKeyGrad88)"/>
    <rect x="34" y="0" width="5" height="12" rx="1" fill="url(#blackKeyGrad88)"/>
    <rect x="44" y="0" width="5" height="12" rx="1" fill="url(#blackKeyGrad88)"/>
    <rect x="54" y="0" width="5" height="12" rx="1" fill="url(#blackKeyGrad88)"/>
    </g>
  
    <!-- Lower keys -->
    <g transform="translate(100,330)">
    <rect x="0" y="0" width="8" height="20" rx="1" fill="#ffffff" stroke="#03a9f4"/>
    <rect x="10" y="0" width="8" height="20" rx="1" fill="#ffffff" stroke="#03a9f4"/>
    <rect x="20" y="0" width="8" height="20" rx="1" fill="#ffffff" stroke="#03a9f4"/>
    <rect x="30" y="0" width="8" height="20" rx="1" fill="#ffffff" stroke="#03a9f4"/>
    <rect x="40" y="0" width="8" height="20" rx="1" fill="#ffffff" stroke="#03a9f4"/>
    <rect x="50" y="0" width="8" height="20" rx="1" fill="#ffffff" stroke="#03a9f4"/>
    <rect x="60" y="0" width="8" height="20" rx="1" fill="#ffffff" stroke="#03a9f4"/>
    <rect x="70" y="0" width="8" height="20" rx="1" fill="#ffffff" stroke="#03a9f4"/>
    <!-- Black keys -->
    <rect x="4" y="0" width="5" height="12" rx="1" fill="url(#blackKeyGrad88)"/>
    <rect x="14" y="0" width="5" height="12" rx="1" fill="url(#blackKeyGrad88)"/>
    <rect x="34" y="0" width="5" height="12" rx="1" fill="url(#blackKeyGrad88)"/>
    <rect x="44" y="0" width="5" height="12" rx="1" fill="url(#blackKeyGrad88)"/>
    <rect x="54" y="0" width="5" height="12" rx="1" fill="url(#blackKeyGrad88)"/>
    </g>
  
    <!-- Right side keys -->
    <g transform="translate(380,180) rotate(90)">
    <rect x="0" y="0" width="8" height="20" rx="1" fill="#ffffff" stroke="#03a9f4"/>
    <rect x="10" y="0" width="8" height="20" rx="1" fill="#ffffff" stroke="#03a9f4"/>
    <rect x="20" y="0" width="8" height="20" rx="1" fill="#ffffff" stroke="#03a9f4"/>
    <rect x="30" y="0" width="8" height="20" rx="1" fill="#ffffff" stroke="#03a9f4"/>
    <rect x="40" y="0" width="8" height="20" rx="1" fill="#ffffff" stroke="#03a9f4"/>
    <rect x="50" y="0" width="8" height="20" rx="1" fill="#ffffff" stroke="#03a9f4"/>
    <rect x="60" y="0" width="8" height="20" rx="1" fill="#ffffff" stroke="#03a9f4"/>
    <rect x="70" y="0" width="8" height="20" rx="1" fill="#ffffff" stroke="#03a9f4"/>
    <!-- Black keys -->
    <rect x="4" y="0" width="5" height="12" rx="1" fill="url(#blackKeyGrad88)"/>
    <rect x="14" y="0" width="5" height="12" rx="1" fill="url(#blackKeyGrad88)"/>
    <rect x="34" y="0" width="5" height="12" rx="1" fill="url(#blackKeyGrad88)"/>
    <rect x="44" y="0" width="5" height="12" rx="1" fill="url(#blackKeyGrad88)"/>
    <rect x="54" y="0" width="5" height="12" rx="1" fill="url(#blackKeyGrad88)"/>
    </g>
  
    <!-- Left side keys -->
    <g transform="translate(120,320) rotate(-90)">
    <rect x="0" y="0" width="8" height="20" rx="1" fill="#ffffff" stroke="#03a9f4"/>
    <rect x="10" y="0" width="8" height="20" rx="1" fill="#ffffff" stroke="#03a9f4"/>
    <rect x="20" y="0" width="8" height="20" rx="1" fill="#ffffff" stroke="#03a9f4"/>
    <rect x="30" y="0" width="8" height="20" rx="1" fill="#ffffff" stroke="#03a9f4"/>
    <rect x="40" y="0" width="8" height="20" rx="1" fill="#ffffff" stroke="#03a9f4"/>
    <rect x="50" y="0" width="8" height="20" rx="1" fill="#ffffff" stroke="#03a9f4"/>
    <rect x="60" y="0" width="8" height="20" rx="1" fill="#ffffff" stroke="#03a9f4"/>
    <rect x="70" y="0" width="8" height="20" rx="1" fill="#ffffff" stroke="#03a9f4"/>
    <!-- Black keys -->
    <rect x="4" y="0" width="5" height="12" rx="1" fill="url(#blackKeyGrad88)"/>
    <rect x="14" y="0" width="5" height="12" rx="1" fill="url(#blackKeyGrad88)"/>
    <rect x="34" y="0" width="5" height="12" rx="1" fill="url(#blackKeyGrad88)"/>
    <rect x="44" y="0" width="5" height="12" rx="1" fill="url(#blackKeyGrad88)"/>
    <rect x="54" y="0" width="5" height="12" rx="1" fill="url(#blackKeyGrad88)"/>
    </g>
  
    <!-- Musical notes floating -->
    <g fill="#29b6f6" opacity="0.6">
    <circle cx="80" cy="100" r="4"/>
    <ellipse cx="80" cy="96" rx="3" ry="6"/>
    <rect x="83" y="90" width="1" height="15"/>
    
    <circle cx="420" cy="120" r="4"/>
    <ellipse cx="420" cy="116" rx="3" ry="6"/>
    <rect x="423" y="110" width="1" height="15"/>
    
    <circle cx="100" cy="420" r="4"/>
    <ellipse cx="100" cy="416" rx="3" ry="6"/>
    <rect x="103" y="410" width="1" height="15"/>
    
    <circle cx="400" cy="400" r="4"/>
    <ellipse cx="400" cy="396" rx="3" ry="6"/>
    <rect x="403" y="390" width="1" height="15"/>
    </g>
  
    <!-- Sound waves -->
    <g stroke="#29b6f6" stroke-width="2" fill="none" opacity="0.4">
    <circle cx="250" cy="250" r="120"/>
    <circle cx="250" cy="250" r="150"/>
    <circle cx="250" cy="250" r="180"/>
    <circle cx="250" cy="250" r="210"/>
    </g>
  
    <!-- Harmony lines -->
    <g stroke="#03a9f4" stroke-width="1" fill="none" opacity="0.3">
    <path d="M50 100 Q150 80 250 100"/>
    <path d="M250 100 Q350 80 450 100"/>
    <path d="M450 200 Q430 300 450 400"/>
    <path d="M400 450 Q300 430 200 450"/>
    <path d="M50 400 Q70 300 50 200"/>
    </g>
  
    <!-- Musical sparkles -->
    <g fill="#ffffff" opacity="0.8">
    <path d="M90 90 L95 85 L100 90 L95 95 Z"/>
    <path d="M410 90 L415 85 L420 90 L415 95 Z"/>
    <path d="M90 410 L95 405 L100 410 L95 415 Z"/>
    <path d="M410 410 L415 405 L420 410 L415 415 Z"/>
    <path d="M250 60 L253 57 L256 60 L253 63 Z"/>
    <path d="M250 440 L253 437 L256 440 L253 443 Z"/>
    </g>
  
    <!-- Number "88" integrated -->
    
    <!-- Kanji character 八十八 -->
    
    </g>
  </g>
</svg> 