<svg xmlns="http://www.w3.org/2000/svg" width="500" height="500" viewBox="0 0 500 500">
  <defs>
    <linearGradient id="bgGrad89" x1="0%" y1="0%" x2="100%" y2="100%">
      <stop offset="0%" style="stop-color:#fce4ec;stop-opacity:1" />
      <stop offset="100%" style="stop-color:#f8bbd9;stop-opacity:1" />
    </linearGradient>
    <linearGradient id="dragonGrad89" x1="0%" y1="0%" x2="100%" y2="100%">
      <stop offset="0%" style="stop-color:#e91e63;stop-opacity:1" />
      <stop offset="50%" style="stop-color:#c2185b;stop-opacity:1" />
      <stop offset="100%" style="stop-color:#ad1457;stop-opacity:1" />
    </linearGradient>
    <radialGradient id="powerGlow89" cx="50%" cy="50%" r="50%">
      <stop offset="0%" style="stop-color:#f8bbd9;stop-opacity:0.8" />
      <stop offset="100%" style="stop-color:#f8bbd9;stop-opacity:0" />
    </radialGradient>
    <linearGradient id="scaleGrad89" x1="0%" y1="0%" x2="100%" y2="0%">
      <stop offset="0%" style="stop-color:#f06292;stop-opacity:0.8" />
      <stop offset="50%" style="stop-color:#ec407a;stop-opacity:0.8" />
      <stop offset="100%" style="stop-color:#e91e63;stop-opacity:0.8" />
    </linearGradient>
  </defs>
  
  <!-- Background -->
  <rect width="500" height="500" fill="url(#bgGrad89)"/>
  
  <!-- Eight dragon scales plus nine mystical pearls representing 89 -->
  <!-- Central dragon essence -->
  <g transform="translate(250,250)">
  <circle cx="0" cy="0" r="100" fill="url(#powerGlow89)" opacity="0.4"/>
  
  <!-- Dragon head -->
  <ellipse cx="0" cy="0" rx="50" ry="30" fill="url(#dragonGrad89)" opacity="0.9"/>
  <ellipse cx="0" cy="0" rx="35" ry="20" fill="url(#scaleGrad89)" opacity="0.7"/>
  
  <!-- Dragon eyes -->
  <ellipse cx="-15" cy="-8" rx="8" ry="6" fill="#ad1457"/>
  <ellipse cx="15" cy="-8" rx="8" ry="6" fill="#ad1457"/>
  <circle cx="-15" cy="-8" r="4" fill="#ffffff"/>
  <circle cx="15" cy="-8" r="4" fill="#ffffff"/>
  <circle cx="-15" cy="-8" r="2" fill="#000000"/>
  <circle cx="15" cy="-8" r="2" fill="#000000"/>
  
  <!-- Dragon nostrils -->
  <ellipse cx="-8" cy="5" rx="3" ry="2" fill="#880e4f"/>
  <ellipse cx="8" cy="5" rx="3" ry="2" fill="#880e4f"/>
  
  <!-- Dragon whiskers -->
  <g stroke="#c2185b" stroke-width="2" fill="none">
  <path d="M-25 -15 Q-35 -20 -40 -15"/>
  <path d="M-25 -5 Q-35 -10 -40 -5"/>
  <path d="M25 -15 Q35 -20 40 -15"/>
  <path d="M25 -5 Q35 -10 40 -5"/>
  
    <!-- Eight dragon scales around the center -->
    <!-- Scale 1 -->
    <g transform="translate(180,180) rotate(-45)">
    <ellipse cx="0" cy="0" rx="25" ry="15" fill="url(#dragonGrad89)" opacity="0.8"/>
    <ellipse cx="0" cy="0" rx="18" ry="10" fill="url(#scaleGrad89)" opacity="0.6"/>
    <ellipse cx="0" cy="0" rx="10" ry="6" fill="#f8bbd9" opacity="0.5"/>
    </g>
  
    <!-- Scale 2 -->
    <g transform="translate(320,180) rotate(45)">
    <ellipse cx="0" cy="0" rx="25" ry="15" fill="url(#dragonGrad89)" opacity="0.8"/>
    <ellipse cx="0" cy="0" rx="18" ry="10" fill="url(#scaleGrad89)" opacity="0.6"/>
    <ellipse cx="0" cy="0" rx="10" ry="6" fill="#f8bbd9" opacity="0.5"/>
    </g>
  
    <!-- Scale 3 -->
    <g transform="translate(320,320) rotate(135)">
    <ellipse cx="0" cy="0" rx="25" ry="15" fill="url(#dragonGrad89)" opacity="0.8"/>
    <ellipse cx="0" cy="0" rx="18" ry="10" fill="url(#scaleGrad89)" opacity="0.6"/>
    <ellipse cx="0" cy="0" rx="10" ry="6" fill="#f8bbd9" opacity="0.5"/>
    </g>
  
    <!-- Scale 4 -->
    <g transform="translate(180,320) rotate(225)">
    <ellipse cx="0" cy="0" rx="25" ry="15" fill="url(#dragonGrad89)" opacity="0.8"/>
    <ellipse cx="0" cy="0" rx="18" ry="10" fill="url(#scaleGrad89)" opacity="0.6"/>
    <ellipse cx="0" cy="0" rx="10" ry="6" fill="#f8bbd9" opacity="0.5"/>
    </g>
  
    <!-- Scale 5 -->
    <g transform="translate(250,150) rotate(0)">
    <ellipse cx="0" cy="0" rx="22" ry="13" fill="url(#dragonGrad89)" opacity="0.8"/>
    <ellipse cx="0" cy="0" rx="15" ry="9" fill="url(#scaleGrad89)" opacity="0.6"/>
    <ellipse cx="0" cy="0" rx="8" ry="5" fill="#f8bbd9" opacity="0.5"/>
    </g>
  
    <!-- Scale 6 -->
    <g transform="translate(350,250) rotate(90)">
    <ellipse cx="0" cy="0" rx="22" ry="13" fill="url(#dragonGrad89)" opacity="0.8"/>
    <ellipse cx="0" cy="0" rx="15" ry="9" fill="url(#scaleGrad89)" opacity="0.6"/>
    <ellipse cx="0" cy="0" rx="8" ry="5" fill="#f8bbd9" opacity="0.5"/>
    </g>
  
    <!-- Scale 7 -->
    <g transform="translate(250,350) rotate(180)">
    <ellipse cx="0" cy="0" rx="22" ry="13" fill="url(#dragonGrad89)" opacity="0.8"/>
    <ellipse cx="0" cy="0" rx="15" ry="9" fill="url(#scaleGrad89)" opacity="0.6"/>
    <ellipse cx="0" cy="0" rx="8" ry="5" fill="#f8bbd9" opacity="0.5"/>
    </g>
  
    <!-- Scale 8 -->
    <g transform="translate(150,250) rotate(270)">
    <ellipse cx="0" cy="0" rx="22" ry="13" fill="url(#dragonGrad89)" opacity="0.8"/>
    <ellipse cx="0" cy="0" rx="15" ry="9" fill="url(#scaleGrad89)" opacity="0.6"/>
    <ellipse cx="0" cy="0" rx="8" ry="5" fill="#f8bbd9" opacity="0.5"/>
    </g>
  
    <!-- Nine mystical pearls -->
    <!-- Pearl 1 -->
    <g transform="translate(100,100)">
    <circle cx="0" cy="0" r="12" fill="url(#powerGlow89)" opacity="0.6"/>
    <circle cx="0" cy="0" r="8" fill="#f8bbd9"/>
    <circle cx="0" cy="0" r="5" fill="#ffffff" opacity="0.8"/>
    <circle cx="-2" cy="-2" r="2" fill="#ffffff"/>
    </g>
  
    <!-- Pearl 2 -->
    <g transform="translate(400,100)">
    <circle cx="0" cy="0" r="12" fill="url(#powerGlow89)" opacity="0.6"/>
    <circle cx="0" cy="0" r="8" fill="#f8bbd9"/>
    <circle cx="0" cy="0" r="5" fill="#ffffff" opacity="0.8"/>
    <circle cx="-2" cy="-2" r="2" fill="#ffffff"/>
    </g>
  
    <!-- Pearl 3 -->
    <g transform="translate(400,400)">
    <circle cx="0" cy="0" r="12" fill="url(#powerGlow89)" opacity="0.6"/>
    <circle cx="0" cy="0" r="8" fill="#f8bbd9"/>
    <circle cx="0" cy="0" r="5" fill="#ffffff" opacity="0.8"/>
    <circle cx="-2" cy="-2" r="2" fill="#ffffff"/>
    </g>
  
    <!-- Pearl 4 -->
    <g transform="translate(100,400)">
    <circle cx="0" cy="0" r="12" fill="url(#powerGlow89)" opacity="0.6"/>
    <circle cx="0" cy="0" r="8" fill="#f8bbd9"/>
    <circle cx="0" cy="0" r="5" fill="#ffffff" opacity="0.8"/>
    <circle cx="-2" cy="-2" r="2" fill="#ffffff"/>
    </g>
  
    <!-- Pearl 5 -->
    <g transform="translate(80,250)">
    <circle cx="0" cy="0" r="10" fill="url(#powerGlow89)" opacity="0.6"/>
    <circle cx="0" cy="0" r="7" fill="#f8bbd9"/>
    <circle cx="0" cy="0" r="4" fill="#ffffff" opacity="0.8"/>
    <circle cx="-1" cy="-1" r="1" fill="#ffffff"/>
    </g>
  
    <!-- Pearl 6 -->
    <g transform="translate(420,250)">
    <circle cx="0" cy="0" r="10" fill="url(#powerGlow89)" opacity="0.6"/>
    <circle cx="0" cy="0" r="7" fill="#f8bbd9"/>
    <circle cx="0" cy="0" r="4" fill="#ffffff" opacity="0.8"/>
    <circle cx="-1" cy="-1" r="1" fill="#ffffff"/>
    </g>
  
    <!-- Pearl 7 -->
    <g transform="translate(250,80)">
    <circle cx="0" cy="0" r="10" fill="url(#powerGlow89)" opacity="0.6"/>
    <circle cx="0" cy="0" r="7" fill="#f8bbd9"/>
    <circle cx="0" cy="0" r="4" fill="#ffffff" opacity="0.8"/>
    <circle cx="-1" cy="-1" r="1" fill="#ffffff"/>
    </g>
  
    <!-- Pearl 8 -->
    <g transform="translate(250,420)">
    <circle cx="0" cy="0" r="10" fill="url(#powerGlow89)" opacity="0.6"/>
    <circle cx="0" cy="0" r="7" fill="#f8bbd9"/>
    <circle cx="0" cy="0" r="4" fill="#ffffff" opacity="0.8"/>
    <circle cx="-1" cy="-1" r="1" fill="#ffffff"/>
    </g>
  
    <!-- Pearl 9 (central treasure) -->
    <g transform="translate(250,250)">
    <circle cx="0" cy="50" r="15" fill="url(#powerGlow89)" opacity="0.6"/>
    <circle cx="0" cy="50" r="10" fill="#f8bbd9"/>
    <circle cx="0" cy="50" r="6" fill="#ffffff" opacity="0.8"/>
    <circle cx="-2" cy="48" r="2" fill="#ffffff"/>
    </g>
  
    <!-- Dragon energy streams -->
    <g stroke="url(#scaleGrad89)" stroke-width="3" fill="none" opacity="0.6">
    <path d="M100 100 Q150 120 180 150"/>
    <path d="M400 100 Q350 120 320 150"/>
    <path d="M400 400 Q350 380 320 350"/>
    <path d="M100 400 Q150 380 180 350"/>
    </g>
  
    <!-- Mystical aura -->
    <g stroke="#e91e63" stroke-width="2" fill="none" opacity="0.4">
    <circle cx="250" cy="250" r="120"/>
    <circle cx="250" cy="250" r="160"/>
    <circle cx="250" cy="250" r="200"/>
    </g>
  
    <!-- Ancient power runes -->
    <g fill="#ad1457" opacity="0.5">
    <polygon points="50,50 55,45 60,50 55,55" transform="rotate(30 55 50)"/>
    <polygon points="450,50 455,45 460,50 455,55" transform="rotate(-30 455 50)"/>
    <polygon points="50,450 55,445 60,450 55,455" transform="rotate(30 55 450)"/>
    <polygon points="450,450 455,445 460,450 455,455" transform="rotate(-30 455 450)"/>
    </g>
  
    <!-- Sacred sparkles -->
    <g fill="#ffffff" opacity="0.8">
    <path d="M90 90 L95 85 L100 90 L95 95 Z"/>
    <path d="M410 90 L415 85 L420 90 L415 95 Z"/>
    <path d="M90 410 L95 405 L100 410 L95 415 Z"/>
    <path d="M410 410 L415 405 L420 410 L415 415 Z"/>
    <path d="M250 60 L253 57 L256 60 L253 63 Z"/>
    <path d="M250 440 L253 437 L256 440 L253 443 Z"/>
    </g>
  
    <!-- Number "89" integrated -->
    <text x="450" y="50" font-family="Arial, sans-serif" font-size="28" font-weight="300" text-anchor="middle" fill="#880e4f" opacity="0.5">89</text>
  
    <!-- Kanji character 八十九 -->
    <text x="80" y="50" font-family="serif" font-size="36" font-weight="bold" text-anchor="middle" fill="#880e4f" opacity="0.9">八十九</text>
    </g>
  </g>
</svg> 