<svg xmlns="http://www.w3.org/2000/svg" width="500" height="500" viewBox="0 0 500 500">
  <defs>
    <linearGradient id="bgGrad90" x1="0%" y1="0%" x2="100%" y2="100%">
      <stop offset="0%" style="stop-color:#e8f5e8;stop-opacity:1" />
      <stop offset="100%" style="stop-color:#c8e6c9;stop-opacity:1" />
    </linearGradient>
    <linearGradient id="zenGrad90" x1="0%" y1="0%" x2="100%" y2="100%">
      <stop offset="0%" style="stop-color:#66bb6a;stop-opacity:1" />
      <stop offset="50%" style="stop-color:#4caf50;stop-opacity:1" />
      <stop offset="100%" style="stop-color:#2e7d32;stop-opacity:1" />
    </linearGradient>
    <radialGradient id="enlightenmentGlow90" cx="50%" cy="50%" r="50%">
      <stop offset="0%" style="stop-color:#a5d6a7;stop-opacity:0.9" />
      <stop offset="100%" style="stop-color:#a5d6a7;stop-opacity:0" />
    </radialGradient>
    <linearGradient id="circleGrad90" x1="0%" y1="0%" x2="100%" y2="0%">
      <stop offset="0%" style="stop-color:#81c784;stop-opacity:0.8" />
      <stop offset="50%" style="stop-color:#66bb6a;stop-opacity:0.8" />
      <stop offset="100%" style="stop-color:#4caf50;stop-opacity:0.8" />
    </linearGradient>
  </defs>
  
  <!-- Background -->
  <rect width="500" height="500" fill="url(#bgGrad90)"/>
  
  <!-- Nine zen circles completing the perfect ten representing 90 -->
  <!-- Central enlightenment circle -->
  <g transform="translate(250,250)">
  <circle cx="0" cy="0" r="120" fill="url(#enlightenmentGlow90)" opacity="0.4"/>
  
  <!-- Perfect completion circle -->
  <circle cx="0" cy="0" r="60" fill="none" stroke="url(#zenGrad90)" stroke-width="8" opacity="0.9"/>
  <circle cx="0" cy="0" r="45" fill="none" stroke="url(#circleGrad90)" stroke-width="4" opacity="0.7"/>
  <circle cx="0" cy="0" r="30" fill="none" stroke="#a5d6a7" stroke-width="2" opacity="0.6"/>
  
  <!-- Enlightenment point -->
  <circle cx="0" cy="0" r="15" fill="#2e7d32"/>
  <circle cx="0" cy="0" r="8" fill="#a5d6a7"/>
  <circle cx="0" cy="0" r="3" fill="#ffffff"/>
  
  <!-- Nine surrounding zen circles -->
  <!-- Circle 1: North -->
  <g transform="translate(250,100)">
  <circle cx="0" cy="0" r="30" fill="none" stroke="url(#zenGrad90)" stroke-width="5" opacity="0.8"/>
  <circle cx="0" cy="0" r="20" fill="none" stroke="url(#circleGrad90)" stroke-width="3" opacity="0.6"/>
  <circle cx="0" cy="0" r="8" fill="#4caf50"/>
  <circle cx="0" cy="0" r="4" fill="#a5d6a7"/>
  
    <!-- Circle 2: Northeast -->
    <g transform="translate(380,150)">
    <circle cx="0" cy="0" r="25" fill="none" stroke="url(#zenGrad90)" stroke-width="4" opacity="0.8"/>
    <circle cx="0" cy="0" r="16" fill="none" stroke="url(#circleGrad90)" stroke-width="2" opacity="0.6"/>
    <circle cx="0" cy="0" r="6" fill="#4caf50"/>
    <circle cx="0" cy="0" r="3" fill="#a5d6a7"/>
    </g>
  
    <!-- Circle 3: East -->
    <g transform="translate(420,250)">
    <circle cx="0" cy="0" r="28" fill="none" stroke="url(#zenGrad90)" stroke-width="5" opacity="0.8"/>
    <circle cx="0" cy="0" r="18" fill="none" stroke="url(#circleGrad90)" stroke-width="3" opacity="0.6"/>
    <circle cx="0" cy="0" r="7" fill="#4caf50"/>
    <circle cx="0" cy="0" r="3" fill="#a5d6a7"/>
    </g>
  
    <!-- Circle 4: Southeast -->
    <g transform="translate(380,350)">
    <circle cx="0" cy="0" r="25" fill="none" stroke="url(#zenGrad90)" stroke-width="4" opacity="0.8"/>
    <circle cx="0" cy="0" r="16" fill="none" stroke="url(#circleGrad90)" stroke-width="2" opacity="0.6"/>
    <circle cx="0" cy="0" r="6" fill="#4caf50"/>
    <circle cx="0" cy="0" r="3" fill="#a5d6a7"/>
    </g>
  
    <!-- Circle 5: South -->
    <g transform="translate(250,400)">
    <circle cx="0" cy="0" r="30" fill="none" stroke="url(#zenGrad90)" stroke-width="5" opacity="0.8"/>
    <circle cx="0" cy="0" r="20" fill="none" stroke="url(#circleGrad90)" stroke-width="3" opacity="0.6"/>
    <circle cx="0" cy="0" r="8" fill="#4caf50"/>
    <circle cx="0" cy="0" r="4" fill="#a5d6a7"/>
    </g>
  
    <!-- Circle 6: Southwest -->
    <g transform="translate(120,350)">
    <circle cx="0" cy="0" r="25" fill="none" stroke="url(#zenGrad90)" stroke-width="4" opacity="0.8"/>
    <circle cx="0" cy="0" r="16" fill="none" stroke="url(#circleGrad90)" stroke-width="2" opacity="0.6"/>
    <circle cx="0" cy="0" r="6" fill="#4caf50"/>
    <circle cx="0" cy="0" r="3" fill="#a5d6a7"/>
    </g>
  
    <!-- Circle 7: West -->
    <g transform="translate(80,250)">
    <circle cx="0" cy="0" r="28" fill="none" stroke="url(#zenGrad90)" stroke-width="5" opacity="0.8"/>
    <circle cx="0" cy="0" r="18" fill="none" stroke="url(#circleGrad90)" stroke-width="3" opacity="0.6"/>
    <circle cx="0" cy="0" r="7" fill="#4caf50"/>
    <circle cx="0" cy="0" r="3" fill="#a5d6a7"/>
    </g>
  
    <!-- Circle 8: Northwest -->
    <g transform="translate(120,150)">
    <circle cx="0" cy="0" r="25" fill="none" stroke="url(#zenGrad90)" stroke-width="4" opacity="0.8"/>
    <circle cx="0" cy="0" r="16" fill="none" stroke="url(#circleGrad90)" stroke-width="2" opacity="0.6"/>
    <circle cx="0" cy="0" r="6" fill="#4caf50"/>
    <circle cx="0" cy="0" r="3" fill="#a5d6a7"/>
    </g>
  
    <!-- Circle 9: Upper center -->
    <g transform="translate(250,180)">
    <circle cx="0" cy="0" r="20" fill="none" stroke="url(#zenGrad90)" stroke-width="3" opacity="0.7"/>
    <circle cx="0" cy="0" r="12" fill="none" stroke="url(#circleGrad90)" stroke-width="2" opacity="0.5"/>
    <circle cx="0" cy="0" r="5" fill="#4caf50"/>
    <circle cx="0" cy="0" r="2" fill="#a5d6a7"/>
    </g>
  
    <!-- Connecting energy flows -->
    <g stroke="url(#circleGrad90)" stroke-width="2" fill="none" opacity="0.5">
    <path d="M250 130 Q220 160 190 150"/>
    <path d="M250 130 Q280 160 310 150"/>
    <path d="M350 180 Q350 220 350 280"/>
    <path d="M350 350 Q320 320 290 310"/>
    <path d="M250 370 Q280 340 310 350"/>
    <path d="M250 370 Q220 340 190 350"/>
    <path d="M150 350 Q150 320 150 280"/>
    <path d="M150 180 Q180 220 210 250"/>
    </g>
  
    <!-- Concentric meditation rings -->
    <g stroke="#66bb6a" stroke-width="1" fill="none" opacity="0.3">
    <circle cx="250" cy="250" r="140"/>
    <circle cx="250" cy="250" r="170"/>
    <circle cx="250" cy="250" r="200"/>
    <circle cx="250" cy="250" r="230"/>
    </g>
  
    <!-- Sacred geometry points -->
    <g fill="#4caf50" opacity="0.6">
    <circle cx="200" cy="200" r="2"/>
    <circle cx="300" cy="200" r="2"/>
    <circle cx="300" cy="300" r="2"/>
    <circle cx="200" cy="300" r="2"/>
    <circle cx="175" cy="175" r="2"/>
    <circle cx="325" cy="175" r="2"/>
    <circle cx="325" cy="325" r="2"/>
    <circle cx="175" cy="325" r="2"/>
    </g>
  
    <!-- Zen breath patterns -->
    <g stroke="#81c784" stroke-width="1" fill="none" opacity="0.3">
    <path d="M50 100 Q150 80 250 100"/>
    <path d="M250 100 Q350 80 450 100"/>
    <path d="M450 200 Q430 300 450 400"/>
    <path d="M400 450 Q300 430 200 450"/>
    <path d="M50 400 Q70 300 50 200"/>
    </g>
  
    <!-- Floating meditation leaves -->
    <g fill="#66bb6a" opacity="0.5">
    <ellipse cx="100" cy="120" rx="6" ry="3" transform="rotate(30 100 120)"/>
    <ellipse cx="400" cy="130" rx="5" ry="3" transform="rotate(-45 400 130)"/>
    <ellipse cx="110" cy="380" rx="6" ry="3" transform="rotate(60 110 380)"/>
    <ellipse cx="390" cy="370" rx="5" ry="3" transform="rotate(-30 390 370)"/>
    <ellipse cx="150" cy="50" rx="4" ry="2" transform="rotate(15 150 50)"/>
    <ellipse cx="350" cy="450" rx="4" ry="2" transform="rotate(-60 350 450)"/>
    </g>
  
    <!-- Enlightenment sparkles -->
    <g fill="#ffffff" opacity="0.8">
    <path d="M90 90 L95 85 L100 90 L95 95 Z"/>
    <path d="M410 90 L415 85 L420 90 L415 95 Z"/>
    <path d="M90 410 L95 405 L100 410 L95 415 Z"/>
    <path d="M410 410 L415 405 L420 410 L415 415 Z"/>
    <path d="M250 60 L253 57 L256 60 L253 63 Z"/>
    <path d="M250 440 L253 437 L256 440 L253 443 Z"/>
    <path d="M60 250 L63 247 L66 250 L63 253 Z"/>
    <path d="M440 250 L443 247 L446 250 L443 253 Z"/>
    </g>
  
    <!-- Number "90" integrated -->
    <text x="450" y="50" font-family="Arial, sans-serif" font-size="28" font-weight="300" text-anchor="middle" fill="#1b5e20" opacity="0.5">90</text>
  
    <!-- Kanji character 九十 -->
    <text x="80" y="50" font-family="serif" font-size="36" font-weight="bold" text-anchor="middle" fill="#1b5e20" opacity="0.9">九十</text>
    </g>
  </g>
</svg> 