<svg xmlns="http://www.w3.org/2000/svg" width="500" height="500" viewBox="0 0 500 500">
  <defs>
    <linearGradient id="bgGrad93" x1="0%" y1="0%" x2="100%" y2="100%">
      <stop offset="0%" style="stop-color:#e0f2f1;stop-opacity:1" />
      <stop offset="100%" style="stop-color:#b2dfdb;stop-opacity:1" />
    </linearGradient>
    <linearGradient id="spiralGrad93" x1="0%" y1="0%" x2="100%" y2="100%">
      <stop offset="0%" style="stop-color:#4db6ac;stop-opacity:1" />
      <stop offset="50%" style="stop-color:#26a69a;stop-opacity:1" />
      <stop offset="100%" style="stop-color:#00695c;stop-opacity:1" />
    </linearGradient>
    <radialGradient id="cosmicGlow93" cx="50%" cy="50%" r="50%">
      <stop offset="0%" style="stop-color:#a7ffeb;stop-opacity:0.8" />
      <stop offset="100%" style="stop-color:#a7ffeb;stop-opacity:0" />
    </radialGradient>
    <linearGradient id="galaxyGrad93" x1="0%" y1="0%" x2="100%" y2="0%">
      <stop offset="0%" style="stop-color:#80cbc4;stop-opacity:0.8" />
      <stop offset="50%" style="stop-color:#4db6ac;stop-opacity:0.8" />
      <stop offset="100%" style="stop-color:#26a69a;stop-opacity:0.8" />
    </linearGradient>
  </defs>
  
  <!-- Background -->
  <rect width="500" height="500" fill="url(#bgGrad93)"/>
  
  <!-- Nine spiral galaxies plus three cosmic streams representing 93 -->
  <!-- Central master galaxy -->
  <g transform="translate(250,250)">
  <circle cx="0" cy="0" r="100" fill="url(#cosmicGlow93)" opacity="0.4"/>
  
  <!-- Main spiral -->
  <g stroke="url(#spiralGrad93)" stroke-width="6" fill="none" opacity="0.9">
  <path d="M0 0 Q-20 -10 -30 -30 Q-30 -50 -10 -60 Q20 -60 40 -40 Q50 -10 40 20 Q20 40 -10 40 Q-40 30 -50 0 Q-50 -30 -30 -50 Q0 -60 30 -50"/>
  
  <!-- Inner spiral arms -->
  <g stroke="url(#galaxyGrad93)" stroke-width="3" fill="none" opacity="0.7">
    <path d="M0 0 Q15 -8 20 -20 Q20 -35 8 -40 Q-15 -40 -25 -25 Q-30 -8 -25 8 Q-15 20 8 20 Q25 15 30 0"/>
    
    <!-- Galactic core -->
    <circle cx="0" cy="0" r="15" fill="#00695c"/>
    <circle cx="0" cy="0" r="8" fill="#a7ffeb"/>
    <circle cx="0" cy="0" r="3" fill="#ffffff"/>
    </g>
  
    <!-- Nine surrounding spiral galaxies -->
    <!-- Galaxy 1: North -->
    <g transform="translate(250,120)">
    <g stroke="url(#spiralGrad93)" stroke-width="3" fill="none" opacity="0.8">
      <path d="M0 0 Q-10 -5 -15 -15 Q-15 -25 -5 -30 Q10 -30 20 -20 Q25 -5 20 10 Q10 20 -5 20 Q-20 15 -25 0"/>
    </g>
    <circle cx="0" cy="0" r="8" fill="#26a69a"/>
    <circle cx="0" cy="0" r="4" fill="#a7ffeb"/>
    </g>
  
    <!-- Galaxy 2: Northeast -->
    <g transform="translate(380,150)">
    <g stroke="url(#spiralGrad93)" stroke-width="2" fill="none" opacity="0.7">
      <path d="M0 0 Q-8 -4 -12 -12 Q-12 -20 -4 -24 Q8 -24 16 -16 Q20 -4 16 8 Q8 16 -4 16 Q-16 12 -20 0"/>
    </g>
    <circle cx="0" cy="0" r="6" fill="#26a69a"/>
    <circle cx="0" cy="0" r="3" fill="#a7ffeb"/>
    </g>
  
    <!-- Galaxy 3: East -->
    <g transform="translate(420,250)">
    <g stroke="url(#spiralGrad93)" stroke-width="3" fill="none" opacity="0.8">
      <path d="M0 0 Q-10 -5 -15 -15 Q-15 -25 -5 -30 Q10 -30 20 -20 Q25 -5 20 10 Q10 20 -5 20 Q-20 15 -25 0"/>
    </g>
    <circle cx="0" cy="0" r="8" fill="#26a69a"/>
    <circle cx="0" cy="0" r="4" fill="#a7ffeb"/>
    </g>
  
    <!-- Galaxy 4: Southeast -->
    <g transform="translate(380,350)">
    <g stroke="url(#spiralGrad93)" stroke-width="2" fill="none" opacity="0.7">
      <path d="M0 0 Q-8 -4 -12 -12 Q-12 -20 -4 -24 Q8 -24 16 -16 Q20 -4 16 8 Q8 16 -4 16 Q-16 12 -20 0"/>
    </g>
    <circle cx="0" cy="0" r="6" fill="#26a69a"/>
    <circle cx="0" cy="0" r="3" fill="#a7ffeb"/>
    </g>
  
    <!-- Galaxy 5: South -->
    <g transform="translate(250,380)">
    <g stroke="url(#spiralGrad93)" stroke-width="3" fill="none" opacity="0.8">
      <path d="M0 0 Q-10 -5 -15 -15 Q-15 -25 -5 -30 Q10 -30 20 -20 Q25 -5 20 10 Q10 20 -5 20 Q-20 15 -25 0"/>
    </g>
    <circle cx="0" cy="0" r="8" fill="#26a69a"/>
    <circle cx="0" cy="0" r="4" fill="#a7ffeb"/>
    </g>
  
    <!-- Galaxy 6: Southwest -->
    <g transform="translate(120,350)">
    <g stroke="url(#spiralGrad93)" stroke-width="2" fill="none" opacity="0.7">
      <path d="M0 0 Q-8 -4 -12 -12 Q-12 -20 -4 -24 Q8 -24 16 -16 Q20 -4 16 8 Q8 16 -4 16 Q-16 12 -20 0"/>
    </g>
    <circle cx="0" cy="0" r="6" fill="#26a69a"/>
    <circle cx="0" cy="0" r="3" fill="#a7ffeb"/>
    </g>
  
    <!-- Galaxy 7: West -->
    <g transform="translate(80,250)">
    <g stroke="url(#spiralGrad93)" stroke-width="3" fill="none" opacity="0.8">
      <path d="M0 0 Q-10 -5 -15 -15 Q-15 -25 -5 -30 Q10 -30 20 -20 Q25 -5 20 10 Q10 20 -5 20 Q-20 15 -25 0"/>
    </g>
    <circle cx="0" cy="0" r="8" fill="#26a69a"/>
    <circle cx="0" cy="0" r="4" fill="#a7ffeb"/>
    </g>
  
    <!-- Galaxy 8: Northwest -->
    <g transform="translate(120,150)">
    <g stroke="url(#spiralGrad93)" stroke-width="2" fill="none" opacity="0.7">
      <path d="M0 0 Q-8 -4 -12 -12 Q-12 -20 -4 -24 Q8 -24 16 -16 Q20 -4 16 8 Q8 16 -4 16 Q-16 12 -20 0"/>
    </g>
    <circle cx="0" cy="0" r="6" fill="#26a69a"/>
    <circle cx="0" cy="0" r="3" fill="#a7ffeb"/>
    </g>
  
    <!-- Galaxy 9: Upper center -->
    <g transform="translate(250,180)">
    <g stroke="url(#spiralGrad93)" stroke-width="2" fill="none" opacity="0.7">
      <path d="M0 0 Q-6 -3 -9 -9 Q-9 -15 -3 -18 Q6 -18 12 -12 Q15 -3 12 6 Q6 12 -3 12 Q-12 9 -15 0"/>
    </g>
    <circle cx="0" cy="0" r="5" fill="#26a69a"/>
    <circle cx="0" cy="0" r="2" fill="#a7ffeb"/>
    </g>
  
    <!-- Three cosmic streams -->
    <!-- Stream 1: Connecting upper galaxies -->
    <g stroke="url(#galaxyGrad93)" stroke-width="4" fill="none" opacity="0.6">
    <path d="M120 150 Q180 130 250 150 Q320 130 380 150"/>
    </g>
  
    <!-- Stream 2: Connecting middle galaxies -->
    <g stroke="url(#galaxyGrad93)" stroke-width="4" fill="none" opacity="0.6">
    <path d="M80 250 Q150 230 250 250 Q350 230 420 250"/>
    </g>
  
    <!-- Stream 3: Connecting lower galaxies -->
    <g stroke="url(#galaxyGrad93)" stroke-width="4" fill="none" opacity="0.6">
    <path d="M120 350 Q180 330 250 350 Q320 330 380 350"/>
    </g>
  
    <!-- Cosmic web structure -->
    <g stroke="#4db6ac" stroke-width="1" fill="none" opacity="0.3">
    <circle cx="250" cy="250" r="120"/>
    <circle cx="250" cy="250" r="160"/>
    <circle cx="250" cy="250" r="200"/>
    </g>
  
    <!-- Dark matter filaments -->
    <g stroke="#80cbc4" stroke-width="1" fill="none" opacity="0.3">
    <path d="M50 100 Q150 80 250 100"/>
    <path d="M250 100 Q350 80 450 100"/>
    <path d="M450 200 Q430 300 450 400"/>
    <path d="M400 450 Q300 430 200 450"/>
    <path d="M50 400 Q70 300 50 200"/>
    </g>
  
    <!-- Stellar clusters -->
    <g fill="#b2dfdb" opacity="0.6">
    <circle cx="150" cy="100" r="2"/>
    <circle cx="350" cy="100" r="3"/>
    <circle cx="150" cy="400" r="2"/>
    <circle cx="350" cy="400" r="3"/>
    <circle cx="50" cy="200" r="2"/>
    <circle cx="450" cy="200" r="3"/>
    <circle cx="50" cy="300" r="2"/>
    <circle cx="450" cy="300" r="3"/>
    </g>
  
    <!-- Cosmic radiation -->
    <g fill="#ffffff" opacity="0.8">
    <path d="M90 90 L95 85 L100 90 L95 95 Z"/>
    <path d="M410 90 L415 85 L420 90 L415 95 Z"/>
    <path d="M90 410 L95 405 L100 410 L95 415 Z"/>
    <path d="M410 410 L415 405 L420 410 L415 415 Z"/>
    <path d="M250 60 L253 57 L256 60 L253 63 Z"/>
    <path d="M250 440 L253 437 L256 440 L253 443 Z"/>
    </g>
  
    <!-- Number "93" integrated -->
    
    <!-- Kanji character 九十三 -->
    
    </g>
  </g>
</svg> 