<svg xmlns="http://www.w3.org/2000/svg" width="500" height="500" viewBox="0 0 500 500">
  <defs>
    <linearGradient id="bgGrad95" x1="0%" y1="0%" x2="100%" y2="100%">
      <stop offset="0%" style="stop-color:#f3e5f5;stop-opacity:1" />
      <stop offset="100%" style="stop-color:#e1bee7;stop-opacity:1" />
    </linearGradient>
    <linearGradient id="petalGrad95" x1="0%" y1="0%" x2="100%" y2="100%">
      <stop offset="0%" style="stop-color:#ab47bc;stop-opacity:1" />
      <stop offset="50%" style="stop-color:#9c27b0;stop-opacity:1" />
      <stop offset="100%" style="stop-color:#7b1fa2;stop-opacity:1" />
    </linearGradient>
    <radialGradient id="bloomGlow95" cx="50%" cy="50%" r="50%">
      <stop offset="0%" style="stop-color:#f8bbd9;stop-opacity:0.8" />
      <stop offset="100%" style="stop-color:#f8bbd9;stop-opacity:0" />
    </radialGradient>
    <linearGradient id="flowerGrad95" x1="0%" y1="0%" x2="100%" y2="0%">
      <stop offset="0%" style="stop-color:#ce93d8;stop-opacity:0.8" />
      <stop offset="50%" style="stop-color:#ba68c8;stop-opacity:0.8" />
      <stop offset="100%" style="stop-color:#ab47bc;stop-opacity:0.8" />
    </linearGradient>
  </defs>
  
  <!-- Background -->
  <rect width="500" height="500" fill="url(#bgGrad95)"/>
  
  <!-- Nine blooming flowers plus five floating petals representing 95 -->
  <!-- Central master bloom -->
  <g transform="translate(250,250)">
  <circle cx="0" cy="0" r="80" fill="url(#bloomGlow95)" opacity="0.4"/>
  
  <!-- Main flower petals -->
  <g transform="rotate(0)">
  <ellipse cx="0" cy="-30" rx="15" ry="25" fill="url(#petalGrad95)" opacity="0.9"/>
  <g transform="rotate(72)">
    <ellipse cx="0" cy="-30" rx="15" ry="25" fill="url(#petalGrad95)" opacity="0.9"/>
    <g transform="rotate(144)">
      <ellipse cx="0" cy="-30" rx="15" ry="25" fill="url(#petalGrad95)" opacity="0.9"/>
    </g>
    <g transform="rotate(216)">
      <ellipse cx="0" cy="-30" rx="15" ry="25" fill="url(#petalGrad95)" opacity="0.9"/>
    </g>
    <g transform="rotate(288)">
      <ellipse cx="0" cy="-30" rx="15" ry="25" fill="url(#petalGrad95)" opacity="0.9"/>
    </g>
    
    <!-- Inner petals -->
    <g transform="rotate(36)">
      <ellipse cx="0" cy="-20" rx="10" ry="18" fill="url(#flowerGrad95)" opacity="0.7"/>
    </g>
    <g transform="rotate(108)">
      <ellipse cx="0" cy="-20" rx="10" ry="18" fill="url(#flowerGrad95)" opacity="0.7"/>
    </g>
    <g transform="rotate(180)">
      <ellipse cx="0" cy="-20" rx="10" ry="18" fill="url(#flowerGrad95)" opacity="0.7"/>
    </g>
    <g transform="rotate(252)">
      <ellipse cx="0" cy="-20" rx="10" ry="18" fill="url(#flowerGrad95)" opacity="0.7"/>
    </g>
    <g transform="rotate(324)">
      <ellipse cx="0" cy="-20" rx="10" ry="18" fill="url(#flowerGrad95)" opacity="0.7"/>
    </g>
    
    <!-- Flower center -->
    <circle cx="0" cy="0" r="12" fill="#7b1fa2"/>
    <circle cx="0" cy="0" r="6" fill="#f8bbd9"/>
    </g>
  
    <!-- Nine surrounding flowers -->
    <!-- Flower 1: North -->
    <g transform="translate(250,120)">
    <g transform="rotate(0)">
      <ellipse cx="0" cy="-18" rx="8" ry="15" fill="url(#petalGrad95)" opacity="0.8"/>
    </g>
    <g transform="rotate(72)">
      <ellipse cx="0" cy="-18" rx="8" ry="15" fill="url(#petalGrad95)" opacity="0.8"/>
    </g>
    <g transform="rotate(144)">
      <ellipse cx="0" cy="-18" rx="8" ry="15" fill="url(#petalGrad95)" opacity="0.8"/>
    </g>
    <g transform="rotate(216)">
      <ellipse cx="0" cy="-18" rx="8" ry="15" fill="url(#petalGrad95)" opacity="0.8"/>
    </g>
    <g transform="rotate(288)">
      <ellipse cx="0" cy="-18" rx="8" ry="15" fill="url(#petalGrad95)" opacity="0.8"/>
    </g>
    <circle cx="0" cy="0" r="6" fill="#9c27b0"/>
    </g>
  
    <!-- Flower 2: Northeast -->
    <g transform="translate(380,150)">
    <g transform="rotate(0)">
      <ellipse cx="0" cy="-15" rx="6" ry="12" fill="url(#petalGrad95)" opacity="0.7"/>
    </g>
    <g transform="rotate(72)">
      <ellipse cx="0" cy="-15" rx="6" ry="12" fill="url(#petalGrad95)" opacity="0.7"/>
    </g>
    <g transform="rotate(144)">
      <ellipse cx="0" cy="-15" rx="6" ry="12" fill="url(#petalGrad95)" opacity="0.7"/>
    </g>
    <g transform="rotate(216)">
      <ellipse cx="0" cy="-15" rx="6" ry="12" fill="url(#petalGrad95)" opacity="0.7"/>
    </g>
    <g transform="rotate(288)">
      <ellipse cx="0" cy="-15" rx="6" ry="12" fill="url(#petalGrad95)" opacity="0.7"/>
    </g>
    <circle cx="0" cy="0" r="4" fill="#9c27b0"/>
    </g>
  
    <!-- Flower 3: East -->
    <g transform="translate(420,250)">
    <g transform="rotate(0)">
      <ellipse cx="0" cy="-18" rx="8" ry="15" fill="url(#petalGrad95)" opacity="0.8"/>
    </g>
    <g transform="rotate(72)">
      <ellipse cx="0" cy="-18" rx="8" ry="15" fill="url(#petalGrad95)" opacity="0.8"/>
    </g>
    <g transform="rotate(144)">
      <ellipse cx="0" cy="-18" rx="8" ry="15" fill="url(#petalGrad95)" opacity="0.8"/>
    </g>
    <g transform="rotate(216)">
      <ellipse cx="0" cy="-18" rx="8" ry="15" fill="url(#petalGrad95)" opacity="0.8"/>
    </g>
    <g transform="rotate(288)">
      <ellipse cx="0" cy="-18" rx="8" ry="15" fill="url(#petalGrad95)" opacity="0.8"/>
    </g>
    <circle cx="0" cy="0" r="6" fill="#9c27b0"/>
    </g>
  
    <!-- Flower 4: Southeast -->
    <g transform="translate(380,350)">
    <g transform="rotate(0)">
      <ellipse cx="0" cy="-15" rx="6" ry="12" fill="url(#petalGrad95)" opacity="0.7"/>
    </g>
    <g transform="rotate(72)">
      <ellipse cx="0" cy="-15" rx="6" ry="12" fill="url(#petalGrad95)" opacity="0.7"/>
    </g>
    <g transform="rotate(144)">
      <ellipse cx="0" cy="-15" rx="6" ry="12" fill="url(#petalGrad95)" opacity="0.7"/>
    </g>
    <g transform="rotate(216)">
      <ellipse cx="0" cy="-15" rx="6" ry="12" fill="url(#petalGrad95)" opacity="0.7"/>
    </g>
    <g transform="rotate(288)">
      <ellipse cx="0" cy="-15" rx="6" ry="12" fill="url(#petalGrad95)" opacity="0.7"/>
    </g>
    <circle cx="0" cy="0" r="4" fill="#9c27b0"/>
    </g>
  
    <!-- Flower 5: South -->
    <g transform="translate(250,380)">
    <g transform="rotate(0)">
      <ellipse cx="0" cy="-18" rx="8" ry="15" fill="url(#petalGrad95)" opacity="0.8"/>
    </g>
    <g transform="rotate(72)">
      <ellipse cx="0" cy="-18" rx="8" ry="15" fill="url(#petalGrad95)" opacity="0.8"/>
    </g>
    <g transform="rotate(144)">
      <ellipse cx="0" cy="-18" rx="8" ry="15" fill="url(#petalGrad95)" opacity="0.8"/>
    </g>
    <g transform="rotate(216)">
      <ellipse cx="0" cy="-18" rx="8" ry="15" fill="url(#petalGrad95)" opacity="0.8"/>
    </g>
    <g transform="rotate(288)">
      <ellipse cx="0" cy="-18" rx="8" ry="15" fill="url(#petalGrad95)" opacity="0.8"/>
    </g>
    <circle cx="0" cy="0" r="6" fill="#9c27b0"/>
    </g>
  
    <!-- Flower 6: Southwest -->
    <g transform="translate(120,350)">
    <g transform="rotate(0)">
      <ellipse cx="0" cy="-15" rx="6" ry="12" fill="url(#petalGrad95)" opacity="0.7"/>
    </g>
    <g transform="rotate(72)">
      <ellipse cx="0" cy="-15" rx="6" ry="12" fill="url(#petalGrad95)" opacity="0.7"/>
    </g>
    <g transform="rotate(144)">
      <ellipse cx="0" cy="-15" rx="6" ry="12" fill="url(#petalGrad95)" opacity="0.7"/>
    </g>
    <g transform="rotate(216)">
      <ellipse cx="0" cy="-15" rx="6" ry="12" fill="url(#petalGrad95)" opacity="0.7"/>
    </g>
    <g transform="rotate(288)">
      <ellipse cx="0" cy="-15" rx="6" ry="12" fill="url(#petalGrad95)" opacity="0.7"/>
    </g>
    <circle cx="0" cy="0" r="4" fill="#9c27b0"/>
    </g>
  
    <!-- Flower 7: West -->
    <g transform="translate(80,250)">
    <g transform="rotate(0)">
      <ellipse cx="0" cy="-18" rx="8" ry="15" fill="url(#petalGrad95)" opacity="0.8"/>
    </g>
    <g transform="rotate(72)">
      <ellipse cx="0" cy="-18" rx="8" ry="15" fill="url(#petalGrad95)" opacity="0.8"/>
    </g>
    <g transform="rotate(144)">
      <ellipse cx="0" cy="-18" rx="8" ry="15" fill="url(#petalGrad95)" opacity="0.8"/>
    </g>
    <g transform="rotate(216)">
      <ellipse cx="0" cy="-18" rx="8" ry="15" fill="url(#petalGrad95)" opacity="0.8"/>
    </g>
    <g transform="rotate(288)">
      <ellipse cx="0" cy="-18" rx="8" ry="15" fill="url(#petalGrad95)" opacity="0.8"/>
    </g>
    <circle cx="0" cy="0" r="6" fill="#9c27b0"/>
    </g>
  
    <!-- Flower 8: Northwest -->
    <g transform="translate(120,150)">
    <g transform="rotate(0)">
      <ellipse cx="0" cy="-15" rx="6" ry="12" fill="url(#petalGrad95)" opacity="0.7"/>
    </g>
    <g transform="rotate(72)">
      <ellipse cx="0" cy="-15" rx="6" ry="12" fill="url(#petalGrad95)" opacity="0.7"/>
    </g>
    <g transform="rotate(144)">
      <ellipse cx="0" cy="-15" rx="6" ry="12" fill="url(#petalGrad95)" opacity="0.7"/>
    </g>
    <g transform="rotate(216)">
      <ellipse cx="0" cy="-15" rx="6" ry="12" fill="url(#petalGrad95)" opacity="0.7"/>
    </g>
    <g transform="rotate(288)">
      <ellipse cx="0" cy="-15" rx="6" ry="12" fill="url(#petalGrad95)" opacity="0.7"/>
    </g>
    <circle cx="0" cy="0" r="4" fill="#9c27b0"/>
    </g>
  
    <!-- Flower 9: Upper center -->
    <g transform="translate(250,180)">
    <g transform="rotate(0)">
      <ellipse cx="0" cy="-12" rx="5" ry="10" fill="url(#petalGrad95)" opacity="0.7"/>
    </g>
    <g transform="rotate(72)">
      <ellipse cx="0" cy="-12" rx="5" ry="10" fill="url(#petalGrad95)" opacity="0.7"/>
    </g>
    <g transform="rotate(144)">
      <ellipse cx="0" cy="-12" rx="5" ry="10" fill="url(#petalGrad95)" opacity="0.7"/>
    </g>
    <g transform="rotate(216)">
      <ellipse cx="0" cy="-12" rx="5" ry="10" fill="url(#petalGrad95)" opacity="0.7"/>
    </g>
    <g transform="rotate(288)">
      <ellipse cx="0" cy="-12" rx="5" ry="10" fill="url(#petalGrad95)" opacity="0.7"/>
    </g>
    <circle cx="0" cy="0" r="3" fill="#9c27b0"/>
    </g>
  
    <!-- Five floating petals -->
    <!-- Petal 1 -->
    <g transform="translate(100,100) rotate(30)">
    <ellipse cx="0" cy="0" rx="8" ry="15" fill="url(#flowerGrad95)" opacity="0.6"/>
    </g>
  
    <!-- Petal 2 -->
    <g transform="translate(400,120) rotate(-45)">
    <ellipse cx="0" cy="0" rx="6" ry="12" fill="url(#flowerGrad95)" opacity="0.6"/>
    </g>
  
    <!-- Petal 3 -->
    <g transform="translate(430,380) rotate(60)">
    <ellipse cx="0" cy="0" rx="7" ry="13" fill="url(#flowerGrad95)" opacity="0.6"/>
    </g>
  
    <!-- Petal 4 -->
    <g transform="translate(90,420) rotate(-30)">
    <ellipse cx="0" cy="0" rx="6" ry="11" fill="url(#flowerGrad95)" opacity="0.6"/>
    </g>
  
    <!-- Petal 5 -->
    <g transform="translate(50,200) rotate(15)">
    <ellipse cx="0" cy="0" rx="5" ry="10" fill="url(#flowerGrad95)" opacity="0.6"/>
    </g>
  
    <!-- Garden atmosphere -->
    <g stroke="#ba68c8" stroke-width="2" fill="none" opacity="0.4">
    <circle cx="250" cy="250" r="120"/>
    <circle cx="250" cy="250" r="160"/>
    <circle cx="250" cy="250" r="200"/>
    </g>
  
    <!-- Pollen particles -->
    <g fill="#e1bee7" opacity="0.6">
    <circle cx="150" cy="120" r="2"/>
    <circle cx="350" cy="140" r="3"/>
    <circle cx="150" cy="380" r="2"/>
    <circle cx="350" cy="360" r="3"/>
    <circle cx="50" cy="300" r="2"/>
    <circle cx="450" cy="280" r="3"/>
    <circle cx="300" cy="50" r="2"/>
    <circle cx="200" cy="450" r="3"/>
    </g>
  
    <!-- Gentle breeze -->
    <g stroke="#ce93d8" stroke-width="1" fill="none" opacity="0.3">
    <path d="M50 100 Q150 80 250 100"/>
    <path d="M250 100 Q350 80 450 100"/>
    <path d="M450 200 Q430 300 450 400"/>
    <path d="M400 450 Q300 430 200 450"/>
    <path d="M50 400 Q70 300 50 200"/>
    </g>
  
    <!-- Garden sparkles -->
    <g fill="#ffffff" opacity="0.8">
    <path d="M90 90 L95 85 L100 90 L95 95 Z"/>
    <path d="M410 90 L415 85 L420 90 L415 95 Z"/>
    <path d="M90 410 L95 405 L100 410 L95 415 Z"/>
    <path d="M410 410 L415 405 L420 410 L415 415 Z"/>
    <path d="M250 60 L253 57 L256 60 L253 63 Z"/>
    <path d="M250 440 L253 437 L256 440 L253 443 Z"/>
    </g>
  
    <!-- Number "95" integrated -->
    
    <!-- Kanji character 九十五 -->
    
    </g>
  </g>
</svg> 