<svg xmlns="http://www.w3.org/2000/svg" width="500" height="500" viewBox="0 0 500 500">
  <defs>
    <linearGradient id="bgGrad96" x1="0%" y1="0%" x2="100%" y2="100%">
      <stop offset="0%" style="stop-color:#e0f2f1;stop-opacity:1" />
      <stop offset="100%" style="stop-color:#b2dfdb;stop-opacity:1" />
    </linearGradient>
    <linearGradient id="hexGrad96" x1="0%" y1="0%" x2="100%" y2="100%">
      <stop offset="0%" style="stop-color:#4db6ac;stop-opacity:1" />
      <stop offset="50%" style="stop-color:#26a69a;stop-opacity:1" />
      <stop offset="100%" style="stop-color:#00695c;stop-opacity:1" />
    </linearGradient>
    <radialGradient id="turtleGlow96" cx="50%" cy="50%" r="50%">
      <stop offset="0%" style="stop-color:#a7ffeb;stop-opacity:0.8" />
      <stop offset="100%" style="stop-color:#a7ffeb;stop-opacity:0" />
    </radialGradient>
    <linearGradient id="shellGrad96" x1="0%" y1="0%" x2="100%" y2="0%">
      <stop offset="0%" style="stop-color:#80cbc4;stop-opacity:0.8" />
      <stop offset="50%" style="stop-color:#4db6ac;stop-opacity:0.8" />
      <stop offset="100%" style="stop-color:#26a69a;stop-opacity:0.8" />
    </linearGradient>
  </defs>
  
  <!-- Background -->
  <rect width="500" height="500" fill="url(#bgGrad96)"/>
  
  <!-- Nine hexagonal turtle shells plus six stream currents representing 96 -->
  <!-- Central master turtle -->
  <g transform="translate(250,250)">
  <circle cx="0" cy="0" r="100" fill="url(#turtleGlow96)" opacity="0.4"/>
  
  <!-- Main turtle shell -->
  <polygon points="0,-60 52,-30 52,30 0,60 -52,30 -52,-30" fill="url(#hexGrad96)" opacity="0.9"/>
  <polygon points="0,-45 39,-22 39,22 0,45 -39,22 -39,-22" fill="url(#shellGrad96)" opacity="0.7"/>
  <polygon points="0,-30 26,-15 26,15 0,30 -26,15 -26,-15" fill="#b2dfdb" opacity="0.6"/>
  
  <!-- Shell patterns -->
  <g stroke="#00695c" stroke-width="2" fill="none" opacity="0.6">
  <line x1="0" y1="-45" x2="0" y2="45"/>
  <line x1="-39" y1="-22" x2="39" y2="22"/>
  <line x1="-39" y1="22" x2="39" y2="-22"/>
  
  <!-- Turtle head -->
  <ellipse cx="0" cy="-75" rx="15" ry="12" fill="#26a69a"/>
  <circle cx="-5" cy="-75" r="3" fill="#000000"/>
  <circle cx="5" cy="-75" r="3" fill="#000000"/>
  
  <!-- Turtle limbs -->
  <ellipse cx="-60" cy="-15" rx="12" ry="8" fill="#26a69a"/>
  <ellipse cx="60" cy="-15" rx="12" ry="8" fill="#26a69a"/>
  <ellipse cx="-60" cy="15" rx="12" ry="8" fill="#26a69a"/>
  <ellipse cx="60" cy="15" rx="12" ry="8" fill="#26a69a"/>
  
  <!-- Tail -->
  <ellipse cx="0" cy="75" rx="8" ry="10" fill="#26a69a"/>
  
    <!-- Nine surrounding turtles -->
    <!-- Turtle 1: North -->
    <g transform="translate(250,120)">
    <polygon points="0,-30 26,-15 26,15 0,30 -26,15 -26,-15" fill="url(#hexGrad96)" opacity="0.8"/>
    <polygon points="0,-22 19,-11 19,11 0,22 -19,11 -19,-11" fill="url(#shellGrad96)" opacity="0.6"/>
    <ellipse cx="0" cy="-40" rx="8" ry="6" fill="#26a69a"/>
    <ellipse cx="-30" cy="-8" rx="6" ry="4" fill="#26a69a"/>
    <ellipse cx="30" cy="-8" rx="6" ry="4" fill="#26a69a"/>
    <ellipse cx="-30" cy="8" rx="6" ry="4" fill="#26a69a"/>
    <ellipse cx="30" cy="8" rx="6" ry="4" fill="#26a69a"/>
    </g>
  
    <!-- Turtle 2: Northeast -->
    <g transform="translate(380,150)">
    <polygon points="0,-25 22,-12 22,12 0,25 -22,12 -22,-12" fill="url(#hexGrad96)" opacity="0.7"/>
    <polygon points="0,-18 16,-9 16,9 0,18 -16,9 -16,-9" fill="url(#shellGrad96)" opacity="0.6"/>
    <ellipse cx="0" cy="-35" rx="6" ry="5" fill="#26a69a"/>
    <ellipse cx="-25" cy="-6" rx="5" ry="3" fill="#26a69a"/>
    <ellipse cx="25" cy="-6" rx="5" ry="3" fill="#26a69a"/>
    <ellipse cx="-25" cy="6" rx="5" ry="3" fill="#26a69a"/>
    <ellipse cx="25" cy="6" rx="5" ry="3" fill="#26a69a"/>
    </g>
  
    <!-- Turtle 3: East -->
    <g transform="translate(420,250)">
    <polygon points="0,-28 24,-14 24,14 0,28 -24,14 -24,-14" fill="url(#hexGrad96)" opacity="0.8"/>
    <polygon points="0,-20 17,-10 17,10 0,20 -17,10 -17,-10" fill="url(#shellGrad96)" opacity="0.6"/>
    <ellipse cx="0" cy="-38" rx="7" ry="5" fill="#26a69a"/>
    <ellipse cx="-28" cy="-7" rx="6" ry="4" fill="#26a69a"/>
    <ellipse cx="28" cy="-7" rx="6" ry="4" fill="#26a69a"/>
    <ellipse cx="-28" cy="7" rx="6" ry="4" fill="#26a69a"/>
    <ellipse cx="28" cy="7" rx="6" ry="4" fill="#26a69a"/>
    </g>
  
    <!-- Turtle 4: Southeast -->
    <g transform="translate(380,350)">
    <polygon points="0,-25 22,-12 22,12 0,25 -22,12 -22,-12" fill="url(#hexGrad96)" opacity="0.7"/>
    <polygon points="0,-18 16,-9 16,9 0,18 -16,9 -16,-9" fill="url(#shellGrad96)" opacity="0.6"/>
    <ellipse cx="0" cy="-35" rx="6" ry="5" fill="#26a69a"/>
    <ellipse cx="-25" cy="-6" rx="5" ry="3" fill="#26a69a"/>
    <ellipse cx="25" cy="-6" rx="5" ry="3" fill="#26a69a"/>
    <ellipse cx="-25" cy="6" rx="5" ry="3" fill="#26a69a"/>
    <ellipse cx="25" cy="6" rx="5" ry="3" fill="#26a69a"/>
    </g>
  
    <!-- Turtle 5: South -->
    <g transform="translate(250,380)">
    <polygon points="0,-30 26,-15 26,15 0,30 -26,15 -26,-15" fill="url(#hexGrad96)" opacity="0.8"/>
    <polygon points="0,-22 19,-11 19,11 0,22 -19,11 -19,-11" fill="url(#shellGrad96)" opacity="0.6"/>
    <ellipse cx="0" cy="-40" rx="8" ry="6" fill="#26a69a"/>
    <ellipse cx="-30" cy="-8" rx="6" ry="4" fill="#26a69a"/>
    <ellipse cx="30" cy="-8" rx="6" ry="4" fill="#26a69a"/>
    <ellipse cx="-30" cy="8" rx="6" ry="4" fill="#26a69a"/>
    <ellipse cx="30" cy="8" rx="6" ry="4" fill="#26a69a"/>
    </g>
  
    <!-- Turtle 6: Southwest -->
    <g transform="translate(120,350)">
    <polygon points="0,-25 22,-12 22,12 0,25 -22,12 -22,-12" fill="url(#hexGrad96)" opacity="0.7"/>
    <polygon points="0,-18 16,-9 16,9 0,18 -16,9 -16,-9" fill="url(#shellGrad96)" opacity="0.6"/>
    <ellipse cx="0" cy="-35" rx="6" ry="5" fill="#26a69a"/>
    <ellipse cx="-25" cy="-6" rx="5" ry="3" fill="#26a69a"/>
    <ellipse cx="25" cy="-6" rx="5" ry="3" fill="#26a69a"/>
    <ellipse cx="-25" cy="6" rx="5" ry="3" fill="#26a69a"/>
    <ellipse cx="25" cy="6" rx="5" ry="3" fill="#26a69a"/>
    </g>
  
    <!-- Turtle 7: West -->
    <g transform="translate(80,250)">
    <polygon points="0,-28 24,-14 24,14 0,28 -24,14 -24,-14" fill="url(#hexGrad96)" opacity="0.8"/>
    <polygon points="0,-20 17,-10 17,10 0,20 -17,10 -17,-10" fill="url(#shellGrad96)" opacity="0.6"/>
    <ellipse cx="0" cy="-38" rx="7" ry="5" fill="#26a69a"/>
    <ellipse cx="-28" cy="-7" rx="6" ry="4" fill="#26a69a"/>
    <ellipse cx="28" cy="-7" rx="6" ry="4" fill="#26a69a"/>
    <ellipse cx="-28" cy="7" rx="6" ry="4" fill="#26a69a"/>
    <ellipse cx="28" cy="7" rx="6" ry="4" fill="#26a69a"/>
    </g>
  
    <!-- Turtle 8: Northwest -->
    <g transform="translate(120,150)">
    <polygon points="0,-25 22,-12 22,12 0,25 -22,12 -22,-12" fill="url(#hexGrad96)" opacity="0.7"/>
    <polygon points="0,-18 16,-9 16,9 0,18 -16,9 -16,-9" fill="url(#shellGrad96)" opacity="0.6"/>
    <ellipse cx="0" cy="-35" rx="6" ry="5" fill="#26a69a"/>
    <ellipse cx="-25" cy="-6" rx="5" ry="3" fill="#26a69a"/>
    <ellipse cx="25" cy="-6" rx="5" ry="3" fill="#26a69a"/>
    <ellipse cx="-25" cy="6" rx="5" ry="3" fill="#26a69a"/>
    <ellipse cx="25" cy="6" rx="5" ry="3" fill="#26a69a"/>
    </g>
  
    <!-- Turtle 9: Upper center -->
    <g transform="translate(250,180)">
    <polygon points="0,-20 17,-10 17,10 0,20 -17,10 -17,-10" fill="url(#hexGrad96)" opacity="0.7"/>
    <polygon points="0,-15 13,-7 13,7 0,15 -13,7 -13,-7" fill="url(#shellGrad96)" opacity="0.6"/>
    <ellipse cx="0" cy="-28" rx="5" ry="4" fill="#26a69a"/>
    <ellipse cx="-20" cy="-5" rx="4" ry="3" fill="#26a69a"/>
    <ellipse cx="20" cy="-5" rx="4" ry="3" fill="#26a69a"/>
    <ellipse cx="-20" cy="5" rx="4" ry="3" fill="#26a69a"/>
    <ellipse cx="20" cy="5" rx="4" ry="3" fill="#26a69a"/>
    </g>
  
    <!-- Six water stream currents -->
    <!-- Current 1: Upper horizontal -->
    <g stroke="url(#shellGrad96)" stroke-width="4" fill="none" opacity="0.6">
    <path d="M50 150 Q150 130 250 150 Q350 130 450 150"/>
    </g>
  
    <!-- Current 2: Middle horizontal -->
    <g stroke="url(#shellGrad96)" stroke-width="4" fill="none" opacity="0.6">
    <path d="M50 250 Q150 230 250 250 Q350 230 450 250"/>
    </g>
  
    <!-- Current 3: Lower horizontal -->
    <g stroke="url(#shellGrad96)" stroke-width="4" fill="none" opacity="0.6">
    <path d="M50 350 Q150 330 250 350 Q350 330 450 350"/>
    </g>
  
    <!-- Current 4: Left vertical -->
    <g stroke="url(#shellGrad96)" stroke-width="4" fill="none" opacity="0.6">
    <path d="M150 50 Q130 150 150 250 Q130 350 150 450"/>
    </g>
  
    <!-- Current 5: Right vertical -->
    <g stroke="url(#shellGrad96)" stroke-width="4" fill="none" opacity="0.6">
    <path d="M350 50 Q370 150 350 250 Q370 350 350 450"/>
    </g>
  
    <!-- Current 6: Center vertical -->
    <g stroke="url(#shellGrad96)" stroke-width="4" fill="none" opacity="0.6">
    <path d="M250 50 Q230 150 250 250 Q270 350 250 450"/>
    </g>
  
    <!-- Water ripples -->
    <g stroke="#4db6ac" stroke-width="1" fill="none" opacity="0.3">
    <circle cx="250" cy="250" r="120"/>
    <circle cx="250" cy="250" r="160"/>
    <circle cx="250" cy="250" r="200"/>
    </g>
  
    <!-- Aquatic bubbles -->
    <g fill="#b2dfdb" opacity="0.6">
    <circle cx="100" cy="100" r="3"/>
    <circle cx="400" cy="120" r="2"/>
    <circle cx="120" cy="400" r="3"/>
    <circle cx="380" cy="380" r="2"/>
    <circle cx="50" cy="200" r="2"/>
    <circle cx="450" cy="300" r="3"/>
    <circle cx="300" cy="50" r="2"/>
    <circle cx="200" cy="450" r="3"/>
    </g>
  
    <!-- Underwater plants -->
    <g stroke="#80cbc4" stroke-width="2" fill="none" opacity="0.4">
    <path d="M80 450 Q90 400 80 350 Q70 300 80 250"/>
    <path d="M420 450 Q410 400 420 350 Q430 300 420 250"/>
    <path d="M200 450 Q210 400 200 350 Q190 300 200 250"/>
    <path d="M300 450 Q290 400 300 350 Q310 300 300 250"/>
    </g>
  
    <!-- Water sparkles -->
    <g fill="#ffffff" opacity="0.8">
    <path d="M90 90 L95 85 L100 90 L95 95 Z"/>
    <path d="M410 90 L415 85 L420 90 L415 95 Z"/>
    <path d="M90 410 L95 405 L100 410 L95 415 Z"/>
    <path d="M410 410 L415 405 L420 410 L415 415 Z"/>
    <path d="M250 60 L253 57 L256 60 L253 63 Z"/>
    <path d="M250 440 L253 437 L256 440 L253 443 Z"/>
    </g>
  
    <!-- Number "96" integrated -->
    
    <!-- Kanji character 九十六 -->
    
    </g>
  </g>
</svg> 