<?xml version="1.0" encoding="UTF-8"?>
<svg width="500" height="500" viewBox="0 0 500 500" xmlns="http://www.w3.org/2000/svg">
  <rect width="500" height="500" fill="#f0f8ff"/>
  
  <!-- Main entrance/doorway -->
  <rect x="150" y="150" width="200" height="300" fill="#8B4513"/>
  <rect x="155" y="155" width="190" height="290" fill="#A0522D"/>
  
  <!-- Door opening -->
  <rect x="200" y="200" width="100" height="180" fill="#000040"/>
  <rect x="205" y="205" width="90" height="170" fill="#000080"/>
  
  <!-- Person entering -->
  <circle cx="220" cy="240" r="15" fill="#FDBCB4"/>
  <ellipse cx="220" cy="270" rx="12" ry="25" fill="#4169E1"/>
  <ellipse cx="210" cy="260" rx="8" ry="20" fill="#FDBCB4" transform="rotate(-10 210 260)"/>
  <ellipse cx="230" cy="260" rx="8" ry="20" fill="#FDBCB4" transform="rotate(10 230 260)"/>
  <ellipse cx="215" cy="310" rx="8" ry="25" fill="#FDBCB4"/>
  <ellipse cx="225" cy="310" rx="8" ry="25" fill="#FDBCB4"/>
  
  <!-- Motion arrows showing entry -->
  <polygon points="180,280 200,275 200,285" fill="#FFD700"/>
  <line x1="120" y1="280" x2="180" y2="280" stroke="#FFD700" stroke-width="4"/>
  <text x="150" y="270" text-anchor="middle" font-family="Arial" font-size="12" fill="#FFD700">ENTER</text>
  
  <!-- Different types of entrances -->
  <!-- Revolving door -->
  <circle cx="400" cy="200" r="40" fill="none" stroke="#C0C0C0" stroke-width="4"/>
  <line x1="370" y1="200" x2="430" y2="200" stroke="#696969" stroke-width="3"/>
  <line x1="400" y1="170" x2="400" y2="230" stroke="#696969" stroke-width="3"/>
  <polygon points="385,185 400,180 385,195" fill="#32CD32"/>
  <text x="400" y="260" text-anchor="middle" font-family="Arial" font-size="10" fill="#666">Revolving</text>
  
  <!-- Automatic door -->
  <rect x="50" y="300" width="80" height="120" fill="#E5E5E5"/>
  <rect x="52" y="302" width="76" height="116" fill="#F0F0F0"/>
  <rect x="60" y="320" width="25" height="80" fill="#87CEEB" transform="translate(-15,0)"/>
  <rect x="95" y="320" width="25" height="80" fill="#87CEEB" transform="translate(15,0)"/>
  
  <!-- Motion sensor -->
  <rect x="75" y="300" width="10" height="5" fill="#FF0000"/>
  <circle cx="80" cy="302" r="2" fill="#FFFF00"/>
  
  <!-- Entrance gate -->
  <rect x="400" y="350" width="6" height="100" fill="#696969"/>
  <rect x="450" y="350" width="6" height="100" fill="#696969"/>
  <rect x="400" y="360" width="56" height="4" fill="#696969"/>
  <rect x="400" y="380" width="56" height="4" fill="#696969"/>
  <rect x="400" y="400" width="56" height="4" fill="#696969"/>
  <rect x="400" y="420" width="56" height="4" fill="#696969"/>
  <rect x="400" y="440" width="56" height="4" fill="#696969"/>
  
  <!-- Gate opening mechanism -->
  <circle cx="420" cy="340" r="8" fill="#FFD700"/>
  <polygon points="415,330 420,340 425,330" fill="#32CD32"/>
  
  <!-- Tunnel entrance -->
  <ellipse cx="250" cy="450" rx="80" ry="40" fill="#696969"/>
  <ellipse cx="250" cy="445" rx="75" ry="35" fill="#778899"/>
  <ellipse cx="250" cy="440" rx="70" ry="30" fill="#000040"/>
  
  <!-- Vehicle entering tunnel -->
  <rect x="220" y="430" width="25" height="15" fill="#FF6347"/>
  <circle cx="225" cy="445" r="5" fill="#000000"/>
  <circle cx="240" cy="445" r="5" fill="#000000"/>
  <polygon points="200,437 220,435 220,440" fill="#FFD700"/>
  <text x="190" y="425" font-family="Arial" font-size="10" fill="#FFD700">ENTER</text>
  
  <!-- Building lobby -->
  <rect x="80" y="50" width="120" height="100" fill="#DEB887"/>
  <rect x="85" y="55" width="110" height="90" fill="#F5DEB3"/>
  <rect x="120" y="80" width="40" height="60" fill="#000040"/>
  
  <!-- Reception desk -->
  <rect x="100" y="120" width="60" height="15" fill="#8B4513"/>
  <circle cx="115" cy="115" r="6" fill="#FDBCB4"/>
  
  <!-- Visitors entering -->
  <circle cx="50" cy="100" r="8" fill="#FDBCB4"/>
  <ellipse cx="50" cy="120" rx="6" ry="15" fill="#32CD32"/>
  <ellipse cx="45" cy="110" rx="4" ry="10" fill="#FDBCB4"/>
  <ellipse cx="55" cy="110" rx="4" ry="10" fill="#FDBCB4"/>
  
  <circle cx="30" cy="110" r="8" fill="#FDBCB4"/>
  <ellipse cx="30" cy="130" rx="6" ry="15" fill="#FF69B4"/>
  <ellipse cx="25" cy="120" rx="4" ry="10" fill="#FDBCB4"/>
  <ellipse cx="35" cy="120" rx="4" ry="10" fill="#FDBCB4"/>
  
  <!-- Entry mat -->
  <rect x="90" y="140" width="80" height="15" fill="#8B4513"/>
  <text x="130" y="152" text-anchor="middle" font-family="Arial" font-size="8" fill="#F5DEB3">WELCOME</text>
  
  <!-- Keycard access -->
  <rect x="170" y="250" width="10" height="15" fill="#000000"/>
  <rect x="172" y="252" width="6" height="11" fill="#32CD32"/>
  <circle cx="175" cy="257" r="2" fill="#FFD700"/>
  
  <!-- Hand reaching for keycard -->
  <circle cx="160" cy="260" r="6" fill="#F5B2A8"/>
  <polygon points="150,255 160,260 150,265" fill="#FFD700"/>
  
  <!-- Security checkpoint -->
  <rect x="350" y="100" width="100" height="20" fill="#C0C0C0"/>
  <rect x="355" y="105" width="90" height="10" fill="#E5E5E5"/>
  <circle cx="400" cy="110" r="4" fill="#FF0000"/>
  <text x="400" y="140" text-anchor="middle" font-family="Arial" font-size="8" fill="#666">Security</text>
  
  <!-- Metal detector arch -->
  <rect x="360" y="80" width="8" height="40" fill="#C0C0C0"/>
  <rect x="432" y="80" width="8" height="40" fill="#C0C0C0"/>
  <rect x="368" y="80" width="64" height="8" fill="#C0C0C0"/>
  
  <!-- Person going through detector -->
  <circle cx="400" cy="95" r="6" fill="#FDBCB4"/>
  <ellipse cx="400" cy="105" rx="4" ry="8" fill="#4169E1"/>
  
  <!-- Entry sign -->
  <rect x="300" y="50" width="60" height="30" fill="#32CD32"/>
  <text x="330" y="68" text-anchor="middle" font-family="Arial Black" font-size="12" fill="#FFFFFF">ENTER</text>
  <polygon points="320,85 330,95 340,85" fill="#32CD32"/>
  
  <!-- Traditional enter symbol -->
  <circle cx="50" cy="50" r="25" fill="none" stroke="#32CD32" stroke-width="3"/>
  <polygon points="35,50 50,35 50,45 65,45 65,55 50,55 50,65" fill="#32CD32"/>
</svg> 