<?xml version="1.0" encoding="UTF-8"?>
<svg width="500" height="500" viewBox="0 0 500 500" xmlns="http://www.w3.org/2000/svg">
  <rect width="500" height="500" fill="#f0f8ff"/>
  
  <!-- Main ornate gate -->
  <rect x="150" y="100" width="200" height="300" fill="none" stroke="#2F4F4F" stroke-width="8"/>
  <rect x="155" y="105" width="190" height="290" fill="none" stroke="#696969" stroke-width="4"/>
  
  <!-- Gate posts -->
  <rect x="130" y="80" width="30" height="340" fill="#696969"/>
  <rect x="340" y="80" width="30" height="340" fill="#696969"/>
  <rect x="132" y="82" width="26" height="336" fill="#778899"/>
  <rect x="342" y="82" width="26" height="336" fill="#778899"/>
  
  <!-- Gate post caps -->
  <rect x="125" y="70" width="40" height="20" fill="#2F4F4F"/>
  <rect x="335" y="70" width="40" height="20" fill="#2F4F4F"/>
  <polygon points="145,60 135,70 155,70" fill="#4682B4"/>
  <polygon points="355,60 345,70 365,70" fill="#4682B4"/>
  
  <!-- Vertical gate bars -->
  <rect x="170" y="110" width="6" height="280" fill="#2F4F4F"/>
  <rect x="190" y="110" width="6" height="280" fill="#2F4F4F"/>
  <rect x="210" y="110" width="6" height="280" fill="#2F4F4F"/>
  <rect x="230" y="110" width="6" height="280" fill="#2F4F4F"/>
  <rect x="250" y="110" width="6" height="280" fill="#2F4F4F"/>
  <rect x="270" y="110" width="6" height="280" fill="#2F4F4F"/>
  <rect x="290" y="110" width="6" height="280" fill="#2F4F4F"/>
  <rect x="310" y="110" width="6" height="280" fill="#2F4F4F"/>
  <rect x="330" y="110" width="6" height="280" fill="#2F4F4F"/>
  
  <!-- Horizontal gate rails -->
  <rect x="150" y="150" width="200" height="8" fill="#2F4F4F"/>
  <rect x="150" y="200" width="200" height="8" fill="#2F4F4F"/>
  <rect x="150" y="250" width="200" height="8" fill="#2F4F4F"/>
  <rect x="150" y="300" width="200" height="8" fill="#2F4F4F"/>
  <rect x="150" y="350" width="200" height="8" fill="#2F4F4F"/>
  
  <!-- Decorative gate top -->
  <polygon points="250,80 230,110 270,110" fill="#FFD700"/>
  <polygon points="250,85 235,110 265,110" fill="#FFA500"/>
  <circle cx="250" cy="95" r="8" fill="#FF6B35"/>
  
  <!-- Gate spear points -->
  <polygon points="173,110 173,90 179,90 179,110" fill="#C0C0C0"/>
  <polygon points="193,110 193,90 199,90 199,110" fill="#C0C0C0"/>
  <polygon points="213,110 213,90 219,90 219,110" fill="#C0C0C0"/>
  <polygon points="233,110 233,90 239,90 239,110" fill="#C0C0C0"/>
  <polygon points="273,110 273,90 279,90 279,110" fill="#C0C0C0"/>
  <polygon points="293,110 293,90 299,90 299,110" fill="#C0C0C0"/>
  <polygon points="313,110 313,90 319,90 319,110" fill="#C0C0C0"/>
  <polygon points="333,110 333,90 339,90 339,110" fill="#C0C0C0"/>
  
  <!-- Gate lock and chain -->
  <rect x="245" y="245" width="10" height="15" fill="#FFD700"/>
  <circle cx="250" cy="252" r="3" fill="#FFA500"/>
  <ellipse cx="230" cy="252" rx="8" ry="12" fill="none" stroke="#696969" stroke-width="3"/>
  <ellipse cx="270" cy="252" rx="8" ry="12" fill="none" stroke="#696969" stroke-width="3"/>
  
  <!-- Garden gate (smaller) -->
  <rect x="50" y="250" width="60" height="150" fill="none" stroke="#8B4513" stroke-width="4"/>
  
  <!-- Garden gate posts -->
  <rect x="40" y="240" width="15" height="170" fill="#8B4513"/>
  <rect x="115" y="240" width="15" height="170" fill="#8B4513"/>
  
  <!-- Garden gate pickets -->
  <rect x="55" y="260" width="3" height="130" fill="#8B4513"/>
  <rect x="65" y="260" width="3" height="130" fill="#8B4513"/>
  <rect x="75" y="260" width="3" height="130" fill="#8B4513"/>
  <rect x="85" y="260" width="3" height="130" fill="#8B4513"/>
  <rect x="95" y="260" width="3" height="130" fill="#8B4513"/>
  <rect x="105" y="260" width="3" height="130" fill="#8B4513"/>
  
  <!-- Garden gate latch -->
  <rect x="105" y="315" width="8" height="4" fill="#C0C0C0"/>
  
  <!-- Japanese torii gate -->
  <rect x="400" y="150" width="12" height="250" fill="#8B0000"/>
  <rect x="430" y="150" width="12" height="250" fill="#8B0000"/>
  <rect x="390" y="140" width="62" height="15" fill="#8B0000"/>
  <rect x="385" y="120" width="72" height="12" fill="#A52A2A"/>
  
  <!-- Torii decorative ends -->
  <rect x="380" y="115" width="10" height="22" fill="#8B0000"/>
  <rect x="452" y="115" width="10" height="22" fill="#8B0000"/>
  
  <!-- Castle gate -->
  <rect x="200" y="420" width="100" height="80" fill="#696969"/>
  <rect x="205" y="425" width="90" height="70" fill="#778899"/>
  <path d="M 205 425 Q 250 400 295 425 L 295 495 L 205 495 Z" fill="#A9A9A9"/>
  
  <!-- Castle gate portcullis -->
  <rect x="210" y="440" width="3" height="50" fill="#2F4F4F"/>
  <rect x="220" y="440" width="3" height="50" fill="#2F4F4F"/>
  <rect x="230" y="440" width="3" height="50" fill="#2F4F4F"/>
  <rect x="240" y="440" width="3" height="50" fill="#2F4F4F"/>
  <rect x="250" y="440" width="3" height="50" fill="#2F4F4F"/>
  <rect x="260" y="440" width="3" height="50" fill="#2F4F4F"/>
  <rect x="270" y="440" width="3" height="50" fill="#2F4F4F"/>
  <rect x="280" y="440" width="3" height="50" fill="#2F4F4F"/>
  <rect x="290" y="440" width="3" height="50" fill="#2F4F4F"/>
  
  <!-- Gate opening/closing mechanism -->
  <circle cx="180" cy="250" r="15" fill="#8B4513"/>
  <circle cx="180" cy="250" r="10" fill="#A0522D"/>
  <rect x="175" y="240" width="10" height="5" fill="#654321"/>
  <line x1="165" y1="250" x2="195" y2="250" stroke="#FFD700" stroke-width="2"/>
  
  <!-- Security cameras -->
  <rect x="120" y="120" width="15" height="10" fill="#000000"/>
  <circle cx="127" cy="125" r="3" fill="#FF0000"/>
  <rect x="380" y="120" width="15" height="10" fill="#000000"/>
  <circle cx="387" cy="125" r="3" fill="#FF0000"/>
  
  <!-- Gate intercom -->
  <rect x="115" y="180" width="12" height="20" fill="#2F4F4F"/>
  <rect x="117" y="182" width="8" height="16" fill="#000000"/>
  <circle cx="121" cy="188" r="2" fill="#0000FF"/>
  <circle cx="121" cy="195" r="1" fill="#FF0000"/>
  
  <!-- Traditional gate symbol -->
  <circle cx="50" cy="50" r="25" fill="none" stroke="#8B0000" stroke-width="3"/>
  <rect x="35" y="40" width="30" height="20" fill="none" stroke="#8B0000" stroke-width="2"/>
  <line x1="40" y1="45" x2="40" y2="55" stroke="#8B0000" stroke-width="2"/>
  <line x1="45" y1="45" x2="45" y2="55" stroke="#8B0000" stroke-width="2"/>
  <line x1="55" y1="45" x2="55" y2="55" stroke="#8B0000" stroke-width="2"/>
  <line x1="60" y1="45" x2="60" y2="55" stroke="#8B0000" stroke-width="2"/>
</svg> 