<?xml version="1.0" encoding="UTF-8"?>
<svg width="500" height="500" viewBox="0 0 500 500" xmlns="http://www.w3.org/2000/svg">
  <rect width="500" height="500" fill="#f5f5dc"/>
  
  <!-- Main legs standing -->
  <ellipse cx="200" cy="200" rx="30" ry="80" fill="#FDBCB4"/>
  <ellipse cx="280" cy="200" rx="30" ry="80" fill="#FDBCB4"/>
  <ellipse cx="200" cy="195" rx="25" ry="75" fill="#F5B2A8"/>
  <ellipse cx="280" cy="195" rx="25" ry="75" fill="#F5B2A8"/>
  
  <!-- Knees -->
  <circle cx="200" cy="220" r="15" fill="#DEB887"/>
  <circle cx="280" cy="220" r="15" fill="#DEB887"/>
  
  <!-- Feet -->
  <ellipse cx="200" cy="290" rx="25" ry="12" fill="#8B4513"/>
  <ellipse cx="280" cy="290" rx="25" ry="12" fill="#8B4513"/>
  <ellipse cx="200" cy="288" rx="20" ry="10" fill="#A0522D"/>
  <ellipse cx="280" cy="288" rx="20" ry="10" fill="#A0522D"/>
  
  <!-- Walking legs sequence -->
  <!-- Step 1 -->
  <ellipse cx="80" cy="180" rx="25" ry="70" fill="#FDBCB4" transform="rotate(-10 80 180)"/>
  <ellipse cx="120" cy="190" rx="25" ry="70" fill="#FDBCB4" transform="rotate(15 120 190)"/>
  <ellipse cx="80" cy="250" rx="20" ry="10" fill="#8B4513" transform="rotate(-10 80 250)"/>
  <ellipse cx="130" cy="260" rx="20" ry="10" fill="#8B4513" transform="rotate(10 130 260)"/>
  
  <!-- Step 2 -->
  <ellipse cx="380" cy="180" rx="25" ry="70" fill="#FDBCB4" transform="rotate(10 380 180)"/>
  <ellipse cx="420" cy="190" rx="25" ry="70" fill="#FDBCB4" transform="rotate(-15 420 190)"/>
  <ellipse cx="390" cy="250" rx="20" ry="10" fill="#8B4513" transform="rotate(10 390 250)"/>
  <ellipse cx="410" cy="260" rx="20" ry="10" fill="#8B4513" transform="rotate(-10 410 260)"/>
  
  <!-- Running legs -->
  <ellipse cx="250" cy="350" rx="25" ry="60" fill="#FDBCB4" transform="rotate(-30 250 350)"/>
  <ellipse cx="300" cy="380" rx="25" ry="60" fill="#FDBCB4" transform="rotate(45 300 380)"/>
  <ellipse cx="230" cy="390" rx="18" ry="8" fill="#8B4513" transform="rotate(-30 230 390)"/>
  <ellipse cx="320" cy="420" rx="18" ry="8" fill="#8B4513" transform="rotate(30 320 420)"/>
  
  <!-- Motion blur for running -->
  <ellipse cx="245" cy="355" rx="20" ry="55" fill="#FDBCB4" opacity="0.5" transform="rotate(-35 245 355)"/>
  <ellipse cx="305" cy="385" rx="20" ry="55" fill="#FDBCB4" opacity="0.5" transform="rotate(50 305 385)"/>
  
  <!-- Jumping legs -->
  <ellipse cx="450" cy="300" rx="20" ry="50" fill="#FDBCB4" transform="rotate(-45 450 300)"/>
  <ellipse cx="470" cy="320" rx="20" ry="50" fill="#FDBCB4" transform="rotate(-30 470 320)"/>
  <ellipse cx="435" cy="340" rx="15" ry="8" fill="#8B4513" transform="rotate(-45 435 340)"/>
  <ellipse cx="460" cy="360" rx="15" ry="8" fill="#8B4513" transform="rotate(-15 460 360)"/>
  
  <!-- Kicking leg -->
  <ellipse cx="50" cy="350" rx="25" ry="70" fill="#FDBCB4" transform="rotate(60 50 350)"/>
  <ellipse cx="20" cy="320" rx="20" ry="10" fill="#8B4513" transform="rotate(45 20 320)"/>
  
  <!-- Kick motion lines -->
  <line x1="10" y1="310" x2="30" y2="300" stroke="#FFD700" stroke-width="3"/>
  <line x1="5" y1="320" x2="25" y2="310" stroke="#FFD700" stroke-width="2"/>
  <line x1="15" y1="330" x2="35" y2="320" stroke="#FFD700" stroke-width="2"/>
  
  <!-- Dancing legs -->
  <ellipse cx="100" cy="450" rx="22" ry="50" fill="#FDBCB4" transform="rotate(-20 100 450)"/>
  <ellipse cx="140" cy="460" rx="22" ry="50" fill="#FDBCB4" transform="rotate(30 140 460)"/>
  <ellipse cx="85" cy="485" rx="15" ry="8" fill="#FF69B4" transform="rotate(-10 85 485)"/>
  <ellipse cx="155" cy="495" rx="15" ry="8" fill="#FF69B4" transform="rotate(20 155 495)"/>
  
  <!-- Dance sparkles -->
  <polygon points="120,420 125,430 135,430 127,437 130,447 120,442 110,447 113,437 105,430 115,430" fill="#FFD700"/>
  <polygon points="160,440 165,450 175,450 167,457 170,467 160,462 150,467 153,457 145,450 155,450" fill="#FF69B4"/>
  
  <!-- Sitting legs (bent) -->
  <ellipse cx="350" cy="450" rx="25" ry="45" fill="#FDBCB4" transform="rotate(0 350 450)"/>
  <ellipse cx="380" cy="470" rx="25" ry="40" fill="#FDBCB4" transform="rotate(90 380 470)"/>
  <ellipse cx="350" cy="485" rx="15" ry="8" fill="#8B4513"/>
  <ellipse cx="415" cy="470" rx="15" ry="8" fill="#8B4513"/>
  
  <!-- Muscle definition -->
  <ellipse cx="195" cy="160" r="8" fill="#DEB887"/>
  <ellipse cx="275" cy="160" r="8" fill="#DEB887"/>
  <ellipse cx="200" cy="240" r="6" fill="#CD853F"/>
  <ellipse cx="280" cy="240" r="6" fill="#CD853F"/>
  
  <!-- Footprints -->
  <ellipse cx="150" cy="100" rx="12" ry="20" fill="#8B4513" opacity="0.7"/>
  <ellipse cx="200" cy="120" rx="12" ry="20" fill="#8B4513" opacity="0.7"/>
  <ellipse cx="250" cy="100" rx="12" ry="20" fill="#8B4513" opacity="0.7"/>
  <ellipse cx="300" cy="120" rx="12" ry="20" fill="#8B4513" opacity="0.7"/>
  <ellipse cx="350" cy="100" rx="12" ry="20" fill="#8B4513" opacity="0.7"/>
  
  <!-- Toe prints -->
  <circle cx="145" cy="85" r="2" fill="#654321"/>
  <circle cx="150" cy="83" r="2" fill="#654321"/>
  <circle cx="155" cy="85" r="2" fill="#654321"/>
  
  <circle cx="195" cy="105" r="2" fill="#654321"/>
  <circle cx="200" cy="103" r="2" fill="#654321"/>
  <circle cx="205" cy="105" r="2" fill="#654321"/>
  
  <!-- Athletic legs (muscular) -->
  <ellipse cx="240" cy="50" rx="35" ry="60" fill="#FDBCB4"/>
  <ellipse cx="260" cy="50" rx="35" ry="60" fill="#FDBCB4"/>
  <ellipse cx="235" cy="45" rx="30" ry="55" fill="#F5B2A8"/>
  <ellipse cx="255" cy="45" rx="30" ry="55" fill="#F5B2A8"/>
  
  <!-- Muscle striations -->
  <ellipse cx="230" cy="30" rx="12" ry="8" fill="#DEB887"/>
  <ellipse cx="250" cy="30" rx="12" ry="8" fill="#DEB887"/>
  <ellipse cx="240" cy="60" rx="10" ry="6" fill="#CD853F"/>
  <ellipse cx="260" cy="60" rx="10" ry="6" fill="#CD853F"/>
  
  <!-- Traditional legs symbol -->
  <circle cx="50" cy="50" r="25" fill="none" stroke="#8B0000" stroke-width="3"/>
  <ellipse cx="45" cy="45" rx="8" ry="15" fill="none" stroke="#8B0000" stroke-width="2"/>
  <ellipse cx="55" cy="45" rx="8" ry="15" fill="none" stroke="#8B0000" stroke-width="2"/>
  <ellipse cx="45" cy="65" rx="6" ry="3" fill="#8B0000"/>
  <ellipse cx="55" cy="65" rx="6" ry="3" fill="#8B0000"/>
</svg> 