<?xml version="1.0" encoding="UTF-8"?>
<svg width="500" height="500" viewBox="0 0 500 500" xmlns="http://www.w3.org/2000/svg">
  <rect width="500" height="500" fill="#fff5ee"/>
  
  <!-- Left warrior -->
  <!-- Head -->
  <circle cx="150" cy="120" r="25" fill="#DDBEA9"/>
  <circle cx="155" cy="115" r="20" fill="#E9C46A"/>
  
  <!-- Body -->
  <ellipse cx="150" cy="180" rx="25" ry="40" fill="#8B0000"/>
  <ellipse cx="152" cy="178" rx="20" ry="35" fill="#CD5C5C"/>
  
  <!-- Arms -->
  <ellipse cx="120" cy="160" rx="15" ry="30" fill="#DDBEA9" transform="rotate(-30 120 160)"/>
  <ellipse cx="180" cy="160" rx="15" ry="30" fill="#DDBEA9" transform="rotate(30 180 160)"/>
  
  <!-- Legs -->
  <ellipse cx="135" cy="250" rx="12" ry="35" fill="#654321"/>
  <ellipse cx="165" cy="250" rx="12" ry="35" fill="#654321"/>
  
  <!-- Weapon - sword -->
  <rect x="100" y="130" width="4" height="50" fill="#C0C0C0"/>
  <polygon points="100,130 108,120 108,130" fill="#E5E5E5"/>
  
  <!-- Right warrior -->
  <!-- Head -->
  <circle cx="350" cy="120" r="25" fill="#DDBEA9"/>
  <circle cx="345" cy="115" r="20" fill="#E9C46A"/>
  
  <!-- Body -->
  <ellipse cx="350" cy="180" rx="25" ry="40" fill="#006400"/>
  <ellipse cx="348" cy="178" rx="20" ry="35" fill="#228B22"/>
  
  <!-- Arms -->
  <ellipse cx="380" cy="160" rx="15" ry="30" fill="#DDBEA9" transform="rotate(30 380 160)"/>
  <ellipse cx="320" cy="160" rx="15" ry="30" fill="#DDBEA9" transform="rotate(-30 320 160)"/>
  
  <!-- Legs -->
  <ellipse cx="335" cy="250" rx="12" ry="35" fill="#654321"/>
  <ellipse cx="365" cy="250" rx="12" ry="35" fill="#654321"/>
  
  <!-- Weapon - spear -->
  <rect x="398" y="130" width="4" height="50" fill="#8B4513"/>
  <polygon points="400,130 408,120 408,130" fill="#C0C0C0"/>
  
  <!-- Combat clash in center -->
  <circle cx="250" cy="180" r="40" fill="#FFD700" opacity="0.8"/>
  <circle cx="250" cy="180" r="30" fill="#FFA500" opacity="0.7"/>
  <circle cx="250" cy="180" r="20" fill="#FF6B35" opacity="0.6"/>
  
  <!-- Impact sparks -->
  <polygon points="230,160 235,170 245,170 237,177 240,187 230,182 220,187 223,177 215,170 225,170" fill="#FFFF00"/>
  <polygon points="270,160 275,170 285,170 277,177 280,187 270,182 260,187 263,177 255,170 265,170" fill="#FFFF00"/>
  <polygon points="240,200 245,210 255,210 247,217 250,227 240,222 230,227 233,217 225,210 235,210" fill="#FF6B35"/>
  <polygon points="260,200 265,210 275,210 267,217 270,227 260,222 250,227 253,217 245,210 255,210" fill="#FF6B35"/>
  
  <!-- Motion lines -->
  <line x1="100" y1="140" x2="200" y2="160" stroke="#FF6B35" stroke-width="6" opacity="0.7"/>
  <line x1="110" y1="150" x2="210" y2="170" stroke="#FFA500" stroke-width="4" opacity="0.6"/>
  
  <line x1="400" y1="140" x2="300" y2="160" stroke="#4ECDC4" stroke-width="6" opacity="0.7"/>
  <line x1="390" y1="150" x2="290" y2="170" stroke="#95E1D3" stroke-width="4" opacity="0.6"/>
  
  <!-- Battle arena dust -->
  <ellipse cx="150" cy="320" rx="60" ry="20" fill="#DEB887" opacity="0.5"/>
  <ellipse cx="350" cy="320" rx="60" ry="20" fill="#DEB887" opacity="0.5"/>
  <ellipse cx="250" cy="340" rx="80" ry="25" fill="#DEB887" opacity="0.4"/>
  
  <!-- Combat stances - energy auras -->
  <circle cx="150" cy="200" r="80" fill="none" stroke="#FF0000" stroke-width="3" opacity="0.5"/>
  <circle cx="350" cy="200" r="80" fill="none" stroke="#00FF00" stroke-width="3" opacity="0.5"/>
  
  <!-- Traditional combat symbols -->
  <circle cx="50" cy="50" r="30" fill="none" stroke="#8B0000" stroke-width="4"/>
  <path d="M 35 50 L 65 50 M 50 35 L 50 65" stroke="#8B0000" stroke-width="4"/>
  <polygon points="50,30 55,40 65,40 57,47 60,57 50,52 40,57 43,47 35,40 45,40" fill="#8B0000"/>
  
  <circle cx="450" cy="50" r="30" fill="none" stroke="#8B0000" stroke-width="4"/>
  <path d="M 435 50 L 465 50 M 450 35 L 450 65" stroke="#8B0000" stroke-width="4"/>
  <polygon points="450,30 455,40 465,40 457,47 460,57 450,52 440,57 443,47 435,40 445,40" fill="#8B0000"/>
  
  <!-- Fighting spirit flames -->
  <polygon points="80,350 85,340 90,350 95,340 100,350 95,365 90,355 85,365 80,355 75,365 70,350 75,340" fill="#FF4500" opacity="0.7"/>
  <polygon points="400,350 405,340 410,350 415,340 420,350 415,365 410,355 405,365 400,355 395,365 390,350 395,340" fill="#32CD32" opacity="0.7"/>
  
  <!-- Weapon clash sparks at center -->
  <polygon points="250,140 255,150 265,150 257,157 260,167 250,162 240,167 243,157 235,150 245,150" fill="#FFFFFF"/>
  <polygon points="240,170 245,180 255,180 247,187 250,197 240,192 230,197 233,187 225,180 235,180" fill="#87CEEB"/>
  <polygon points="260,170 265,180 275,180 267,187 270,197 260,192 250,197 253,187 245,180 255,180" fill="#87CEEB"/>
  
  <!-- Victory/defeat concept -->
  <circle cx="250" cy="400" r="50" fill="none" stroke="#FFD700" stroke-width="5" opacity="0.6"/>
  <polygon points="250,360 260,380 280,380 266,392 271,412 250,402 229,412 234,392 220,380 240,380" fill="#FFD700"/>
</svg> 