<?xml version="1.0" encoding="UTF-8"?>
<svg width="500" height="500" viewBox="0 0 500 500" xmlns="http://www.w3.org/2000/svg">
  <rect width="500" height="500" fill="#f0f8ff"/>
  
  <!-- Main connecting bridge -->
  <path d="M 100 200 Q 250 150 400 200" stroke="#4169E1" stroke-width="12" fill="none"/>
  <path d="M 100 200 Q 250 150 400 200" stroke="#6495ED" stroke-width="8" fill="none"/>
  <path d="M 100 200 Q 250 150 400 200" stroke="#87CEEB" stroke-width="4" fill="none"/>
  
  <!-- Left element -->
  <circle cx="100" cy="200" r="40" fill="#FF6B6B"/>
  <circle cx="100" cy="200" r="30" fill="#FF8E8E"/>
  <circle cx="100" cy="200" r="20" fill="#FFB6C1"/>
  
  <!-- Right element -->
  <circle cx="400" cy="200" r="40" fill="#4ECDC4"/>
  <circle cx="400" cy="200" r="30" fill="#7FDEDB"/>
  <circle cx="400" cy="200" r="20" fill="#B2F2EF"/>
  
  <!-- Plus symbol in center -->
  <rect x="240" y="140" width="20" height="60" fill="#32CD32"/>
  <rect x="220" y="160" width="60" height="20" fill="#32CD32"/>
  <rect x="242" y="142" width="16" height="56" fill="#98FB98"/>
  <rect x="222" y="162" width="56" height="16" fill="#98FB98"/>
  
  <!-- Ampersand symbol -->
  <text x="300" y="320" font-family="serif" font-size="60" fill="#8B008B">&amp;</text>
  
  <!-- Additional connection lines -->
  <path d="M 100 300 Q 250 250 400 300" stroke="#FF69B4" stroke-width="6" fill="none" opacity="0.7"/>
  <path d="M 100 100 Q 250 50 400 100" stroke="#9370DB" stroke-width="6" fill="none" opacity="0.7"/>
  
  <!-- Union symbol -->
  <path d="M 150 350 Q 200 400 250 350" stroke="#FF4500" stroke-width="8" fill="none"/>
  <path d="M 250 350 Q 300 400 350 350" stroke="#FF4500" stroke-width="8" fill="none"/>
  
  <!-- Chain links -->
  <ellipse cx="180" cy="170" rx="15" ry="25" fill="none" stroke="#FFD700" stroke-width="6" transform="rotate(30 180 170)"/>
  <ellipse cx="200" cy="190" rx="15" ry="25" fill="none" stroke="#FFD700" stroke-width="6" transform="rotate(30 200 190)"/>
  <ellipse cx="220" cy="210" rx="15" ry="25" fill="none" stroke="#FFD700" stroke-width="6" transform="rotate(30 220 210)"/>
  
  <ellipse cx="280" cy="190" rx="15" ry="25" fill="none" stroke="#FFA500" stroke-width="6" transform="rotate(-30 280 190)"/>
  <ellipse cx="300" cy="170" rx="15" ry="25" fill="none" stroke="#FFA500" stroke-width="6" transform="rotate(-30 300 170)"/>
  <ellipse cx="320" cy="150" rx="15" ry="25" fill="none" stroke="#FFA500" stroke-width="6" transform="rotate(-30 320 150)"/>
  
  <!-- Joining hands -->
  <circle cx="180" cy="320" r="20" fill="#FDBCB4"/>
  <circle cx="180" cy="320" r="15" fill="#F5B7B1"/>
  <rect x="195" y="315" width="25" height="10" fill="#FDBCB4"/>
  
  <circle cx="320" cy="320" r="20" fill="#FDBCB4"/>
  <circle cx="320" cy="320" r="15" fill="#F5B7B1"/>
  <rect x="280" y="315" width="25" height="10" fill="#FDBCB4"/>
  
  <!-- Connecting line between hands -->
  <line x1="220" y1="320" x2="280" y2="320" stroke="#8B4513" stroke-width="4"/>
  
  <!-- Addition symbols -->
  <text x="50" y="120" font-family="Arial Black" font-size="40" fill="#32CD32">+</text>
  <text x="430" y="120" font-family="Arial Black" font-size="40" fill="#32CD32">+</text>
  <text x="50" y="380" font-family="Arial Black" font-size="40" fill="#32CD32">+</text>
  <text x="430" y="380" font-family="Arial Black" font-size="40" fill="#32CD32">+</text>
  
  <!-- Merge arrows -->
  <polygon points="80,250 100,240 100,260" fill="#FF6347"/>
  <polygon points="420,250 400,240 400,260" fill="#FF6347"/>
  
  <!-- Also/too indicators -->
  <text x="200" y="400" font-family="Arial" font-size="20" fill="#4B0082">also</text>
  <text x="280" y="400" font-family="Arial" font-size="20" fill="#4B0082">too</text>
  
  <!-- Infinity symbol showing continuity -->
  <path d="M 200 450 Q 220 430 240 450 Q 260 470 280 450 Q 260 430 240 450 Q 220 470 200 450" 
        stroke="#FF1493" stroke-width="6" fill="none"/>
  
  <!-- Mathematical union symbol -->
  <path d="M 400 380 Q 420 410 440 380" stroke="#8A2BE2" stroke-width="8" fill="none"/>
  <path d="M 60 380 Q 80 410 100 380" stroke="#8A2BE2" stroke-width="8" fill="none"/>
  
  <!-- Connecting dots pattern -->
  <circle cx="140" cy="180" r="5" fill="#FFD700"/>
  <circle cx="160" cy="175" r="5" fill="#FFD700"/>
  <circle cx="180" cy="170" r="5" fill="#FFD700"/>
  <circle cx="200" cy="165" r="5" fill="#FFD700"/>
  <circle cx="220" cy="160" r="5" fill="#FFD700"/>
  
  <circle cx="280" cy="160" r="5" fill="#FFA500"/>
  <circle cx="300" cy="165" r="5" fill="#FFA500"/>
  <circle cx="320" cy="170" r="5" fill="#FFA500"/>
  <circle cx="340" cy="175" r="5" fill="#FFA500"/>
  <circle cx="360" cy="180" r="5" fill="#FFA500"/>
  
  <!-- Venn diagram overlap -->
  <circle cx="150" cy="120" r="30" fill="#FF6B6B" opacity="0.5"/>
  <circle cx="180" cy="120" r="30" fill="#4ECDC4" opacity="0.5"/>
  
  <!-- Flow lines -->
  <path d="M 50 200 Q 100 180 150 200" stroke="#B0E0E6" stroke-width="3" fill="none" opacity="0.6"/>
  <path d="M 350 200 Q 400 180 450 200" stroke="#B0E0E6" stroke-width="3" fill="none" opacity="0.6"/>
  
  <!-- Traditional harmony symbol -->
  <circle cx="450" cy="50" r="25" fill="none" stroke="#8B0000" stroke-width="3"/>
  <path d="M 435 50 Q 450 35 465 50 Q 450 65 435 50" stroke="#8B0000" stroke-width="2" fill="none"/>
  <circle cx="450" cy="50" r="10" fill="#8B0000"/>
</svg> 