<?xml version="1.0" encoding="UTF-8"?>
<svg width="500" height="500" viewBox="0 0 500 500" xmlns="http://www.w3.org/2000/svg">
  <rect width="500" height="500" fill="#f5f5dc"/>
  
  <!-- Main door -->
  <rect x="200" y="150" width="100" height="200" fill="#8B4513"/>
  <rect x="205" y="155" width="90" height="190" fill="#A0522D"/>
  
  <!-- Door panels -->
  <rect x="210" y="170" width="35" height="60" fill="#654321"/>
  <rect x="255" y="170" width="35" height="60" fill="#654321"/>
  <rect x="210" y="250" width="35" height="60" fill="#654321"/>
  <rect x="255" y="250" width="35" height="60" fill="#654321"/>
  
  <!-- Door frame -->
  <rect x="190" y="140" width="120" height="220" fill="none" stroke="#DEB887" stroke-width="8"/>
  <rect x="195" y="145" width="110" height="210" fill="none" stroke="#F5DEB3" stroke-width="4"/>
  
  <!-- Door handles -->
  <circle cx="280" cy="220" r="6" fill="#FFD700"/>
  <circle cx="280" cy="220" r="4" fill="#FFA500"/>
  <rect x="285" y="217" width="8" height="6" fill="#8B4513"/>
  
  <!-- Door hinges -->
  <rect x="205" y="170" width="8" height="15" fill="#696969"/>
  <rect x="205" y="200" width="8" height="15" fill="#696969"/>
  <rect x="205" y="280" width="8" height="15" fill="#696969"/>
  <rect x="205" y="310" width="8" height="15" fill="#696969"/>
  
  <!-- Doormat -->
  <rect x="180" y="360" width="140" height="20" fill="#8B4513"/>
  <rect x="185" y="362" width="130" height="16" fill="#A0522D"/>
  <text x="250" y="375" text-anchor="middle" font-family="Arial" font-size="12" fill="#F5DEB3">WELCOME</text>
  
  <!-- Different door styles -->
  <!-- Sliding door -->
  <rect x="50" y="200" width="80" height="150" fill="#F5F5F5"/>
  <rect x="52" y="202" width="76" height="146" fill="#FFFFFF"/>
  <rect x="55" y="220" width="70" height="2" fill="#C0C0C0"/>
  <rect x="55" y="280" width="70" height="2" fill="#C0C0C0"/>
  <rect x="55" y="320" width="70" height="2" fill="#C0C0C0"/>
  
  <!-- Sliding door track -->
  <rect x="45" y="195" width="90" height="5" fill="#696969"/>
  <circle cx="90" cy="190" r="3" fill="#C0C0C0"/>
  
  <!-- French doors -->
  <rect x="350" y="180" width="40" height="150" fill="#8B4513"/>
  <rect x="410" y="180" width="40" height="150" fill="#8B4513"/>
  <rect x="352" y="182" width="36" height="146" fill="#A0522D"/>
  <rect x="412" y="182" width="36" height="146" fill="#A0522D"/>
  
  <!-- French door glass panels -->
  <rect x="358" y="200" width="24" height="40" fill="#87CEEB"/>
  <rect x="358" y="260" width="24" height="40" fill="#87CEEB"/>
  <rect x="418" y="200" width="24" height="40" fill="#87CEEB"/>
  <rect x="418" y="260" width="24" height="40" fill="#87CEEB"/>
  
  <!-- French door handles -->
  <circle cx="380" cy="255" r="3" fill="#FFD700"/>
  <circle cx="420" cy="255" r="3" fill="#FFD700"/>
  
  <!-- Garage door -->
  <rect x="100" y="380" width="120" height="100" fill="#696969"/>
  <rect x="105" y="385" width="110" height="90" fill="#778899"/>
  
  <!-- Garage door sections -->
  <line x1="105" y1="405" x2="215" y2="405" stroke="#2F4F4F" stroke-width="2"/>
  <line x1="105" y1="425" x2="215" y2="425" stroke="#2F4F4F" stroke-width="2"/>
  <line x1="105" y1="445" x2="215" y2="445" stroke="#2F4F4F" stroke-width="2"/>
  <line x1="105" y1="465" x2="215" y2="465" stroke="#2F4F4F" stroke-width="2"/>
  
  <!-- Garage door handle -->
  <rect x="155" y="440" width="10" height="4" fill="#000000"/>
  
  <!-- Revolving door -->
  <circle cx="400" cy="100" r="40" fill="none" stroke="#C0C0C0" stroke-width="6"/>
  <circle cx="400" cy="100" r="35" fill="none" stroke="#E5E5E5" stroke-width="3"/>
  <line x1="370" y1="100" x2="430" y2="100" stroke="#696969" stroke-width="4"/>
  <line x1="400" y1="70" x2="400" y2="130" stroke="#696969" stroke-width="4"/>
  <circle cx="400" cy="100" r="5" fill="#FFD700"/>
  
  <!-- Door knocker -->
  <circle cx="250" cy="180" r="8" fill="#8B4513"/>
  <circle cx="250" cy="180" r="6" fill="#A0522D"/>
  <ellipse cx="250" cy="195" rx="6" ry="10" fill="none" stroke="#FFD700" stroke-width="3"/>
  
  <!-- Doorbell -->
  <rect x="270" y="200" width="8" height="8" fill="#4169E1"/>
  <circle cx="274" cy="204" r="2" fill="#FFFFFF"/>
  
  <!-- House number -->
  <rect x="180" y="180" width="15" height="20" fill="#FFFFFF"/>
  <text x="187" y="195" text-anchor="middle" font-family="Arial Black" font-size="14" fill="#000000">42</text>
  
  <!-- Door opening/closing motion -->
  <path d="M 300 220 Q 330 200 360 220" stroke="#FFD700" stroke-width="3" fill="none" opacity="0.6"/>
  <polygon points="350,215 360,220 350,225" fill="#FFD700"/>
  
  <!-- Security features -->
  <rect x="240" y="250" width="6" height="12" fill="#000000"/>
  <circle cx="243" cy="256" r="2" fill="#C0C0C0"/>
  
  <!-- Peephole -->
  <circle cx="250" cy="200" r="3" fill="#000000"/>
  <circle cx="250" cy="200" r="2" fill="#696969"/>
  
  <!-- Multiple doors perspective -->
  <rect x="320" y="350" width="60" height="120" fill="#8B4513" opacity="0.8"/>
  <rect x="390" y="340" width="50" height="100" fill="#A0522D" opacity="0.6"/>
  <rect x="450" y="330" width="40" height="80" fill="#654321" opacity="0.4"/>
  
  <!-- Traditional door symbol -->
  <circle cx="450" cy="50" r="25" fill="none" stroke="#8B0000" stroke-width="3"/>
  <rect x="440" y="35" width="20" height="30" fill="none" stroke="#8B0000" stroke-width="2"/>
  <circle cx="455" cy="50" r="2" fill="#8B0000"/>
</svg> 