<?xml version="1.0" encoding="UTF-8"?>
<svg width="500" height="500" viewBox="0 0 500 500" xmlns="http://www.w3.org/2000/svg">
  <rect width="500" height="500" fill="#e6f7ff"/>
  
  <!-- Skyscraper (main high building) -->
  <rect x="200" y="50" width="60" height="400" fill="#4682B4"/>
  <rect x="205" y="55" width="50" height="390" fill="#6495ED"/>
  
  <!-- Building windows -->
  <rect x="210" y="80" width="8" height="12" fill="#FFFF00"/>
  <rect x="225" y="80" width="8" height="12" fill="#FFFF00"/>
  <rect x="240" y="80" width="8" height="12" fill="#FFFF00"/>
  
  <rect x="210" y="110" width="8" height="12" fill="#FFFF00"/>
  <rect x="225" y="110" width="8" height="12" fill="#87CEEB"/>
  <rect x="240" y="110" width="8" height="12" fill="#FFFF00"/>
  
  <rect x="210" y="140" width="8" height="12" fill="#87CEEB"/>
  <rect x="225" y="140" width="8" height="12" fill="#FFFF00"/>
  <rect x="240" y="140" width="8" height="12" fill="#87CEEB"/>
  
  <rect x="210" y="170" width="8" height="12" fill="#FFFF00"/>
  <rect x="225" y="170" width="8" height="12" fill="#87CEEB"/>
  <rect x="240" y="170" width="8" height="12" fill="#FFFF00"/>
  
  <rect x="210" y="200" width="8" height="12" fill="#87CEEB"/>
  <rect x="225" y="200" width="8" height="12" fill="#FFFF00"/>
  <rect x="240" y="200" width="8" height="12" fill="#87CEEB"/>
  
  <rect x="210" y="230" width="8" height="12" fill="#FFFF00"/>
  <rect x="225" y="230" width="8" height="12" fill="#87CEEB"/>
  <rect x="240" y="230" width="8" height="12" fill="#FFFF00"/>
  
  <!-- Building antenna/spire -->
  <rect x="227" y="20" width="6" height="40" fill="#FF0000"/>
  <polygon points="230,10 225,20 235,20" fill="#FF6B35"/>
  <circle cx="230" cy="15" r="3" fill="#FFFF00"/>
  
  <!-- Short buildings for comparison -->
  <rect x="80" y="350" width="40" height="100" fill="#8B4513"/>
  <rect x="82" y="352" width="36" height="96" fill="#A0522D"/>
  <polygon points="80,350 100,330 120,350" fill="#DC143C"/>
  
  <rect x="140" y="300" width="40" height="150" fill="#8B4513"/>
  <rect x="142" y="302" width="36" height="146" fill="#A0522D"/>
  <polygon points="140,300 160,280 180,300" fill="#DC143C"/>
  
  <!-- Mountain (very high) -->
  <polygon points="300,450 400,100 500,450" fill="#696969"/>
  <polygon points="310,450 400,120 490,450" fill="#778899"/>
  <polygon points="400,100 380,140 420,140" fill="#FFFFFF"/>
  
  <!-- Snow on mountain peak -->
  <polygon points="400,100 385,130 415,130" fill="#F0F8FF"/>
  <polygon points="400,100 390,120 410,120" fill="#FFFAFA"/>
  
  <!-- Height measurement -->
  <line x1="270" y1="50" x2="290" y2="50" stroke="#FF0000" stroke-width="3"/>
  <line x1="280" y1="45" x2="280" y2="450" stroke="#FF0000" stroke-width="2"/>
  <line x1="270" y1="450" x2="290" y2="450" stroke="#FF0000" stroke-width="3"/>
  <text x="285" y="250" text-anchor="middle" font-family="Arial" font-size="14" fill="#FF0000" transform="rotate(-90 285 250)">400m HIGH</text>
  
  <!-- Airplane at high altitude -->
  <ellipse cx="350" cy="80" rx="20" ry="6" fill="#FFFFFF"/>
  <ellipse cx="350" cy="80" rx="15" ry="4" fill="#C0C0C0"/>
  <polygon points="330,80 345,75 345,85" fill="#C0C0C0"/>
  <rect x="355" y="78" width="8" height="4" fill="#4169E1"/>
  
  <!-- Cloud at high level -->
  <ellipse cx="120" cy="120" rx="25" ry="15" fill="#FFFFFF"/>
  <ellipse cx="105" cy="125" rx="20" ry="12" fill="#F0F8FF"/>
  <ellipse cx="135" cy="125" rx="20" ry="12" fill="#F0F8FF"/>
  <ellipse cx="120" cy="135" rx="30" ry="10" fill="#E6E6FA"/>
  
  <!-- High tower/lighthouse -->
  <rect x="50" y="200" width="20" height="200" fill="#DC143C"/>
  <rect x="52" y="202" width="16" height="196" fill="#FF6347"/>
  <ellipse cx="60" cy="200" rx="15" ry="8" fill="#FFD700"/>
  
  <!-- Light beams from lighthouse -->
  <polygon points="60,200 40,150 80,150" fill="#FFFF99" opacity="0.6"/>
  <polygon points="60,200 20,180 100,180" fill="#FFFFE0" opacity="0.4"/>
  
  <!-- Tall tree -->
  <rect x="450" y="250" width="15" height="200" fill="#8B4513"/>
  <circle cx="457" cy="200" r="40" fill="#228B22"/>
  <circle cx="457" cy="190" r="30" fill="#32CD32"/>
  <circle cx="457" cy="180" r="20" fill="#7FFF00"/>
  
  <!-- Small tree for comparison -->
  <rect x="390" y="400" width="6" height="50" fill="#8B4513"/>
  <circle cx="393" cy="385" r="15" fill="#228B22"/>
  <circle cx="393" cy="380" r="12" fill="#32CD32"/>
  
  <!-- Helicopter at high altitude -->
  <ellipse cx="150" cy="100" rx="15" ry="8" fill="#FF6B6B"/>
  <ellipse cx="150" cy="98" rx="12" ry="6" fill="#FF8E8E"/>
  <ellipse cx="150" cy="90" rx="20" ry="2" fill="#696969"/>
  <rect x="140" y="95" width="5" height="15" fill="#FF6B6B"/>
  
  <!-- Height comparison arrows -->
  <polygon points="100,250 110,245 110,255" fill="#32CD32"/>
  <line x1="70" y1="250" x2="100" y2="250" stroke="#32CD32" stroke-width="2"/>
  <text x="85" y="240" text-anchor="middle" font-family="Arial" font-size="10" fill="#32CD32">UP</text>
  
  <!-- Ladder reaching high -->
  <rect x="15" y="100" width="8" height="350" fill="#8B4513"/>
  <rect x="30" y="100" width="8" height="350" fill="#8B4513"/>
  <line x1="15" y1="120" x2="38" y2="120" stroke="#A0522D" stroke-width="3"/>
  <line x1="15" y1="140" x2="38" y2="140" stroke="#A0522D" stroke-width="3"/>
  <line x1="15" y1="160" x2="38" y2="160" stroke="#A0522D" stroke-width="3"/>
  <line x1="15" y1="180" x2="38" y2="180" stroke="#A0522D" stroke-width="3"/>
  <line x1="15" y1="200" x2="38" y2="200" stroke="#A0522D" stroke-width="3"/>
  <line x1="15" y1="220" x2="38" y2="220" stroke="#A0522D" stroke-width="3"/>
  <line x1="15" y1="240" x2="38" y2="240" stroke="#A0522D" stroke-width="3"/>
  <line x1="15" y1="260" x2="38" y2="260" stroke="#A0522D" stroke-width="3"/>
  <line x1="15" y1="280" x2="38" y2="280" stroke="#A0522D" stroke-width="3"/>
  <line x1="15" y1="300" x2="38" y2="300" stroke="#A0522D" stroke-width="3"/>
  <line x1="15" y1="320" x2="38" y2="320" stroke="#A0522D" stroke-width="3"/>
  <line x1="15" y1="340" x2="38" y2="340" stroke="#A0522D" stroke-width="3"/>
  <line x1="15" y1="360" x2="38" y2="360" stroke="#A0522D" stroke-width="3"/>
  <line x1="15" y1="380" x2="38" y2="380" stroke="#A0522D" stroke-width="3"/>
  <line x1="15" y1="400" x2="38" y2="400" stroke="#A0522D" stroke-width="3"/>
  <line x1="15" y1="420" x2="38" y2="420" stroke="#A0522D" stroke-width="3"/>
  <line x1="15" y1="440" x2="38" y2="440" stroke="#A0522D" stroke-width="3"/>
  
  <!-- Person climbing ladder -->
  <circle cx="26" cy="180" r="6" fill="#FDBCB4"/>
  <ellipse cx="26" cy="195" rx="4" ry="8" fill="#FF6B6B"/>
  
  <!-- Traditional high symbol -->
  <circle cx="450" cy="50" r="25" fill="none" stroke="#8B0000" stroke-width="3"/>
  <polygon points="450,30 440,45 460,45" fill="#8B0000"/>
  <line x1="450" y1="30" x2="450" y2="70" stroke="#8B0000" stroke-width="3"/>
  
  <!-- High/tall labels -->
  <text x="230" y="30" text-anchor="middle" font-family="Arial Black" font-size="16" fill="#FF0000">HIGH</text>
  <text x="100" y="480" text-anchor="middle" font-family="Arial" font-size="12" fill="#0000FF">low</text>
</svg> 