<?xml version="1.0" encoding="UTF-8"?>
<svg width="500" height="500" viewBox="0 0 500 500" xmlns="http://www.w3.org/2000/svg">
  <!-- Background -->
  <rect width="500" height="500" fill="#f8f8f8"/>
  
  <!-- Central white symbol -->
  <circle cx="250" cy="250" r="80" fill="#ffffff" stroke="#e0e0e0" stroke-width="3"/>
  <circle cx="250" cy="250" r="70" fill="#fafafa" stroke="#f0f0f0" stroke-width="2"/>
  <circle cx="250" cy="250" r="60" fill="#ffffff"/>
  
  <!-- Radiating light rays -->
  <g opacity="0.7">
    <line x1="250" y1="150" x2="250" y2="100" stroke="#ffffff" stroke-width="6" stroke-linecap="round"/>
    <line x1="320" y1="180" x2="350" y2="150" stroke="#ffffff" stroke-width="6" stroke-linecap="round"/>
    <line x1="350" y1="250" x2="400" y2="250" stroke="#ffffff" stroke-width="6" stroke-linecap="round"/>
    <line x1="320" y1="320" x2="350" y2="350" stroke="#ffffff" stroke-width="6" stroke-linecap="round"/>
    <line x1="250" y1="350" x2="250" y2="400" stroke="#ffffff" stroke-width="6" stroke-linecap="round"/>
    <line x1="180" y1="320" x2="150" y2="350" stroke="#ffffff" stroke-width="6" stroke-linecap="round"/>
    <line x1="150" y1="250" x2="100" y2="250" stroke="#ffffff" stroke-width="6" stroke-linecap="round"/>
    <line x1="180" y1="180" x2="150" y2="150" stroke="#ffffff" stroke-width="6" stroke-linecap="round"/>
  </g>
  
  <!-- White objects -->
  <!-- White lily flower -->
  <g transform="translate(120,120)">
    <!-- Petals -->
    <ellipse cx="0" cy="-20" rx="8" ry="25" fill="#ffffff" stroke="#f0f0f0" stroke-width="1"/>
    <ellipse cx="17" cy="-10" rx="8" ry="25" fill="#ffffff" stroke="#f0f0f0" stroke-width="1" transform="rotate(60)"/>
    <ellipse cx="17" cy="10" rx="8" ry="25" fill="#ffffff" stroke="#f0f0f0" stroke-width="1" transform="rotate(120)"/>
    <ellipse cx="0" cy="20" rx="8" ry="25" fill="#ffffff" stroke="#f0f0f0" stroke-width="1" transform="rotate(180)"/>
    <ellipse cx="-17" cy="10" rx="8" ry="25" fill="#ffffff" stroke="#f0f0f0" stroke-width="1" transform="rotate(240)"/>
    <ellipse cx="-17" cy="-10" rx="8" ry="25" fill="#ffffff" stroke="#f0f0f0" stroke-width="1" transform="rotate(300)"/>
    
    <!-- Center -->
    <circle cx="0" cy="0" r="6" fill="#fffde7"/>
  </g>
  
  <!-- White dove -->
  <g transform="translate(380,120)">
    <!-- Body -->
    <ellipse cx="0" cy="0" rx="15" ry="8" fill="#ffffff" stroke="#f0f0f0" stroke-width="1"/>
    <!-- Head -->
    <circle cx="-12" cy="-5" r="6" fill="#ffffff" stroke="#f0f0f0" stroke-width="1"/>
    <!-- Beak -->
    <polygon points="-18,-5 -22,-3 -18,-1" fill="#ffeb3b"/>
    <!-- Eye -->
    <circle cx="-14" cy="-6" r="1" fill="#333"/>
    <!-- Wings -->
    <ellipse cx="5" cy="-3" rx="12" ry="5" fill="#ffffff" stroke="#f0f0f0" stroke-width="1" transform="rotate(-20)"/>
    <ellipse cx="5" cy="3" rx="10" ry="4" fill="#fafafa" stroke="#f0f0f0" stroke-width="1" transform="rotate(20)"/>
    <!-- Tail -->
    <ellipse cx="12" cy="0" rx="8" ry="3" fill="#ffffff" stroke="#f0f0f0" stroke-width="1"/>
  </g>
  
  <!-- White clouds -->
  <g opacity="0.8">
    <ellipse cx="100" cy="80" rx="30" ry="15" fill="#ffffff"/>
    <ellipse cx="85" cy="75" rx="20" ry="12" fill="#ffffff"/>
    <ellipse cx="115" cy="75" rx="25" ry="10" fill="#ffffff"/>
    
    <ellipse cx="400" cy="400" rx="25" ry="12" fill="#ffffff"/>
    <ellipse cx="390" cy="395" rx="15" ry="8" fill="#ffffff"/>
    <ellipse cx="410" cy="395" rx="20" ry="8" fill="#ffffff"/>
  </g>
  
  <!-- White pearls -->
  <circle cx="80" cy="380" r="12" fill="#ffffff" stroke="#f0f0f0" stroke-width="2"/>
  <circle cx="100" cy="385" r="10" fill="#fafafa" stroke="#f0f0f0" stroke-width="2"/>
  <circle cx="118" cy="378" r="8" fill="#ffffff" stroke="#f0f0f0" stroke-width="2"/>
  
  <!-- Highlight on pearls -->
  <circle cx="84" cy="376" r="3" fill="#ffffff" opacity="0.8"/>
  <circle cx="103" cy="382" r="2.5" fill="#ffffff" opacity="0.8"/>
  <circle cx="120" cy="375" r="2" fill="#ffffff" opacity="0.8"/>
  
  <!-- White moon -->
  <circle cx="400" cy="100" r="25" fill="#ffffff" stroke="#f0f0f0" stroke-width="2"/>
  <circle cx="395" cy="95" r="20" fill="#fafafa"/>
  <!-- Moon craters -->
  <circle cx="395" cy="100" r="3" fill="#f0f0f0"/>
  <circle cx="405" cy="95" r="2" fill="#f0f0f0"/>
  <circle cx="390" cy="110" r="1.5" fill="#f0f0f0"/>
  
  <!-- White salt -->
  <g transform="translate(100,300)">
    <rect x="0" y="0" width="40" height="40" fill="#ffffff" stroke="#f0f0f0" stroke-width="2"/>
    <text x="20" y="25" text-anchor="middle" font-family="Arial" font-size="12" fill="#e0e0e0">SALT</text>
    
    <!-- Salt crystals spilling -->
    <circle cx="45" cy="35" r="2" fill="#ffffff"/>
    <circle cx="50" cy="30" r="1.5" fill="#fafafa"/>
    <circle cx="55" cy="38" r="1" fill="#ffffff"/>
    <circle cx="48" cy="25" r="1" fill="#fafafa"/>
  </g>
  
  <!-- White milk -->
  <g transform="translate(350,350)">
    <!-- Glass -->
    <rect x="0" y="10" width="30" height="40" fill="#ffffff" stroke="#f0f0f0" stroke-width="2" rx="2"/>
    <ellipse cx="15" cy="10" rx="15" ry="5" fill="#fafafa"/>
    
    <!-- Milk foam -->
    <ellipse cx="15" cy="15" rx="12" ry="3" fill="#ffffff"/>
    <circle cx="10" cy="12" r="2" fill="#ffffff" opacity="0.7"/>
    <circle cx="20" cy="13" r="1.5" fill="#ffffff" opacity="0.7"/>
  </g>
  
  <!-- White snow -->
  <g opacity="0.6">
    <!-- Snowflakes -->
    <g transform="translate(200,100)">
      <line x1="-8" y1="0" x2="8" y2="0" stroke="#ffffff" stroke-width="2"/>
      <line x1="0" y1="-8" x2="0" y2="8" stroke="#ffffff" stroke-width="2"/>
      <line x1="-6" y1="-6" x2="6" y2="6" stroke="#ffffff" stroke-width="1"/>
      <line x1="6" y1="-6" x2="-6" y2="6" stroke="#ffffff" stroke-width="1"/>
    </g>
    
    <g transform="translate(300,400)">
      <line x1="-6" y1="0" x2="6" y2="0" stroke="#ffffff" stroke-width="2"/>
      <line x1="0" y1="-6" x2="0" y2="6" stroke="#ffffff" stroke-width="2"/>
      <line x1="-4" y1="-4" x2="4" y2="4" stroke="#ffffff" stroke-width="1"/>
      <line x1="4" y1="-4" x2="-4" y2="4" stroke="#ffffff" stroke-width="1"/>
    </g>
    
    <g transform="translate(450,200)">
      <line x1="-5" y1="0" x2="5" y2="0" stroke="#ffffff" stroke-width="2"/>
      <line x1="0" y1="-5" x2="0" y2="5" stroke="#ffffff" stroke-width="2"/>
      <line x1="-3" y1="-3" x2="3" y2="3" stroke="#ffffff" stroke-width="1"/>
      <line x1="3" y1="-3" x2="-3" y2="3" stroke="#ffffff" stroke-width="1"/>
    </g>
  </g>
  
  <!-- White paper -->
  <rect x="50" y="200" width="60" height="80" fill="#ffffff" stroke="#f0f0f0" stroke-width="2"/>
  <rect x="55" y="205" width="50" height="70" fill="#fafafa"/>
  
  <!-- Text lines on paper -->
  <line x1="60" y1="220" x2="95" y2="220" stroke="#f0f0f0" stroke-width="1"/>
  <line x1="60" y1="235" x2="90" y2="235" stroke="#f0f0f0" stroke-width="1"/>
  <line x1="60" y1="250" x2="95" y2="250" stroke="#f0f0f0" stroke-width="1"/>
  <line x1="60" y1="265" x2="85" y2="265" stroke="#f0f0f0" stroke-width="1"/>
  
  <!-- Subtle gradient overlay for depth -->
  <defs>
    <radialGradient id="whiteGradient" cx="0.5" cy="0.3" r="0.7">
      <stop offset="0%" style="stop-color:#ffffff;stop-opacity:0.8"/>
      <stop offset="100%" style="stop-color:#f8f8f8;stop-opacity:0.3"/>
    </radialGradient>
  </defs>
  <circle cx="250" cy="250" r="150" fill="url(#whiteGradient)"/>
</svg> 