<?xml version="1.0" encoding="UTF-8"?>
<svg viewBox="0 0 500 500" xmlns="http://www.w3.org/2000/svg">
  <rect width="500" height="500" fill="#FFE4B5"/>
  <ellipse cx="250" cy="220" rx="90" ry="60" fill="#FFA500"/><path d="M 180 200 L 200 200 L 210 220 L 200 240 L 180 240 Z" fill="#000000"/><path d="M 220 180 L 240 180 L 250 200 L 240 220 L 220 220 Z" fill="#000000"/><path d="M 260 180 L 280 180 L 290 200 L 280 220 L 260 220 Z" fill="#000000"/><path d="M 300 200 L 320 200 L 330 220 L 320 240 L 300 240 Z" fill="#000000"/><circle cx="230" cy="200" r="6" fill="#000000"/><circle cx="270" cy="200" r="6" fill="#000000"/><path d="M 240 230 Q 250 240 260 230" stroke="#000000" stroke-width="3" fill="none"/><rect x="240" y="290" width="8" height="40" fill="#8B4513"/><rect x="252" y="290" width="8" height="40" fill="#8B4513"/>
</svg>