<?xml version="1.0" encoding="UTF-8"?>
<svg width="500" height="500" viewBox="0 0 500 500" xmlns="http://www.w3.org/2000/svg">
  <rect width="500" height="500" fill="#f5f5dc"/>
  
  <!-- Table top -->
  <ellipse cx="250" cy="280" rx="180" ry="60" fill="#8B4513"/>
  <ellipse cx="250" cy="275" rx="175" ry="55" fill="#A0522D"/>
  <ellipse cx="250" cy="270" rx="170" ry="50" fill="#CD853F"/>
  
  <!-- Table legs -->
  <rect x="120" y="340" width="20" height="120" fill="#654321"/>
  <rect x="360" y="340" width="20" height="120" fill="#654321"/>
  <rect x="180" y="340" width="20" height="120" fill="#654321"/>
  <rect x="300" y="340" width="20" height="120" fill="#654321"/>
  
  <!-- Table leg supports -->
  <rect x="125" y="420" width="10" height="40" fill="#8B4513"/>
  <rect x="365" y="420" width="10" height="40" fill="#8B4513"/>
  <rect x="185" y="420" width="10" height="40" fill="#8B4513"/>
  <rect x="305" y="420" width="10" height="40" fill="#8B4513"/>
  
  <!-- Place settings -->
  <!-- Plate 1 -->
  <circle cx="180" cy="260" r="25" fill="#FFFFFF"/>
  <circle cx="180" cy="260" r="20" fill="#F5F5F5"/>
  
  <!-- Plate 2 -->
  <circle cx="320" cy="260" r="25" fill="#FFFFFF"/>
  <circle cx="320" cy="260" r="20" fill="#F5F5F5"/>
  
  <!-- Cups/glasses -->
  <ellipse cx="150" cy="240" rx="8" ry="12" fill="#87CEEB"/>
  <ellipse cx="150" cy="238" rx="6" ry="10" fill="#B0E0E6"/>
  
  <ellipse cx="350" cy="240" rx="8" ry="12" fill="#87CEEB"/>
  <ellipse cx="350" cy="238" rx="6" ry="10" fill="#B0E0E6"/>
  
  <!-- Utensils -->
  <!-- Fork -->
  <rect x="140" y="270" width="2" height="20" fill="#C0C0C0"/>
  <rect x="138" y="270" width="2" height="8" fill="#C0C0C0"/>
  <rect x="142" y="270" width="2" height="8" fill="#C0C0C0"/>
  <rect x="146" y="270" width="2" height="8" fill="#C0C0C0"/>
  
  <!-- Knife -->
  <rect x="210" y="270" width="2" height="20" fill="#C0C0C0"/>
  <polygon points="210,270 212,270 215,265 213,265" fill="#E5E5E5"/>
  
  <!-- Spoon -->
  <rect x="380" y="270" width="2" height="20" fill="#C0C0C0"/>
  <ellipse cx="381" cy="268" rx="4" ry="6" fill="#E5E5E5"/>
  
  <!-- Centerpiece -->
  <ellipse cx="250" cy="250" rx="20" ry="8" fill="#8B4513"/>
  <rect x="245" y="240" width="10" height="10" fill="#228B22"/>
  <circle cx="245" cy="235" r="3" fill="#FF6B6B"/>
  <circle cx="250" cy="230" r="3" fill="#FFD700"/>
  <circle cx="255" cy="235" r="3" fill="#4ECDC4"/>
  
  <!-- Tablecloth pattern -->
  <ellipse cx="250" cy="270" rx="160" ry="45" fill="none" stroke="#DDD" stroke-width="2" stroke-dasharray="10,5"/>
  
  <!-- Napkins -->
  <rect x="160" y="280" width="15" height="15" fill="#FF6B6B" transform="rotate(45 167 287)"/>
  <rect x="325" y="280" width="15" height="15" fill="#4ECDC4" transform="rotate(45 332 287)"/>
  
  <!-- Food items -->
  <ellipse cx="200" cy="245" rx="8" ry="5" fill="#DEB887"/>
  <ellipse cx="300" cy="245" rx="8" ry="5" fill="#DEB887"/>
  
  <!-- Table shadow -->
  <ellipse cx="250" cy="480" rx="200" ry="15" fill="#000000" opacity="0.2"/>
  
  <!-- Dining room elements -->
  <!-- Chair backs (simplified) -->
  <rect x="100" y="200" width="8" height="40" fill="#8B4513"/>
  <rect x="95" y="195" width="18" height="8" fill="#A0522D"/>
  
  <rect x="392" y="200" width="8" height="40" fill="#8B4513"/>
  <rect x="387" y="195" width="18" height="8" fill="#A0522D"/>
  
  <rect x="160" y="150" width="8" height="40" fill="#8B4513"/>
  <rect x="155" y="145" width="18" height="8" fill="#A0522D"/>
  
  <rect x="332" y="150" width="8" height="40" fill="#8B4513"/>
  <rect x="327" y="145" width="18" height="8" fill="#A0522D"/>
  
  <!-- Chandelier above -->
  <circle cx="250" cy="100" r="30" fill="#FFD700"/>
  <circle cx="250" cy="100" r="25" fill="#FFA500"/>
  <polygon points="250,80 255,90 265,90 257,97 260,107 250,102 240,107 243,97 235,90 245,90" fill="#FFFF00"/>
  
  <!-- Light rays -->
  <line x1="220" y1="120" x2="200" y2="150" stroke="#FFFF99" stroke-width="2" opacity="0.6"/>
  <line x1="280" y1="120" x2="300" y2="150" stroke="#FFFF99" stroke-width="2" opacity="0.6"/>
  <line x1="250" y1="130" x2="250" y2="170" stroke="#FFFF99" stroke-width="3" opacity="0.6"/>
  
  <!-- Wall decorations -->
  <rect x="50" y="50" width="60" height="40" fill="#DDD" stroke="#999" stroke-width="2"/>
  <rect x="55" y="55" width="50" height="30" fill="#E6E6FA"/>
  
  <rect x="390" y="50" width="60" height="40" fill="#DDD" stroke="#999" stroke-width="2"/>
  <rect x="395" y="55" width="50" height="30" fill="#E6E6FA"/>
  
  <!-- Traditional dining symbol -->
  <circle cx="50" cy="450" r="20" fill="none" stroke="#8B0000" stroke-width="3"/>
  <circle cx="50" cy="450" r="12" fill="#8B0000"/>
  <rect x="47" y="445" width="6" height="10" fill="#FFD700"/>
</svg> 