<?xml version="1.0" encoding="UTF-8"?>
<svg width="500" height="500" viewBox="0 0 500 500" xmlns="http://www.w3.org/2000/svg">
  <rect width="500" height="500" fill="#f5f5dc"/>
  
  <!-- Axe handle -->
  <rect x="200" y="250" width="15" height="200" fill="#8B4513" rx="7"/>
  <rect x="202" y="250" width="11" height="200" fill="#A0522D" rx="5"/>
  
  <!-- Handle grip -->
  <rect x="200" y="350" width="15" height="60" fill="#654321"/>
  <rect x="200" y="355" width="15" height="3" fill="#4A4A4A"/>
  <rect x="200" y="365" width="15" height="3" fill="#4A4A4A"/>
  <rect x="200" y="375" width="15" height="3" fill="#4A4A4A"/>
  <rect x="200" y="385" width="15" height="3" fill="#4A4A4A"/>
  <rect x="200" y="395" width="15" height="3" fill="#4A4A4A"/>
  <rect x="200" y="405" width="15" height="3" fill="#4A4A4A"/>
  
  <!-- Axe head -->
  <path d="M 180 250 Q 150 200 120 180 Q 100 170 100 190 Q 105 220 140 240 Q 170 260 180 250 Z" fill="#C0C0C0"/>
  <path d="M 175 250 Q 150 210 125 190 Q 110 180 110 195 Q 115 220 145 240 Q 170 255 175 250 Z" fill="#E5E5E5"/>
  
  <!-- Axe blade edge -->
  <path d="M 100 190 Q 105 185 110 190 Q 115 200 125 210 Q 140 225 155 235" stroke="#FFFFFF" stroke-width="3" fill="none"/>
  
  <!-- Wood log being chopped -->
  <ellipse cx="120" cy="380" rx="60" ry="30" fill="#DEB887"/>
  <ellipse cx="120" cy="375" rx="55" ry="25" fill="#F4A460"/>
  
  <!-- Wood grain -->
  <ellipse cx="120" cy="375" rx="45" ry="20" fill="none" stroke="#8B4513" stroke-width="2"/>
  <ellipse cx="120" cy="375" rx="35" ry="15" fill="none" stroke="#8B4513" stroke-width="1"/>
  <ellipse cx="120" cy="375" rx="25" ry="10" fill="none" stroke="#8B4513" stroke-width="1"/>
  
  <!-- Chopping action - wood chips flying -->
  <polygon points="80,320 85,315 90,325 85,330" fill="#DEB887"/>
  <polygon points="160,300 165,295 170,305 165,310" fill="#F4A460"/>
  <polygon points="70,350 75,345 80,355 75,360" fill="#DEB887"/>
  <polygon points="170,340 175,335 180,345 175,350" fill="#F4A460"/>
  <polygon points="90,280 95,275 100,285 95,290" fill="#DEB887"/>
  <polygon points="150,270 155,265 160,275 155,280" fill="#F4A460"/>
  
  <!-- Impact effect -->
  <circle cx="140" cy="320" r="20" fill="none" stroke="#FFD700" stroke-width="4" opacity="0.8"/>
  <circle cx="140" cy="320" r="35" fill="none" stroke="#FFA500" stroke-width="3" opacity="0.6"/>
  <circle cx="140" cy="320" r="50" fill="none" stroke="#FF8C00" stroke-width="2" opacity="0.4"/>
  
  <!-- Motion blur of axe -->
  <path d="M 160 200 Q 130 160 100 140" stroke="#C0C0C0" stroke-width="8" opacity="0.5"/>
  <path d="M 165 210 Q 135 170 105 150" stroke="#E5E5E5" stroke-width="6" opacity="0.4"/>
  
  <!-- Sparks from impact -->
  <polygon points="110,300 115,310 125,310 117,317 120,327 110,322 100,327 103,317 95,310 105,310" fill="#FFFF00"/>
  <polygon points="170,290 175,300 185,300 177,307 180,317 170,312 160,317 163,307 155,300 165,300" fill="#FFA500"/>
  <polygon points="130,260 135,270 145,270 137,277 140,287 130,282 120,287 123,277 115,270 125,270" fill="#FF6B35"/>
  
  <!-- Lumberjack power -->
  <circle cx="300" cy="200" r="40" fill="#FF6B35"/>
  <circle cx="300" cy="200" r="30" fill="#FF8C00"/>
  <polygon points="300,180 310,200 300,220 290,200" fill="#FFFF00"/>
  
  <!-- Forest setting elements -->
  <ellipse cx="400" cy="450" rx="40" ry="20" fill="#228B22"/>
  <ellipse cx="450" cy="430" rx="30" ry="15" fill="#32CD32"/>
  <ellipse cx="350" cy="470" rx="35" ry="18" fill="#228B22"/>
  
  <!-- Tree stump -->
  <ellipse cx="400" cy="400" rx="50" ry="25" fill="#8B4513"/>
  <ellipse cx="400" cy="395" rx="45" ry="20" fill="#A0522D"/>
  <circle cx="400" cy="395" r="35" fill="none" stroke="#654321" stroke-width="2"/>
  <circle cx="400" cy="395" r="25" fill="none" stroke="#654321" stroke-width="1"/>
  <circle cx="400" cy="395" r="15" fill="none" stroke="#654321" stroke-width="1"/>
  
  <!-- Traditional woodsman marking -->
  <path d="M 50 50 L 80 50 L 65 80 Z" fill="#8B0000"/>
  <circle cx="65" cy="60" r="8" fill="#FFD700"/>
  
  <!-- Strength lines -->
  <line x1="250" y1="200" x2="280" y2="180" stroke="#32CD32" stroke-width="3"/>
  <line x1="260" y1="220" x2="290" y2="200" stroke="#32CD32" stroke-width="3"/>
  <line x1="270" y1="240" x2="300" y2="220" stroke="#32CD32" stroke-width="3"/>
</svg> 