<?xml version="1.0" encoding="UTF-8"?>
<svg width="500" height="500" viewBox="0 0 500 500" xmlns="http://www.w3.org/2000/svg">
  <!-- Background -->
  <rect width="500" height="500" fill="#f0f8e8"/>
  
  <!-- Ground/soil -->
  <ellipse cx="250" cy="450" rx="200" ry="40" fill="#8d6e63"/>
  <ellipse cx="250" cy="445" rx="180" ry="30" fill="#a1887f"/>
  <ellipse cx="250" cy="440" rx="160" ry="20" fill="#bcaaa4"/>
  
  <!-- Main sprout stem -->
  <rect x="245" y="300" width="10" height="150" fill="#4caf50"/>
  
  <!-- Primary leaves -->
  <!-- Left leaf -->
  <ellipse cx="200" cy="320" rx="35" ry="15" fill="#66bb6a" transform="rotate(-30 200 320)"/>
  <path d="M 170 315 Q 200 300 235 315" stroke="#4caf50" stroke-width="2" fill="none"/>
  
  <!-- Right leaf -->
  <ellipse cx="300" cy="320" rx="35" ry="15" fill="#66bb6a" transform="rotate(30 300 320)"/>
  <path d="M 265 315 Q 300 300 330 315" stroke="#4caf50" stroke-width="2" fill="none"/>
  
  <!-- Secondary leaves (smaller) -->
  <!-- Left second leaf -->
  <ellipse cx="210" cy="280" rx="25" ry="12" fill="#81c784" transform="rotate(-45 210 280)"/>
  <path d="M 190 275 Q 210 265 235 275" stroke="#4caf50" stroke-width="1.5" fill="none"/>
  
  <!-- Right second leaf -->
  <ellipse cx="290" cy="280" rx="25" ry="12" fill="#81c784" transform="rotate(45 290 280)"/>
  <path d="M 265 275 Q 290 265 310 275" stroke="#4caf50" stroke-width="1.5" fill="none"/>
  
  <!-- Top bud/new growth -->
  <ellipse cx="250" cy="240" rx="12" ry="20" fill="#8bc34a"/>
  <ellipse cx="250" cy="235" rx="8" ry="15" fill="#9ccc65"/>
  <ellipse cx="250" cy="230" rx="4" ry="10" fill="#aed581"/>
  
  <!-- Leaf veins -->
  <!-- Left primary leaf veins -->
  <line x1="180" y1="320" x2="215" y2="320" stroke="#4caf50" stroke-width="0.5"/>
  <line x1="190" y1="315" x2="205" y2="325" stroke="#4caf50" stroke-width="0.5"/>
  <line x1="190" y1="325" x2="205" y2="315" stroke="#4caf50" stroke-width="0.5"/>
  
  <!-- Right primary leaf veins -->
  <line x1="285" y1="320" x2="320" y2="320" stroke="#4caf50" stroke-width="0.5"/>
  <line x1="295" y1="315" x2="310" y2="325" stroke="#4caf50" stroke-width="0.5"/>
  <line x1="295" y1="325" x2="310" y2="315" stroke="#4caf50" stroke-width="0.5"/>
  
  <!-- Soil details -->
  <circle cx="200" cy="445" r="3" fill="#6d4c41"/>
  <circle cx="280" cy="450" r="2" fill="#6d4c41"/>
  <circle cx="320" cy="442" r="2.5" fill="#6d4c41"/>
  <circle cx="180" cy="452" r="2" fill="#6d4c41"/>
  
  <!-- Small rocks in soil -->
  <ellipse cx="170" cy="440" rx="4" ry="3" fill="#5d4037"/>
  <ellipse cx="330" cy="445" rx="3" ry="2" fill="#5d4037"/>
  <ellipse cx="220" cy="455" rx="2" ry="2" fill="#5d4037"/>
  
  <!-- Dewdrops on leaves -->
  <circle cx="190" cy="315" r="2" fill="#e3f2fd" opacity="0.8"/>
  <circle cx="310" cy="315" r="2" fill="#e3f2fd" opacity="0.8"/>
  <circle cx="240" cy="235" r="1.5" fill="#e3f2fd" opacity="0.8"/>
  
  <!-- Root system (visible through transparent soil) -->
  <g opacity="0.3">
    <path d="M 250 450 Q 230 460 220 480" stroke="#388e3c" stroke-width="2" fill="none"/>
    <path d="M 250 450 Q 270 460 280 480" stroke="#388e3c" stroke-width="2" fill="none"/>
    <path d="M 250 450 Q 250 465 245 485" stroke="#388e3c" stroke-width="2" fill="none"/>
  </g>
  
  <!-- Sunlight rays -->
  <g opacity="0.4">
    <line x1="100" y1="50" x2="120" y2="80" stroke="#fff176" stroke-width="3"/>
    <line x1="150" y1="30" x2="170" y2="60" stroke="#fff176" stroke-width="3"/>
    <line x1="200" y1="20" x2="220" y2="50" stroke="#fff176" stroke-width="3"/>
    <line x1="300" y1="15" x2="320" y2="45" stroke="#fff176" stroke-width="3"/>
    <line x1="350" y1="25" x2="370" y2="55" stroke="#fff176" stroke-width="3"/>
  </g>
  
  <!-- Growth energy lines -->
  <g opacity="0.5">
    <path d="M 250 300 Q 245 250 250 200" stroke="#76ff03" stroke-width="2" fill="none"/>
    <path d="M 250 280 Q 255 230 250 180" stroke="#76ff03" stroke-width="2" fill="none"/>
  </g>
</svg> 